<svg width="1337" height="2725" viewBox="0 0 1337 2725" fill="none" xmlns="http://www.w3.org/2000/svg">
<path d="M379.532 281.5C430.332 199.5 424.032 59.6667 414.532 0H552.531C562.698 72.8333 573.831 243.3 537.031 342.5C491.031 466.5 390.531 463.5 379.532 611.5C368.533 759.5 993.031 856.5 1093.53 1059C1194.03 1261.5 952.031 1516.5 897.531 1569.5C843.031 1622.5 572.531 1724.5 537.031 1794C501.531 1863.5 831.531 1906.5 1000.03 1988C1168.53 2069.5 1274.03 2122.5 1325.03 2332C1365.83 2499.6 1286.36 2663.83 1241.53 2725H872.031C952.031 2668.83 1118.53 2517 1144.53 2359C1177.03 2161.5 817.531 2041 492.531 1988C167.531 1935 132.031 1860.5 115.031 1794C98.0312 1727.5 316.031 1615.5 419.531 1569.5C523.031 1523.5 867.031 1375.5 855.031 1188.5C843.031 1001.5 322.532 899 264.532 885.5C206.532 872 -2.96811 814.5 0.0318939 686C3.03189 557.5 316.032 384 379.532 281.5Z" fill="#FBF1D6"/>
</svg>
