<svg width="50" height="49" viewBox="0 0 50 49" fill="none" xmlns="http://www.w3.org/2000/svg">
<path d="M23.3018 1.26262C23.8339 -0.420872 26.1661 -0.420873 26.6982 1.26262L31.3703 16.0434C31.6081 16.796 32.2941 17.306 33.0685 17.306H48.212C49.9379 17.306 50.6586 19.5592 49.2654 20.5996L36.9941 29.7644C36.3727 30.2285 36.1128 31.0472 36.3493 31.7954L41.0318 46.6094C41.5632 48.2905 39.6764 49.6831 38.2801 48.6403L26.0534 39.5089C25.426 39.0403 24.5739 39.0403 23.9466 39.5089L11.7199 48.6403C10.3236 49.6831 8.43684 48.2905 8.96824 46.6094L13.6508 31.7954C13.8872 31.0472 13.6273 30.2285 13.0059 29.7644L0.73457 20.5996C-0.658561 19.5592 0.0620564 17.306 1.78795 17.306H16.9315C17.7059 17.306 18.3919 16.796 18.6297 16.0434L23.3018 1.26262Z" fill="#E79EDF"/>
</svg>
