<svg width="260" height="308" viewBox="0 0 260 308" fill="none" xmlns="http://www.w3.org/2000/svg">
<path d="M326.549 238.236L322.386 242.4C321.769 243.017 320.844 243.017 320.227 242.4L175.095 97.2769C174.479 96.6601 174.479 95.7348 175.095 95.118L179.259 90.9547C179.876 90.3379 180.801 90.3379 181.418 90.9547L326.549 236.078C327.166 236.694 327.166 237.62 326.549 238.236Z" fill="#666666"/>
<path d="M171.272 87.1225C169.576 88.8187 169.576 91.7485 171.272 93.4447L214.756 136.929L221.079 130.607L177.594 87.1225C175.744 85.4263 172.968 85.4263 171.272 87.1225Z" fill="#FFF7D1"/>
<path d="M211.672 26.5225C211.672 26.5225 211.98 52.8905 185.304 52.8905C211.98 52.8905 211.826 79.4128 211.826 79.4128C211.826 79.4128 213.368 52.5821 238.657 52.5821C212.905 52.4279 211.672 26.5225 211.672 26.5225Z" fill="#FFDB59"/>
<path d="M240.969 64.3025C240.969 64.3025 241.124 78.643 226.629 78.643C241.124 78.643 241.124 93.1377 241.124 93.1377C241.124 93.1377 242.049 78.4888 255.773 78.4888C241.586 78.4888 240.969 64.3025 240.969 64.3025Z" fill="#FFDB59"/>
<path d="M234.187 0C234.187 0 234.341 13.1069 221.08 13.1069C234.495 13.1069 234.341 26.3681 234.341 26.3681C234.341 26.3681 235.112 12.9527 247.757 12.9527C234.804 12.9527 234.187 0 234.187 0Z" fill="#FFDB59"/>
<path fill-rule="evenodd" clip-rule="evenodd" d="M182 147H28V284C28 297.255 62.4741 308 105 308C147.526 308 182 297.255 182 284V147Z" fill="#676767"/>
<path fill-rule="evenodd" clip-rule="evenodd" d="M28 204V233C28 242.056 62.4741 249.398 105 249.398C147.526 249.398 182 242.056 182 233V204C182 213.056 147.526 220.398 105 220.398C62.4741 220.398 28 213.056 28 204Z" fill="#FF6072"/>
<ellipse cx="105" cy="134" rx="105" ry="20" fill="#666666"/>
<ellipse cx="105" cy="134" rx="69" ry="9" fill="#46464E"/>
<path fill-rule="evenodd" clip-rule="evenodd" d="M32 149.208C50.8947 153.413 76.6338 156 105 156C133.366 156 159.105 153.413 178 149.208V148C159.105 152.205 133.366 154.792 105 154.792C76.6338 154.792 50.8947 152.205 32 148V149.208Z" fill="#46464E"/>
<path fill-rule="evenodd" clip-rule="evenodd" d="M67.6216 142.285C78.3926 143.193 91.2246 143.719 104.999 143.719C120.898 143.719 135.541 143.018 147.208 141.839C147.207 141.828 147.205 141.816 147.203 141.805C147.127 141.357 146.165 141.325 145.316 141.297H145.316C144.512 141.271 143.809 141.248 144.055 140.877C144.4 140.356 144.686 140.249 145.081 140.101C145.219 140.049 145.37 139.993 145.541 139.912C145.68 139.846 145.788 139.797 145.879 139.755C146.027 139.688 146.134 139.639 146.27 139.568C146.459 139.47 146.717 139.352 146.948 139.246C147.112 139.171 147.262 139.103 147.364 139.052C149.059 138.207 150.543 136.429 150.483 135.905C150.43 135.443 149.974 135.395 149.446 135.339C148.961 135.287 148.415 135.23 148.064 134.84C147.982 134.748 147.9 134.666 147.823 134.589C147.49 134.255 147.243 134.007 147.393 133.437C147.556 132.817 147.939 132.522 148.367 132.193C148.529 132.069 148.697 131.939 148.863 131.786C149.207 131.465 149.515 131.267 149.812 131.076C150.185 130.836 150.541 130.607 150.931 130.161C151.055 130.02 151.184 129.877 151.314 129.732C152.08 128.88 152.877 127.993 152.773 127.384C152.698 126.947 152.372 126.745 151.961 126.49C151.701 126.329 151.407 126.146 151.12 125.87C150.808 125.57 150.451 125.236 150.112 124.92L150.109 124.917L150.108 124.916L150.108 124.916C149.632 124.472 149.195 124.063 148.972 123.831C148.039 122.855 147.178 121.691 146.547 120.477C145.991 119.409 145.915 119.029 145.763 118.273C145.707 117.994 145.641 117.664 145.536 117.229C145.356 116.477 145.202 114.979 145.202 114.979C145.202 114.979 144.562 111.619 144.328 110.638C144.242 110.279 144.164 109.953 144.094 109.656C143.467 107.021 143.362 106.579 142.69 104.635C142.214 103.256 141.938 102.439 141.75 101.882L141.749 101.878L141.749 101.877C141.59 101.406 141.494 101.121 141.391 100.838C141.235 100.405 141.064 99.9772 140.633 98.8952L140.631 98.8911C140.484 98.5227 140.307 98.0786 140.09 97.5327C139.581 96.2537 139.011 95.1508 138.606 94.3691C138.197 93.5778 137.958 93.1156 138.125 93.1331C139.201 93.2452 140.234 93.1595 141.291 93.0718L141.292 93.0717C141.462 93.0576 141.633 93.0434 141.805 93.0299C143.915 92.8653 145.219 92.5614 146.924 91.2365C149.771 89.0232 149.986 84.1469 148.35 80.8141C147.126 78.3182 143.523 73.8883 143.523 73.8883C143.523 73.8883 134.692 63.4033 130.517 70.4159C129.057 72.7166 126.969 77.3105 127.229 78.8306C122.864 76.8207 114.188 73.3178 105.839 73.7724C105.518 73.771 105.181 73.7775 104.834 73.7965C104.08 73.8379 104.46 73.0313 104.788 72.3375C105.024 71.8365 105.232 71.3943 104.967 71.3722C104.195 71.3082 103.003 72.1031 102.062 72.872C101.806 73.0816 101.847 72.1888 102.19 71.6581C102.651 70.9427 103.008 70.5974 103.337 70.2804L103.337 70.2804L103.337 70.2803C103.463 70.1583 103.585 70.0404 103.707 69.9073C104.033 69.5511 102.841 69.2967 101.706 69.4137C100.81 69.506 100.268 69.7139 99.3816 70.3526C97.9902 71.3552 97.4225 72.3704 96.882 74.0322C88.0145 74.888 79.4952 80.7139 75.4062 83.8166C75.3334 82.2761 72.307 78.2417 70.3869 76.3107C64.8023 70.3659 58.4328 82.5139 58.4328 82.5139C58.4328 82.5139 55.8669 87.6187 55.2077 90.3206C54.3274 93.9287 55.5846 98.644 58.8409 100.189C60.7903 101.115 62.1292 101.129 64.2248 100.834C64.396 100.81 64.5663 100.787 64.7361 100.764C65.7872 100.621 66.8144 100.481 67.8401 100.139C68.0004 100.086 67.8662 100.589 67.6364 101.45C67.4094 102.301 67.0892 103.501 66.8674 104.86C66.7726 105.441 66.695 105.913 66.6307 106.305L66.6302 106.308C66.4413 107.458 66.3667 107.912 66.307 108.369C66.268 108.667 66.2354 108.966 66.1815 109.461L66.1815 109.461C66.1177 110.046 66.0242 110.905 65.8551 112.358C65.6174 114.401 65.6097 114.855 65.5638 117.564L65.5638 117.565C65.5586 117.871 65.553 118.205 65.5465 118.573C65.5286 119.582 65.6258 123.001 65.6258 123.001C65.6258 123.001 65.7974 124.497 65.7827 125.27C65.7742 125.718 65.7804 126.055 65.7858 126.34C65.8001 127.11 65.8074 127.498 65.4945 128.661C65.139 129.983 64.5485 131.306 63.8465 132.46C63.6794 132.735 63.3397 133.229 62.9709 133.765L62.9707 133.766C62.7071 134.149 62.4287 134.554 62.1877 134.916C61.9671 135.248 61.7192 135.489 61.5 135.703C61.1528 136.041 60.878 136.309 60.8989 136.752C60.9281 137.369 62.278 138.268 62.278 138.268C62.278 138.268 62.5953 138.441 62.8235 138.615C62.9168 138.686 63.0242 138.749 63.1269 138.809C63.2149 138.861 63.2995 138.911 63.369 138.962C63.7327 139.193 63.9721 139.318 64.2115 139.443C64.3312 139.505 64.4509 139.567 64.5861 139.643C64.9175 139.766 65.2584 139.966 65.6634 140.204C65.858 140.319 66.0503 140.409 66.2351 140.495C66.7242 140.724 67.1615 140.928 67.4535 141.499C67.6518 141.886 67.6634 142.057 67.6216 142.285Z" fill="#52C5D7"/>
<path d="M68.5047 93.5005L71.1311 88.1047C71.8509 86.6258 71.7494 84.7749 70.2823 84.0719C67.6535 82.8123 63.6705 83.0778 62.0711 87.0739C60.5637 90.8404 62.7056 94.3478 65.3151 95.3365C66.6341 95.8362 67.8808 94.7823 68.5047 93.5005Z" fill="#016F9A"/>
<path d="M136.175 86.5335L132.504 81.786C131.498 80.4848 131.22 78.652 132.513 77.6649C134.83 75.8961 138.784 75.3445 141.164 78.9309C143.407 82.3112 142.025 86.1814 139.671 87.6811C138.482 88.4391 137.047 87.6613 136.175 86.5335Z" fill="#016F9A"/>
<path d="M123.377 88.5992C126.099 90.0569 127.163 93.1025 126.092 93.7306C125.021 94.3587 123.809 94.4775 120.202 92.1721C116.595 89.8667 116.856 88.4566 117.603 87.3716C118.351 86.2867 120.656 87.1416 123.377 88.5992Z" fill="#016F9A"/>
<path d="M87.1412 94.256C84.7191 96.1699 84.2072 99.3556 85.3715 99.7855C86.5359 100.215 87.7497 100.119 90.8949 97.2146C94.0401 94.3102 93.5356 92.9678 92.6089 92.0313C91.6823 91.0948 89.5634 92.3421 87.1412 94.256Z" fill="#016F9A"/>
<ellipse cx="3.50718" cy="4.14443" rx="3.50718" ry="4.14443" transform="matrix(0.361082 0.932534 -0.905085 0.42523 94.8584 103.181)" fill="#174662"/>
<ellipse cx="3.50718" cy="4.14443" rx="3.50718" ry="4.14443" transform="matrix(-0.0466178 0.998913 0.993231 0.11616 120.121 99.0673)" fill="#174662"/>
<path fill-rule="evenodd" clip-rule="evenodd" d="M107.309 111.942C99.2372 113.212 93.0048 121.644 92.2225 134.478C91.9969 138.179 92.4002 141.213 93.4796 143.594C97.2259 143.676 101.075 143.719 105 143.719C113.79 143.719 122.197 143.505 129.929 143.114C133.543 139.163 133.312 133.706 129.611 126.858C123.054 114.728 115.382 110.673 107.309 111.942Z" fill="#BCE0E6"/>
<path d="M111.797 125.364C114.872 124.499 116.556 121.602 116.122 119.136C115.657 116.501 113.096 116.197 109.611 116.811C106.125 117.426 103.56 118.634 104.025 121.269C104.435 123.597 106.957 125.603 109.943 125.615L110.753 130.212C110.767 130.289 110.789 130.363 110.817 130.433C109.354 133.99 107.479 135.094 105.875 135.257C104.143 135.433 102.422 134.549 101.363 133.63C100.958 133.279 100.369 133.336 100.047 133.759C99.7254 134.182 99.7929 134.81 100.198 135.161C101.497 136.289 103.704 137.482 106.095 137.239C108.312 137.014 110.461 135.58 112.077 132.287C114.774 134.826 117.331 135.422 119.527 134.871C121.897 134.275 123.603 132.4 124.463 130.891C124.729 130.426 124.584 129.811 124.14 129.519C123.696 129.226 123.121 129.366 122.856 129.832C122.155 131.06 120.8 132.495 119.058 132.932C117.439 133.339 115.245 132.941 112.61 130.113C112.613 130.039 112.608 129.964 112.594 129.887L111.797 125.364Z" fill="#174662"/>
</svg>
