<svg width="469" height="623" viewBox="0 0 469 623" fill="none" xmlns="http://www.w3.org/2000/svg">
<rect x="69" y="140" width="6" height="41" fill="#C5A174"/>
<rect x="339" y="152" width="5" height="28" fill="#C5A174"/>
<rect x="52" y="150" width="11" height="195" fill="#C5A174"/>
<rect x="365.975" y="121.542" width="10" height="198.51" transform="rotate(-0.538595 365.975 121.542)" fill="#C5A174"/>
<rect x="21" y="179.882" width="361" height="87.0154" rx="3" transform="rotate(-1.09241 21 179.882)" fill="#FAEDDC"/>
<path d="M87.2155 240.635L63.6975 241.176C62.3432 241.207 61.603 240.746 61.4768 239.794C61.4665 239.342 61.6806 238.834 62.1192 238.268C62.7618 237.506 63.2149 236.809 63.4783 236.178C63.7417 235.546 63.8644 234.84 63.8464 234.059L63.6421 225.178C63.6349 224.865 63.6028 224.605 63.5459 224.398C63.4887 224.174 63.3708 223.959 63.1924 223.755C63.0136 223.533 62.7292 223.253 62.3392 222.915L61.5932 222.202C61.4325 222.015 61.3502 221.834 61.3462 221.661C61.3406 221.417 61.4141 221.216 61.5668 221.056L62.2793 220.31C62.6532 219.954 62.9247 219.67 63.0935 219.458C63.2619 219.228 63.3698 219.008 63.4171 218.799C63.464 218.572 63.4838 218.302 63.4766 217.989L63.2729 209.134C63.2545 208.336 63.0992 207.627 62.807 207.008C62.5148 206.39 62.0302 205.715 61.3533 204.983C60.889 204.438 60.6519 203.948 60.642 203.514C60.632 203.08 60.815 202.729 61.191 202.459C61.5839 202.172 62.119 202.021 62.7961 202.005L85.689 201.479C86.8697 201.451 87.6122 201.634 87.9166 202.027C88.2209 202.419 88.5023 203.325 88.7608 204.743C88.9786 205.902 89.3812 207.543 89.9686 209.667C90.025 209.856 90.0551 210.029 90.0587 210.186C90.0703 210.689 89.9147 211.101 89.592 211.421C89.2689 211.724 88.925 211.879 88.5604 211.888C87.9006 211.903 87.3481 211.673 86.9029 211.196C86.4746 210.702 86.0885 210.155 85.7446 209.555C85.4197 209.024 85.079 208.563 84.7225 208.172C84.3661 207.78 83.962 207.581 83.5101 207.574L74.9416 207.771C74.4554 207.783 74.136 207.868 73.9833 208.028C73.848 208.187 73.7862 208.519 73.7977 209.022L73.9889 217.331C74.0041 217.99 74.1181 218.413 74.3308 218.6C74.5436 218.786 74.9972 218.871 75.6917 218.855L77.4106 218.815C78.192 218.797 79.0234 218.691 79.9049 218.497C80.786 218.286 81.6183 217.841 82.4018 217.163C82.9474 216.716 83.4373 216.488 83.8714 216.478C84.3054 216.468 84.6573 216.659 84.9269 217.053C85.2135 217.428 85.3646 217.955 85.3802 218.632L85.4929 223.528C85.524 224.883 85.0549 225.632 84.0853 225.776C83.6513 225.786 83.1512 225.571 82.5852 225.133C81.7714 224.491 80.9197 224.094 80.0302 223.941C79.1403 223.77 78.3046 223.694 77.5233 223.712L75.8044 223.751C75.1099 223.767 74.6607 223.873 74.4567 224.069C74.2523 224.247 74.1579 224.675 74.1735 225.352L74.3623 233.556C74.3751 234.112 74.4529 234.475 74.5958 234.645C74.7383 234.798 75.0527 234.869 75.5388 234.858L84.7585 234.646C85.2095 234.618 85.6041 234.401 85.9422 233.993C86.2802 233.586 86.5993 233.11 86.8995 232.564C87.2154 231.949 87.5761 231.393 87.9816 230.898C88.4041 230.384 88.9452 230.12 89.605 230.104C89.9696 230.096 90.3205 230.244 90.6576 230.549C90.9943 230.837 91.1684 231.232 91.18 231.736C91.1836 231.892 91.1615 232.066 91.1138 232.259C90.6247 234.407 90.2981 236.065 90.1339 237.232C89.9409 238.661 89.7014 239.579 89.4155 239.985C89.1295 240.391 88.3962 240.608 87.2155 240.635ZM142.273 239.368L130.683 239.635C129.103 239.671 128.303 239.246 128.283 238.361C128.276 238.048 128.313 237.778 128.394 237.55C128.493 237.322 128.643 237.05 128.845 236.732C129.23 236.133 129.505 235.597 129.668 235.124C129.848 234.651 129.932 234.154 129.92 233.633C129.912 233.285 129.869 232.922 129.791 232.541L126.559 217.789C126.351 217.064 126.065 216.705 125.7 216.714C125.387 216.721 125.108 217.04 124.862 217.671C124.504 218.739 124.052 220.2 123.504 222.054C122.973 223.89 122.485 225.743 122.042 227.612C121.616 229.481 121.414 230.901 121.437 231.874C121.445 232.238 121.427 232.603 121.384 232.969C121.357 233.317 121.347 233.656 121.355 233.986C121.366 234.455 121.472 234.93 121.674 235.412C121.876 235.876 122.278 236.362 122.88 236.87C123.466 237.412 123.765 237.944 123.777 238.464C123.786 238.846 123.628 239.171 123.304 239.439C122.998 239.69 122.549 239.822 121.959 239.835L110.942 240.089C109.605 240.12 108.924 239.597 108.899 238.52C108.89 238.104 109.018 237.658 109.285 237.182C109.635 236.532 109.892 235.978 110.055 235.523C110.218 235.05 110.294 234.588 110.284 234.137C110.267 233.407 110.055 232.483 109.647 231.363L105.011 216.773C104.899 216.446 104.774 216.283 104.635 216.287C104.479 216.29 104.362 216.493 104.284 216.894L101.689 233.188C101.628 233.571 101.601 233.92 101.609 234.232C101.633 235.291 102.048 236.324 102.852 237.33C103.068 237.638 103.23 237.904 103.34 238.127C103.449 238.35 103.507 238.618 103.515 238.931C103.535 239.816 102.755 240.277 101.175 240.314L94.1693 240.475C92.8324 240.506 92.1517 239.991 92.1273 238.932C92.1166 238.463 92.3406 238.007 92.7994 237.562C93.5809 236.797 94.1641 236.097 94.5491 235.463C94.934 234.829 95.187 234.119 95.3079 233.335L96.6072 225.253C96.7309 224.59 96.789 224.093 96.7814 223.764C96.775 223.486 96.7002 223.253 96.5569 223.065C96.4305 222.86 96.2247 222.595 95.9393 222.272L95.2163 221.428C95.1267 221.309 95.0805 221.188 95.0777 221.067C95.0737 220.893 95.0879 220.754 95.1202 220.649C95.1521 220.526 95.2448 220.403 95.3983 220.278L96.2925 219.501C96.7525 219.109 97.0927 218.797 97.3133 218.566C97.5334 218.318 97.6833 218.036 97.7629 217.722C97.8425 217.407 97.9272 216.936 98.017 216.309C98.1367 215.472 98.2892 214.548 98.4744 213.536C98.6911 212.384 98.8896 211.199 99.07 209.978C99.25 208.741 99.3282 207.61 99.3046 206.585C99.281 205.561 99.1058 204.74 98.7789 204.122C98.4891 203.607 98.3392 203.133 98.3292 202.699C98.3192 202.265 98.4673 201.906 98.7734 201.621C99.0792 201.318 99.5532 201.16 100.196 201.145L111.655 200.881C112.558 200.86 113.204 200.993 113.593 201.279C113.999 201.565 114.207 201.934 114.217 202.386C114.227 202.802 114.09 203.266 113.806 203.776C113.54 204.286 113.334 204.751 113.187 205.171C113.04 205.592 112.972 206.019 112.982 206.453C112.993 206.922 113.091 207.432 113.278 207.984L115.972 216.364C116.346 217.52 116.697 218.406 117.024 219.024C117.368 219.624 117.704 219.921 118.034 219.913C118.607 219.9 119.201 218.896 119.815 216.901L122.142 209.317C122.305 208.827 122.38 208.321 122.368 207.801C122.34 206.568 121.847 205.172 120.89 203.613C120.601 203.099 120.451 202.624 120.441 202.19C120.431 201.756 120.579 201.397 120.885 201.112C121.191 200.809 121.665 200.651 122.307 200.636L133.897 200.369C134.8 200.348 135.446 200.481 135.834 200.768C136.241 201.054 136.449 201.422 136.459 201.874C136.469 202.29 136.332 202.754 136.048 203.264C135.48 204.25 135.209 205.281 135.233 206.358C135.242 206.723 135.285 207.095 135.363 207.475L137.111 215.487C137.229 216.092 137.335 216.55 137.429 216.861C137.54 217.154 137.712 217.419 137.943 217.657C138.174 217.877 138.546 218.182 139.058 218.569L139.934 219.253C140.181 219.438 140.309 219.678 140.315 219.974C140.319 220.13 140.27 220.27 140.169 220.394C139.592 221.015 139.204 221.484 139.002 221.802C138.818 222.101 138.73 222.425 138.738 222.772C138.747 223.137 138.846 223.664 139.035 224.355L140.755 232.289C140.912 233.067 141.197 233.764 141.611 234.38C142.025 234.996 142.648 235.668 143.482 236.395C143.961 236.853 144.206 237.308 144.216 237.76C144.227 238.228 144.071 238.614 143.748 238.917C143.442 239.202 142.95 239.352 142.273 239.368ZM172.328 238.676L148.81 239.217C147.456 239.249 146.716 238.788 146.589 237.835C146.579 237.384 146.793 236.875 147.232 236.309C147.874 235.547 148.327 234.851 148.591 234.219C148.854 233.588 148.977 232.881 148.959 232.1L148.755 223.219C148.748 222.906 148.715 222.647 148.659 222.439C148.601 222.215 148.483 222.001 148.305 221.796C148.126 221.574 147.842 221.294 147.452 220.956L146.706 220.243C146.545 220.056 146.463 219.876 146.459 219.702C146.453 219.459 146.527 219.257 146.679 219.097L147.392 218.351C147.766 217.995 148.037 217.711 148.206 217.499C148.375 217.269 148.482 217.049 148.53 216.84C148.577 216.613 148.596 216.343 148.589 216.031L148.386 207.176C148.367 206.377 148.212 205.668 147.92 205.05C147.627 204.431 147.143 203.756 146.466 203.025C146.002 202.479 145.765 201.99 145.755 201.556C145.745 201.122 145.928 200.77 146.304 200.501C146.697 200.214 147.232 200.062 147.909 200.047L170.802 199.52C171.982 199.493 172.725 199.675 173.029 200.068C173.334 200.461 173.615 201.366 173.873 202.785C174.091 203.944 174.494 205.585 175.081 207.708C175.138 207.898 175.168 208.071 175.171 208.227C175.183 208.731 175.027 209.142 174.705 209.462C174.382 209.765 174.038 209.921 173.673 209.929C173.013 209.944 172.461 209.714 172.016 209.238C171.587 208.744 171.201 208.197 170.857 207.597C170.532 207.066 170.192 206.604 169.835 206.213C169.479 205.822 169.075 205.623 168.623 205.616L160.054 205.813C159.568 205.824 159.249 205.909 159.096 206.069C158.961 206.229 158.899 206.56 158.91 207.064L159.102 215.372C159.117 216.032 159.231 216.455 159.443 216.641C159.656 216.827 160.11 216.912 160.804 216.896L162.523 216.857C163.305 216.839 164.136 216.733 165.018 216.539C165.899 216.327 166.731 215.883 167.514 215.204C168.06 214.758 168.55 214.529 168.984 214.519C169.418 214.509 169.77 214.701 170.04 215.094C170.326 215.47 170.477 215.996 170.493 216.673L170.606 221.57C170.637 222.924 170.168 223.673 169.198 223.817C168.764 223.827 168.264 223.613 167.698 223.174C166.884 222.533 166.032 222.135 165.143 221.982C164.253 221.811 163.417 221.735 162.636 221.753L160.917 221.793C160.223 221.809 159.773 221.914 159.569 222.11C159.365 222.289 159.271 222.716 159.286 223.394L159.475 231.598C159.488 232.153 159.566 232.516 159.708 232.687C159.851 232.84 160.165 232.911 160.651 232.899L169.871 232.687C170.322 232.659 170.717 232.442 171.055 232.035C171.393 231.627 171.712 231.151 172.012 230.605C172.328 229.99 172.689 229.435 173.094 228.939C173.517 228.425 174.058 228.161 174.718 228.146C175.082 228.137 175.433 228.286 175.77 228.591C176.107 228.878 176.281 229.274 176.293 229.777C176.296 229.934 176.274 230.108 176.226 230.3C175.737 232.448 175.411 234.106 175.247 235.274C175.054 236.703 174.814 237.62 174.528 238.026C174.242 238.432 173.509 238.649 172.328 238.676ZM212.723 237.747L202.331 237.986C201.48 238.005 200.773 237.822 200.208 237.435C199.66 237.048 199.38 236.56 199.366 235.969C199.359 235.674 199.422 235.386 199.555 235.105C199.97 234.279 200.169 233.493 200.152 232.746C200.139 232.19 199.978 231.586 199.667 230.933L196.46 224.049C196.186 223.465 195.943 223.089 195.73 222.92C195.518 222.734 195.238 222.644 194.89 222.652L192.781 222.701C192.486 222.708 192.305 222.781 192.239 222.922C192.173 223.062 192.144 223.332 192.153 223.732L192.323 231.102C192.341 231.901 192.496 232.601 192.788 233.202C193.08 233.803 193.573 234.478 194.268 235.227C194.715 235.772 194.943 236.271 194.954 236.722C194.964 237.156 194.772 237.508 194.379 237.778C194.003 238.047 193.476 238.189 192.799 238.205L181.652 238.462C180.28 238.493 179.54 238.024 179.431 237.053C179.42 236.602 179.626 236.102 180.048 235.554C180.707 234.774 181.169 234.078 181.433 233.463C181.697 232.849 181.819 232.143 181.801 231.344L181.603 222.724C181.592 222.272 181.558 221.934 181.501 221.71C181.444 221.485 181.326 221.271 181.147 221.066C180.969 220.845 180.693 220.564 180.32 220.226L179.522 219.488C179.361 219.318 179.279 219.129 179.274 218.921C179.269 218.712 179.317 218.537 179.418 218.396C179.537 218.254 179.698 218.112 179.904 217.968C180.108 217.807 180.329 217.576 180.565 217.275C180.801 216.975 181 216.544 181.161 215.985C181.339 215.425 181.417 214.659 181.395 213.686L181.227 206.42C181.209 205.604 181.053 204.895 180.761 204.294C180.47 203.693 179.976 203.018 179.282 202.269C178.835 201.724 178.606 201.234 178.596 200.8C178.586 200.366 178.769 200.014 179.145 199.745C179.521 199.458 180.056 199.307 180.751 199.291L199.659 198.856C201.968 198.803 203.898 199.262 205.449 200.234C207.017 201.188 208.202 202.446 209.002 204.009C209.819 205.554 210.249 207.229 210.29 209.034C210.39 213.393 208.724 216.48 205.292 218.296C204.811 218.567 204.576 218.903 204.585 219.302C204.595 219.719 204.753 220.193 205.061 220.725L210.476 230.684C210.857 231.423 211.262 232.039 211.691 232.533C212.136 233.026 212.837 233.635 213.791 234.36C214.535 234.969 214.914 235.585 214.928 236.211C214.938 236.627 214.764 236.987 214.406 237.291C214.048 237.577 213.487 237.729 212.723 237.747ZM194.57 216.64C196.289 216.601 197.602 216.284 198.509 215.69C199.433 215.095 200.058 214.334 200.384 213.406C200.71 212.477 200.861 211.484 200.837 210.425C200.813 209.383 200.609 208.449 200.225 207.624C199.858 206.782 199.209 206.128 198.278 205.663C197.346 205.18 196.021 204.959 194.302 204.999C193.503 205.017 192.924 205.143 192.565 205.377C192.205 205.594 191.979 205.981 191.888 206.539C191.813 207.08 191.788 207.853 191.811 208.86L191.921 213.653C191.94 214.486 191.998 215.119 192.095 215.551C192.209 215.982 192.451 216.281 192.819 216.446C193.188 216.594 193.771 216.659 194.57 216.64ZM231.721 237.831C228.422 237.889 225.708 237.361 223.581 236.246C221.452 235.114 219.747 233.459 218.463 231.282C217.179 229.088 216.154 226.419 215.386 223.275C215.156 222.325 215.02 221.677 214.977 221.33C214.954 221.105 214.915 220.923 214.86 220.786C214.822 220.63 214.59 220.366 214.164 219.994C213.881 219.74 213.437 219.316 212.832 218.722C212.689 218.551 212.615 218.362 212.611 218.153C212.606 217.945 212.671 217.753 212.806 217.576C213.382 216.954 213.806 216.51 214.078 216.244C214.469 215.852 214.679 215.578 214.711 215.421C214.759 215.264 214.798 215.072 214.828 214.845C214.854 214.497 214.961 213.852 215.148 212.91C215.77 209.734 216.672 207.029 217.854 204.795C219.035 202.545 220.663 200.813 222.737 199.602C224.811 198.373 227.497 197.711 230.796 197.618C232.306 197.583 234.116 197.733 236.226 198.067C236.819 198.174 237.289 198.224 237.637 198.216C238.088 198.206 238.513 198.188 238.912 198.161C239.329 198.134 239.754 198.116 240.188 198.106C240.83 198.091 241.374 198.313 241.819 198.772C242.263 199.213 242.604 200.074 242.842 201.354C243.098 202.634 243.254 204.532 243.312 207.05C243.351 208.734 243.105 210.112 242.573 211.184C242.06 212.256 241.325 212.802 240.37 212.824C239.936 212.834 239.515 212.661 239.107 212.306C238.7 211.951 238.374 211.385 238.13 210.609C237.714 209.107 237.285 207.831 236.844 206.782C236.402 205.732 235.794 204.938 235.017 204.4C234.257 203.845 233.157 203.583 231.715 203.616C230.604 203.642 229.562 204.013 228.588 204.731C227.631 205.43 226.856 206.456 226.262 207.807C225.684 209.141 225.418 210.78 225.463 212.724C225.488 213.836 225.682 214.691 226.043 215.291C226.421 215.873 226.788 216.333 227.143 216.673C227.339 216.876 227.5 217.073 227.626 217.261C227.769 217.431 227.842 217.612 227.847 217.803C227.821 218.186 227.612 218.564 227.221 218.938C226.848 219.311 226.494 219.806 226.161 220.421C225.827 221.02 225.673 221.875 225.699 222.986C225.744 224.93 226.085 226.564 226.724 227.887C227.379 229.192 228.201 230.181 229.189 230.853C230.194 231.507 231.253 231.822 232.364 231.796C233.753 231.764 234.692 231.065 235.182 229.699C235.542 228.718 235.702 227.385 235.663 225.701L235.625 224.034C235.606 223.218 235.327 222.417 234.788 221.63C234.249 220.843 233.623 220.067 232.91 219.302C232.446 218.739 232.208 218.241 232.198 217.807C232.188 217.373 232.371 217.021 232.747 216.752C233.141 216.482 233.685 216.34 234.379 216.324L243.078 216.123C244.432 216.092 245.172 216.553 245.299 217.505C245.304 217.731 245.24 217.985 245.108 218.266C244.992 218.546 244.852 218.845 244.685 219.161C244.37 219.794 244.175 220.372 244.1 220.895C244.042 221.417 244.021 222.008 244.036 222.668L244.275 233.034C244.303 234.266 244.237 235.171 244.077 235.748C243.916 236.308 243.646 236.67 243.268 236.835C242.889 236.983 242.387 237.064 241.762 237.078C240.842 237.099 240.19 237.08 239.806 237.019C239.44 236.941 239.013 236.907 238.527 236.918C238.18 236.926 237.713 236.998 237.125 237.133C235.033 237.563 233.232 237.796 231.721 237.831ZM263.952 236.568L252.805 236.824C252.128 236.84 251.587 236.722 251.181 236.471C250.776 236.219 250.568 235.877 250.558 235.443C250.548 234.991 250.762 234.483 251.201 233.917C251.843 233.137 252.296 232.441 252.56 231.827C252.84 231.195 252.972 230.488 252.954 229.707L252.751 220.878C252.743 220.565 252.711 220.297 252.654 220.072C252.614 219.847 252.496 219.633 252.3 219.429C252.122 219.207 251.837 218.927 251.447 218.589L250.675 217.851C250.514 217.663 250.432 217.483 250.428 217.309C250.422 217.066 250.495 216.865 250.648 216.705L251.386 215.932C251.76 215.576 252.031 215.292 252.2 215.08C252.386 214.85 252.494 214.621 252.523 214.395C252.57 214.168 252.59 213.898 252.583 213.586L252.38 204.783C252.362 203.984 252.198 203.284 251.889 202.683C251.597 202.064 251.112 201.381 250.435 200.632C249.97 200.087 249.733 199.597 249.723 199.163C249.713 198.729 249.905 198.377 250.298 198.107C250.691 197.82 251.226 197.669 251.903 197.654L263.05 197.397C264.405 197.366 265.145 197.835 265.272 198.805C265.282 199.239 265.076 199.739 264.655 200.305C264.013 201.084 263.551 201.789 263.27 202.421C263.006 203.035 262.884 203.742 262.902 204.54L263.106 213.395C263.113 213.691 263.145 213.95 263.202 214.175C263.259 214.382 263.377 214.597 263.556 214.818C263.734 215.023 264.018 215.303 264.409 215.659L265.181 216.37C265.341 216.523 265.423 216.721 265.429 216.964C265.433 217.138 265.359 217.322 265.207 217.516C264.818 217.96 264.496 218.306 264.241 218.555C263.834 218.981 263.564 219.326 263.431 219.59C263.315 219.836 263.263 220.21 263.274 220.714L263.476 229.465C263.494 230.246 263.649 230.946 263.941 231.565C264.25 232.166 264.743 232.841 265.421 233.589C265.868 234.135 266.096 234.633 266.107 235.085C266.117 235.519 265.925 235.871 265.532 236.14C265.156 236.41 264.629 236.552 263.952 236.568ZM305.18 235.619L294.163 235.872C292.948 235.9 292.172 235.771 291.835 235.483C291.515 235.178 291.35 234.808 291.341 234.374C291.328 233.818 291.42 233.304 291.618 232.83C291.8 232.461 291.887 232.068 291.877 231.652C291.867 231.2 291.69 230.709 291.348 230.178L280.432 214.43C279.913 213.747 279.453 213.41 279.054 213.419C278.568 213.431 278.334 213.844 278.353 214.66L278.686 229.115C278.704 229.913 278.859 230.613 279.151 231.215C279.46 231.816 279.953 232.49 280.631 233.239C281.077 233.768 281.305 234.257 281.316 234.709C281.326 235.143 281.143 235.503 280.767 235.79C280.391 236.059 279.856 236.202 279.162 236.218L272.39 236.373C271.036 236.405 270.296 235.944 270.17 234.991C270.159 234.54 270.365 234.031 270.786 233.466C271.428 232.687 271.881 231.99 272.145 231.376C272.426 230.761 272.557 230.055 272.539 229.256L272.34 220.61C272.33 220.175 272.296 219.846 272.239 219.622C272.182 219.38 272.063 219.157 271.885 218.952C271.653 218.68 271.111 218.162 270.26 217.4C270.1 217.23 270.017 217.041 270.012 216.833C270.007 216.624 270.081 216.431 270.233 216.254L271.023 215.454C271.362 215.099 271.616 214.815 271.785 214.603C271.954 214.391 272.062 214.171 272.109 213.944C272.155 213.7 272.173 213.352 272.163 212.9L271.966 204.332C271.947 203.516 271.783 202.807 271.474 202.206C271.182 201.605 270.697 200.93 270.02 200.181C269.556 199.636 269.319 199.146 269.309 198.712C269.297 198.191 269.522 197.813 269.986 197.576C270.467 197.339 270.924 197.216 271.359 197.206L282.375 196.952C283.591 196.924 284.358 197.063 284.678 197.368C285.015 197.656 285.188 198.017 285.198 198.451C285.211 199.007 285.118 199.504 284.92 199.943C284.739 200.381 284.653 200.826 284.664 201.277C284.673 201.694 284.84 202.151 285.164 202.647L296.106 218.395C296.643 219.077 297.103 219.414 297.484 219.405C297.971 219.394 298.204 218.981 298.186 218.165L297.854 203.736C297.835 202.92 297.671 202.212 297.362 201.611C297.07 201.009 296.585 200.334 295.908 199.586C295.444 199.04 295.207 198.551 295.197 198.117C295.187 197.683 295.37 197.331 295.746 197.062C296.139 196.775 296.682 196.623 297.377 196.607L304.148 196.451C305.503 196.42 306.243 196.881 306.369 197.833C306.379 198.267 306.174 198.776 305.753 199.359C305.11 200.138 304.649 200.835 304.368 201.449C304.104 202.064 303.981 202.779 304 203.595L304.199 212.241C304.211 212.745 304.245 213.126 304.303 213.385C304.361 213.627 304.515 213.876 304.764 214.131C305.03 214.385 305.438 214.74 305.987 215.197L306.253 215.425C306.412 215.561 306.494 215.724 306.498 215.915C306.501 216.036 306.487 216.158 306.455 216.281C306.423 216.403 306.11 216.758 305.515 217.344C305.176 217.7 304.922 217.984 304.753 218.196C304.584 218.408 304.476 218.637 304.43 218.881C304.383 219.125 304.365 219.473 304.376 219.924L304.574 228.519C304.592 229.318 304.747 230.018 305.039 230.619C305.348 231.22 305.841 231.895 306.519 232.644C306.965 233.189 307.194 233.688 307.204 234.139C307.216 234.66 306.991 235.039 306.527 235.275C306.08 235.494 305.631 235.609 305.18 235.619ZM327.564 235.625C324.265 235.683 321.551 235.155 319.423 234.04C317.295 232.908 315.59 231.253 314.306 229.077C313.022 226.883 311.997 224.214 311.229 221.07C310.999 220.119 310.862 219.471 310.82 219.125C310.797 218.899 310.758 218.718 310.703 218.58C310.665 218.425 310.433 218.161 310.007 217.788C309.723 217.534 309.279 217.11 308.675 216.516C308.532 216.346 308.458 216.156 308.454 215.948C308.449 215.74 308.514 215.547 308.649 215.37C309.225 214.749 309.649 214.305 309.921 214.038C310.312 213.647 310.522 213.373 310.553 213.216C310.602 213.058 310.641 212.866 310.671 212.64C310.697 212.292 310.804 211.646 310.991 210.704C311.613 207.528 312.514 204.823 313.697 202.59C314.878 200.339 316.506 198.608 318.58 197.396C320.654 196.167 323.34 195.506 326.639 195.413C328.149 195.378 329.959 195.527 332.069 195.861C332.662 195.969 333.132 196.019 333.48 196.011C333.931 196 334.356 195.982 334.755 195.955C335.171 195.928 335.597 195.91 336.031 195.9C336.673 195.885 337.217 196.107 337.662 196.566C338.106 197.008 338.447 197.868 338.685 199.148C338.94 200.428 339.097 202.327 339.155 204.844C339.194 206.528 338.948 207.906 338.416 208.978C337.902 210.05 337.168 210.597 336.213 210.619C335.779 210.629 335.358 210.456 334.95 210.1C334.543 209.745 334.217 209.179 333.973 208.403C333.556 206.901 333.128 205.626 332.686 204.576C332.245 203.527 331.636 202.733 330.86 202.195C330.1 201.639 328.999 201.378 327.558 201.411C326.447 201.436 325.405 201.808 324.431 202.525C323.474 203.225 322.699 204.25 322.104 205.601C321.527 206.935 321.261 208.574 321.306 210.519C321.331 211.63 321.524 212.485 321.886 213.085C322.264 213.667 322.631 214.128 322.986 214.467C323.182 214.671 323.343 214.867 323.468 215.055C323.611 215.226 323.685 215.406 323.689 215.597C323.664 215.98 323.455 216.358 323.064 216.732C322.691 217.106 322.337 217.6 322.004 218.216C321.67 218.814 321.516 219.669 321.542 220.78C321.586 222.725 321.928 224.359 322.566 225.682C323.222 226.987 324.044 227.975 325.032 228.648C326.037 229.302 327.096 229.616 328.207 229.591C329.596 229.559 330.535 228.86 331.025 227.493C331.385 226.512 331.545 225.18 331.506 223.495L331.468 221.829C331.449 221.013 331.17 220.211 330.631 219.424C330.092 218.638 329.466 217.862 328.753 217.096C328.289 216.534 328.051 216.035 328.041 215.601C328.031 215.167 328.214 214.816 328.59 214.546C328.984 214.277 329.528 214.134 330.222 214.118L338.921 213.918C340.275 213.887 341.015 214.347 341.141 215.3C341.147 215.526 341.083 215.779 340.951 216.06C340.835 216.341 340.695 216.639 340.528 216.956C340.213 217.588 340.017 218.166 339.943 218.689C339.885 219.211 339.864 219.803 339.879 220.462L340.118 230.828C340.146 232.061 340.08 232.966 339.92 233.543C339.759 234.102 339.489 234.465 339.111 234.63C338.732 234.777 338.23 234.858 337.605 234.873C336.685 234.894 336.033 234.874 335.649 234.813C335.283 234.735 334.856 234.701 334.37 234.713C334.023 234.721 333.555 234.792 332.968 234.927C330.876 235.358 329.074 235.59 327.564 235.625Z" fill="#8D683B"/>
<rect x="10" y="150" width="11" height="215" fill="#C5A174"/>
<path fill-rule="evenodd" clip-rule="evenodd" d="M393.922 609.038C393.996 610.639 395.316 611.899 396.919 611.899H412.459C414.153 611.899 415.511 610.498 415.458 608.805L410.134 438.45C410.088 436.979 411.116 435.693 412.56 435.412L425.264 432.942C426.829 432.637 427.893 431.173 427.746 429.585C426.997 421.488 425.836 398.026 436.055 387.399C445.602 377.469 459.526 375.124 465.57 374.57C467.22 374.419 468.555 373.056 468.555 371.399V352.71C468.555 351.874 468.206 351.076 467.593 350.508L429.026 314.799C428.407 314.226 427.576 313.939 426.735 314.011L372.748 318.586C370.846 318.747 369.577 320.62 370.131 322.446L382.446 363.041C382.518 363.279 382.56 363.524 382.572 363.773L393.922 609.038ZM384.333 326.433L415.565 322.583C416.503 322.467 417.44 322.8 418.095 323.481L437.919 344.098C439.628 345.876 438.582 348.841 436.136 349.153L393.409 354.599C392.029 354.775 390.71 353.979 390.221 352.676L381.892 330.464C381.21 328.647 382.407 326.67 384.333 326.433Z" fill="#93ABB8"/>
<rect x="395" y="141" width="14" height="227" fill="#C5A174"/>
<path d="M407.963 15.4143L367 15.8186C367 15.8186 374.464 114.914 376.463 138.414C377.075 145.6 388.463 152.414 398.963 151.414C409.416 150.419 418.963 142.414 417.963 127.414C415.08 84.181 407.963 15.4143 407.963 15.4143Z" fill="#ECE8E7" stroke="#ECE8E7"/>
<path d="M49.4633 106.914C60.9837 74.2453 78.9639 19.9143 78.9639 19.9143L109.464 19.4143C109.464 19.4143 84.9633 109.413 79.4633 125.914C77.9634 130.414 78.4633 136.414 74.9633 149.914C73.3076 156.301 65.9635 160.914 56.9635 160.914C50.0599 160.914 44.4639 159.414 40.9638 151.914C39.3403 148.436 39.5521 136.779 40.9638 131.414C43.4634 121.914 45.7606 117.414 49.4633 106.914Z" fill="#ECE8E7"/>
<path d="M13.4621 100.914C25.833 68.3592 43.4521 20.9108 43.4521 20.9108L79.4622 19.9143C79.4622 19.9143 48.4337 111.592 42.5276 128.036C39.9623 135.179 42.2207 134.961 38.4623 148.414C36.9634 153.78 26.4634 160.414 17.9634 160.414C9.46338 160.414 3.45734 158.899 0.962622 150.914C-1.53677 142.914 1.44679 134.261 2.96267 128.914C5.64688 119.447 9.48597 111.378 13.4621 100.914Z" fill="#DB6666"/>
<path d="M85.9627 101.414C97.4831 68.7453 109.463 19.4143 109.463 19.4143L146.463 18.4143C146.463 18.4143 124.463 112.413 118.963 128.914C117.463 133.414 117.963 141.914 114.963 152.914C113.227 159.279 101.578 163.353 92.9627 162.414C86.0998 161.666 81.8489 158.807 78.2518 152.914C76.2515 149.638 76.8401 136.279 78.2518 130.914C80.7514 121.414 82.26 111.914 85.9627 101.414Z" fill="#DB6666"/>
<path d="M124.138 108.691C133.948 74.3282 146.5 18.3187 146.5 18.3187L187.5 17.8186C187.5 17.8186 171.521 105.113 166.963 122.414C165.72 127.133 164.857 134.677 163.963 146.415C163.347 154.499 154.963 161.915 142.463 161.915C133.802 161.915 127.759 159.122 122.463 153.915C119.518 151.019 117.463 144.392 117.463 137.414C117.463 127.408 120.985 119.736 124.138 108.691Z" fill="#ECE8E7"/>
<path d="M167.557 109.914C176.019 75.1946 187.462 17.9143 187.462 17.9143L228.962 17.9143C228.962 17.9143 214.673 102.458 210.794 119.924C209.736 124.687 209.168 132.26 208.733 144.023C208.434 152.125 199.953 160.926 187.463 161.414C178.809 161.752 174.459 159.911 168.963 154.914C165.907 152.136 163.234 145.886 162.962 138.914C162.572 128.916 164.838 121.073 167.557 109.914Z" fill="#DB6666"/>
<path d="M211.464 110.415C217.554 75.2014 228.5 17.8186 228.5 17.8186L262.5 17.3186C262.5 17.3186 251.65 100.226 248.963 117.914C248.231 122.738 247.1 129.648 247.463 141.414C247.713 149.518 236.081 159.914 226.463 159.914C221.268 159.914 215.963 158.688 212.463 155.914C208.964 153.141 206.964 149.392 206.964 142.414C206.963 131.914 209.507 121.732 211.464 110.415Z" fill="#ECE8E7"/>
<path d="M250.184 111.952C254.944 75.223 262.5 17.3186 262.5 17.3186L294 16.8186C294 16.8186 294.192 93.7886 293.77 111.718C293.655 116.607 294.706 126.119 293.613 140.655C293.003 148.764 282.905 158.978 273.235 160.306C268.011 161.024 260.908 159.657 257.032 157.387C253.156 155.117 248.131 151.277 247.232 144.351C245.939 134.397 249.29 118.846 250.184 111.952Z" fill="#DB6666"/>
<path d="M292.963 111.414C294.087 74.3954 294 16.8186 294 16.8186L329 15.8186C329 15.8186 331.963 89.9143 331.963 105.914L331.963 136.914C331.963 148.306 327.464 154.414 319.964 157.414C315.068 159.372 306.544 158.292 302.464 156.414C298.383 154.537 294.54 150.218 292.963 143.414C290.698 133.636 292.753 118.363 292.963 111.414Z" fill="#ECE8E7"/>
<path d="M331.364 112.481C331.364 73.4812 329 15.8186 329 15.8186L367.5 15.3186C367.5 15.3186 373.964 95.9143 373.964 109.914C373.964 116.232 375.964 121.806 375.964 138.414C375.964 149.806 367.965 154.031 360.465 157.031C355.569 158.989 347.045 157.908 342.965 156.031C338.884 154.154 332.133 148.414 331.364 143.914C329.635 133.789 331.364 119.433 331.364 112.481Z" fill="#DB6666"/>
<path d="M59.6802 322.729L12.0302 365.084C11.3762 365.666 11.0087 366.503 11.0237 367.378L14.4482 566.488C14.4768 568.15 15.8504 569.471 17.5116 569.436L410.512 561.064C412.164 561.028 413.477 559.664 413.448 558.012L410.018 362.01C410.006 361.355 409.781 360.721 409.375 360.207L373.93 315.182C373.345 314.438 372.443 314.014 371.496 314.038L61.5965 321.972C60.8884 321.99 60.2096 322.258 59.6802 322.729Z" fill="#CFE6F6"/>
<path d="M12.5519 369.762L408.471 360.086" stroke="#91A9BA" stroke-width="2"/>
<path d="M41.5 392C36 398.371 23.5 400 23.5 400L27 533.5C27 533.5 34 537.5 37.5 543.5C40.7752 549.115 41.5 558 41.5 558L374.5 552.5C374.5 552.5 375.5 545.5 382.5 539.5C389.864 533.188 400 534.5 400 534.5L397 391.5C397 391.5 387.5 391.717 381.5 387C375.5 382.283 375 372.5 375 372.5L47.5 379.5C47.5 379.5 46.2477 386.5 41.5 392Z" stroke="#91A9BA" stroke-width="2"/>
<path d="M48 399.5L58 410" stroke="#91A9BA" stroke-width="5" stroke-linecap="square"/>
<path d="M47.5 536.841L59.609 528.865" stroke="#91A9BA" stroke-width="5" stroke-linecap="square"/>
<path d="M371.5 391.5L361.92 401.818" stroke="#91A9BA" stroke-width="5" stroke-linecap="square"/>
<path d="M375.716 530.289L364 519" stroke="#91A9BA" stroke-width="5" stroke-linecap="square"/>
<path d="M52 390L62 394" stroke="#91A9BA" stroke-width="3" stroke-linecap="square"/>
<path d="M37.8369 530.445L40.4639 520" stroke="#91A9BA" stroke-width="3" stroke-linecap="square"/>
<path d="M381 395L381 403.5" stroke="#91A9BA" stroke-width="3" stroke-linecap="square"/>
<path d="M370.5 539L362.5 539" stroke="#91A9BA" stroke-width="3" stroke-linecap="square"/>
<path d="M39 403V411.5" stroke="#91A9BA" stroke-width="3" stroke-linecap="square"/>
<path d="M50.459 548.09L58.8827 546.954" stroke="#91A9BA" stroke-width="3" stroke-linecap="square"/>
<path d="M366.5 382.5L359.5 382.5" stroke="#91A9BA" stroke-width="3" stroke-linecap="square"/>
<path d="M384.829 525.498L384.991 518.5" stroke="#91A9BA" stroke-width="3" stroke-linecap="square"/>
<path d="M407.219 359.625C407.564 360.056 408.193 360.126 408.625 359.781C409.056 359.436 409.126 358.807 408.781 358.375L407.219 359.625ZM408.781 358.375L372.781 313.375L371.219 314.625L407.219 359.625L408.781 358.375Z" fill="#91A9BA"/>
<path d="M165 551C165 588.529 134.358 619 96.5 619C58.6423 619 28 588.529 28 551C28 513.471 58.6423 483 96.5 483C134.358 483 165 513.471 165 551Z" stroke="#C5A072" stroke-width="8"/>
<path d="M53 496L136.5 607.5" stroke="#C5A072" stroke-width="8"/>
<path d="M95 481.5V619.5" stroke="#C5A072" stroke-width="8"/>
<path d="M32 528L162.5 572" stroke="#C5A072" stroke-width="8"/>
<path d="M55.5 603.5L138 497.5" stroke="#C5A072" stroke-width="8"/>
<path d="M30 569L160.5 532" stroke="#C5A072" stroke-width="8"/>
<path d="M133.65 615.789C130.66 612.052 129.162 605.372 130.483 603.789C131.982 601.99 138.982 606.366 139.482 604.99C141.482 599.49 140.983 588.99 147.15 584.289C150.707 581.578 150.15 598.789 151.65 600.289C152.65 601.289 160.482 594.99 160.982 596.99C161.749 600.058 158.507 608.289 155.651 613.289C153.652 616.789 148.151 622.589 141.651 621.289C137.85 620.529 135.651 618.289 133.65 615.789Z" fill="#D5EEAB" stroke="#D5EEAB" stroke-width="2" stroke-linecap="square"/>
<path d="M392.22 617.5C383.456 617.5 372.288 596.517 374.22 596C377.956 595 390.164 605.963 389.958 605C388.461 598 388.22 583.502 391.218 585C395.218 587 396.956 592 398.717 592C400.479 592 402.525 583 405.218 583C407.91 583 403.456 617.5 392.22 617.5Z" fill="#D5EEAB" stroke="#D5EEAB" stroke-width="2" stroke-linecap="square"/>
</svg>
