<svg width="469" height="623" viewBox="0 0 469 623" fill="none" xmlns="http://www.w3.org/2000/svg">
<rect x="69" y="140" width="6" height="41" fill="#C5A174"/>
<rect x="339" y="152" width="5" height="28" fill="#C5A174"/>
<rect x="52" y="150" width="11" height="195" fill="#C5A174"/>
<rect x="365.975" y="121.542" width="10" height="198.51" transform="rotate(-0.538595 365.975 121.542)" fill="#C5A174"/>
<rect x="21" y="179.882" width="361" height="87.0154" rx="3" transform="rotate(-1.09241 21 179.882)" fill="#FAEDDC"/>
<path d="M94.7539 240.982C91.4545 241.041 88.741 240.513 86.6134 239.398C84.4853 238.266 82.7795 236.611 81.496 234.434C80.2121 232.24 79.1865 229.571 78.4193 226.427C78.189 225.477 78.0524 224.829 78.0097 224.482C77.9872 224.257 77.9482 224.075 77.893 223.938C77.8546 223.782 77.6227 223.518 77.1972 223.146C76.9134 222.892 76.4694 222.468 75.865 221.874C75.7221 221.703 75.6483 221.514 75.6435 221.305C75.6387 221.097 75.7038 220.904 75.8387 220.728C76.415 220.106 76.8391 219.662 77.1109 219.395C77.5015 219.004 77.7123 218.73 77.7434 218.573C77.7919 218.416 77.8309 218.224 77.8605 217.997C77.8872 217.649 77.994 217.004 78.1807 216.061C78.8025 212.885 79.7044 210.181 80.8865 207.947C82.0681 205.696 83.696 203.965 85.7701 202.754C87.8438 201.525 90.53 200.863 93.8285 200.77C95.3391 200.735 97.1492 200.885 99.2589 201.218C99.852 201.326 100.322 201.376 100.669 201.368C101.121 201.358 101.546 201.34 101.945 201.313C102.361 201.286 102.787 201.268 103.221 201.258C103.863 201.243 104.407 201.465 104.852 201.924C105.296 202.365 105.637 203.226 105.875 204.506C106.13 205.786 106.287 207.684 106.345 210.202C106.384 211.886 106.137 213.264 105.606 214.336C105.092 215.407 104.358 215.954 103.403 215.976C102.969 215.986 102.548 215.813 102.14 215.458C101.733 215.103 101.407 214.537 101.163 213.761C100.746 212.259 100.317 210.983 99.8764 209.934C99.4353 208.884 98.8264 208.09 98.0496 207.552C97.2898 206.997 96.1894 206.735 94.7483 206.768C93.6371 206.794 92.5946 207.165 91.6209 207.883C90.6642 208.582 89.8886 209.608 89.2943 210.959C88.717 212.293 88.4507 213.932 88.4955 215.876C88.521 216.987 88.7145 217.843 89.0757 218.443C89.4539 219.025 89.8206 219.485 90.1759 219.824C90.3717 220.028 90.5325 220.224 90.6585 220.413C90.8014 220.583 90.875 220.764 90.8794 220.955C90.8535 221.338 90.645 221.716 90.2541 222.09C89.8805 222.463 89.527 222.958 89.1938 223.573C88.8601 224.172 88.706 225.026 88.7316 226.138C88.7764 228.082 89.118 229.716 89.7564 231.039C90.4119 232.344 91.2337 233.333 92.222 234.005C93.2273 234.659 94.2855 234.974 95.3968 234.948C96.7858 234.916 97.7252 234.217 98.2149 232.851C98.5745 231.87 98.7349 230.537 98.6962 228.853L98.6578 227.186C98.639 226.37 98.36 225.569 97.8207 224.782C97.2815 223.995 96.6556 223.219 95.9431 222.454C95.4785 221.891 95.2412 221.393 95.2312 220.959C95.2212 220.525 95.4042 220.173 95.7802 219.904C96.1735 219.634 96.7175 219.492 97.412 219.476L106.111 219.275C107.465 219.244 108.205 219.705 108.331 220.657C108.337 220.883 108.273 221.137 108.14 221.418C108.025 221.698 107.885 221.997 107.718 222.313C107.403 222.946 107.207 223.524 107.133 224.047C107.075 224.569 107.054 225.16 107.069 225.82L107.308 236.186C107.336 237.418 107.27 238.323 107.11 238.9C106.949 239.46 106.679 239.822 106.301 239.987C105.922 240.135 105.42 240.216 104.795 240.23C103.875 240.251 103.223 240.232 102.839 240.171C102.473 240.093 102.046 240.059 101.56 240.07C101.213 240.078 100.745 240.15 100.158 240.285C98.0658 240.715 96.2645 240.948 94.7539 240.982ZM139.33 239.436L115.812 239.977C114.457 240.008 113.717 239.547 113.591 238.595C113.581 238.143 113.795 237.634 114.233 237.068C114.876 236.307 115.329 235.61 115.592 234.979C115.856 234.347 115.979 233.641 115.961 232.859L115.756 223.978C115.749 223.666 115.717 223.406 115.66 223.199C115.603 222.974 115.485 222.76 115.307 222.556C115.128 222.334 114.843 222.054 114.453 221.715L113.707 221.003C113.547 220.815 113.464 220.635 113.46 220.461C113.455 220.218 113.528 220.017 113.681 219.857L114.393 219.111C114.767 218.755 115.039 218.471 115.208 218.258C115.376 218.028 115.484 217.809 115.531 217.599C115.578 217.372 115.598 217.103 115.591 216.79L115.387 207.935C115.369 207.136 115.213 206.428 114.921 205.809C114.629 205.19 114.144 204.515 113.467 203.784C113.003 203.239 112.766 202.749 112.756 202.315C112.746 201.881 112.929 201.529 113.305 201.26C113.698 200.973 114.233 200.822 114.91 200.806L137.803 200.279C138.984 200.252 139.726 200.435 140.031 200.827C140.335 201.22 140.617 202.126 140.875 203.544C141.093 204.703 141.495 206.344 142.083 208.467C142.139 208.657 142.169 208.83 142.173 208.986C142.184 209.49 142.029 209.902 141.706 210.222C141.383 210.525 141.039 210.68 140.675 210.689C140.015 210.704 139.462 210.473 139.017 209.997C138.589 209.503 138.203 208.956 137.859 208.356C137.534 207.825 137.193 207.364 136.837 206.972C136.48 206.581 136.076 206.382 135.624 206.375L127.056 206.572C126.57 206.583 126.25 206.669 126.098 206.829C125.962 206.988 125.9 207.32 125.912 207.823L126.103 216.131C126.118 216.791 126.232 217.214 126.445 217.4C126.658 217.586 127.111 217.672 127.806 217.656L129.525 217.616C130.306 217.598 131.138 217.492 132.019 217.298C132.9 217.087 133.733 216.642 134.516 215.964C135.062 215.517 135.551 215.288 135.986 215.278C136.42 215.268 136.771 215.46 137.041 215.854C137.328 216.229 137.479 216.755 137.494 217.433L137.607 222.329C137.638 223.683 137.169 224.432 136.2 224.576C135.765 224.586 135.265 224.372 134.699 223.933C133.886 223.292 133.034 222.895 132.144 222.741C131.254 222.571 130.419 222.494 129.638 222.512L127.919 222.552C127.224 222.568 126.775 222.674 126.571 222.87C126.367 223.048 126.272 223.476 126.288 224.153L126.477 232.357C126.489 232.912 126.567 233.276 126.71 233.446C126.853 233.599 127.167 233.67 127.653 233.659L136.873 233.447C137.324 233.419 137.718 233.201 138.056 232.794C138.394 232.387 138.714 231.91 139.014 231.365C139.33 230.75 139.69 230.194 140.096 229.698C140.518 229.185 141.059 228.92 141.719 228.905C142.084 228.897 142.435 229.045 142.772 229.35C143.108 229.638 143.283 230.033 143.294 230.537C143.298 230.693 143.276 230.867 143.228 231.059C142.739 233.207 142.412 234.865 142.248 236.033C142.055 237.462 141.816 238.379 141.53 238.786C141.244 239.192 140.51 239.408 139.33 239.436ZM181.443 238.466L170.427 238.72C169.211 238.748 168.435 238.618 168.098 238.33C167.779 238.025 167.614 237.655 167.604 237.221C167.591 236.666 167.683 236.151 167.881 235.678C168.064 235.309 168.15 234.916 168.141 234.499C168.13 234.048 167.954 233.557 167.612 233.026L156.696 217.277C156.176 216.594 155.717 216.258 155.317 216.267C154.831 216.278 154.597 216.692 154.616 217.508L154.949 231.962C154.967 232.761 155.122 233.461 155.414 234.062C155.723 234.663 156.217 235.338 156.894 236.087C157.34 236.615 157.569 237.105 157.579 237.556C157.589 237.99 157.406 238.351 157.031 238.637C156.655 238.907 156.12 239.049 155.425 239.065L148.654 239.221C147.299 239.252 146.559 238.791 146.433 237.839C146.422 237.387 146.628 236.879 147.049 236.313C147.691 235.534 148.144 234.838 148.408 234.223C148.689 233.609 148.821 232.902 148.802 232.104L148.603 223.457C148.593 223.023 148.56 222.694 148.503 222.469C148.445 222.227 148.327 222.004 148.148 221.8C147.916 221.527 147.375 221.01 146.523 220.248C146.363 220.078 146.28 219.888 146.276 219.68C146.271 219.472 146.344 219.279 146.497 219.102L147.286 218.302C147.625 217.946 147.879 217.663 148.048 217.45C148.217 217.238 148.325 217.018 148.372 216.791C148.418 216.547 148.436 216.199 148.426 215.748L148.229 207.179C148.21 206.363 148.046 205.655 147.737 205.054C147.445 204.453 146.961 203.778 146.283 203.029C145.819 202.484 145.582 201.994 145.572 201.56C145.56 201.039 145.786 200.66 146.249 200.424C146.73 200.187 147.188 200.063 147.622 200.053L158.639 199.8C159.854 199.772 160.622 199.911 160.941 200.216C161.278 200.503 161.451 200.864 161.461 201.298C161.474 201.854 161.381 202.351 161.183 202.79C161.002 203.229 160.917 203.674 160.927 204.125C160.937 204.542 161.103 204.998 161.428 205.495L172.37 221.242C172.906 221.925 173.366 222.262 173.748 222.253C174.234 222.242 174.468 221.828 174.449 221.012L174.117 206.584C174.098 205.768 173.934 205.059 173.625 204.458C173.333 203.857 172.849 203.182 172.171 202.433C171.707 201.888 171.47 201.398 171.46 200.964C171.45 200.53 171.633 200.178 172.009 199.909C172.402 199.622 172.946 199.471 173.64 199.455L180.412 199.299C181.766 199.268 182.506 199.728 182.632 200.681C182.642 201.115 182.437 201.623 182.016 202.206C181.374 202.986 180.912 203.682 180.631 204.297C180.367 204.911 180.245 205.626 180.263 206.442L180.462 215.089C180.474 215.592 180.509 215.974 180.567 216.233C180.624 216.475 180.778 216.723 181.027 216.978C181.293 217.233 181.701 217.588 182.25 218.044L182.516 218.273C182.675 218.408 182.757 218.571 182.762 218.762C182.765 218.884 182.75 219.006 182.718 219.128C182.686 219.25 182.373 219.605 181.778 220.192C181.439 220.547 181.185 220.831 181.016 221.043C180.847 221.256 180.74 221.484 180.693 221.728C180.647 221.973 180.629 222.32 180.639 222.772L180.837 231.366C180.855 232.165 181.01 232.865 181.302 233.466C181.611 234.067 182.105 234.742 182.782 235.491C183.229 236.037 183.457 236.535 183.468 236.987C183.48 237.507 183.254 237.886 182.79 238.123C182.344 238.341 181.895 238.456 181.443 238.466ZM213.295 237.733L189.777 238.275C188.423 238.306 187.683 237.845 187.557 236.892C187.546 236.441 187.76 235.932 188.199 235.366C188.842 234.605 189.295 233.908 189.558 233.276C189.822 232.645 189.944 231.939 189.926 231.157L189.722 222.276C189.715 221.964 189.683 221.704 189.626 221.497C189.569 221.272 189.451 221.058 189.272 220.853C189.093 220.632 188.809 220.352 188.419 220.013L187.673 219.301C187.512 219.113 187.43 218.933 187.426 218.759C187.42 218.516 187.494 218.315 187.647 218.155L188.359 217.409C188.733 217.053 189.005 216.768 189.173 216.556C189.342 216.326 189.45 216.107 189.497 215.897C189.544 215.67 189.564 215.401 189.557 215.088L189.353 206.233C189.334 205.434 189.179 204.726 188.887 204.107C188.595 203.488 188.11 202.813 187.433 202.082C186.969 201.537 186.732 201.047 186.722 200.613C186.712 200.179 186.895 199.827 187.271 199.558C187.664 199.271 188.199 199.12 188.876 199.104L211.769 198.577C212.95 198.55 213.692 198.733 213.996 199.125C214.301 199.518 214.582 200.423 214.841 201.842C215.058 203.001 215.461 204.642 216.048 206.765C216.105 206.955 216.135 207.128 216.139 207.284C216.15 207.788 215.995 208.2 215.672 208.52C215.349 208.822 215.005 208.978 214.64 208.986C213.981 209.002 213.428 208.771 212.983 208.295C212.554 207.801 212.168 207.254 211.824 206.654C211.5 206.123 211.159 205.662 210.802 205.27C210.446 204.879 210.042 204.68 209.59 204.673L201.021 204.87C200.535 204.881 200.216 204.967 200.063 205.127C199.928 205.286 199.866 205.618 199.878 206.121L200.069 214.429C200.084 215.089 200.198 215.512 200.411 215.698C200.623 215.884 201.077 215.969 201.772 215.953L203.491 215.914C204.272 215.896 205.103 215.79 205.985 215.596C206.866 215.385 207.698 214.94 208.482 214.262C209.027 213.815 209.517 213.586 209.951 213.576C210.385 213.566 210.737 213.758 211.007 214.151C211.293 214.527 211.444 215.053 211.46 215.731L211.573 220.627C211.604 221.981 211.135 222.73 210.165 222.874C209.731 222.884 209.231 222.67 208.665 222.231C207.851 221.59 207 221.192 206.11 221.039C205.22 220.869 204.385 220.792 203.603 220.81L201.884 220.85C201.19 220.866 200.741 220.972 200.537 221.167C200.332 221.346 200.238 221.774 200.253 222.451L200.442 230.655C200.455 231.21 200.533 231.573 200.676 231.744C200.818 231.897 201.133 231.968 201.619 231.957L210.838 231.744C211.289 231.717 211.684 231.499 212.022 231.092C212.36 230.684 212.679 230.208 212.979 229.663C213.295 229.047 213.656 228.492 214.062 227.996C214.484 227.483 215.025 227.218 215.685 227.203C216.05 227.195 216.4 227.343 216.737 227.648C217.074 227.935 217.248 228.331 217.26 228.835C217.263 228.991 217.241 229.165 217.194 229.357C216.705 231.505 216.378 233.163 216.214 234.331C216.021 235.76 215.781 236.677 215.495 237.083C215.209 237.49 214.476 237.706 213.295 237.733ZM253.69 236.804L243.298 237.043C242.448 237.063 241.74 236.879 241.175 236.492C240.628 236.106 240.347 235.617 240.333 235.027C240.327 234.731 240.39 234.443 240.522 234.162C240.937 233.336 241.136 232.55 241.119 231.803C241.106 231.248 240.945 230.643 240.635 229.99L237.427 223.107C237.153 222.522 236.91 222.146 236.698 221.977C236.485 221.791 236.205 221.702 235.858 221.71L233.748 221.758C233.453 221.765 233.272 221.839 233.206 221.979C233.14 222.12 233.111 222.39 233.12 222.789L233.29 230.159C233.308 230.958 233.463 231.658 233.755 232.259C234.047 232.861 234.54 233.536 235.235 234.284C235.682 234.83 235.911 235.328 235.921 235.78C235.931 236.214 235.739 236.565 235.346 236.835C234.97 237.104 234.443 237.247 233.766 237.262L222.619 237.519C221.248 237.55 220.507 237.081 220.398 236.111C220.388 235.659 220.593 235.159 221.015 234.611C221.674 233.832 222.136 233.135 222.4 232.521C222.664 231.907 222.787 231.2 222.768 230.402L222.57 221.781C222.559 221.329 222.526 220.991 222.468 220.767C222.411 220.542 222.293 220.328 222.115 220.124C221.936 219.902 221.66 219.622 221.288 219.283L220.489 218.545C220.329 218.375 220.246 218.186 220.241 217.978C220.236 217.77 220.285 217.595 220.386 217.453C220.504 217.312 220.666 217.169 220.871 217.025C221.076 216.864 221.296 216.633 221.532 216.333C221.769 216.032 221.967 215.602 222.128 215.042C222.306 214.482 222.384 213.716 222.362 212.744L222.195 205.477C222.176 204.661 222.021 203.952 221.729 203.351C221.437 202.75 220.944 202.075 220.249 201.327C219.802 200.781 219.574 200.291 219.564 199.857C219.554 199.423 219.737 199.071 220.113 198.802C220.488 198.516 221.023 198.364 221.718 198.348L240.626 197.913C242.935 197.86 244.865 198.319 246.417 199.291C247.985 200.245 249.169 201.504 249.969 203.066C250.786 204.611 251.216 206.286 251.257 208.092C251.358 212.45 249.691 215.537 246.259 217.353C245.779 217.625 245.543 217.96 245.552 218.36C245.562 218.776 245.721 219.25 246.028 219.782L251.443 229.742C251.825 230.48 252.23 231.096 252.658 231.59C253.104 232.083 253.804 232.693 254.759 233.418C255.502 234.026 255.881 234.643 255.896 235.268C255.905 235.684 255.731 236.045 255.373 236.348C255.015 236.634 254.454 236.786 253.69 236.804ZM235.537 215.698C237.256 215.658 238.569 215.341 239.476 214.747C240.4 214.152 241.026 213.391 241.352 212.463C241.678 211.535 241.829 210.541 241.804 209.482C241.78 208.44 241.576 207.507 241.193 206.682C240.826 205.839 240.177 205.185 239.245 204.72C238.313 204.238 236.988 204.016 235.269 204.056C234.47 204.074 233.891 204.2 233.532 204.435C233.172 204.651 232.946 205.039 232.855 205.597C232.781 206.137 232.755 206.911 232.778 207.918L232.888 212.71C232.908 213.543 232.966 214.176 233.062 214.608C233.177 215.04 233.418 215.338 233.787 215.503C234.155 215.651 234.738 215.716 235.537 215.698ZM293.772 235.881L282.182 236.148C281.28 236.169 280.625 236.045 280.22 235.776C279.814 235.508 279.606 235.156 279.596 234.722C279.586 234.271 279.713 233.79 279.98 233.28C280.263 232.753 280.478 232.287 280.625 231.884C280.772 231.464 280.84 231.037 280.83 230.603C280.819 230.134 280.712 229.624 280.508 229.073L280.424 228.814C280.329 228.452 280.202 228.203 280.042 228.067C279.9 227.932 279.595 227.869 279.126 227.88C277.788 227.876 274.836 227.926 270.27 228.032C269.818 228.042 269.516 228.136 269.364 228.313C269.212 228.49 269.087 228.736 268.99 229.051C268.712 229.787 268.578 230.39 268.589 230.858C268.599 231.293 268.687 231.716 268.852 232.129C269.018 232.542 269.254 232.989 269.561 233.468C269.867 233.947 270.026 234.421 270.037 234.89C270.047 235.342 269.856 235.72 269.463 236.024C269.07 236.311 268.431 236.465 267.546 236.485L260.514 236.647C259.871 236.662 259.408 236.542 259.124 236.288C258.823 236.017 258.667 235.682 258.658 235.282C258.647 234.779 258.921 234.26 259.482 233.726C260.351 232.959 261.012 232.258 261.466 231.622C261.938 230.985 262.278 230.274 262.486 229.488L264.72 221.28C264.964 220.562 265.082 220.03 265.074 219.682C265.07 219.509 265.023 219.353 264.933 219.216C264.843 219.062 264.717 218.883 264.556 218.678C263.965 217.91 263.667 217.422 263.662 217.213C263.658 217.04 263.69 216.891 263.756 216.768C263.839 216.575 264.256 216.209 265.008 215.671C265.537 215.259 265.921 214.938 266.158 214.706C266.413 214.457 266.598 214.184 266.713 213.886C266.845 213.57 266.99 213.106 267.15 212.495L269.387 204.391C269.547 203.814 269.622 203.291 269.611 202.823C269.591 201.954 269.285 201.084 268.691 200.212C268.42 199.749 268.28 199.327 268.271 198.945C268.246 197.833 268.901 197.262 270.238 197.232L281.724 196.967C282.627 196.947 283.281 197.07 283.687 197.339C284.092 197.608 284.3 197.968 284.311 198.419C284.321 198.871 284.185 199.351 283.901 199.862C283.366 200.777 283.108 201.652 283.128 202.485C283.139 202.972 283.238 203.499 283.425 204.068L285.753 211.259C286.109 212.397 286.352 213.121 286.48 213.431C286.626 213.723 286.823 213.988 287.072 214.225C287.338 214.445 287.744 214.748 288.292 215.135L289.245 215.817C289.44 215.951 289.564 216.079 289.619 216.199C289.674 216.319 289.704 216.484 289.708 216.692C289.71 216.779 289.669 216.884 289.585 217.007C289.501 217.114 289.408 217.237 289.307 217.379C288.987 217.803 288.752 218.138 288.601 218.385C288.468 218.631 288.404 218.893 288.411 219.171C288.419 219.519 288.561 220.036 288.837 220.725L291.473 228.82C291.717 229.597 292.08 230.283 292.563 230.88C293.063 231.477 293.765 232.155 294.668 232.916C295.254 233.459 295.553 233.99 295.565 234.511C295.573 234.893 295.425 235.218 295.118 235.486C294.811 235.736 294.362 235.868 293.772 235.881ZM275.157 223.02L277.735 222.935C278.082 222.927 278.252 222.732 278.243 222.35C278.24 222.211 278.219 222.064 278.181 221.908L274.788 211.511C274.621 211.046 274.442 210.815 274.251 210.82C274.078 210.824 273.918 211.062 273.773 211.534L270.888 222.076C270.808 222.356 270.769 222.574 270.773 222.73C270.779 222.991 271.008 223.116 271.459 223.105L275.157 223.02ZM322.525 235.22L300.075 235.736C298.721 235.768 297.98 235.307 297.854 234.354C297.844 233.903 298.049 233.394 298.471 232.829C299.113 232.05 299.566 231.353 299.83 230.739C300.11 230.107 300.242 229.4 300.224 228.619L300.019 219.738C300.012 219.425 299.98 219.166 299.923 218.958C299.866 218.734 299.748 218.52 299.57 218.315C299.391 218.093 299.107 217.813 298.717 217.475L297.971 216.762C297.81 216.575 297.728 216.395 297.724 216.221C297.718 215.978 297.791 215.776 297.944 215.616C298.097 215.457 298.241 215.314 298.377 215.19C298.853 214.744 299.193 214.398 299.396 214.15C299.616 213.902 299.749 213.638 299.794 213.359C299.842 213.149 299.861 212.871 299.853 212.524L299.65 203.695C299.632 202.896 299.468 202.196 299.159 201.595C298.867 200.977 298.382 200.293 297.705 199.544C297.258 198.999 297.029 198.509 297.019 198.075C297.009 197.641 297.192 197.289 297.568 197.02C297.961 196.733 298.496 196.581 299.173 196.566L310.32 196.309C311.675 196.278 312.424 196.747 312.568 197.717C312.578 198.151 312.363 198.651 311.925 199.217C311.283 199.996 310.821 200.702 310.54 201.333C310.276 201.948 310.154 202.654 310.172 203.453L310.375 212.256C310.382 212.568 310.405 212.837 310.445 213.062C310.503 213.286 310.621 213.509 310.799 213.731C310.995 213.935 311.288 214.206 311.678 214.545L312.451 215.283C312.611 215.435 312.693 215.633 312.699 215.876C312.703 216.05 312.629 216.234 312.477 216.429L311.739 217.201C311.365 217.557 311.085 217.85 310.9 218.08C310.731 218.293 310.623 218.512 310.576 218.739C310.546 218.966 310.535 219.235 310.542 219.548L310.742 228.221C310.754 228.724 310.831 229.053 310.973 229.206C311.116 229.359 311.43 229.43 311.916 229.418L320.094 229.23C320.545 229.202 320.931 228.994 321.252 228.604C321.59 228.197 321.901 227.721 322.184 227.176C322.517 226.56 322.895 225.995 323.317 225.482C323.74 224.968 324.281 224.704 324.941 224.689C325.305 224.68 325.656 224.829 325.993 225.134C326.33 225.421 326.504 225.817 326.516 226.32C326.519 226.477 326.497 226.651 326.449 226.843C325.96 228.991 325.634 230.649 325.469 231.817C325.276 233.245 325.028 234.163 324.725 234.57C324.439 234.976 323.706 235.193 322.525 235.22Z" fill="#8D683B"/>
<rect x="10" y="150" width="11" height="215" fill="#C5A174"/>
<path fill-rule="evenodd" clip-rule="evenodd" d="M393.922 609.038C393.996 610.639 395.316 611.899 396.919 611.899H412.459C414.153 611.899 415.511 610.498 415.458 608.805L410.134 438.45C410.088 436.979 411.116 435.693 412.56 435.412L425.264 432.942C426.829 432.637 427.893 431.173 427.746 429.585C426.997 421.488 425.836 398.027 436.055 387.399C445.602 377.469 459.526 375.124 465.57 374.57C467.22 374.419 468.555 373.056 468.555 371.399V352.71C468.555 351.874 468.206 351.076 467.593 350.508L429.026 314.799C428.407 314.226 427.576 313.939 426.735 314.011L372.748 318.586C370.846 318.747 369.577 320.62 370.131 322.446L382.446 363.041C382.518 363.279 382.56 363.524 382.572 363.773L393.922 609.038ZM384.333 326.433L415.565 322.583C416.503 322.467 417.44 322.8 418.095 323.481L437.919 344.098C439.628 345.876 438.582 348.841 436.136 349.153L393.409 354.599C392.029 354.775 390.71 353.979 390.221 352.676L381.892 330.464C381.21 328.647 382.407 326.67 384.333 326.433Z" fill="#B98754"/>
<rect x="395" y="141" width="14" height="227" fill="#C5A174"/>
<path d="M407.963 15.4143L367 15.8186C367 15.8186 374.464 114.914 376.463 138.414C377.075 145.6 388.463 152.414 398.963 151.414C409.416 150.419 418.963 142.414 417.963 127.414C415.08 84.181 407.963 15.4143 407.963 15.4143Z" fill="#ECE8E7" stroke="#ECE8E7"/>
<path d="M49.4633 106.914C60.9837 74.2453 78.9639 19.9143 78.9639 19.9143L109.464 19.4143C109.464 19.4143 84.9633 109.413 79.4633 125.914C77.9634 130.414 78.4633 136.414 74.9633 149.914C73.3076 156.301 65.9635 160.914 56.9635 160.914C50.0599 160.914 44.4639 159.414 40.9638 151.914C39.3403 148.436 39.5521 136.779 40.9638 131.414C43.4634 121.914 45.7606 117.414 49.4633 106.914Z" fill="#ECE8E7"/>
<path d="M13.4621 100.914C25.833 68.3592 43.4521 20.9108 43.4521 20.9108L79.4622 19.9143C79.4622 19.9143 48.4337 111.592 42.5276 128.036C39.9623 135.179 42.2207 134.961 38.4623 148.414C36.9634 153.78 26.4634 160.414 17.9634 160.414C9.46338 160.414 3.45734 158.899 0.962622 150.914C-1.53677 142.914 1.44679 134.261 2.96267 128.914C5.64688 119.447 9.48597 111.378 13.4621 100.914Z" fill="#DB6666"/>
<path d="M85.9627 101.414C97.4831 68.7453 109.463 19.4143 109.463 19.4143L146.463 18.4143C146.463 18.4143 124.463 112.413 118.963 128.914C117.463 133.414 117.963 141.914 114.963 152.914C113.227 159.279 101.578 163.353 92.9627 162.414C86.0998 161.666 81.8489 158.807 78.2518 152.914C76.2515 149.638 76.8401 136.279 78.2518 130.914C80.7514 121.414 82.26 111.914 85.9627 101.414Z" fill="#DB6666"/>
<path d="M124.138 108.691C133.948 74.3282 146.5 18.3187 146.5 18.3187L187.5 17.8186C187.5 17.8186 171.521 105.113 166.963 122.414C165.72 127.133 164.857 134.677 163.963 146.415C163.347 154.499 154.963 161.915 142.463 161.915C133.802 161.915 127.759 159.122 122.463 153.915C119.518 151.019 117.463 144.392 117.463 137.414C117.463 127.408 120.985 119.736 124.138 108.691Z" fill="#ECE8E7"/>
<path d="M167.557 109.914C176.019 75.1946 187.462 17.9143 187.462 17.9143L228.962 17.9143C228.962 17.9143 214.673 102.458 210.794 119.924C209.736 124.687 209.168 132.26 208.733 144.023C208.434 152.125 199.953 160.926 187.463 161.414C178.809 161.752 174.459 159.911 168.963 154.914C165.907 152.136 163.234 145.886 162.962 138.914C162.572 128.916 164.838 121.073 167.557 109.914Z" fill="#DB6666"/>
<path d="M211.464 110.415C217.554 75.2014 228.5 17.8186 228.5 17.8186L262.5 17.3186C262.5 17.3186 251.65 100.226 248.963 117.914C248.231 122.738 247.1 129.648 247.463 141.414C247.713 149.518 236.081 159.914 226.463 159.914C221.268 159.914 215.963 158.688 212.463 155.914C208.964 153.141 206.964 149.392 206.964 142.414C206.963 131.914 209.507 121.732 211.464 110.415Z" fill="#ECE8E7"/>
<path d="M250.184 111.952C254.944 75.223 262.5 17.3186 262.5 17.3186L294 16.8186C294 16.8186 294.192 93.7886 293.77 111.718C293.655 116.607 294.706 126.119 293.613 140.655C293.003 148.764 282.905 158.978 273.235 160.306C268.011 161.024 260.908 159.657 257.032 157.387C253.156 155.117 248.131 151.277 247.232 144.351C245.939 134.397 249.29 118.846 250.184 111.952Z" fill="#DB6666"/>
<path d="M292.963 111.414C294.087 74.3954 294 16.8186 294 16.8186L329 15.8186C329 15.8186 331.963 89.9143 331.963 105.914L331.963 136.914C331.963 148.306 327.464 154.414 319.964 157.414C315.068 159.372 306.544 158.292 302.464 156.414C298.383 154.537 294.54 150.218 292.963 143.414C290.698 133.636 292.753 118.363 292.963 111.414Z" fill="#ECE8E7"/>
<path d="M331.364 112.481C331.364 73.4812 329 15.8186 329 15.8186L367.5 15.3186C367.5 15.3186 373.964 95.9143 373.964 109.914C373.964 116.232 375.964 121.806 375.964 138.414C375.964 149.806 367.965 154.031 360.465 157.031C355.569 158.989 347.045 157.908 342.965 156.031C338.884 154.154 332.133 148.414 331.364 143.914C329.635 133.789 331.364 119.433 331.364 112.481Z" fill="#DB6666"/>
<path d="M59.6802 322.729L12.0302 365.084C11.3762 365.666 11.0087 366.503 11.0237 367.378L14.4482 566.488C14.4768 568.15 15.8504 569.471 17.5116 569.436L410.512 561.064C412.164 561.028 413.477 559.664 413.448 558.012L410.018 362.01C410.006 361.355 409.781 360.721 409.375 360.207L373.93 315.182C373.345 314.438 372.443 314.014 371.496 314.038L61.5965 321.972C60.8884 321.99 60.2096 322.258 59.6802 322.729Z" fill="#F3C384"/>
<path d="M12.5519 369.762L408.471 360.086" stroke="#B98754" stroke-width="2"/>
<path d="M41.5 392C36 398.371 23.5 400 23.5 400L27 533.5C27 533.5 34 537.5 37.5 543.5C40.7752 549.115 41.5 558 41.5 558L374.5 552.5C374.5 552.5 375.5 545.5 382.5 539.5C389.864 533.188 400 534.5 400 534.5L397 391.5C397 391.5 387.5 391.717 381.5 387C375.5 382.283 375 372.5 375 372.5L47.5 379.5C47.5 379.5 46.2477 386.5 41.5 392Z" stroke="#B98754" stroke-width="2"/>
<path d="M48 399.5L58 410" stroke="#B98754" stroke-width="5" stroke-linecap="square"/>
<path d="M47.5 536.841L59.609 528.865" stroke="#B98754" stroke-width="5" stroke-linecap="square"/>
<path d="M371.5 391.5L361.92 401.818" stroke="#B98754" stroke-width="5" stroke-linecap="square"/>
<path d="M375.716 530.289L364 519" stroke="#B98754" stroke-width="5" stroke-linecap="square"/>
<path d="M52 390L62 394" stroke="#B98754" stroke-width="3" stroke-linecap="square"/>
<path d="M37.8369 530.445L40.4639 520" stroke="#B98754" stroke-width="3" stroke-linecap="square"/>
<path d="M381 395L381 403.5" stroke="#B98754" stroke-width="3" stroke-linecap="square"/>
<path d="M370.5 539L362.5 539" stroke="#B98754" stroke-width="3" stroke-linecap="square"/>
<path d="M39 403V411.5" stroke="#B98754" stroke-width="3" stroke-linecap="square"/>
<path d="M50.459 548.09L58.8827 546.954" stroke="#B98754" stroke-width="3" stroke-linecap="square"/>
<path d="M366.5 382.5L359.5 382.5" stroke="#B98754" stroke-width="3" stroke-linecap="square"/>
<path d="M384.829 525.498L384.991 518.5" stroke="#B98754" stroke-width="3" stroke-linecap="square"/>
<path d="M407.219 359.625C407.564 360.056 408.193 360.126 408.625 359.781C409.056 359.436 409.126 358.807 408.781 358.375L407.219 359.625ZM408.781 358.375L372.781 313.375L371.219 314.625L407.219 359.625L408.781 358.375Z" fill="#B98754"/>
<path d="M165 551C165 588.529 134.358 619 96.5 619C58.6423 619 28 588.529 28 551C28 513.471 58.6423 483 96.5 483C134.358 483 165 513.471 165 551Z" stroke="#C5A072" stroke-width="8"/>
<path d="M53 496L136.5 607.5" stroke="#C5A072" stroke-width="8"/>
<path d="M95 481.5V619.5" stroke="#C5A072" stroke-width="8"/>
<path d="M32 528L162.5 572" stroke="#C5A072" stroke-width="8"/>
<path d="M55.5 603.5L138 497.5" stroke="#C5A072" stroke-width="8"/>
<path d="M30 569L160.5 532" stroke="#C5A072" stroke-width="8"/>
<path d="M135.65 608.789C132.66 605.052 131.162 598.372 132.483 596.789C133.982 594.99 140.982 599.366 141.482 597.99C143.482 592.49 142.983 581.99 149.15 577.289C152.707 574.578 152.15 591.789 153.65 593.289C154.65 594.289 162.482 587.99 162.982 589.99C163.749 593.058 160.507 601.289 157.651 606.289C155.652 609.789 150.151 615.589 143.651 614.289C139.85 613.529 137.651 611.289 135.65 608.789Z" fill="#D5EEAB" stroke="#D5EEAB" stroke-width="2" stroke-linecap="square"/>
<path d="M394.22 614.5C385.456 614.5 374.288 593.517 376.22 593C379.956 592 392.164 602.963 391.958 602C390.461 595 390.22 580.502 393.218 582C397.218 584 398.956 589 400.717 589C402.479 589 404.525 580 407.218 580C409.91 580 405.456 614.5 394.22 614.5Z" fill="#D5EEAB" stroke="#D5EEAB" stroke-width="2" stroke-linecap="square"/>
</svg>
