<svg width="1202" height="2114" viewBox="0 0 1202 2114" fill="none" xmlns="http://www.w3.org/2000/svg">
    <path d="M1200.1 1.68433C1201.21 0.5 1201.85 0 1202.5 0C1203.43 43.912 1203.63 89.5071 1204.06 133.426C1204.27 153.822 1204.55 174.213 1205.01 194.606C1205.4 212.397 1205.66 230.184 1205.75 247.978C1205.8 257.388 1205.92 266.788 1206.21 276.195C1208.13 340.293 1208.13 340.293 1190.37 359.186C1145.97 402.409 1095.3 437.955 1041.48 468.337C1012.48 484.592 984.589 502.747 955.359 518.583C953.009 519.884 950.66 521.187 948.311 522.491C929.753 532.745 910.859 542.235 891.659 551.421C865.564 563.932 839.869 577.316 813.541 589.328C801.281 594.924 789.22 600.872 777.13 606.774C770.961 609.785 764.782 612.774 758.588 615.74C737.456 625.884 716.751 636.623 696.132 647.628C691.824 649.902 687.486 652.119 683.136 654.323C673.696 659.148 664.521 664.341 655.359 669.6C653.623 670.595 651.887 671.591 650.098 672.616C629.292 684.599 608.895 696.962 589.334 710.626C585.398 713.076 585.398 713.076 581.604 713.076C581.604 714.233 581.604 715.389 581.604 716.581C577.585 719.348 573.576 721.932 569.391 724.466C560.982 729.057 560.982 729.057 555.043 735.855C553.165 735.855 551.286 735.855 549.351 735.855C548.725 737.59 548.099 739.324 547.454 741.112C543.867 744 543.867 744 539.391 747.025C530.258 753.224 522.336 760.839 514.208 768.25C499.481 781.735 471.182 801.884 462.567 819.303C393.427 939.874 314.851 1053.41 363.422 1201.94C370.935 1224.93 379.345 1247.73 391.881 1268.52C400.932 1284.43 410.727 1299.84 422.118 1314.19C460.288 1364.4 512.568 1403.4 566.888 1434.79C643.745 1479.72 726.597 1513.27 808.323 1548C830.854 1557.54 853.372 1567.12 875.871 1576.74C888.175 1582 900.526 1587.14 912.908 1592.24C971.738 1616.54 1029.01 1645.36 1084.37 1676.78C1125.35 1699.97 1167.95 1726.54 1202.48 1759C1202.6 1877.03 1202.56 1995.05 1202 2113.08C1175.96 2090.31 1158.32 2054.88 1134.43 2029.19C1103.4 1995.93 1067.59 1966.39 1029.31 1941.91C972.53 1905.77 912.802 1875.74 853.738 1843.57C783.191 1805.32 706.312 1775.96 632.133 1745.26C592.651 1728.91 553.733 1711.31 514.489 1694.42C470.062 1675.27 427.387 1652.42 383.284 1632.59C298.131 1593.63 207.78 1538.6 143.388 1468.87C121.444 1445.43 101.892 1420.85 81.8017 1395.78C42.5866 1345.88 16.6355 1278.8 6.7424 1215.96C-8.03469 1122.24 4.04827 1026.03 37.0981 937.358C37.6502 935.867 38.2023 934.376 38.7712 932.839C51.7516 898.087 66.9791 864.326 86.4262 832.226C88.1655 829.196 89.9046 826.166 91.6436 823.136C105.309 800.159 119.918 777.744 136.879 756.712C139.945 752.882 142.956 749.017 145.967 745.15C157.005 731.04 168.086 717.492 181.058 704.842C185.839 700.053 190.008 695.003 194.087 689.696C196.571 686.665 199.058 684.04 202.157 681.537C203.41 681.537 204.662 681.537 205.952 681.537C206.453 680.505 206.955 679.474 207.471 678.411C209.829 674.387 212.308 671.71 215.794 668.478C216.963 667.393 218.132 666.309 219.336 665.192C220.554 664.081 221.772 662.97 223.027 661.825C224.245 660.686 225.463 659.548 226.718 658.375C228.471 656.762 228.471 656.762 230.26 655.117C231.329 654.134 232.398 653.151 233.499 652.138C236.308 649.997 236.308 649.997 240.102 649.997C240.102 648.841 240.102 647.684 240.102 646.493C242.874 643.851 242.874 643.851 246.505 641.017C276.461 617.222 306.928 594.862 339.284 574.461C407.397 530.779 477.637 496.154 551.248 462.512C597.37 441.431 642.913 419.076 689.035 398.009C713.806 386.66 738.445 375.054 762.19 361.953C778.377 353.41 795.281 346.399 811.362 337.6C896.168 291.366 984.534 248.644 1061.01 188.793C1080.23 175.095 1099.62 156.025 1117.34 138.575C1128.64 127.242 1137.62 113.984 1147.1 101.122C1166.16 74.2804 1178.92 43.7758 1191.92 13.7084C1194.2 9.11028 1196.53 5.49982 1200.1 1.68433Z" fill="url(#paint0_linear_1931_237)"/>
    <defs>
        <linearGradient id="paint0_linear_1931_237" x1="601" y1="0" x2="601" y2="1865" gradientUnits="userSpaceOnUse">
            <stop stop-color="#FFECB7"/>
            <stop offset="0.5" stop-color="#FCF0CD"/>
            <stop offset="1" stop-color="#FFECB7"/>
        </linearGradient>
    </defs>
</svg>
