<svg width="224" height="362" viewBox="0 0 224 362" fill="none" xmlns="http://www.w3.org/2000/svg">
<path d="M210.371 125.747C208.803 143.88 202.428 160.581 192.534 174.667L26.1624 174.146C16.3727 160.011 10.1809 143.226 8.66216 125.156L210.371 125.747Z" fill="#FFF7D1"/>
<path d="M109.881 15.4931C141.947 15.5889 170.479 30.643 189.012 53.9983L30.6241 53.4228C49.128 30.2817 77.8152 15.3974 109.881 15.4931Z" fill="#FFDB59"/>
<path d="M8.27254 116.336C8.36737 92.5331 16.6353 70.6342 30.5135 53.3985L188.902 53.9739C202.579 71.2783 210.816 93.2703 210.721 117.073C210.727 119.956 210.531 122.895 210.26 125.723L8.56917 125.04C8.4703 122.138 8.27897 119.219 8.27254 116.336Z" fill="#FFF7D1"/>
<mask id="mask0_1931_713" style="mask-type:alpha" maskUnits="userSpaceOnUse" x="8" y="53" width="203" height="73">
<path d="M8.21981 116.459C8.31463 92.6561 16.5825 70.7572 30.4607 53.5215L188.849 54.0969C202.527 71.4014 210.763 93.3933 210.668 117.196C210.675 120.079 210.478 123.018 210.207 125.846L8.51644 125.163C8.41756 122.261 8.22624 119.342 8.21981 116.459Z" fill="#FFF7D1"/>
</mask>
<g mask="url(#mask0_1931_713)">
<rect x="26.0068" y="26.3135" width="4.80302" height="133.985" fill="#EFA1E6"/>
<rect x="63.3926" y="26.3135" width="4.80302" height="133.985" fill="#EFA1E6"/>
<rect x="100.778" y="26.3135" width="4.80302" height="133.985" fill="#EFA1E6"/>
<rect x="175.547" y="26.3135" width="4.80302" height="133.985" fill="#EFA1E6"/>
<rect x="138.163" y="26.3135" width="4.80302" height="133.985" fill="#EFA1E6"/>
<rect x="13.5459" y="26.3135" width="4.80302" height="133.985" fill="#EFA1E6"/>
<rect x="50.9307" y="26.3135" width="4.80302" height="133.985" fill="#EFA1E6"/>
<rect x="88.3164" y="26.3135" width="4.80302" height="133.985" fill="#EFA1E6"/>
<rect x="38.4688" y="26.3135" width="4.80302" height="133.985" fill="#EFA1E6"/>
<rect x="75.8545" y="26.3135" width="4.80302" height="133.985" fill="#EFA1E6"/>
<rect x="113.238" y="26.3135" width="4.80302" height="133.985" fill="#EFA1E6"/>
<rect x="188.009" y="26.3135" width="4.80302" height="133.985" fill="#EFA1E6"/>
<rect x="150.624" y="26.3135" width="4.80302" height="133.985" fill="#EFA1E6"/>
<rect x="125.701" y="26.3135" width="4.80302" height="133.985" fill="#EFA1E6"/>
<rect x="200.47" y="26.3135" width="4.80302" height="133.985" fill="#EFA1E6"/>
<rect x="163.085" y="26.3135" width="4.80302" height="133.985" fill="#EFA1E6"/>
</g>
<path d="M181.458 187.942C181.458 187.942 181.44 188.035 181.329 188.109C180.259 189.146 179.19 190.183 178.12 191.221C170.264 198.889 150.737 218.946 138.731 238.857L79.4975 238.673C67.6986 218.667 48.2481 198.492 40.4502 190.803C39.3021 189.807 38.2648 188.738 37.2275 187.668C37.1533 187.558 37.0608 187.539 37.0608 187.539C33.0781 183.39 29.3533 178.907 26.0714 174.128L192.443 174.649C189.201 179.387 185.533 183.849 181.458 187.942Z" fill="#EFA1E6"/>
<path fill-rule="evenodd" clip-rule="evenodd" d="M60.835 213.411C54.5598 205.931 48.4632 199.44 44.0225 194.909H175.033C170.597 199.374 164.398 205.877 157.978 213.411H60.835Z" fill="#FFF7D1"/>
<path d="M98.9569 263.652L98.1808 263.691L91.3611 263.687L89.2541 263.655L88.9585 263.693C88.3501 256.08 84.6899 247.384 79.4956 238.673L79.5881 238.691L98.9569 263.652Z" fill="#FF5F72"/>
<path d="M138.729 238.856C133.556 247.535 129.731 256.192 129.101 263.752L128.805 263.79L126.698 263.757L119.878 263.754L119.102 263.793L138.637 238.838L138.729 238.856Z" fill="#FF5F72"/>
<path d="M118.734 263.72L117.866 263.741L110.085 263.739L109.031 263.723L107.978 263.707L100.308 263.631L99.3469 263.633L109.179 238.682L118.734 263.72Z" fill="#FF5F72"/>
<path d="M109.179 238.681L99.3467 263.633L98.9586 263.652L79.6081 238.599L109.179 238.681Z" fill="#FFF7D1"/>
<path d="M138.636 238.838L119.119 263.7L118.731 263.72L109.176 238.681L138.636 238.838Z" fill="#FFF7D1"/>
<path d="M20.1914 137.634L64.9693 285.816" stroke="#2A6F97" stroke-width="2.40563" stroke-linecap="round" stroke-linejoin="round"/>
<path d="M199.303 137.634L154.525 285.816" stroke="#2A6F97" stroke-width="2.40563" stroke-linecap="round" stroke-linejoin="round"/>
<path d="M77.8945 137.634L92.6666 285.816" stroke="#2A6F97" stroke-width="2.40563" stroke-linecap="round" stroke-linejoin="round"/>
<path d="M142.061 137.634L127.288 285.816" stroke="#2A6F97" stroke-width="2.40563" stroke-linecap="round" stroke-linejoin="round"/>
<path d="M35.4258 187.951C35.4258 187.951 36.1344 157.582 51.3743 153.707C68.7772 149.282 82.5118 185.155 82.5118 185.155" stroke="#2A6F97" stroke-width="2.40563" stroke-linecap="round" stroke-linejoin="round"/>
<path d="M183.939 188.035C183.939 188.035 183.241 157.662 168.223 153.786C151.073 149.36 137.538 185.239 137.538 185.239" stroke="#2A6F97" stroke-width="2.40563" stroke-linecap="round" stroke-linejoin="round"/>
<path d="M82.5117 183.796C82.5117 183.796 86.2743 150.559 109.602 150.559C133.683 150.559 137.445 183.796 137.445 183.796" stroke="#2A6F97" stroke-width="2.40563" stroke-linecap="round" stroke-linejoin="round"/>
<path d="M38.2055 124.394C38.2055 128.348 36.6347 132.14 33.8387 134.936C31.0428 137.732 27.2507 139.303 23.2966 139.303C19.3425 139.303 15.5504 137.732 12.7544 134.936C9.95845 132.14 8.3877 128.348 8.3877 124.394L38.2055 124.394Z" fill="#FF5F72"/>
<path d="M153.18 124.394C153.18 128.348 151.609 132.14 148.813 134.936C146.017 137.732 142.225 139.303 138.271 139.303C134.317 139.303 130.525 137.732 127.729 134.936C124.933 132.14 123.362 128.348 123.362 124.394L153.18 124.394Z" fill="#FF5F72"/>
<path d="M95.8197 124.394C95.8197 128.348 94.249 132.14 91.453 134.936C88.657 137.732 84.8649 139.303 80.9108 139.303C76.9568 139.303 73.1646 137.732 70.3687 134.936C67.5727 132.14 66.002 128.348 66.002 124.394L95.8197 124.394Z" fill="#FF5F72"/>
<path d="M210.794 124.394C210.794 128.348 209.224 132.14 206.428 134.936C203.632 137.732 199.84 139.303 195.885 139.303C191.931 139.303 188.139 137.732 185.343 134.936C182.547 132.14 180.977 128.348 180.977 124.394L210.794 124.394Z" fill="#FF5F72"/>
<path d="M67.0121 124.394C67.0121 128.348 65.4413 132.14 62.6454 134.936C59.8494 137.732 56.0573 139.303 52.1032 139.303C48.1491 139.303 44.357 137.732 41.561 134.936C38.7651 132.14 37.1943 128.348 37.1943 124.394L67.0121 124.394Z" fill="#FF5F72"/>
<path d="M181.988 124.394C181.988 128.348 180.417 132.14 177.621 134.936C174.825 137.732 171.033 139.303 167.079 139.303C163.125 139.303 159.333 137.732 156.537 134.936C153.741 132.14 152.17 128.348 152.17 124.394L181.988 124.394Z" fill="#FF5F72"/>
<path d="M124.625 124.394C124.625 128.348 123.055 132.14 120.259 134.936C117.463 137.732 113.671 139.303 109.716 139.303C105.762 139.303 101.97 137.732 99.1743 134.936C96.3784 132.14 94.8076 128.348 94.8076 124.394L124.625 124.394Z" fill="#FF5F72"/>
<path d="M53.9507 53.4424C53.9507 56.8936 52.7224 60.2035 50.5361 62.6439C48.3497 65.0843 45.3843 66.4553 42.2923 66.4553C39.2002 66.4553 36.2349 65.0843 34.0485 62.6439C31.8621 60.2035 30.6338 56.8936 30.6338 53.4424L53.9507 53.4424Z" fill="#FF5F72"/>
<path d="M143.859 53.4424C143.859 56.8936 142.631 60.2035 140.444 62.6439C138.258 65.0843 135.292 66.4553 132.2 66.4553C129.108 66.4553 126.143 65.0843 123.957 62.6439C121.77 60.2035 120.542 56.8936 120.542 53.4424L143.859 53.4424Z" fill="#FF5F72"/>
<path d="M99.0035 53.4424C99.0035 56.8936 97.7752 60.2035 95.5888 62.6439C93.4024 65.0843 90.437 66.4553 87.345 66.4553C84.253 66.4553 81.2876 65.0843 79.1012 62.6439C76.9148 60.2035 75.6865 56.8936 75.6865 53.4424L99.0035 53.4424Z" fill="#FF5F72"/>
<path d="M188.913 53.4424C188.913 56.8936 187.684 60.2035 185.498 62.6439C183.312 65.0843 180.346 66.4553 177.254 66.4553C174.162 66.4553 171.197 65.0843 169.01 62.6439C166.824 60.2035 165.596 56.8936 165.596 53.4424L188.913 53.4424Z" fill="#FF5F72"/>
<path d="M76.4771 53.4424C76.4771 56.8936 75.2488 60.2035 73.0624 62.6439C70.876 65.0843 67.9107 66.4553 64.8186 66.4553C61.7266 66.4553 58.7612 65.0843 56.5748 62.6439C54.3885 60.2035 53.1602 56.8936 53.1602 53.4424L76.4771 53.4424Z" fill="#FF5F72"/>
<path d="M166.385 53.4424C166.385 56.8936 165.157 60.2035 162.971 62.6439C160.784 65.0843 157.819 66.4553 154.727 66.4553C151.635 66.4553 148.669 65.0843 146.483 62.6439C144.297 60.2035 143.068 56.8936 143.068 53.4424L166.385 53.4424Z" fill="#FF5F72"/>
<path d="M121.531 53.4424C121.531 56.8936 120.303 60.2035 118.116 62.6439C115.93 65.0843 112.964 66.4553 109.872 66.4553C106.78 66.4553 103.815 65.0843 101.629 62.6439C99.4422 60.2035 98.2139 56.8936 98.2139 53.4424L121.531 53.4424Z" fill="#FF5F72"/>
<path d="M65.6859 299.305L154.51 299.953C156.266 299.965 157.678 301.399 157.665 303.154L157.344 347.402C157.288 355.008 151.078 361.129 143.472 361.074L75.8348 360.58C68.2289 360.525 62.1078 354.314 62.1631 346.708L62.4847 302.46C62.4975 300.704 63.9307 299.292 65.6859 299.305Z" fill="#FBCD5C"/>
<rect x="57.5898" y="282.915" width="104.102" height="17.1077" rx="6.35619" fill="#FFDB59"/>
<path d="M63.5322 311.424C63.5322 311.424 65.66 317.948 78.8525 317.948C92.4704 317.948 94.5982 311.424 94.5982 311.424" stroke="#2A6F97" stroke-width="2.40563" stroke-linecap="round" stroke-linejoin="round"/>
<path d="M94.5986 311.424C94.5986 311.424 96.7477 317.948 110.072 317.948C123.826 317.948 125.975 311.424 125.975 311.424" stroke="#2A6F97" stroke-width="2.40563" stroke-linecap="round" stroke-linejoin="round"/>
<path d="M125.976 311.424C125.976 311.424 128.125 317.948 141.449 317.948C155.203 317.948 157.352 311.424 157.352 311.424" stroke="#2A6F97" stroke-width="2.40563" stroke-linecap="round" stroke-linejoin="round"/>
<path d="M122.895 315.682L128.831 315.547C128.845 315.588 128.864 315.629 128.878 315.664C130.279 319.748 132.739 323.914 133.962 328.067C134.776 330.837 135.616 334.231 134.563 338.141C133.6 341.72 130.805 344.305 127.346 344.305C123.673 344.305 121.215 344.334 118.776 340.546C116.242 336.614 115.981 331.675 117.486 326.933C118.747 322.957 120.91 319.355 122.895 315.682Z" fill="#FF5F72"/>
<path d="M127.52 313.332H123.96C123.544 313.332 123.182 313.048 123.084 312.643L122.354 309.636C122.217 309.068 122.647 308.521 123.231 308.521H128.614C129.24 308.521 129.676 309.143 129.462 309.732L128.368 312.739C128.238 313.095 127.899 313.332 127.52 313.332Z" fill="#FF5F72"/>
<rect x="122.084" y="312.731" width="7.51758" height="3.30773" rx="1.20281" fill="#2A6F97"/>
<path d="M91.3219 315.682L97.2582 315.547C97.2719 315.588 97.2906 315.629 97.3044 315.664C98.7061 319.748 101.165 323.914 102.389 328.067C103.202 330.837 104.043 334.231 102.99 338.141C102.026 341.72 99.2313 344.305 95.7732 344.305C92.1002 344.305 89.6415 344.334 87.2031 340.546C84.6692 336.614 84.4082 331.675 85.9124 326.933C87.1734 322.957 89.3369 319.355 91.3219 315.682Z" fill="#FF5F72"/>
<path d="M95.9469 313.333H92.3872C91.9709 313.333 91.6086 313.048 91.5105 312.643L90.7811 309.636C90.6434 309.068 91.0735 308.521 91.6578 308.521H97.0409C97.667 308.521 98.1027 309.144 97.8886 309.732L96.7947 312.739C96.665 313.095 96.3262 313.333 95.9469 313.333Z" fill="#FF5F72"/>
<rect x="90.5107" y="312.731" width="7.51758" height="3.30773" rx="1.20281" fill="#2A6F97"/>
</svg>
