<svg width="202" height="254" viewBox="0 0 202 254" fill="none" xmlns="http://www.w3.org/2000/svg">
<path d="M173.354 180.945L176.325 165.492L169.193 163.412V180.945H173.354Z" fill="#174662" stroke="#174662" stroke-width="1.32663"/>
<path d="M126.106 179.161L124.918 158.36L118.974 161.034L121.946 179.161H126.106Z" fill="#174662" stroke="#174662" stroke-width="1.32663"/>
<path d="M64.7227 179.568L67.6943 164.115L60.5623 162.035V179.568H64.7227Z" fill="#174662" stroke="#174662" stroke-width="1.32663"/>
<rect width="20.8018" height="73.6978" transform="matrix(-1 0 0 1 215.256 179.457)" fill="#FFF7D1"/>
<rect width="19.0188" height="73.6978" transform="matrix(-1 0 0 1 194.457 179.457)" fill="#FF5F72"/>
<rect width="20.8018" height="73.6978" transform="matrix(-1 0 0 1 175.438 179.457)" fill="#FFF7D1"/>
<rect width="19.0188" height="73.6978" transform="matrix(-1 0 0 1 154.635 179.457)" fill="#FF5F72"/>
<rect width="20.8018" height="73.6978" transform="matrix(-1 0 0 1 135.615 179.457)" fill="#FFF7D1"/>
<rect width="19.0188" height="73.6978" transform="matrix(-1 0 0 1 114.807 179.457)" fill="#FF5F72"/>
<rect width="20.8018" height="73.6978" transform="matrix(-1 0 0 1 95.792 179.457)" fill="#FFF7D1"/>
<rect width="20.8018" height="73.6978" transform="matrix(-1 0 0 1 55.9717 179.457)" fill="#FFF7D1"/>
<rect width="19.0188" height="73.6978" transform="matrix(-1 0 0 1 35.1738 179.457)" fill="#FF5F72"/>
<rect width="10.6981" height="73.6978" transform="matrix(-1 0 0 1 16.1504 179.457)" fill="#FFF7D1"/>
<rect width="5.06938" height="86.1795" transform="matrix(-1 0 0 1 28.1455 92.9775)" fill="#174662"/>
<rect width="19.0188" height="73.6978" transform="matrix(-1 0 0 1 74.9873 179.457)" fill="#FF5F72"/>
<path d="M24.7729 42.7573H44.0889L23.5843 97.4363H0.999458C5.70248 74.3007 10.6156 62.2161 24.7729 42.7573Z" fill="#FFF7D1" stroke="#FFF7D1" stroke-width="1.32663"/>
<path d="M39.3315 42.7573H58.6475L34.5768 97.4363H19.2016C21.9369 75.2524 26.7611 63.397 39.3315 42.7573Z" fill="#FF5F72" stroke="#FF5F72" stroke-width="1.32663"/>
<path d="M58.6469 42.7573H77.9629L57.4583 97.4363H34.8735C39.5765 74.3007 44.4896 62.2161 58.6469 42.7573Z" fill="#FFF7D1" stroke="#FFF7D1" stroke-width="1.32663"/>
<path d="M78.5571 42.7573H97.873L73.8024 97.4363H58.4272C61.1625 75.2524 65.9867 63.397 78.5571 42.7573Z" fill="#FF5F72" stroke="#FF5F72" stroke-width="1.32663"/>
<path d="M97.8696 42.7573H117.186L96.6809 97.4363H74.0961C78.7992 74.3007 83.7123 62.2161 97.8696 42.7573Z" fill="#FFF7D1" stroke="#FFF7D1" stroke-width="1.32663"/>
<path d="M117.788 42.7573H137.104L113.033 97.4363H97.6576C100.393 75.2524 105.217 63.397 117.788 42.7573Z" fill="#FF5F72" stroke="#FF5F72" stroke-width="1.32663"/>
<path d="M137.101 42.7573H156.417L135.912 97.4363H113.328C118.031 74.3007 122.944 62.2161 137.101 42.7573Z" fill="#FFF7D1" stroke="#FFF7D1" stroke-width="1.32663"/>
<path d="M157.009 42.7573H176.325L152.255 97.4363H136.879C139.615 75.2524 144.439 63.397 157.009 42.7573Z" fill="#FF5F72" stroke="#FF5F72" stroke-width="1.32663"/>
<path d="M176.325 42.7573H195.641L175.136 97.4363H152.551C157.254 74.3007 162.167 62.2161 176.325 42.7573Z" fill="#FFF7D1" stroke="#FFF7D1" stroke-width="1.32663"/>
<path d="M196.239 42.7573L214.366 43.0545L190.89 97.7335L175.734 97.4363C180.088 75.4852 185.37 63.6431 196.239 42.7573Z" fill="#FF5F72" stroke="#FF5F72" stroke-width="1.32663"/>
<path d="M214.958 43.0571H234.274L213.77 97.7361H191.185C195.888 74.6005 200.801 62.5159 214.958 43.0571Z" fill="#FFF7D1" stroke="#FFF7D1" stroke-width="1.32663"/>
<path d="M217.403 43.1272C217.403 19.796 198.49 0.882324 175.158 0.882324H77.1505C53.8193 0.882324 34.9055 19.796 34.9055 43.1272H217.403Z" fill="#FFF7D1"/>
<path d="M154.932 145.58C148.381 160.337 154.145 163.818 173.356 165.491C195.692 172.996 205.702 169.971 197.724 152.118C207.542 137.045 206.194 132.293 188.809 131.911C181.862 119.595 177.305 117.385 167.413 125.967C155.758 128.86 153.808 133.705 154.932 145.58Z" fill="#EFA1E6"/>
<path d="M200.694 136.667C199.185 135.658 198.34 135.868 196.831 136.667C197.053 140.769 197.52 142.655 199.208 144.988C200.303 142.849 201.318 142.514 200.694 136.667Z" fill="#FFF7D1" stroke="#FFF7D1" stroke-width="1.32663"/>
<path d="M103.521 126.562C110.295 115.415 115.016 115.533 124.62 123.888C141.514 119.583 143.281 125 140.073 141.124C151.754 149.754 147.998 163.078 121.351 160.44C101.741 166.17 96.829 163.529 99.0637 148.256C93.8113 138.51 93.0326 133.442 103.521 126.562Z" fill="#EFA1E6"/>
<path d="M136.236 125.647C134.425 125.528 133.797 126.132 132.89 127.579C135.133 131.02 136.48 132.42 139.109 133.596C138.987 131.196 139.699 130.399 136.236 125.647Z" fill="#FFF7D1" stroke="#FFF7D1" stroke-width="1.32663"/>
<path d="M46.2943 144.204C39.7434 158.961 45.507 162.442 64.7187 164.115C87.0538 171.62 97.0641 168.595 89.0865 150.742C98.9045 135.669 97.5563 130.917 80.1715 130.535C73.2239 118.219 68.6672 116.009 58.7753 124.591C47.1199 127.484 45.1704 132.329 46.2943 144.204Z" fill="#EFA1E6"/>
<path d="M92.0614 135.288C90.5527 134.28 89.707 134.489 88.1982 135.288C88.4197 139.39 88.8868 141.277 90.5756 143.609C91.6702 141.47 92.685 141.135 92.0614 135.288Z" fill="#FFF7D1" stroke="#FFF7D1" stroke-width="1.32663"/>
</svg>
