<svg width="1267" height="420" viewBox="0 0 1267 420" fill="none" xmlns="http://www.w3.org/2000/svg">
<path d="M1191.34 8.87028C1199.7 12.7196 1206.58 12.6069 1215.68 12.2873C1228.88 12.2873 1240.44 16.9908 1250.35 25.5861C1262.86 38.9033 1267.15 52.0609 1267 70.1752C1266.34 78.3637 1263.8 85.2792 1259.25 92.0801C1258.27 92.0801 1257.29 92.0801 1256.28 92.0801C1255.79 93.543 1255.31 95.0059 1254.8 96.5131C1250.89 99.2965 1247.59 100.892 1242.94 102.147C1238.01 104.092 1236.41 106.403 1233.17 110.426C1229.79 114.216 1225.72 116.915 1221.45 119.601C1220.1 120.457 1220.1 120.457 1218.73 121.33C1210.03 126.635 1200.99 129.689 1191.06 131.977C1189.92 132.242 1188.78 132.507 1187.61 132.78C1183.38 133.499 1179.57 133.527 1175.29 133.391C1173.7 133.359 1172.11 133.328 1170.47 133.295C1167.17 133.217 1163.87 133.121 1160.57 133.007C1149.9 132.835 1142.62 134.361 1133.25 139.365C1115.08 146.384 1096.94 146.81 1078.4 140.842C1071.79 137.854 1065.34 134.517 1059.61 130.037C1052.53 124.796 1045.32 126.15 1036.97 126.907C1020.62 128.337 1007.63 124.131 995.013 113.783C989.727 108.958 986.628 104.416 983.524 97.9907C982.913 96.8326 982.301 95.6745 981.671 94.4813C977.404 79.5914 981.832 62.6449 989.049 49.442C998.455 33.6516 1013.94 25.4333 1030.96 19.6756C1043.6 17.3533 1056.4 16.9406 1068.85 20.2297C1077.55 22.0213 1082.51 19.0603 1090.04 14.8386C1119.65 -1.34859 1160.28 -5.69964 1191.34 8.87028Z" fill="#F4FCFF"/>
<path d="M982.204 44.1544C991.215 49.0392 1000.84 47.7331 1010.78 47.4537C1028.47 47.0953 1043.8 52.307 1058.56 62.2765C1058.56 63.2529 1058.56 64.2293 1058.56 65.2352C1060.02 65.2352 1061.49 65.2352 1063 65.2352C1063 66.2116 1063 67.188 1063 68.1939C1063.91 68.5601 1064.83 68.9262 1065.77 69.3035C1069.49 71.4895 1070.05 73.2823 1071.88 77.0701C1073.35 77.5583 1074.82 78.0464 1076.33 78.5494C1085.01 88.0542 1086.4 97.8061 1085.92 110.327C1084.98 117.202 1083.06 121.591 1079.29 127.368C1078.31 127.368 1077.33 127.368 1076.33 127.368C1075.84 128.833 1075.35 130.297 1074.84 131.806C1073.87 131.806 1072.89 131.806 1071.88 131.806C1071.39 133.271 1070.91 134.735 1070.4 136.244C1069.43 136.244 1068.45 136.244 1067.44 136.244C1066.95 137.709 1066.46 139.173 1065.96 140.682C1049.74 152.353 1030.77 155.739 1011.17 153.996C1006.5 152.998 1001.99 151.824 997.428 150.385C988.904 148.635 981.9 151.917 974.228 155.279C960.181 160.49 947.576 162.093 932.598 161.948C930.818 161.965 929.039 161.982 927.205 162C908.489 161.939 888.837 157.061 874.941 143.641C874.941 142.665 874.941 141.688 874.941 140.682C873.627 140.413 873.627 140.413 872.286 140.139C861.57 137.869 854.138 136.079 846.806 127.368C842.596 118.955 843.757 110.917 846.164 102.109C848.693 94.7626 852.277 87.5762 857.172 81.5081C858.149 81.5081 859.126 81.5081 860.133 81.5081C860.5 80.5928 860.866 79.6774 861.244 78.7343C863.4 75.0719 865.136 74.1835 869.018 72.632C869.018 71.6556 869.018 70.6793 869.018 69.6733C875.511 65.2352 875.511 65.2352 879.383 65.2352C879.75 64.4114 880.116 63.5876 880.494 62.7388C885.853 52.8342 893.776 47.5231 903.076 41.5656C904.005 40.9477 904.935 40.3299 905.893 39.6933C927.624 26.9614 961.618 31.1342 982.204 44.1544Z" fill="#D9F3FF"/>
<path d="M557.367 309.24C559.94 311.326 562.305 313.352 564.485 315.847C564.485 316.824 564.485 317.801 564.485 318.807C565.462 318.807 566.44 318.807 567.447 318.807C567.447 320.272 567.447 321.737 567.447 323.247C568.523 323.144 569.598 323.041 570.705 322.935C575.914 323.327 577.965 324.979 581.983 328.242C583.154 329.169 584.324 330.096 585.531 331.051C586.407 331.894 587.283 332.738 588.187 333.606C588.187 334.583 588.187 335.56 588.187 336.566C589.164 336.566 590.142 336.566 591.149 336.566C601.98 349.063 608.441 360.324 607.977 376.975C607.186 382.896 605.275 388.109 601.519 392.803C600.052 393.291 598.586 393.78 597.075 394.283C597.075 395.26 597.075 396.236 597.075 397.243C586.563 402.987 576.517 407.905 564.3 407.417C559.394 407.63 556.724 409.345 552.628 411.915C547.077 414.932 540.941 416.363 534.858 417.962C533.886 418.238 532.914 418.515 531.912 418.8C514.319 422.588 494.968 417.015 480.047 407.602C478.064 405.73 476.089 403.849 474.122 401.96C466.585 395.73 459.307 396.654 450.03 397.008C434.918 397.577 421.927 394.219 410.423 383.924C407.842 380.539 406.312 377.478 404.498 373.564C403.971 372.738 403.444 371.912 402.901 371.061C400.845 365.918 401.049 360.797 401.072 355.343C401.048 354.256 401.025 353.17 401 352.05C400.993 344.338 402.523 339.023 405.979 332.126C406.957 332.126 407.935 332.126 408.942 332.126C409.278 331.302 409.614 330.478 409.961 329.629C412.477 325.2 415.491 322.159 419.312 318.807C420.778 318.807 422.245 318.807 423.756 318.807C423.756 317.83 423.756 316.854 423.756 315.847C437.972 308.931 449.735 306.38 465.59 307.336C473.257 307.611 476.996 305.607 483.01 301.048C505.385 289.745 537.772 295.315 557.367 309.24Z" fill="#F5FCFF"/>
<path d="M385.877 105.006C386.939 105.004 388.001 105.002 389.095 105C396.345 105.145 400.8 106.364 406.798 110.192C411.079 112.025 414.723 111.659 419.351 111.488C429.695 111.189 437.211 112.812 445.057 119.806C449.939 125.107 451.981 129.816 454.211 136.678C456.171 137.691 458.145 138.678 460.129 139.641C464.652 146.435 465.728 152.445 464.568 160.385C461.544 168.516 457.097 174.569 449.172 178.409C439.064 182.548 430.671 184.361 419.72 184.371C418.634 184.389 417.548 184.407 416.429 184.426C409.264 184.445 403.415 183.227 396.511 181.13C393.354 180.963 393.354 180.963 390.593 181.5C389.593 181.658 388.594 181.817 387.564 181.98C384.319 182.638 384.319 182.638 379.866 184.186C366.047 187.646 352.987 186.17 340.29 179.648C339.614 178.905 338.939 178.162 338.244 177.396C334.587 174.043 330.543 173.574 325.772 172.424C314.749 169.408 309.293 167.059 303.394 156.959C301.004 148.649 301.671 142.908 305.521 135.196C314.89 123.937 324.658 115.009 339.55 113.341C344.317 112.986 347.788 112.992 352.495 113.989C357.54 114.563 360.084 112.931 364.245 110.163C371.286 105.852 377.73 104.991 385.877 105.006Z" fill="#F4FBFF"/>
<path d="M133.684 197.262C138.217 199.64 139.428 201.971 141.671 206.424C144.621 207.463 147.598 208.428 150.586 209.356C154.724 211.536 158.791 213.809 162.473 216.685C162.473 217.652 162.473 218.62 162.473 219.617C164.68 220.342 164.68 220.342 166.931 221.083C171.746 228.12 172.876 234.824 171.388 243.07C167.76 251.949 161.76 257.33 153.558 262.127C152.577 262.731 151.597 263.336 150.586 263.959C140.862 267.556 130.198 266.542 120.015 266.289C115.142 266.168 115.142 266.168 112.038 267.977C106.658 270.58 100.941 269.936 95.0513 269.914C93.8063 269.937 92.5613 269.961 91.2786 269.985C83.4087 269.992 78.9127 268.602 71.8344 265.058C66.4923 265.005 66.4923 265.005 60.9689 265.791C52.1258 266.582 43.9238 267.017 36.1733 262.127C35.4377 259.95 35.4377 259.95 34.6874 257.729C33.7067 257.729 32.726 257.729 31.7156 257.729C27.8752 248.731 24.9878 241.507 28.7729 231.893C30.5765 228.109 32.3026 224.542 34.6874 221.083C36.1584 220.599 37.6294 220.115 39.145 219.617C39.6354 218.165 40.1257 216.714 40.6309 215.219C41.6116 215.219 42.5923 215.219 43.6027 215.219C44.093 213.768 44.5833 212.317 45.0885 210.822C55.0457 202.211 66.4074 203.196 78.7487 203.631C89.0914 203.858 95.8754 201.882 104.524 196.163C113.825 193.104 124.735 193.132 133.684 197.262Z" fill="#F5FCFF"/>
<path d="M61.412 225.709C64.0849 228.013 64.0849 228.013 65.8361 230.133C65.8361 231.107 65.8361 232.08 65.8361 233.083C67.3616 233.248 67.3616 233.248 68.918 233.417C83.5196 235.46 93.088 241.354 102.421 252.683C109.38 262.676 109.995 274.916 108.026 286.668C105.504 296.16 100.312 301.287 92.3806 306.827C84.0842 311.614 77.7524 312.933 68.2325 312.91C66.609 312.914 64.9856 312.918 63.313 312.922C58.4626 312.726 58.4626 312.726 54.0327 311.678C48.0272 311.098 45.136 313.08 39.9367 316.045C26.1875 323.471 13.7046 326 -2 326C-2 291.444 -2 256.887 -2 221.284C19.9665 211.869 40.9626 212.788 61.412 225.709Z" fill="#D7F2FF"/>
</svg>
