<svg width="417" height="522" viewBox="0 0 417 522" fill="none" xmlns="http://www.w3.org/2000/svg">
<rect x="86.1748" y="96.1196" width="5.93331" height="339.526" transform="rotate(-45 86.1748 96.1196)" fill="#2A6F97"/>
<rect x="326.177" y="91.9661" width="5.93331" height="339.526" transform="rotate(45 326.177 91.9661)" fill="#2A6F97"/>
<rect x="205.138" y="44.2031" width="5.93331" height="339.526" fill="#2A6F97"/>
<rect x="377.796" y="210.929" width="5.93331" height="339.526" transform="rotate(90 377.796 210.929)" fill="#2A6F97"/>
<path fill-rule="evenodd" clip-rule="evenodd" d="M318.025 214.043C318.025 274.747 268.815 323.958 208.111 323.958C147.407 323.958 98.1963 274.747 98.1963 214.043C98.1963 153.339 147.407 104.129 208.111 104.129C268.815 104.129 318.025 153.339 318.025 214.043ZM208.111 316.751C264.835 316.751 310.819 270.767 310.819 214.043C310.819 157.319 264.835 111.335 208.111 111.335C151.387 111.335 105.403 157.319 105.403 214.043C105.403 270.767 151.387 316.751 208.111 316.751Z" fill="#174662"/>
<path fill-rule="evenodd" clip-rule="evenodd" d="M382.995 213.896C382.995 310.563 304.63 388.928 207.962 388.928C111.294 388.928 32.9297 310.563 32.9297 213.896C32.9297 117.228 111.294 38.863 207.962 38.863C304.63 38.863 382.995 117.228 382.995 213.896ZM207.962 377.452C298.292 377.452 371.519 304.225 371.519 213.896C371.519 123.566 298.292 50.3391 207.962 50.3391C117.633 50.3391 44.4058 123.566 44.4058 213.896C44.4058 304.225 117.633 377.452 207.962 377.452Z" fill="#174662"/>
<circle cx="208.111" cy="214.044" r="93.0046" stroke="#2A6F97" stroke-width="12.6369"/>
<path d="M205.234 239.315C206.746 234.846 203.423 230.212 198.705 230.212H196.708C193.96 230.212 191.474 231.845 190.383 234.367L88.1233 470.593C86.1532 475.144 89.4896 480.224 94.4489 480.224H118.761C121.716 480.224 124.343 478.34 125.29 475.541L205.234 239.315Z" fill="#2A6F97"/>
<path d="M211.229 239.309C209.722 234.841 213.045 230.212 217.76 230.212H219.766C222.515 230.212 225 231.845 226.092 234.367L328.351 470.593C330.321 475.144 326.985 480.224 322.026 480.224H297.457C294.5 480.224 291.872 478.337 290.926 475.535L211.229 239.309Z" fill="#2A6F97"/>
<circle cx="233.184" cy="274.06" r="2.52166" transform="rotate(-21.4618 233.184 274.06)" fill="#FFF7D1"/>
<circle cx="243.387" cy="300.013" r="2.52166" transform="rotate(-21.4618 243.387 300.013)" fill="#FFF7D1"/>
<circle cx="253.591" cy="325.966" r="2.52166" transform="rotate(-21.4618 253.591 325.966)" fill="#FFF7D1"/>
<circle cx="238.285" cy="287.036" r="2.52166" transform="rotate(-21.4618 238.285 287.036)" fill="#FFF7D1"/>
<circle cx="248.489" cy="312.989" r="2.52166" transform="rotate(-21.4618 248.489 312.989)" fill="#FFF7D1"/>
<circle cx="258.691" cy="338.942" r="2.52166" transform="rotate(-21.4618 258.691 338.942)" fill="#FFF7D1"/>
<circle cx="263.793" cy="351.919" r="2.52166" transform="rotate(-21.4618 263.793 351.919)" fill="#FFF7D1"/>
<circle cx="273.997" cy="377.871" r="2.52166" transform="rotate(-21.4618 273.997 377.871)" fill="#FFF7D1"/>
<circle cx="284.2" cy="403.825" r="2.52166" transform="rotate(-21.4618 284.2 403.825)" fill="#FFF7D1"/>
<circle cx="268.894" cy="364.895" r="2.52166" transform="rotate(-21.4618 268.894 364.895)" fill="#FFF7D1"/>
<circle cx="279.099" cy="390.848" r="2.52166" transform="rotate(-21.4618 279.099 390.848)" fill="#FFF7D1"/>
<circle cx="289.301" cy="416.801" r="2.52166" transform="rotate(-21.4618 289.301 416.801)" fill="#FFF7D1"/>
<circle cx="294.402" cy="429.778" r="2.52166" transform="rotate(-21.4618 294.402 429.778)" fill="#FFF7D1"/>
<circle cx="2.52166" cy="2.52166" r="2.52166" transform="matrix(-0.930662 -0.36588 -0.36588 0.930662 186.721 272.701)" fill="#FFF7D1"/>
<circle cx="2.52166" cy="2.52166" r="2.52166" transform="matrix(-0.930662 -0.36588 -0.36588 0.930662 176.517 298.654)" fill="#FFF7D1"/>
<circle cx="2.52166" cy="2.52166" r="2.52166" transform="matrix(-0.930662 -0.36588 -0.36588 0.930662 166.313 324.607)" fill="#FFF7D1"/>
<circle cx="2.52166" cy="2.52166" r="2.52166" transform="matrix(-0.930662 -0.36588 -0.36588 0.930662 181.618 285.677)" fill="#FFF7D1"/>
<circle cx="2.52166" cy="2.52166" r="2.52166" transform="matrix(-0.930662 -0.36588 -0.36588 0.930662 171.415 311.63)" fill="#FFF7D1"/>
<circle cx="2.52166" cy="2.52166" r="2.52166" transform="matrix(-0.930662 -0.36588 -0.36588 0.930662 161.213 337.583)" fill="#FFF7D1"/>
<circle cx="2.52166" cy="2.52166" r="2.52166" transform="matrix(-0.930662 -0.36588 -0.36588 0.930662 156.111 350.56)" fill="#FFF7D1"/>
<circle cx="2.52166" cy="2.52166" r="2.52166" transform="matrix(-0.930662 -0.36588 -0.36588 0.930662 145.907 376.513)" fill="#FFF7D1"/>
<circle cx="2.52166" cy="2.52166" r="2.52166" transform="matrix(-0.930662 -0.36588 -0.36588 0.930662 135.704 402.466)" fill="#FFF7D1"/>
<circle cx="2.52166" cy="2.52166" r="2.52166" transform="matrix(-0.930662 -0.36588 -0.36588 0.930662 151.009 363.536)" fill="#FFF7D1"/>
<circle cx="2.52166" cy="2.52166" r="2.52166" transform="matrix(-0.930662 -0.36588 -0.36588 0.930662 140.806 389.489)" fill="#FFF7D1"/>
<circle cx="2.52166" cy="2.52166" r="2.52166" transform="matrix(-0.930662 -0.36588 -0.36588 0.930662 130.604 415.442)" fill="#FFF7D1"/>
<circle cx="2.52166" cy="2.52166" r="2.52166" transform="matrix(-0.930662 -0.36588 -0.36588 0.930662 125.501 428.419)" fill="#FFF7D1"/>
<path d="M223.685 261.361C234.514 259.878 234.959 259.433 243.562 257.06C248.457 254.983 254.493 252.581 254.352 250.586C254.317 250.083 253.201 249.939 252.216 249.811C251.284 249.691 250.469 249.585 250.799 249.205C251.425 248.483 251.835 248.578 252.645 248.308C253.09 248.16 253.265 248.113 253.535 248.011C253.929 247.863 254.568 247.674 254.87 247.566C256.944 246.826 258.884 245.033 258.877 244.449C258.871 243.932 258.345 243.827 257.737 243.706C257.179 243.594 256.551 243.468 256.189 242.998C256.104 242.888 256.019 242.788 255.939 242.694C255.591 242.288 255.334 241.986 255.576 241.374C255.839 240.708 256.321 240.427 256.859 240.112C257.062 239.993 257.273 239.87 257.484 239.719C257.924 239.405 258.305 239.221 258.674 239.044C259.137 238.821 259.579 238.609 260.087 238.161C260.247 238.02 260.415 237.876 260.583 237.732C261.576 236.879 262.611 235.99 262.563 235.306C262.528 234.816 262.173 234.556 261.725 234.227C261.442 234.02 261.121 233.785 260.821 233.448C260.492 233.08 260.115 232.67 259.758 232.281L259.757 232.28L259.757 232.28C259.257 231.736 258.796 231.235 258.565 230.953C257.595 229.771 256.733 228.389 256.144 226.977C255.625 225.736 255.582 225.308 255.496 224.457C255.464 224.143 255.427 223.771 255.357 223.278C255.237 222.428 255.237 220.758 255.237 220.758C255.237 220.758 254.895 216.977 254.74 215.869C254.683 215.463 254.632 215.095 254.585 214.758C254.171 211.779 254.102 211.281 253.554 209.059C253.164 207.48 252.941 206.547 252.789 205.91L252.788 205.909C252.66 205.371 252.582 205.045 252.497 204.721C252.367 204.226 252.22 203.735 251.847 202.492L251.846 202.487C251.719 202.064 251.566 201.554 251.378 200.927C250.94 199.458 250.407 198.176 250.03 197.267C249.649 196.348 249.426 195.81 249.619 195.849C250.857 196.095 252.07 196.117 253.31 196.141C253.511 196.144 253.712 196.148 253.914 196.153C256.389 196.211 257.944 196.024 260.087 194.755C263.666 192.637 264.5 187.28 262.996 183.417C261.87 180.524 258.207 175.227 258.207 175.227C258.207 175.227 249.186 162.654 243.485 169.917C241.511 172.29 238.53 177.122 238.65 178.829C233.811 176.115 224.133 171.264 214.361 170.818C213.988 170.78 213.594 170.748 213.188 170.73C212.306 170.69 212.845 169.843 213.309 169.115C213.644 168.589 213.94 168.125 213.633 168.07C212.743 167.912 211.26 168.653 210.073 169.395C209.75 169.597 209.905 168.617 210.367 168.07C210.989 167.333 211.447 166.993 211.867 166.68C212.029 166.56 212.185 166.444 212.343 166.311C212.765 165.955 211.408 165.538 210.073 165.539C209.019 165.539 208.363 165.706 207.255 166.311C205.515 167.259 204.733 168.314 203.905 170.087C193.481 170.024 182.868 175.484 177.737 178.443C177.836 176.735 174.797 171.94 172.794 169.591C167.006 162.397 158.137 175.078 158.137 175.078C158.137 175.078 154.539 180.419 153.448 183.326C151.991 187.207 152.889 192.553 156.494 194.628C158.652 195.87 160.209 196.038 162.683 195.951C162.885 195.943 163.086 195.937 163.287 195.931C164.527 195.893 165.74 195.855 166.974 195.595C167.167 195.554 166.951 196.094 166.58 197.018C166.214 197.931 165.698 199.219 165.277 200.693C165.096 201.325 164.949 201.838 164.827 202.264C164.469 203.511 164.328 204.004 164.204 204.501C164.123 204.826 164.049 205.152 163.927 205.692C163.783 206.331 163.571 207.267 163.2 208.852C162.678 211.079 162.615 211.579 162.237 214.563C162.194 214.9 162.148 215.268 162.096 215.675C161.954 216.785 161.658 220.57 161.658 220.57C161.658 220.57 161.678 222.24 161.568 223.092C161.505 223.585 161.472 223.957 161.444 224.272C161.368 225.124 161.33 225.552 160.827 226.8C160.254 228.218 159.409 229.611 158.453 230.805C158.226 231.089 157.771 231.596 157.278 232.146C156.925 232.539 156.552 232.954 156.228 233.326C155.932 233.667 155.614 233.906 155.334 234.116C154.889 234.45 154.537 234.715 154.508 235.206C154.468 235.89 155.932 237.035 155.932 237.035C155.932 237.035 156.28 237.262 156.525 237.48C156.711 237.645 156.956 237.785 157.118 237.925C157.712 238.37 158.008 238.518 158.453 238.815C158.824 238.988 159.197 239.248 159.64 239.556C159.853 239.705 160.066 239.826 160.271 239.942C160.812 240.25 161.297 240.526 161.568 241.188C161.818 241.798 161.717 241.93 161.568 242.375C161.446 242.741 160.827 243.116 160.827 243.116C160.827 243.116 159.992 243.428 159.436 243.546C158.829 243.675 158.305 243.787 158.305 244.303C158.305 244.887 159.097 246.095 162.903 247.566C163.215 247.644 163.503 247.711 163.77 247.773C165.023 248.065 165.805 248.247 166.44 248.961C166.774 249.337 165.96 249.453 165.03 249.584C164.046 249.724 162.933 249.881 162.903 250.385C162.787 252.381 168.349 255.734 173.435 257.06C187.672 260.769 199.393 261.361 199.393 261.361C199.393 261.361 212.857 262.845 223.685 261.361Z" fill="#33C2FF"/>
<path d="M168.339 188.654L172.363 182.509C173.299 181.081 173.38 179.155 171.928 178.255C169.036 176.463 164.215 176.203 161.824 180.523C159.518 184.688 161.888 188.995 165.012 190.18C166.3 190.669 167.585 189.806 168.339 188.654Z" fill="#016F9A"/>
<path d="M248.341 188.654L244.318 182.509C243.382 181.081 243.301 179.155 244.752 178.255C247.644 176.463 252.465 176.203 254.857 180.523C257.163 184.688 254.793 188.995 251.668 190.18C250.381 190.669 249.096 189.806 248.341 188.654Z" fill="#016F9A"/>
<path d="M185.303 235.049C188.576 221.128 197.334 212.983 206.895 213.005C216.456 213.028 224.572 218.812 229.908 233.247C235.244 247.682 228.803 255.429 208.3 255.429C188.974 255.429 182.03 248.97 185.303 235.049Z" fill="#A3CFFF"/>
<path d="M228.218 196.572C231.801 197.007 234.234 199.743 233.326 200.817C232.417 201.891 231.142 202.494 226.237 201.53C221.332 200.567 221.029 199.003 221.394 197.583C221.759 196.163 224.636 196.137 228.218 196.572Z" fill="#016F9A"/>
<path d="M187.522 196.572C183.939 197.007 181.506 199.743 182.414 200.817C183.323 201.892 184.598 202.494 189.503 201.531C194.408 200.567 194.711 199.003 194.346 197.583C193.981 196.163 191.105 196.137 187.522 196.572Z" fill="#016F9A"/>
<ellipse cx="3.89972" cy="4.8307" rx="3.89972" ry="4.8307" transform="matrix(0.217331 0.976098 -0.965337 0.261006 192.909 203.693)" fill="#174662"/>
<ellipse cx="3.89972" cy="4.8307" rx="3.89972" ry="4.8307" transform="matrix(-0.217331 0.976098 0.965337 0.261006 222.857 203.692)" fill="#174662"/>
<path d="M209.344 229.592C213.063 229.24 215.593 226.4 215.593 223.622C215.593 220.654 212.704 219.828 208.563 219.828C204.421 219.828 201.22 220.654 201.22 223.622C201.22 226.245 203.719 228.922 207.157 229.51V234.688C207.157 234.775 207.167 234.86 207.186 234.941C204.777 238.546 202.392 239.39 200.511 239.259C198.479 239.118 196.676 237.821 195.642 236.613C195.247 236.151 194.556 236.1 194.1 236.5C193.643 236.9 193.593 237.599 193.988 238.061C195.256 239.543 197.557 241.272 200.361 241.467C202.962 241.648 205.729 240.495 208.26 237.209C210.853 240.503 213.677 241.646 216.32 241.467C219.172 241.273 221.519 239.553 222.817 238.071C223.217 237.613 223.175 236.914 222.723 236.509C222.271 236.103 221.58 236.146 221.179 236.603C220.123 237.811 218.27 239.116 216.173 239.259C214.225 239.391 211.778 238.535 209.316 234.937C209.334 234.857 209.344 234.773 209.344 234.688V229.592Z" fill="#174662"/>
<path d="M207.963 74.1664C228.444 74.1664 245.046 57.5637 245.046 37.0832C245.046 16.6027 228.444 0 207.963 0C187.483 0 170.88 16.6027 170.88 37.0832C170.88 57.5637 187.483 74.1664 207.963 74.1664Z" fill="#FFF7D1"/>
<rect x="184.528" y="11.5698" width="4.74665" height="26.4032" fill="#FF5F72"/>
<rect x="226.358" y="11.5698" width="4.74665" height="26.4032" fill="#FF5F72"/>
<path d="M245.046 37.0833C245.046 57.566 228.446 74.1664 207.963 74.1664C187.48 74.1664 170.88 57.566 170.88 37.0833H245.046Z" fill="#EFA1E6"/>
<path d="M207.415 41.3655C207.688 40.5458 208.851 40.5564 209.109 41.3809L211.373 48.6198C211.489 48.9884 211.828 49.2406 212.215 49.2441L219.767 49.3127C220.628 49.3205 220.977 50.424 220.278 50.9258L214.117 55.3455C213.805 55.5693 213.672 55.968 213.786 56.3344L216.056 63.5896C216.313 64.4129 215.366 65.0844 214.675 64.5689L208.618 60.0544C208.307 59.8227 207.882 59.8189 207.567 60.0448L201.429 64.4485C200.728 64.9514 199.793 64.2628 200.066 63.4443L202.466 56.2315C202.588 55.8672 202.462 55.4663 202.154 55.2368L196.075 50.7059C195.385 50.1915 195.754 49.0945 196.615 49.1023L204.167 49.1709C204.553 49.1744 204.897 48.9285 205.019 48.5621L207.415 41.3655Z" fill="#90DEF0"/>
<path fill-rule="evenodd" clip-rule="evenodd" d="M235.832 12.46C229.039 4.81598 219.133 0 208.103 0C197.072 0 187.167 4.81598 180.374 12.46H235.832Z" fill="#72CFE4"/>
<path d="M207.963 427.792C228.444 427.792 245.046 411.189 245.046 390.708C245.046 370.228 228.444 353.625 207.963 353.625C187.483 353.625 170.88 370.228 170.88 390.708C170.88 411.189 187.483 427.792 207.963 427.792Z" fill="#FFF7D1"/>
<rect x="184.528" y="365.195" width="4.74665" height="26.4032" fill="#72CFE4"/>
<rect x="226.358" y="365.195" width="4.74665" height="26.4032" fill="#72CFE4"/>
<path d="M245.046 390.708C245.046 411.191 228.446 427.791 207.963 427.791C187.48 427.791 170.88 411.191 170.88 390.708H245.046Z" fill="#FFDB59"/>
<path d="M207.415 394.99C207.688 394.171 208.851 394.181 209.109 395.006L211.373 402.245C211.489 402.613 211.828 402.866 212.215 402.869L219.767 402.938C220.628 402.946 220.977 404.049 220.278 404.551L214.117 408.971C213.805 409.194 213.672 409.593 213.786 409.959L216.056 417.215C216.313 418.038 215.366 418.709 214.675 418.194L208.618 413.679C208.307 413.448 207.882 413.444 207.567 413.67L201.429 418.073C200.728 418.576 199.793 417.888 200.066 417.069L202.466 409.857C202.588 409.492 202.462 409.091 202.154 408.862L196.075 404.331C195.385 403.816 195.754 402.719 196.615 402.727L204.167 402.796C204.553 402.799 204.897 402.553 205.019 402.187L207.415 394.99Z" fill="#FF5F72"/>
<path fill-rule="evenodd" clip-rule="evenodd" d="M235.832 366.085C229.039 358.441 219.133 353.625 208.103 353.625C197.072 353.625 187.167 358.441 180.374 366.085H235.832Z" fill="#FF5F72"/>
<path d="M329.596 131.719C350.076 131.719 366.679 115.117 366.679 94.6362C366.679 74.1557 350.076 57.553 329.596 57.553C309.115 57.553 292.513 74.1557 292.513 94.6362C292.513 115.117 309.115 131.719 329.596 131.719Z" fill="#FFF7D1"/>
<rect x="306.158" y="69.123" width="4.74665" height="26.4032" fill="#FFDB59"/>
<rect x="347.989" y="69.1233" width="4.74665" height="26.4032" fill="#FFDB59"/>
<path d="M366.679 94.6362C366.679 115.119 350.079 131.719 329.596 131.719C309.113 131.719 292.513 115.119 292.513 94.6362H366.679Z" fill="#72CFE4"/>
<path d="M329.048 98.9182C329.321 98.0985 330.484 98.1091 330.742 98.9336L333.006 106.173C333.121 106.541 333.461 106.793 333.847 106.797L341.4 106.865C342.26 106.873 342.61 107.977 341.91 108.479L335.75 112.898C335.438 113.122 335.305 113.521 335.419 113.887L337.689 121.142C337.946 121.966 336.999 122.637 336.307 122.122L330.25 117.607C329.94 117.375 329.515 117.372 329.2 117.598L323.062 122.001C322.361 122.504 321.426 121.816 321.698 120.997L324.099 113.784C324.221 113.42 324.095 113.019 323.787 112.79L317.708 108.259C317.017 107.744 317.387 106.647 318.247 106.655L325.8 106.724C326.186 106.727 326.53 106.481 326.652 106.115L329.048 98.9182Z" fill="#FF5F72"/>
<path fill-rule="evenodd" clip-rule="evenodd" d="M357.465 70.0134C350.672 62.3693 340.766 57.5532 329.736 57.5532C318.705 57.5532 308.8 62.3693 302.007 70.0134H357.465Z" fill="#FF5F72"/>
<path d="M329.596 370.238C350.076 370.238 366.679 353.636 366.679 333.155C366.679 312.675 350.076 296.072 329.596 296.072C309.115 296.072 292.513 312.675 292.513 333.155C292.513 353.636 309.115 370.238 329.596 370.238Z" fill="#FFF7D1"/>
<rect x="306.158" y="307.642" width="4.74665" height="26.4032" fill="#B1D477"/>
<rect x="347.989" y="307.642" width="4.74665" height="26.4032" fill="#B1D477"/>
<path d="M366.679 333.155C366.679 353.638 350.079 370.238 329.596 370.238C309.113 370.238 292.513 353.638 292.513 333.155H366.679Z" fill="#EFA1E6"/>
<path d="M329.048 337.437C329.321 336.618 330.484 336.628 330.742 337.453L333.006 344.692C333.121 345.06 333.461 345.313 333.847 345.316L341.4 345.385C342.26 345.393 342.61 346.496 341.91 346.998L335.75 351.418C335.438 351.641 335.305 352.04 335.419 352.406L337.689 359.662C337.946 360.485 336.999 361.156 336.307 360.641L330.25 356.126C329.94 355.895 329.515 355.891 329.2 356.117L323.062 360.521C322.361 361.023 321.426 360.335 321.698 359.516L324.099 352.304C324.221 351.939 324.095 351.538 323.787 351.309L317.708 346.778C317.017 346.263 317.387 345.167 318.247 345.174L325.8 345.243C326.186 345.246 326.53 345.001 326.652 344.634L329.048 337.437Z" fill="#FFE68C"/>
<path fill-rule="evenodd" clip-rule="evenodd" d="M357.465 308.532C350.672 300.888 340.766 296.072 329.736 296.072C318.705 296.072 308.8 300.888 302.007 308.532H357.465Z" fill="#FFDB59"/>
<path d="M89.5929 131.719C110.073 131.719 126.676 115.117 126.676 94.6362C126.676 74.1557 110.073 57.553 89.5929 57.553C69.1124 57.553 52.5098 74.1557 52.5098 94.6362C52.5098 115.117 69.1124 131.719 89.5929 131.719Z" fill="#FFF7D1"/>
<rect x="66.1572" y="69.1233" width="4.74665" height="26.4032" fill="#72CFE4"/>
<rect x="107.987" y="69.1235" width="4.74665" height="26.4032" fill="#72CFE4"/>
<path d="M126.676 94.6362C126.676 115.119 110.076 131.719 89.5929 131.719C69.1101 131.719 52.5098 115.119 52.5098 94.6362H126.676Z" fill="#FFDB59"/>
<path d="M89.0449 98.9182C89.3178 98.0985 90.4808 98.1091 90.7388 98.9336L93.0032 106.173C93.1185 106.541 93.4583 106.793 93.8445 106.797L101.397 106.865C102.257 106.873 102.607 107.977 101.907 108.479L95.7469 112.898C95.435 113.122 95.3017 113.521 95.4163 113.887L97.6858 121.142C97.9434 121.966 96.9962 122.637 96.3045 122.122L90.2475 117.607C89.9367 117.375 89.5117 117.372 89.1968 117.598L83.0587 122.001C82.3577 122.504 81.4229 121.816 81.6954 120.997L84.0964 113.784C84.2176 113.42 84.0916 113.019 83.7838 112.79L77.7046 108.259C77.0145 107.744 77.3838 106.647 78.2446 106.655L85.7968 106.724C86.183 106.727 86.5274 106.481 86.6493 106.115L89.0449 98.9182Z" fill="#9ECC54"/>
<path fill-rule="evenodd" clip-rule="evenodd" d="M117.461 70.0134C110.668 62.3694 100.762 57.5535 89.7318 57.5535C78.7013 57.5535 68.7957 62.3694 62.0029 70.0134H117.461Z" fill="#B1D477"/>
<path d="M89.5929 370.238C110.073 370.238 126.676 353.636 126.676 333.155C126.676 312.675 110.073 296.072 89.5929 296.072C69.1124 296.072 52.5098 312.675 52.5098 333.155C52.5098 353.636 69.1124 370.238 89.5929 370.238Z" fill="#FFF7D1"/>
<rect x="66.1572" y="307.642" width="4.74665" height="26.4032" fill="#EFA1E6"/>
<rect x="107.987" y="307.642" width="4.74665" height="26.4032" fill="#EFA1E6"/>
<path d="M126.676 333.156C126.676 353.638 110.076 370.239 89.5929 370.239C69.1101 370.239 52.5098 353.638 52.5098 333.156H126.676Z" fill="#72CFE4"/>
<path d="M89.0449 337.437C89.3178 336.618 90.4808 336.628 90.7388 337.453L93.0032 344.692C93.1185 345.06 93.4583 345.313 93.8445 345.316L101.397 345.385C102.257 345.393 102.607 346.496 101.907 346.998L95.7469 351.418C95.435 351.641 95.3017 352.04 95.4163 352.406L97.6858 359.662C97.9434 360.485 96.9962 361.156 96.3045 360.641L90.2475 356.126C89.9367 355.895 89.5117 355.891 89.1968 356.117L83.0587 360.521C82.3577 361.023 81.4229 360.335 81.6954 359.516L84.0964 352.304C84.2176 351.939 84.0916 351.538 83.7838 351.309L77.7046 346.778C77.0145 346.263 77.3838 345.167 78.2446 345.174L85.7968 345.243C86.183 345.246 86.5274 345.001 86.6493 344.634L89.0449 337.437Z" fill="#C7EE8A"/>
<path fill-rule="evenodd" clip-rule="evenodd" d="M117.46 308.532C110.668 300.888 100.762 296.072 89.7317 296.072C78.7013 296.072 68.7957 300.888 62.0029 308.532H117.46Z" fill="#B1D477"/>
<path d="M37.0832 250.978C57.5637 250.978 74.1664 234.376 74.1664 213.895C74.1664 193.415 57.5637 176.812 37.0832 176.812C16.6027 176.812 0 193.415 0 213.895C0 234.376 16.6027 250.978 37.0832 250.978Z" fill="#FFF7D1"/>
<rect x="13.6465" y="188.382" width="4.74665" height="26.4032" fill="#FFDB59"/>
<rect x="55.4766" y="188.382" width="4.74665" height="26.4032" fill="#FFDB59"/>
<path d="M74.1664 213.895C74.1664 234.378 57.566 250.978 37.0832 250.978C16.6004 250.978 0 234.378 0 213.895H74.1664Z" fill="#FF5F72"/>
<path d="M36.5351 218.177C36.808 217.358 37.9711 217.368 38.229 218.193L40.4934 225.432C40.6087 225.8 40.9485 226.052 41.3347 226.056L48.887 226.124C49.7477 226.132 50.0971 227.236 49.3977 227.738L43.2372 232.157C42.9252 232.381 42.7919 232.78 42.9066 233.146L45.176 240.401C45.4336 241.225 44.4865 241.896 43.7948 241.381L37.7377 236.866C37.4269 236.634 37.002 236.631 36.687 236.857L30.5489 241.26C29.8479 241.763 28.9132 241.075 29.1856 240.256L31.5866 233.043C31.7079 232.679 31.5819 232.278 31.274 232.049L25.1949 227.518C24.5047 227.003 24.8741 225.906 25.7348 225.914L33.287 225.983C33.6732 225.986 34.0176 225.74 34.1396 225.374L36.5351 218.177Z" fill="#FBB4F3"/>
<path fill-rule="evenodd" clip-rule="evenodd" d="M64.9519 189.272C58.1591 181.628 48.2535 176.812 37.223 176.812C26.1925 176.812 16.2869 181.628 9.49414 189.272H64.9519Z" fill="#EFA1E6"/>
<path d="M379.139 250.979C399.619 250.979 416.222 234.376 416.222 213.895C416.222 193.415 399.619 176.812 379.139 176.812C358.658 176.812 342.056 193.415 342.056 213.895C342.056 234.376 358.658 250.979 379.139 250.979Z" fill="#FFF7D1"/>
<rect x="355.703" y="188.382" width="4.74665" height="26.4032" fill="#EFA1E6"/>
<rect x="397.533" y="188.382" width="4.74665" height="26.4032" fill="#EFA1E6"/>
<path d="M416.222 213.895C416.222 234.378 399.622 250.978 379.139 250.978C358.656 250.978 342.056 234.378 342.056 213.895H416.222Z" fill="#B1D477"/>
<path d="M378.591 218.177C378.864 217.358 380.027 217.368 380.285 218.193L382.549 225.432C382.664 225.8 383.004 226.053 383.39 226.056L390.943 226.125C391.803 226.133 392.153 227.236 391.453 227.738L385.293 232.158C384.981 232.381 384.848 232.78 384.962 233.146L387.232 240.402C387.489 241.225 386.542 241.896 385.85 241.381L379.793 236.866C379.483 236.635 379.058 236.631 378.743 236.857L372.605 241.261C371.904 241.763 370.969 241.075 371.241 240.256L373.642 233.044C373.764 232.679 373.638 232.278 373.33 232.049L367.251 227.518C366.56 227.003 366.93 225.906 367.79 225.914L375.343 225.983C375.729 225.986 376.073 225.741 376.195 225.374L378.591 218.177Z" fill="#72CFE4"/>
<path fill-rule="evenodd" clip-rule="evenodd" d="M407.007 189.272C400.214 181.628 390.308 176.812 379.278 176.812C368.247 176.812 358.342 181.628 351.549 189.272H407.007Z" fill="#72CFE4"/>
<rect x="50.9629" y="438.175" width="314.079" height="6.16417" rx="3.08208" fill="#174662"/>
<rect x="51.1318" y="441.448" width="5.45668" height="41.4707" rx="2.72834" fill="#174662"/>
<rect x="132.749" y="441.469" width="2.72834" height="41.506" rx="1.36417" fill="#174662"/>
<rect x="93.3047" y="441.469" width="2.72834" height="41.506" rx="1.36417" fill="#174662"/>
<rect x="172.193" y="441.469" width="2.72834" height="41.506" rx="1.36417" fill="#174662"/>
<rect x="73.583" y="441.469" width="2.72834" height="41.506" rx="1.36417" fill="#174662"/>
<rect x="152.471" y="441.469" width="2.72834" height="41.506" rx="1.36417" fill="#174662"/>
<rect x="113.027" y="441.469" width="2.72834" height="41.506" rx="1.36417" fill="#174662"/>
<rect x="191.916" y="441.469" width="2.72834" height="41.506" rx="1.36417" fill="#174662"/>
<rect x="63.7217" y="441.469" width="2.72834" height="41.506" rx="1.36417" fill="#174662"/>
<rect x="142.609" y="441.469" width="2.72834" height="41.506" rx="1.36417" fill="#174662"/>
<rect x="103.166" y="441.469" width="2.72834" height="41.506" rx="1.36417" fill="#174662"/>
<rect x="182.055" y="441.469" width="2.72834" height="41.506" rx="1.36417" fill="#174662"/>
<rect x="83.4443" y="441.469" width="2.72834" height="41.506" rx="1.36417" fill="#174662"/>
<rect x="162.332" y="441.469" width="2.72834" height="41.506" rx="1.36417" fill="#174662"/>
<rect x="122.888" y="441.469" width="2.72834" height="41.506" rx="1.36417" fill="#174662"/>
<rect x="201.776" y="441.469" width="2.72834" height="41.506" rx="1.36417" fill="#174662"/>
<rect x="211.638" y="441.469" width="2.72834" height="41.506" rx="1.36417" fill="#174662"/>
<rect x="290.526" y="441.469" width="2.72834" height="41.506" rx="1.36417" fill="#174662"/>
<rect x="251.083" y="441.469" width="2.72834" height="41.506" rx="1.36417" fill="#174662"/>
<rect x="329.971" y="441.469" width="2.72834" height="41.506" rx="1.36417" fill="#174662"/>
<rect x="231.36" y="441.469" width="2.72834" height="41.506" rx="1.36417" fill="#174662"/>
<rect x="310.248" y="441.469" width="2.72834" height="41.506" rx="1.36417" fill="#174662"/>
<rect x="270.805" y="441.469" width="2.72834" height="41.506" rx="1.36417" fill="#174662"/>
<rect x="349.693" y="441.469" width="2.72834" height="41.506" rx="1.36417" fill="#174662"/>
<rect x="221.5" y="441.469" width="2.72834" height="41.506" rx="1.36417" fill="#174662"/>
<rect x="300.388" y="441.469" width="2.72834" height="41.506" rx="1.36417" fill="#174662"/>
<rect x="260.944" y="441.469" width="2.72834" height="41.506" rx="1.36417" fill="#174662"/>
<rect x="339.832" y="441.469" width="2.72834" height="41.506" rx="1.36417" fill="#174662"/>
<rect x="241.222" y="441.469" width="2.72834" height="41.506" rx="1.36417" fill="#174662"/>
<rect x="320.109" y="441.469" width="2.72834" height="41.506" rx="1.36417" fill="#174662"/>
<rect x="280.666" y="441.469" width="2.72834" height="41.506" rx="1.36417" fill="#174662"/>
<rect x="359.494" y="441.444" width="5.45658" height="41.6079" rx="2.72829" fill="#174662"/>
<rect x="44.7979" y="480.302" width="326.629" height="41.2365" rx="4.65267" fill="#174662"/>
</svg>
