<svg width="176" height="175" viewBox="0 0 176 175" fill="none" xmlns="http://www.w3.org/2000/svg">
<path d="M24.0367 115.135C17.8206 119.46 5.47994 126.993 13.4957 137.297C15.3879 139.73 21.5432 142.492 26.469 139.46C29.9822 137.297 32.9786 131.891 35.9287 128.648C42.9557 120.924 48.0903 117.567 54.3071 113.243C61.696 108.103 79.4419 102.162 78.0907 97.5671C77.377 95.1401 54.8474 99.1894 45.6582 103.243C36.7609 107.169 30.2529 110.811 24.0367 115.135Z" fill="#2A6F97"/>
<path d="M110.792 64.3245C102.869 70.5882 93.1022 85.2089 96.1978 86.7569C98.3596 87.8379 109.443 76.7569 117.281 72.9731C124.095 69.6833 130.524 65.9461 137.551 63.7839C144.379 61.683 151.064 63.2437 157.551 60.2703C163.302 57.6339 162.661 49.4033 160.794 47.0271C154.848 39.4598 142.956 44.9853 136.47 48.1083C124.285 53.975 122.416 55.1352 110.792 64.3245Z" fill="#FFDB59"/>
<path d="M128.363 80.0006C120.254 81.2979 99.4441 88.393 104.038 90.8116C109.172 93.5143 125.126 91.3354 138.634 93.2441C152.142 95.1527 159.476 100.397 168.364 99.4603C173.498 98.9194 175.964 95.9464 175.661 90.8116C175.358 85.6768 171.785 81.6221 164.579 80.2707C156.47 78.7503 136.471 78.7034 128.363 80.0006Z" fill="#FF5F72"/>
<path d="M126.198 117.297C115.598 108.513 97.819 100.633 97.8193 97.0268C97.8196 94.3244 124.338 100.26 138.9 108.108C149.047 113.576 160.464 122.073 161.873 125.946C163.282 129.82 162.954 134.054 160.522 137.027C158.311 139.73 151.873 141.229 147.819 138.649C145.472 137.155 135.798 125.254 126.198 117.297Z" fill="#72CFE4"/>
<path d="M105.927 130.811C101.87 120.062 91.7764 103.783 94.3056 103.783C98.3595 103.784 110.539 116.374 118.089 126.757C124.576 135.676 131.873 148.919 133.224 155.135C134.458 160.811 132.684 164.45 128.9 166.216C124.846 168.108 119.513 166.841 116.198 162.973C112.954 159.189 110.583 143.146 105.927 130.811Z" fill="#F67D2B"/>
<path d="M58.3611 125.135C65.3882 115.957 78.9017 102.162 80.5239 103.243C83.2318 105.048 73.434 120.28 69.7131 130C64.8926 142.594 61.3341 155.406 59.4428 160.811C58.1546 164.493 54.037 168.11 47.5499 167.027C41.0627 165.945 40.1676 156.889 41.8742 152.973C46.4683 142.431 50.713 135.125 58.3611 125.135Z" fill="#FFDB59"/>
<path d="M131.336 15.136C120.795 10.1428 113.228 27.845 111.606 30.0011C110.386 31.6228 105.66 40.8119 103.228 47.5685C100.796 54.325 97.0108 62.1633 97.8218 65.9471C98.6327 69.7309 107.071 56.0015 113.498 48.92C120.073 41.6748 124.603 37.3136 132.147 31.0821C138.362 25.9471 136.741 17.6964 131.336 15.136Z" fill="#2A6F97"/>
<path d="M23.7665 43.5138C16.6211 42.7198 13.4944 46.2891 12.4136 48.9923C11.3329 51.6954 11.3337 58.3788 17.2794 60.2707C22.1642 61.8251 25.6578 61.1752 41.3342 65.4054C57.0106 69.6355 76.1568 88.9634 79.4448 85.6754C82.1444 82.9758 65.3907 63.5133 53.4988 56.216C41.6069 48.9186 31.0638 44.3247 23.7665 43.5138Z" fill="#72CFE4"/>
<path d="M97.5508 11.8922C97.5508 18.4599 93.0737 80.8112 87.5508 80.8112C82.0279 80.8112 77.5508 18.4599 77.5508 11.8922C77.5508 5.32443 82.0279 0.000244141 87.5508 0.000244141C93.0737 0.000244141 97.5508 5.32443 97.5508 11.8922Z" fill="#B1D477"/>
<path d="M96.4697 163.633C96.4697 157.878 92.2346 103.243 87.0103 103.243C81.7859 103.243 77.5508 157.878 77.5508 163.633C77.5508 169.388 81.7859 174.054 87.0103 174.054C92.2346 174.054 96.4697 169.388 96.4697 163.633Z" fill="#FF5F72"/>
<path d="M57.8222 18.9184C53.4983 13.2427 46.3517 12.3446 41.8762 16.7562C38.6624 19.9241 37.9295 25.1347 39.714 28.1076C41.4986 31.0806 49.7114 38.6513 52.9575 41.6212C65.6605 53.2429 74.0386 67.8374 77.0114 67.0265C77.8359 66.8016 78.0927 62.432 74.579 51.6211C71.2722 41.4472 62.146 24.594 57.8222 18.9184Z" fill="#F67D2B"/>
<circle cx="87.5507" cy="91.081" r="6.75677" fill="#B1D477"/>
<path d="M15.3882 79.1894C11.8187 79.7843 1.6041 81.8921 0.253096 88.1085C-0.709458 92.5375 1.08867 98.0266 5.38852 99.4597C11.0644 101.351 17.2804 97.8381 22.1453 96.2164C29.4713 93.7744 32.4279 93.0919 38.3616 92.4326C55.3886 90.5407 70.5238 93.2435 71.8751 90.811C73.2795 88.2832 54.037 80.5407 41.8748 79.7299C36.751 79.3883 25.118 77.5676 15.3882 79.1894Z" fill="#EFA1E6"/>
</svg>
