<svg width="947" height="169" viewBox="0 0 947 169" fill="none" xmlns="http://www.w3.org/2000/svg">
<g filter="url(#filter0_d_1706_1199)">
<path d="M857.184 136.729V137.029L857.216 137.326C857.544 140.331 858.994 143.059 861.712 144.839C864.167 146.446 867.094 146.907 869.828 146.907H906.231C909.065 146.907 912.052 146.396 914.556 144.708C917.209 142.958 918.96 140.192 918.96 136.729C918.96 133.439 917.35 130.584 915.518 128.328L915.466 128.264L915.412 128.202C913.472 125.955 912.249 124.149 911.561 122.76C911.029 121.531 910.71 120.037 910.71 118.188V89.3552C910.71 88.827 910.729 88.399 910.758 88.0593C911.168 87.5876 911.882 86.8646 912.992 85.8552L913.089 85.7671L913.182 85.6746L915.648 83.2081L915.842 83.0141L916.016 82.8018C916.998 81.6013 918.025 79.8101 918.025 77.5329C918.025 75.4408 917.298 73.3375 915.648 71.6876L912.058 75.2775L915.648 71.6876L913.182 69.221L913.089 69.1285L912.992 69.0405C911.964 68.1058 911.238 67.4046 910.765 66.9109C910.732 66.56 910.71 66.108 910.71 65.5405V22.5039V22.4572L910.709 22.4106C910.643 18.4639 909.682 14.144 906.282 11.3187C903.764 9.17527 900.739 7.98828 897.385 7.98828C894.7 7.98828 891.079 8.69374 886.899 9.78161L886.89 9.78395L886.881 9.78633C882.554 10.9282 878.112 12.4212 873.558 14.2549C868.911 16.1258 864.781 18.2534 861.221 20.6684C857.76 22.9983 854.122 26.5296 854.122 31.5194C854.122 34.0094 854.904 36.4456 856.677 38.4438C858.361 40.3417 860.575 41.437 862.764 42.0738C863.842 42.3876 864.358 42.7129 864.559 42.8781C864.6 42.9111 864.626 42.9362 864.641 42.9523L864.642 42.9529C865.088 44.4557 865.349 46.2689 865.349 48.4449V65.7106C865.349 66.2752 865.312 66.6668 865.272 66.9178C865.252 66.9487 865.225 66.9894 865.189 67.0397C864.844 67.4382 864.176 68.1168 863.067 69.1255L862.97 69.2135L862.877 69.3061L860.496 71.6875L860.496 71.6876C858.846 73.3375 858.12 75.4408 858.12 77.5329C858.12 79.8101 859.146 81.6013 860.128 82.8018L860.302 83.0141L860.496 83.2081L862.877 85.5896L862.97 85.6821L863.067 85.7701C864.234 86.8309 864.859 87.5095 865.129 87.8606L865.194 87.9457L865.263 88.0282C865.267 88.0327 865.27 88.037 865.274 88.0411C865.303 88.2003 865.349 88.5593 865.349 89.1851V118.188C865.349 120.079 865.015 121.599 864.462 122.844C863.861 124.196 862.711 125.963 860.774 128.154L860.699 128.24L860.627 128.328C858.794 130.584 857.184 133.439 857.184 136.729ZM910.702 66.8199C910.702 66.8199 910.703 66.8206 910.703 66.822C910.703 66.8206 910.702 66.8199 910.702 66.8199ZM864.66 42.9738C864.66 42.9738 864.66 42.9732 864.659 42.972C864.66 42.9732 864.66 42.9738 864.66 42.9738Z" fill="url(#paint0_linear_1706_1199)" stroke="#174662" stroke-width="11"/>
<path d="M790.333 136.729V137.029L790.365 137.326C790.693 140.331 792.143 143.059 794.861 144.839C797.316 146.446 800.243 146.907 802.977 146.907H839.38C842.214 146.907 845.201 146.396 847.704 144.708C850.358 142.958 852.109 140.192 852.109 136.729C852.109 133.439 850.499 130.584 848.667 128.328L848.614 128.264L848.56 128.202C846.621 125.955 845.398 124.149 844.71 122.76C844.178 121.531 843.859 120.037 843.859 118.188V89.3552C843.859 88.827 843.878 88.399 843.907 88.0593C844.317 87.5876 845.031 86.8646 846.141 85.8552L846.238 85.7671L846.331 85.6746L848.797 83.2081L848.991 83.0141L849.165 82.8018C850.147 81.6013 851.174 79.8101 851.174 77.5329C851.174 75.4408 850.447 73.3375 848.797 71.6876L845.207 75.2775L848.797 71.6876L846.331 69.221L846.238 69.1285L846.141 69.0405C845.113 68.1058 844.387 67.4046 843.914 66.9109C843.881 66.56 843.859 66.108 843.859 65.5405V22.5039V22.4572L843.858 22.4106C843.792 18.4639 842.831 14.144 839.431 11.3187C836.913 9.17527 833.888 7.98828 830.534 7.98828C827.849 7.98828 824.228 8.69374 820.048 9.78161L820.039 9.78395L820.03 9.78633C815.703 10.9282 811.261 12.4212 806.707 14.2549C802.06 16.1258 797.93 18.2534 794.37 20.6684C790.909 22.9983 787.271 26.5296 787.271 31.5194C787.271 34.0094 788.053 36.4456 789.826 38.4438C791.51 40.3417 793.724 41.437 795.913 42.0738C796.991 42.3876 797.507 42.7129 797.708 42.8781C797.749 42.9111 797.775 42.9362 797.79 42.9523L797.79 42.9529C798.237 44.4557 798.498 46.2689 798.498 48.4449V65.7106C798.498 66.2752 798.461 66.6668 798.421 66.9178C798.401 66.9487 798.374 66.9894 798.338 67.0397C797.993 67.4382 797.325 68.1168 796.216 69.1255L796.119 69.2135L796.026 69.3061L793.645 71.6875L793.645 71.6876C791.995 73.3375 791.268 75.4408 791.268 77.5329C791.268 79.8101 792.295 81.6013 793.277 82.8018L793.451 83.0141L793.645 83.2081L796.026 85.5896L796.119 85.6821L796.216 85.7701C797.383 86.8309 798.008 87.5095 798.278 87.8606L798.343 87.9457L798.412 88.0282C798.416 88.0327 798.419 88.037 798.423 88.0411C798.452 88.2003 798.498 88.5593 798.498 89.1851V118.188C798.498 120.079 798.164 121.599 797.611 122.844C797.01 124.196 795.86 125.963 793.923 128.154L793.848 128.24L793.776 128.328C791.943 130.584 790.333 133.439 790.333 136.729ZM843.851 66.8199C843.851 66.8199 843.852 66.8206 843.852 66.822C843.851 66.8206 843.851 66.8199 843.851 66.8199ZM797.809 42.9738C797.809 42.9738 797.809 42.9732 797.808 42.972C797.809 42.9732 797.809 42.9738 797.809 42.9738Z" fill="url(#paint1_linear_1706_1199)" stroke="#174662" stroke-width="11"/>
<path d="M650.453 140.876V140.577C650.453 137.301 651.997 134.414 653.823 132.077L653.906 131.97L653.994 131.868C656.042 129.496 657.272 127.618 657.916 126.21L657.93 126.179L657.945 126.149C658.555 124.857 658.917 123.294 658.917 121.355V91.2007C658.917 90.5885 658.875 90.2118 658.842 90.0164C658.452 89.5527 657.728 88.7936 656.568 87.6889L656.552 87.6737L656.536 87.6584L653.803 85.0132L653.667 84.8813L653.54 84.7403C652.22 83.2741 651.334 81.3525 651.334 79.1212C651.334 76.8899 652.22 74.9683 653.54 73.5021L653.637 73.3946L653.739 73.2924L656.472 70.5591L656.621 70.4097L656.782 70.2722C657.932 69.2867 658.573 68.6378 658.869 68.282C658.869 68.2818 658.869 68.2817 658.87 68.2816C658.891 68.0973 658.917 67.7573 658.917 67.2181V41.2076C658.917 40.2634 658.908 39.4548 658.891 38.7721H650.133C650.005 38.7721 649.551 38.7808 648.674 39.595L648.634 39.6315L648.594 39.6672C647.192 40.9196 645.74 42.4415 644.244 44.2567C642.492 46.3978 640.627 48.363 638.647 50.1451L638.505 50.2732L638.354 50.3911C636.016 52.2172 633.129 53.7613 629.854 53.7613C626.991 53.7613 624.559 52.5602 622.66 50.8612L622.601 50.8089L622.545 50.7551C620.207 48.5404 619.152 45.6527 619.152 42.6183C619.152 41.5043 619.333 40.4329 619.6 39.4436L621.353 32.6955C622.948 26.4368 624.315 21.6154 625.45 18.3355L625.465 18.2912L625.482 18.2471C626.74 14.8041 628.717 11.2748 632.126 9.41579C635.02 7.78563 638.69 7.31641 642.374 7.31641H722.081C725.617 7.31641 729.157 7.74975 731.968 9.275C735.41 11.0459 737.392 14.4596 738.618 17.7973L733.537 19.6635L738.618 17.7973C739.775 20.947 741.091 25.5063 742.567 31.3486L744.757 39.4077C744.757 39.4093 744.758 39.411 744.758 39.4126M650.453 140.876L738.04 46.7623C739.157 45.7631 739.715 44.4405 739.715 42.7946C739.715 42.148 739.627 41.5015 739.451 40.8549L744.758 39.4126M650.453 140.876L650.485 141.173C650.819 144.235 652.294 147.007 655.056 148.815C657.554 150.451 660.544 150.926 663.359 150.926H701.096C703.989 150.926 706.996 150.386 709.526 148.68C712.227 146.899 714.003 144.091 714.003 140.577C714.003 137.301 712.459 134.414 710.633 132.077L710.549 131.97L710.461 131.868C708.442 129.53 707.162 127.641 706.438 126.18C705.874 124.876 705.538 123.298 705.538 121.355V91.0243C705.538 90.4851 705.564 90.1451 705.586 89.9608C705.586 89.9607 705.586 89.9606 705.586 89.9604L705.586 89.9603L705.586 89.9604C705.927 89.5515 706.614 88.8432 707.784 87.7845L707.853 87.7226L707.919 87.6584L710.652 85.0132L710.789 84.8813L710.916 84.7403C712.235 83.2741 713.121 81.3525 713.121 79.1212C713.121 76.8899 712.235 74.9683 710.916 73.5021L710.892 73.4764L710.869 73.4509C709.436 71.8991 708.234 70.6336 707.278 69.6773L707.193 69.5928L707.105 69.5121C706.49 68.9485 706.056 68.5068 705.765 68.1784C705.706 68.112 705.657 68.0549 705.617 68.0067C705.576 67.7423 705.538 67.3158 705.538 66.689V38.7721H714.192C714.39 38.7889 714.845 38.8908 715.611 39.6003L715.688 39.6719L715.768 39.7405C717.132 40.9092 718.558 42.376 720.04 44.1749L720.065 44.2061L720.092 44.2369C721.889 46.3554 723.792 48.324 725.801 50.1385L725.977 50.2976L726.166 50.441C728.489 52.2006 731.372 53.7613 734.601 53.7613C737.46 53.7613 739.887 52.5628 741.764 50.8103M650.453 140.876L741.764 50.8103M744.758 39.4126C745.058 40.5119 745.215 41.6432 745.215 42.7946C745.215 45.8093 744.13 48.6638 741.764 50.8103M744.758 39.4126L741.764 50.8103M705.613 36.0747C705.613 36.0744 705.613 36.0766 705.612 36.0811C705.613 36.077 705.613 36.0749 705.613 36.0747ZM702.888 38.777C702.882 38.7776 702.88 38.7779 702.88 38.7778C702.88 38.7778 702.882 38.7775 702.888 38.777ZM658.762 36.415C658.762 36.4148 658.763 36.4212 658.765 36.4349C658.762 36.4221 658.761 36.4152 658.762 36.415Z" fill="url(#paint2_linear_1706_1199)" stroke="#174662" stroke-width="11"/>
<path d="M563.291 152.636L563.306 152.636H563.32C568.868 152.636 575.328 151.938 582.644 150.608L582.706 150.597L582.769 150.584C584.627 150.201 585.793 150.079 586.421 150.079C587.757 150.079 588.752 150.2 589.467 150.371L589.612 150.405L589.757 150.432C591.587 150.764 594.233 150.873 597.354 150.873C599.804 150.873 602.219 150.611 604.348 149.836L604.45 149.799L604.551 149.758C607.909 148.384 609.672 145.468 610.539 142.693L610.546 142.67L610.553 142.648C611.389 139.89 611.671 136.151 611.671 131.883V96.7906C611.671 94.7866 611.775 93.0695 611.963 91.6191C612.142 90.6138 612.591 89.2827 613.479 87.5911C614.101 86.4688 614.652 85.3717 615.125 84.3026C615.81 82.8981 616.344 81.2393 616.344 79.4209V79.1218L616.312 78.8244C615.978 75.7625 614.503 72.9909 611.741 71.1824C609.243 69.5466 606.253 69.0715 603.438 69.0715H573.989C571.032 69.0715 567.996 69.6135 565.43 71.2872L565.382 71.318L565.336 71.3498C562.656 73.177 560.994 75.9967 560.994 79.4209C560.994 82.7194 562.648 85.631 564.466 87.9386L564.567 88.0668L564.676 88.1888C566.863 90.6493 568.751 93.1081 570.352 95.5629C571.633 97.5269 572.104 99.2324 572.104 100.758V106.401C572.104 111.784 571.48 115.501 570.545 117.88L570.538 117.899L570.531 117.917C569.944 119.441 569.277 120.179 568.735 120.563C568.212 120.934 567.395 121.269 565.965 121.269C563.416 121.269 560.945 120.519 558.449 118.823C556.097 117.13 553.962 114.549 552.174 110.788C550.54 107.173 549.599 102.457 549.599 96.4379C549.599 93.1083 550.143 91.3667 550.603 90.5858L550.62 90.556L550.638 90.5259C551.616 88.8144 552.53 87.6417 553.329 86.8709C555.257 85.0942 556.965 82.6689 557.247 79.5661L557.27 79.3177V79.0682C557.27 77.1026 556.57 75.3984 555.561 74.0426C554.971 73.1481 554.283 72.2916 553.532 71.4722L553.451 71.3841L553.366 71.2996C552.601 70.5345 551.67 69.3529 550.601 67.6326C550.112 66.7341 549.599 64.9306 549.599 61.6985C549.599 55.6621 550.545 50.9807 552.174 47.4372C553.978 43.5832 556.119 41.0243 558.44 39.4077L558.448 39.4021L558.456 39.3965C560.966 37.6346 563.434 36.8676 565.965 36.8676C570.241 36.8676 572.55 37.7378 573.726 38.6404L573.782 38.6836L573.84 38.7253C575.42 39.8746 576.846 41.678 577.952 44.4908C579.253 47.7969 580.539 51.9109 581.794 56.8748L581.817 56.9643L581.842 57.0529C582.756 60.2158 584.204 63.2276 586.592 65.4075C588.698 67.3299 591.376 68.6974 594.533 68.6974C600.365 68.6974 604.514 65.2188 607.002 60.3429C609.419 55.7196 610.437 50.1239 610.437 43.8879C610.437 35.3026 610.059 28.4928 609.214 23.6622C608.489 19.2103 607.219 14.8136 604.531 11.9888C602.018 9.2937 598.743 7.88062 595.062 7.88062C593.519 7.88062 592.002 7.91148 590.512 7.97355L590.502 7.97399C589.239 8.0289 587.88 8.05697 586.421 8.05697C585.793 8.05697 584.627 7.93526 582.769 7.55275L582.706 7.53989L582.644 7.52848C575.328 6.19837 568.868 5.5 563.32 5.5H563.306L563.291 5.50008C551.525 5.562 541.389 7.6939 533.219 12.2807C525.161 16.7463 518.804 23.24 514.165 31.6015C509.67 39.6443 506.248 49.2569 503.813 60.3351C503.141 63.3594 502.666 65.771 502.494 67.3272C502.461 67.5289 502.429 67.6966 502.399 67.8337C502.344 67.8939 502.281 67.9627 502.207 68.0405C502.026 68.2327 501.798 68.4611 501.52 68.7278C500.479 69.7053 498.94 71.2472 496.95 73.2961L496.765 73.486L496.6 73.6926C495.406 75.1854 494.689 77.0269 494.689 79.0682C494.689 81.1096 495.406 82.951 496.6 84.4438L496.765 84.6505L496.95 84.8403C498.954 86.9035 500.5 88.4526 501.542 89.429L501.564 89.4501L501.587 89.4709C501.887 89.7459 502.131 89.9807 502.325 90.1777C502.372 90.2257 502.416 90.2703 502.455 90.3115C502.458 90.3461 502.462 90.3834 502.465 90.4233L502.47 90.4861L502.476 90.5487C502.63 92.0867 503.112 94.5898 503.809 97.7867L503.811 97.7949C506.247 108.879 509.669 118.518 514.16 126.615L514.165 126.623L514.169 126.631C518.812 134.936 525.165 141.418 533.204 145.935L533.219 145.944L533.235 145.952C541.399 150.473 551.529 152.574 563.291 152.636Z" fill="url(#paint3_linear_1706_1199)" stroke="#174662" stroke-width="11"/>
<path d="M477.246 145.499H477.331L477.415 145.497C479.509 145.432 481.918 145.098 483.972 143.897C486.442 142.453 488.013 139.954 488.013 136.92C488.013 134.773 487.276 132.879 486.276 131.316C485.208 129.593 483.595 128.019 481.887 126.606L481.867 126.589L481.846 126.572C479.224 124.445 477.716 122.816 476.968 121.687C476.047 120.14 475.207 118.373 474.46 116.366L474.437 116.304L474.412 116.242L474.25 115.837L474.246 115.826L474.242 115.816C468.724 102.184 464.032 90.9543 460.169 82.1395C457.43 75.8027 454.393 68.5981 451.055 60.5233C450.542 59.2758 450.336 58.1762 450.336 57.1901C450.336 55.8324 450.739 54.6883 451.684 53.5604L460.078 43.9559L460.101 43.9287L460.125 43.9012C461.97 41.7327 464.066 39.8439 466.422 38.2272C468.988 36.4663 472.34 34.424 476.519 32.0963L476.522 32.0948C480.012 30.1483 483.557 26.8829 483.557 21.8625C483.557 18.7515 482.006 16.2138 479.604 14.6348C477.69 13.2941 475.496 12.6353 473.195 12.6353H448.482C444.765 12.6353 440.89 13.3269 437.941 15.7489L437.903 15.7801L437.866 15.812C435.015 18.2403 433.745 21.5621 433.745 25.1036C433.745 26.283 433.863 27.4545 434.095 28.613L434.102 28.6499L434.11 28.6868C434.163 28.9368 434.195 29.1292 434.213 29.27C434.221 29.3393 434.226 29.3915 434.228 29.4278C434.231 29.4609 434.231 29.4775 434.231 29.479C434.231 29.4791 434.231 29.4791 434.231 29.4791C434.231 29.7337 434.154 30.3078 433.619 31.2785L433.602 31.3083L433.586 31.3383C433.097 32.2513 431.845 33.9814 429.457 36.6886C429.454 36.6916 429.451 36.6946 429.449 36.6977L414.846 53.1033V40.3366C414.846 38.416 415.173 37.0114 415.644 35.9791C416.196 34.7718 417.3 33.0997 419.215 30.9395L419.328 30.8118L419.433 30.6773C421.103 28.54 422.624 25.8083 422.624 22.6727V22.379L422.593 22.0868C422.28 19.1632 420.891 16.4669 418.231 14.6933C415.824 13.0891 412.962 12.6353 410.318 12.6353H375.639C372.844 12.6353 369.952 13.2011 367.495 14.9022C364.933 16.6584 363.333 19.3769 363.333 22.6727C363.333 25.8083 364.854 28.5399 366.524 30.6773L366.629 30.8118L366.742 30.9395C368.657 33.0998 369.761 34.7719 370.313 35.9791C370.784 37.0114 371.111 38.416 371.111 40.3366V66.9944C371.111 67.9047 371.07 68.4833 371.032 68.8086C370.646 69.2639 369.999 69.9599 369.026 70.9335L366.547 73.3325L366.411 73.4644L366.284 73.6055C365.007 75.024 364.143 76.8932 364.143 79.0674C364.143 81.2415 365.007 83.1107 366.284 84.5293L366.412 84.6714L366.549 84.8044L368.98 87.1541L369.045 87.2173L369.113 87.2782C370.151 88.2177 370.709 88.8264 370.955 89.146L371.021 89.2311L371.037 89.251C371.046 89.3278 371.057 89.4288 371.067 89.5568C371.093 89.9062 371.111 90.3742 371.111 90.9783V117.879C371.111 119.682 370.78 121.022 370.286 122.039L370.258 122.097L370.232 122.156C369.664 123.397 368.563 125.087 366.696 127.249L366.635 127.319L366.577 127.391C364.837 129.549 363.333 132.287 363.333 135.462V135.707L363.354 135.951C363.618 138.909 364.995 141.648 367.686 143.441C370.101 145.052 372.985 145.499 375.639 145.499H410.318C413.025 145.499 415.887 144.995 418.312 143.36C420.904 141.651 422.624 138.938 422.624 135.543C422.624 132.391 421.14 129.642 419.433 127.457L419.328 127.323L419.215 127.195C417.3 125.035 416.196 123.363 415.644 122.156C415.167 121.111 414.847 119.732 414.846 117.89C414.846 117.887 414.846 117.883 414.846 117.879L414.927 99.4292L414.927 99.4171V99.4051C414.927 97.4134 415.131 96.2274 415.326 95.6152C415.601 94.9376 416.114 94.0649 417.017 93.0053L417.026 92.9944L417.035 92.9834L418.811 90.8768L430.238 119.894L430.252 119.931L430.267 119.967C430.932 121.587 431.152 122.815 431.152 123.713C431.152 124.911 430.813 126.418 429.831 128.299L429.809 128.341L429.788 128.384C428.994 129.971 428.559 131.701 428.559 133.517C428.559 137.349 430.438 140.434 433.294 142.553L433.327 142.578L433.361 142.602C436.231 144.665 439.619 145.499 443.134 145.499H477.246ZM422.113 86.9412C422.113 86.9412 422.111 86.9429 422.108 86.9461C422.111 86.9427 422.113 86.9411 422.113 86.9412ZM416.941 86.1283L416.942 86.1311C416.941 86.1291 416.941 86.1281 416.941 86.128C416.941 86.1279 416.941 86.128 416.941 86.1283Z" fill="url(#paint4_linear_1706_1199)" stroke="#174662" stroke-width="11"/>
<path d="M311.839 147.121L311.853 147.121H311.868C316.552 147.121 321.185 146.717 325.763 145.907L329.625 145.263L329.728 145.246L329.83 145.225C331.505 144.88 332.578 144.771 333.178 144.771C334.455 144.771 335.672 144.797 336.828 144.847C338.159 144.905 339.563 144.933 341.037 144.933C344.489 144.933 347.608 143.652 350.026 141.139L350.061 141.101L350.097 141.063C352.619 138.339 353.808 134.201 354.483 130.052C355.264 125.53 355.612 119.249 355.612 111.398C355.612 105.624 354.671 100.404 352.406 96.0717C350.065 91.4861 346.121 88.1531 340.551 88.1531C337.537 88.1531 335.005 89.4963 333.04 91.2155L332.996 91.2538L332.953 91.293C330.652 93.3945 329.296 96.3036 328.452 99.2877L328.431 99.3611L328.413 99.4351C327.262 103.985 326.086 107.746 324.9 110.762C323.895 113.315 322.638 114.907 321.305 115.899C320.325 116.628 318.288 117.404 314.379 117.404C310.824 117.404 307.649 115.948 304.65 112.248C301.871 108.756 299.994 103.124 299.785 94.5628C299.792 91.8125 300.234 90.4011 300.568 89.7934C301.468 88.3171 302.301 87.257 303.036 86.5225L303.12 86.438L303.201 86.3499C303.897 85.5907 304.538 84.8189 305.085 84.0414C306.088 82.6458 306.753 80.929 306.753 78.9872C306.753 77.0236 306.036 75.3322 305.022 74.0067C304.489 73.2591 303.87 72.517 303.201 71.7866L303.072 71.6465L302.935 71.5156C302.323 70.9348 301.542 69.9726 300.632 68.4773C300.26 67.8291 299.79 66.371 299.785 63.558C299.942 54.9956 301.824 49.3817 304.638 45.9034C307.64 42.1922 310.819 40.7328 314.379 40.7328C318.26 40.7328 320.269 41.5245 321.24 42.2699L321.273 42.2947L321.305 42.319C322.638 43.311 323.895 44.9025 324.9 47.4558C326.086 50.4714 327.262 54.2329 328.413 58.7825L328.435 58.8719L328.461 58.9606C329.313 61.9092 330.675 64.7637 332.953 66.8436L332.996 66.8828L333.04 66.9211C335.005 68.6402 337.537 69.9834 340.551 69.9834C346.121 69.9834 350.065 66.6504 352.406 62.0646C354.671 57.7321 355.612 52.5127 355.612 46.7386C355.612 38.8441 355.265 32.5561 354.482 28.0782C353.814 23.9771 352.633 19.819 350.063 17.1186C347.67 14.5521 344.542 13.2033 341.037 13.2033C339.563 13.2033 338.159 13.2317 336.828 13.2896C335.672 13.3398 334.455 13.3654 333.178 13.3654C332.578 13.3654 331.505 13.256 329.83 12.9112L329.728 12.8902L329.625 12.873L325.764 12.2294C321.185 11.4198 316.552 11.0156 311.868 11.0156H311.853L311.839 11.0157C300.974 11.0729 291.575 13.0419 283.981 17.308C276.548 21.4592 270.68 27.4918 266.383 35.2388L266.379 35.2453L266.375 35.2518C262.285 42.6723 259.132 51.531 256.834 61.7281C256.195 64.533 255.72 66.9313 255.593 68.5685C255.585 68.6165 255.577 68.6623 255.57 68.706C255.555 68.7199 255.54 68.7344 255.524 68.7495C255.302 68.9615 255 69.2367 254.606 69.5813L254.54 69.6395L254.475 69.6997C253.592 70.5239 252.321 71.7679 250.693 73.3966L250.59 73.4989L250.494 73.6064C249.217 75.025 248.353 76.8942 248.353 79.0683C248.353 81.2423 249.217 83.1115 250.494 84.5302L250.59 84.6377L250.693 84.7399C252.374 86.4209 253.672 87.6929 254.556 88.5179C255.047 88.9757 255.377 89.2991 255.583 89.5099C255.586 89.5289 255.589 89.5483 255.593 89.5681C255.72 91.2053 256.195 93.6037 256.834 96.4086C259.132 106.605 262.283 115.483 266.367 122.95L266.379 122.972L266.392 122.995C270.69 130.683 276.55 136.699 283.957 140.896L283.98 140.91L284.004 140.923C291.592 145.124 300.981 147.064 311.839 147.121Z" fill="url(#paint5_linear_1706_1199)" stroke="#174662" stroke-width="11"/>
<path d="M179.199 118.198C191.322 118.2 199.453 118.245 203.654 118.33C204.074 119.556 204.211 120.479 204.211 121.144C204.211 121.76 204.105 122.374 203.87 123.011C203.524 123.887 202.981 125.012 202.189 126.41L202.173 126.437L202.158 126.464C200.996 128.572 200.223 130.917 200.223 133.423C200.223 136.766 201.911 139.426 204.381 141.144C207.004 142.969 210.38 143.381 213.387 143.381H248.19C250.611 143.381 253.357 142.898 255.633 141.127L255.706 141.07L255.778 141.011C257.877 139.262 259.164 136.789 259.164 133.892C259.164 130.208 257.141 127.256 254.912 125.095L254.819 125.005L254.722 124.919C252.215 122.707 250.419 120.868 249.231 119.39C248.284 118.152 247.553 116.709 247.061 115.003L247.053 114.976L247.044 114.948L239.693 90.4686L239.64 90.292L239.575 90.1194C239.232 89.2042 239.011 88.4992 238.881 87.9794C238.837 87.8027 238.808 87.6653 238.789 87.5632C239.138 87.062 239.657 86.3674 240.38 85.4538L240.424 85.3974L240.468 85.3399C240.739 84.9783 240.966 84.69 241.153 84.466L241.284 84.3086L241.403 84.1418C241.902 83.4439 242.819 81.9786 242.819 80.0065C242.819 79.0175 242.709 77.6837 242.14 76.354C241.404 74.6389 240.095 73.5366 239.261 72.9261L236.474 70.8358L236.462 70.8272L236.451 70.8188C235 69.7426 233.987 68.9495 233.349 68.4104C233.157 68.2008 233.014 67.9979 232.906 67.7999C232.616 66.9939 232.03 65.1084 231.108 61.9048L231.1 61.8788L231.092 61.8529L224.601 40.111L224.598 40.1002L224.595 40.0894C224.195 38.7713 224.049 37.7252 224.049 36.9137C224.049 35.6716 224.457 34.0528 225.736 31.9754L225.767 31.9252L225.796 31.8744C227.035 29.7606 227.881 27.3715 227.881 24.7915C227.881 21.477 226.265 18.7602 223.723 16.9917C221.1 15.1669 217.724 14.7554 214.717 14.7554H180.227C177.594 14.7554 174.595 15.2815 172.195 17.277C169.599 19.4344 168.705 22.4494 168.705 25.2607C168.705 27.6443 169.508 29.8514 170.57 31.7639L170.66 31.9256L170.76 32.0808C172.03 34.0426 172.459 35.6536 172.459 36.9919C172.459 37.7337 172.319 38.7503 171.913 40.0894L171.91 40.0993L164.637 64.2657L164.626 64.3027L164.615 64.3398C164.116 66.0873 163.729 67.1774 163.47 67.7621L163.439 67.8315L163.41 67.9017C163.379 67.9765 163.295 68.1439 163.027 68.3954C162.535 68.8509 161.59 69.6207 160.064 70.7554C158.891 71.5578 157.864 72.3096 157.048 72.9924C156.63 73.3416 156.193 73.7349 155.795 74.1597C155.495 74.4804 154.969 75.0753 154.55 75.8915C153.842 77.2104 153.611 78.575 153.611 79.7719C153.611 81.0036 153.986 82.0064 154.178 82.4776C154.416 83.0611 154.711 83.6186 154.996 84.1113C155.57 85.1027 156.347 86.2426 157.256 87.4822L157.274 87.5061L157.291 87.5297C157.391 87.6622 157.478 87.7825 157.555 87.8912C157.551 87.9076 157.547 87.9243 157.543 87.9413C157.41 88.4826 157.186 89.214 156.839 90.1609L156.781 90.3208L156.732 90.4841L149.459 114.963L149.453 114.983L149.447 115.003C148.958 116.697 148.202 118.177 147.183 119.488L147.153 119.526L147.124 119.565C146.055 120.991 144.357 122.749 141.879 124.838L141.8 124.904L141.724 124.973C139.47 127.023 137.343 129.926 137.343 133.657C137.343 136.399 138.431 138.857 140.403 140.713L140.411 140.72C142.77 142.931 145.886 143.381 148.318 143.381H169.434C172.417 143.381 175.751 142.961 178.362 141.144L178.427 141.099L178.491 141.052C180.93 139.249 182.52 136.559 182.52 133.266C182.52 130.657 181.689 128.247 180.392 126.111L175.691 128.965L180.392 126.111C179.637 124.867 179.128 123.823 178.807 122.967C178.563 122.317 178.453 121.693 178.453 121.066C178.453 120.719 178.58 119.821 179.199 118.198ZM195.894 92.467L193.182 92.4944H186.909L191.387 77.4937L195.894 92.467ZM182.017 92.4906C182.018 92.4896 182.042 92.4898 182.085 92.4943C182.038 92.4938 182.016 92.4916 182.017 92.4906Z" fill="url(#paint6_linear_1706_1199)" stroke="#174662" stroke-width="11"/>
<path d="M71.3747 133.842V134.087L71.3965 134.331C71.6606 137.289 73.0373 140.028 75.728 141.822C78.1435 143.432 81.0275 143.88 83.681 143.88H118.36C121.067 143.88 123.929 143.376 126.354 141.741C128.946 140.032 130.667 137.319 130.667 133.923C130.667 130.772 129.182 128.023 127.475 125.838L127.392 125.731L127.304 125.629C125.466 123.502 124.317 121.801 123.674 120.506C123.185 119.373 122.888 117.987 122.888 116.26V88.4674C122.888 88.1516 122.897 87.8983 122.908 87.7002C123.406 87.1679 124.089 86.466 124.973 85.5818L127.452 83.1826L127.588 83.0507L127.715 82.9096C128.992 81.4911 129.856 79.6218 129.856 77.4477V77.2365L129.84 77.0259C129.702 75.2306 129.036 73.4716 127.738 72.0111L127.704 71.9725L127.669 71.9346C126.35 70.5066 125.241 69.3388 124.356 68.454L124.272 68.3694L124.184 68.2887C123.626 67.7775 123.238 67.3829 122.984 67.0961C122.968 67.0779 122.953 67.0606 122.939 67.0442C122.912 66.8221 122.888 66.489 122.888 66.023V38.7169C122.888 36.8869 123.202 35.5132 123.673 34.4702C124.309 33.1349 125.456 31.4056 127.304 29.2666L127.392 29.1642L127.475 29.0577C129.145 26.9203 130.667 24.1887 130.667 21.0531V20.7593L130.635 20.4672C130.322 17.5436 128.933 14.8473 126.273 13.0737C123.867 11.4695 121.004 11.0156 118.36 11.0156H83.681C80.9036 11.0156 78.0308 11.5744 75.5838 13.2506C73.0045 14.9605 71.2937 17.6674 71.2937 21.0531C71.2937 24.2588 72.9081 27.0185 74.6318 29.1399L74.6839 29.204L74.7379 29.2666C76.605 31.4285 77.7063 33.1181 78.2737 34.3594L78.3005 34.4179L78.3285 34.4757C78.8153 35.4778 79.1533 36.84 79.1533 38.7169V58.1634C79.1533 60.2908 79.0056 61.6028 78.8687 62.3271C77.2975 62.5588 74.6198 62.7107 70.6357 62.7107H65.612C61.6073 62.7107 58.9227 62.5573 57.3548 62.3235C57.219 61.4847 57.0944 60.1018 57.0944 58.0013V38.7169C57.0944 36.8307 57.4094 35.4421 57.8677 34.4152C58.5081 33.1168 59.6606 31.4078 61.5098 29.2666L61.5982 29.1642L61.6814 29.0577C63.3512 26.9203 64.873 24.1887 64.873 21.0531V20.7593L64.8417 20.4672C64.5284 17.5436 63.1396 14.8473 60.4792 13.0737C58.0728 11.4695 55.2103 11.0156 52.5667 11.0156H17.8873C15.1098 11.0156 12.237 11.5744 9.7899 13.2507C7.21074 14.9607 5.5 17.6675 5.5 21.0531C5.5 24.2588 7.11443 27.0185 8.83807 29.1399L8.89017 29.204L8.94417 29.2666C10.7949 31.4095 11.8887 33.1108 12.4562 34.3875L12.4941 34.4728L12.5348 34.5568C13.0289 35.574 13.3596 36.9141 13.3596 38.7169V66.3471C13.3596 66.735 13.3325 67.0321 13.2974 67.252C12.6619 67.9445 11.2263 69.3814 8.8133 71.6959L8.66754 71.8357L8.53242 71.9858C7.25571 73.4044 6.39129 75.2736 6.39129 77.4477C6.39129 79.6219 7.25573 81.4911 8.53242 82.9096L8.68732 83.0817L8.85614 83.2402C11.4234 85.6503 12.802 87.048 13.3008 87.6327C13.3261 87.7822 13.3596 88.0743 13.3596 88.5484V116.26C13.3596 117.984 13.0376 119.354 12.5088 120.474L12.4942 120.505L12.48 120.536C11.9126 121.777 10.8113 123.467 8.94417 125.629L8.8836 125.699L8.82542 125.771C7.08511 127.929 5.58103 130.667 5.58103 133.842V134.087L5.60282 134.331C5.8669 137.289 7.24362 140.028 9.93431 141.822C12.3498 143.432 15.2338 143.88 17.8873 143.88H52.5667C55.2737 143.88 58.1356 143.376 60.5607 141.741C63.1523 140.031 64.873 137.319 64.873 133.923C64.873 130.772 63.3884 128.023 61.6814 125.838L61.5982 125.731L61.5098 125.629C59.6604 123.488 58.5079 121.778 57.8676 120.48C57.4032 119.44 57.0944 118.074 57.0944 116.26V96.8941C57.0944 95.4091 57.1685 94.2631 57.2859 93.412C57.3208 93.1592 57.3578 92.945 57.3943 92.7659C57.5039 92.743 57.633 92.7202 57.7833 92.6992L57.8452 92.6905L57.9069 92.6805C59.7653 92.378 63.0378 92.1848 67.9618 92.1848C73.0014 92.1848 76.3239 92.3785 78.1787 92.6805L78.2489 92.6919L78.3193 92.7015C78.5111 92.7277 78.669 92.7571 78.7966 92.7859C78.9566 93.4362 79.1533 94.7334 79.1533 96.9752V116.26C79.1533 118.062 78.8226 119.402 78.3285 120.42L78.3005 120.478L78.2737 120.536C77.7063 121.777 76.605 123.467 74.7379 125.629L74.6773 125.699L74.6191 125.771C72.8788 127.929 71.3747 130.667 71.3747 133.842ZM122.982 67.3067C122.984 67.3118 122.984 67.3143 122.984 67.3141C122.984 67.3139 122.983 67.3115 122.982 67.3067Z" fill="url(#paint7_linear_1706_1199)" stroke="#174662" stroke-width="11"/>
</g>
<circle cx="34.9707" cy="82.25" r="7.98731" fill="#E79EDF"/>
<circle cx="35.0648" cy="103.638" r="5.60728" fill="#E79EDF"/>
<circle cx="101.399" cy="103.638" r="5.60728" fill="#E79EDF"/>
<circle cx="101.398" cy="82.25" r="7.98731" fill="#E79EDF"/>
<circle cx="219.442" cy="103.638" r="5.60728" fill="#E79EDF"/>
<circle cx="214.844" cy="82.25" r="7.98731" fill="#E79EDF"/>
<circle cx="222.831" cy="121.731" r="4.69202" fill="#E79EDF"/>
<circle cx="682.184" cy="103.638" r="5.60728" fill="#E79EDF"/>
<circle cx="682.184" cy="82.25" r="7.98731" fill="#E79EDF"/>
<circle cx="682.09" cy="121.731" r="4.69202" fill="#E79EDF"/>
<circle cx="591.13" cy="103.638" r="5.60728" fill="#E79EDF"/>
<ellipse cx="591.129" cy="82.5973" rx="7.98731" ry="7.63981" fill="#E79EDF"/>
<circle cx="591.035" cy="121.731" r="4.69202" fill="#E79EDF"/>
<circle cx="819.691" cy="103.638" r="5.60728" fill="#E79EDF"/>
<circle cx="819.691" cy="82.25" r="7.98731" fill="#E79EDF"/>
<circle cx="819.597" cy="121.731" r="4.69202" fill="#E79EDF"/>
<circle cx="886.542" cy="103.638" r="5.60728" fill="#E79EDF"/>
<circle cx="886.542" cy="82.25" r="7.98731" fill="#E79EDF"/>
<circle cx="886.448" cy="121.731" r="4.69202" fill="#E79EDF"/>
<circle cx="526.521" cy="103.638" r="5.60728" fill="#E79EDF"/>
<circle cx="526.521" cy="82.25" r="7.98731" fill="#E79EDF"/>
<circle cx="531.213" cy="121.731" r="4.69202" fill="#E79EDF"/>
<circle cx="392.012" cy="103.638" r="5.60728" fill="#E79EDF"/>
<circle cx="392.011" cy="82.25" r="7.98731" fill="#E79EDF"/>
<circle cx="391.918" cy="121.731" r="4.69202" fill="#E79EDF"/>
<circle cx="444.326" cy="103.638" r="5.60728" fill="#E79EDF"/>
<circle cx="437.817" cy="82.25" r="7.98731" fill="#E79EDF"/>
<circle cx="451.443" cy="121.731" r="4.69202" fill="#E79EDF"/>
<circle cx="278.878" cy="103.638" r="5.60728" fill="#E79EDF"/>
<circle cx="278.878" cy="82.25" r="7.98731" fill="#E79EDF"/>
<circle cx="284.485" cy="121.731" r="4.69202" fill="#E79EDF"/>
<path d="M32.2143 118.745L34.9706 112.937L37.7269 118.745L43.5349 121.501L37.7269 124.258L34.9706 130.066L32.2143 124.258L26.4062 121.501L32.2143 118.745Z" fill="#E79EDF"/>
<path d="M98.6425 118.745L101.399 112.937L104.155 118.745L109.963 121.501L104.155 124.258L101.399 130.066L98.6425 124.258L92.8345 121.501L98.6425 118.745Z" fill="#E79EDF"/>
<defs>
<filter id="filter0_d_1706_1199" x="0" y="0" width="946.46" height="168.136" filterUnits="userSpaceOnUse" color-interpolation-filters="sRGB">
<feFlood flood-opacity="0" result="BackgroundImageFix"/>
<feColorMatrix in="SourceAlpha" type="matrix" values="0 0 0 0 0 0 0 0 0 0 0 0 0 0 0 0 0 0 127 0" result="hardAlpha"/>
<feOffset dx="22" dy="10"/>
<feComposite in2="hardAlpha" operator="out"/>
<feColorMatrix type="matrix" values="0 0 0 0 0.0901961 0 0 0 0 0.27451 0 0 0 0 0.384314 0 0 0 1 0"/>
<feBlend mode="normal" in2="BackgroundImageFix" result="effect1_dropShadow_1706_1199"/>
<feBlend mode="normal" in="SourceGraphic" in2="effect1_dropShadow_1706_1199" result="shape"/>
</filter>
<linearGradient id="paint0_linear_1706_1199" x1="877.592" y1="10.6213" x2="877.592" y2="150.708" gradientUnits="userSpaceOnUse">
<stop stop-color="#6EC0D3"/>
<stop offset="0.255" stop-color="#7DB1FF"/>
<stop offset="0.47" stop-color="#E79EDF"/>
<stop offset="0.4701" stop-color="#FFF4BF"/>
</linearGradient>
<linearGradient id="paint1_linear_1706_1199" x1="810.741" y1="10.6213" x2="810.741" y2="150.708" gradientUnits="userSpaceOnUse">
<stop stop-color="#6EC0D3"/>
<stop offset="0.255" stop-color="#7DB1FF"/>
<stop offset="0.47" stop-color="#E79EDF"/>
<stop offset="0.4701" stop-color="#FFF4BF"/>
</linearGradient>
<linearGradient id="paint2_linear_1706_1199" x1="663.057" y1="9.84428" x2="663.057" y2="155.068" gradientUnits="userSpaceOnUse">
<stop stop-color="#6EC0D3"/>
<stop offset="0.255" stop-color="#7DB1FF"/>
<stop offset="0.47" stop-color="#E79EDF"/>
<stop offset="0.4701" stop-color="#FFF4BF"/>
</linearGradient>
<linearGradient id="paint3_linear_1706_1199" x1="537.123" y1="7.94883" x2="537.123" y2="157.035" gradientUnits="userSpaceOnUse">
<stop stop-color="#6EC0D3"/>
<stop offset="0.255" stop-color="#7DB1FF"/>
<stop offset="0.47" stop-color="#E79EDF"/>
<stop offset="0.4701" stop-color="#FFF4BF"/>
</linearGradient>
<linearGradient id="paint4_linear_1706_1199" x1="406.776" y1="15.404" x2="406.776" y2="148.86" gradientUnits="userSpaceOnUse">
<stop stop-color="#6EC0D3"/>
<stop offset="0.255" stop-color="#7DB1FF"/>
<stop offset="0.47" stop-color="#E79EDF"/>
<stop offset="0.4701" stop-color="#FFF4BF"/>
</linearGradient>
<linearGradient id="paint5_linear_1706_1199" x1="285.981" y1="13.7117" x2="285.981" y2="150.717" gradientUnits="userSpaceOnUse">
<stop stop-color="#6EC0D3"/>
<stop offset="0.255" stop-color="#7DB1FF"/>
<stop offset="0.47" stop-color="#E79EDF"/>
<stop offset="0.4701" stop-color="#FFF4BF"/>
</linearGradient>
<linearGradient id="paint6_linear_1706_1199" x1="179.832" y1="17.6191" x2="179.832" y2="146.433" gradientUnits="userSpaceOnUse">
<stop stop-color="#6EC0D3"/>
<stop offset="0.255" stop-color="#7DB1FF"/>
<stop offset="0.47" stop-color="#E79EDF"/>
<stop offset="0.4701" stop-color="#FFF4BF"/>
</linearGradient>
<linearGradient id="paint7_linear_1706_1199" x1="49.1057" y1="13.7843" x2="49.1057" y2="147.24" gradientUnits="userSpaceOnUse">
<stop stop-color="#6EC0D3"/>
<stop offset="0.255" stop-color="#7DB1FF"/>
<stop offset="0.47" stop-color="#E79EDF"/>
<stop offset="0.4701" stop-color="#FFF4BF"/>
</linearGradient>
</defs>
</svg>
