<svg width="629" height="555" viewBox="0 0 629 555" fill="none" xmlns="http://www.w3.org/2000/svg">
<path d="M313.674 19.5919C313.674 19.5919 316.679 6.33498 337.841 12.7977C359.003 19.2604 373.529 27.2146 380.416 19.5919C380.416 19.5919 377.285 33.0145 358.252 33.0145C358.252 33.0145 368.019 39.4772 375.532 36.4944C375.532 36.4944 372.402 50.5798 356.123 47.0999C339.845 43.6199 321.187 30.5288 313.674 41.7971V19.5919Z" fill="#FFDB59"/>
<path d="M313.674 28.9021V41.9226C321.215 30.2727 339.941 43.8072 356.279 47.4049C372.618 51.0027 375.759 36.4403 375.759 36.4403C368.219 39.5241 358.416 32.8425 358.416 32.8425C358.416 32.8425 348.11 29.4161 339.438 24.4477C331.897 20.1647 320.209 17.4235 313.674 28.9021Z" fill="#FFDB59"/>
<path d="M313.539 5.60355C312.263 5.60355 311.229 6.638 311.229 7.91405V92.0158C311.229 94.5529 314.725 95.2359 315.68 92.8855L315.058 92.6327L315.68 92.8855C315.792 92.6093 315.85 92.314 315.85 92.0158V7.91406C315.85 6.638 314.815 5.60355 313.539 5.60355Z" fill="#174662" stroke="#174662" stroke-width="1.34319"/>
<ellipse cx="313.767" cy="6.32124" rx="6.05335" ry="6.32124" fill="#2A6F97"/>
<path d="M511.294 324.131H113.581V549.448H511.294V324.131Z" fill="#174662"/>
<path d="M314.02 90.7664C314.02 90.7664 240.367 203.669 81.918 323.902H314.02H546.121C387.834 203.669 314.02 90.7664 314.02 90.7664Z" fill="#FF5F72"/>
<path d="M314.018 90.7664C314.018 90.7664 258.294 235.743 133.764 323.902H194.172C194.172 323.719 256.033 274.782 314.018 90.7664Z" fill="#FFF4BF"/>
<path d="M313.535 90.7664C313.535 90.7664 369.259 235.743 493.789 323.902H421.914C421.914 323.719 371.52 274.782 313.535 90.7664Z" fill="#FFF4BF"/>
<path d="M313.372 91.6826C312.242 105.612 298.351 273.499 264.594 323.719H314.018H358.759C358.759 323.719 321.287 262.502 313.372 91.6826C313.534 91.4993 313.534 91.4993 313.372 91.6826Z" fill="#FFF4BF"/>
<path d="M86.8438 549.448L172.43 507.324H447.38L541.35 549.448H86.8438Z" fill="#2A6F97"/>
<path d="M88.0273 324.167C88.0273 324.167 130.401 408.972 47.6715 549.484H283.087C283.087 549.484 262.837 405.439 315.359 324.167H88.0273Z" fill="#E14759"/>
<rect x="309.266" y="90.4426" width="9.00242" height="5.18666" rx="2.59333" fill="#2A6F97"/>
<path d="M137.47 324.131C137.47 324.131 171.324 473.296 134.464 549.448H195.054C195.054 549.448 228.909 409.203 196.636 324.131H137.47Z" fill="#FFF4BF"/>
<g style="mix-blend-mode:multiply" opacity="0.3">
<path d="M298.358 355.353C275.261 395.494 227.326 460.082 157.561 461.404C157.561 461.404 176.544 544.494 264.82 549.449H281.905C281.747 549.449 266.085 437.617 298.358 355.353Z" fill="#F67D2B"/>
</g>
<path d="M314.019 324.131H265.61C265.61 324.131 213.246 459.915 256.592 549.448H281.746C281.746 549.448 261.497 405.403 314.019 324.131Z" fill="#FFF4BF"/>
<path d="M314.019 324.131C314.019 324.131 262.92 423.244 164.204 419.94C164.204 419.94 157.243 518.888 281.746 549.448C281.746 549.448 289.023 380.79 314.019 324.131Z" fill="#E14759"/>
<path d="M225.271 526.487C240.141 535.738 258.809 543.832 281.748 549.449C281.748 549.449 287.917 408.378 308.009 340.981C292.98 382.608 252.639 489.65 225.271 526.487Z" fill="#FFF4BF"/>
<path d="M541.352 324.131C541.352 324.131 498.978 408.936 581.707 549.448H346.292C346.292 549.448 366.542 405.403 314.02 324.131H541.352Z" fill="#E14759"/>
<path d="M490.728 324.131C490.728 324.131 456.873 473.296 493.734 549.448H433.144C433.144 549.448 399.289 409.203 431.562 324.131H490.728Z" fill="#FFF4BF"/>
<g style="mix-blend-mode:multiply" opacity="0.3">
<path d="M329.84 355.353C352.937 395.494 400.871 460.082 470.637 461.404C470.637 461.404 451.653 544.494 363.378 549.449H346.292C346.292 549.449 362.112 437.617 329.84 355.353Z" fill="#F67D2B"/>
</g>
<path d="M314.02 324.131H362.428C362.428 324.131 414.792 459.915 371.446 549.448H346.292C346.292 549.448 366.542 405.403 314.02 324.131Z" fill="#FFF4BF"/>
<path d="M314.02 324.131C314.02 324.131 365.118 423.244 463.834 419.94C463.834 419.94 470.795 518.888 346.292 549.448C346.292 549.448 339.015 380.79 314.02 324.131Z" fill="#E14759"/>
<path d="M402.928 526.487C388.057 535.738 369.389 543.832 346.451 549.449C346.451 549.449 340.281 408.378 320.189 340.981C335.218 382.608 375.559 489.65 402.928 526.487Z" fill="#FFF4BF"/>
<path d="M19.9097 523.955L8.22168 544.048L31.1052 544.208L19.9097 523.955Z" fill="#72CFE4"/>
<path d="M32.8999 502.251L21.2119 522.344L44.0955 522.503L32.8999 502.251Z" fill="#FFDB59"/>
<path d="M44.502 478.85L34.2031 499.756L57.0402 498.226L44.502 478.85Z" fill="#FF5F72"/>
<path d="M55.8682 456.129L45.5693 477.034L68.4065 475.504L55.8682 456.129Z" fill="#72CFE4"/>
<path d="M65.2875 432.05L56.6113 453.744L79.2599 450.325L65.2875 432.05Z" fill="#FFDB59"/>
<path d="M72.7862 407.972L66.0293 430.397L88.2877 424.848L72.7862 407.972Z" fill="#FF5F72"/>
<path d="M79.4306 382.876L73.499 405.554L95.5382 399.121L79.4306 382.876Z" fill="#72CFE4"/>
<path d="M85.4609 357.101L80.3193 379.989L102.121 372.727L85.4609 357.101Z" fill="#FFDB59"/>
<path d="M91.0751 327.084C91.0751 327.084 78.7598 396.79 61.4828 441.546C44.6262 485.212 4 550.747 4 550.747" stroke="#2A6F97" stroke-width="7.73135"/>
<path d="M609.567 523.955L621.255 544.048L598.371 544.208L609.567 523.955Z" fill="#72CFE4"/>
<path d="M596.577 502.25L608.265 522.344L585.381 522.503L596.577 502.25Z" fill="#FFDB59"/>
<path d="M584.976 478.85L595.274 499.756L572.437 498.226L584.976 478.85Z" fill="#FF5F72"/>
<path d="M573.608 456.129L583.907 477.034L561.07 475.504L573.608 456.129Z" fill="#72CFE4"/>
<path d="M564.19 432.05L572.866 453.744L550.218 450.324L564.19 432.05Z" fill="#FFDB59"/>
<path d="M556.691 407.972L563.448 430.397L541.19 424.848L556.691 407.972Z" fill="#FF5F72"/>
<path d="M550.047 382.876L555.979 405.554L533.939 399.121L550.047 382.876Z" fill="#72CFE4"/>
<path d="M544.017 357.101L549.158 379.989L527.356 372.727L544.017 357.101Z" fill="#FFDB59"/>
<path d="M538.402 327.084C538.402 327.084 550.718 396.79 567.995 441.546C584.851 485.212 625.478 550.747 625.478 550.747" stroke="#2A6F97" stroke-width="7.73135"/>
<path d="M118.812 323.899C118.812 329.008 116.869 333.908 113.409 337.521C109.95 341.133 105.257 343.163 100.365 343.163C95.4721 343.163 90.7798 341.133 87.3202 337.521C83.8606 333.908 81.917 329.008 81.917 323.899L118.812 323.899Z" fill="#72CFE4"/>
<path d="M261.079 323.899C261.079 329.008 259.135 333.908 255.676 337.521C252.216 341.134 247.524 343.163 242.631 343.163C237.739 343.163 233.046 341.134 229.587 337.521C226.127 333.908 224.184 329.008 224.184 323.899L261.079 323.899Z" fill="#72CFE4"/>
<path d="M403.657 323.899C403.657 329.008 401.714 333.908 398.254 337.521C394.794 341.134 390.102 343.163 385.209 343.163C380.317 343.163 375.625 341.134 372.165 337.521C368.705 333.908 366.762 329.008 366.762 323.899L403.657 323.899Z" fill="#72CFE4"/>
<path d="M190.101 323.899C190.101 329.008 188.158 333.908 184.698 337.521C181.239 341.134 176.546 343.163 171.654 343.163C166.761 343.163 162.069 341.134 158.609 337.521C155.15 333.908 153.206 329.008 153.206 323.899L190.101 323.899Z" fill="#72CFE4"/>
<path d="M332.368 323.899C332.368 329.008 330.424 333.908 326.965 337.521C323.505 341.134 318.813 343.163 313.92 343.163C309.028 343.163 304.335 341.134 300.876 337.521C297.416 333.908 295.473 329.008 295.473 323.899L332.368 323.899Z" fill="#72CFE4"/>
<path d="M474.946 323.899C474.946 329.008 473.003 333.908 469.543 337.521C466.083 341.134 461.391 343.163 456.498 343.163C451.606 343.163 446.914 341.134 443.454 337.521C439.994 333.908 438.051 329.008 438.051 323.899L474.946 323.899Z" fill="#72CFE4"/>
<path d="M154.457 323.899C154.457 329.008 152.513 333.908 149.054 337.521C145.594 341.134 140.902 343.163 136.009 343.163C131.117 343.163 126.424 341.134 122.965 337.521C119.505 333.908 117.562 329.008 117.562 323.899L154.457 323.899Z" fill="#72CFE4"/>
<path d="M296.724 323.899C296.724 329.008 294.78 333.908 291.32 337.521C287.861 341.134 283.168 343.163 278.276 343.163C273.383 343.163 268.691 341.134 265.231 337.521C261.772 333.908 259.828 329.008 259.828 323.899L296.724 323.899Z" fill="#72CFE4"/>
<path d="M439.303 323.899C439.303 329.008 437.359 333.908 433.899 337.521C430.44 341.134 425.748 343.163 420.855 343.163C415.962 343.163 411.27 341.134 407.81 337.521C404.351 333.908 402.407 329.008 402.407 323.899L439.303 323.899Z" fill="#72CFE4"/>
<path d="M225.747 323.899C225.747 329.008 223.803 333.908 220.344 337.521C216.884 341.134 212.192 343.163 207.299 343.163C202.407 343.163 197.714 341.134 194.255 337.521C190.795 333.908 188.852 329.008 188.852 323.899L225.747 323.899Z" fill="#72CFE4"/>
<path d="M368.013 323.899C368.013 329.008 366.069 333.908 362.609 337.521C359.15 341.134 354.458 343.163 349.565 343.163C344.672 343.163 339.98 341.134 336.52 337.521C333.061 333.908 331.117 329.008 331.117 323.899L368.013 323.899Z" fill="#72CFE4"/>
<path d="M510.592 323.899C510.592 329.008 508.648 333.908 505.188 337.521C501.729 341.134 497.037 343.163 492.144 343.163C487.251 343.163 482.559 341.134 479.099 337.521C475.64 333.908 473.696 329.008 473.696 323.899L510.592 323.899Z" fill="#72CFE4"/>
<path d="M546.236 323.899C546.236 329.008 544.293 333.908 540.833 337.521C537.373 341.134 532.681 343.163 527.789 343.163C522.896 343.163 518.204 341.134 514.744 337.521C511.284 333.908 509.341 329.008 509.341 323.899L546.236 323.899Z" fill="#72CFE4"/>
</svg>
