<svg width="153" height="161" viewBox="0 0 153 161" fill="none" xmlns="http://www.w3.org/2000/svg">
<g id="popcorn stand">
<rect id="Rectangle 86" x="16.5205" y="48.0488" width="4.13001" height="51.3301" fill="#174662"/>
<path id="Vector 1" d="M24.0407 21.6917H9.32422L16.6824 51.3783H31.3989L24.0407 21.6917Z" fill="#FFDB59"/>
<path id="Vector 11" d="M5.72205e-06 51.3783L9.32461 21.6917L16.6875 51.3783H5.72205e-06Z" fill="#174662"/>
<path id="Vector 2" d="M38.5035 21.6917H23.7871L31.1453 51.3783H45.8618L38.5035 21.6917Z" fill="#FFF7D1"/>
<path id="Vector 3" d="M53.0926 21.6917H38.6299L45.8612 51.3783H60.3239L53.0926 21.6917Z" fill="#FFDB59"/>
<path id="Vector 4" d="M67.8092 21.6917H53.0928L60.451 51.3783H75.1674L67.8092 21.6917Z" fill="#FFF7D1"/>
<path id="Vector 5" d="M82.2701 21.6917H67.5537L74.9119 51.3783H89.6284L82.2701 21.6917Z" fill="#FFDB59"/>
<path id="Vector 6" d="M96.8592 21.6917H82.3965L89.6278 51.3783H104.091L96.8592 21.6917Z" fill="#FFF7D1"/>
<path id="Vector 7" d="M111.576 21.6917H96.8594L104.218 51.3783H118.934L111.576 21.6917Z" fill="#FFDB59"/>
<path id="Vector 9" d="M137.204 21.6917H126.167L133.525 51.3783H146.719L137.204 21.6917Z" fill="#FFDB59"/>
<path id="Vector 8" d="M126.043 21.6917H111.326L118.684 51.3783H133.401L126.043 21.6917Z" fill="#FFF7D1"/>
<path id="Vector 10" d="M153 48.1432L137.205 21.6917L146.72 51.3783L153 48.1432Z" fill="#FFF7D1"/>
<rect id="Rectangle 77" x="25.3076" y="99.335" width="13.3209" height="61.2762" fill="#FFF7D1"/>
<rect id="Rectangle 85" x="3.23535" y="99.335" width="22.0747" height="61.2762" fill="#174662"/>
<rect id="Rectangle 88" x="134.919" y="51.3806" width="3.42538" height="47.9553" fill="#174662"/>
<rect id="Rectangle 79" x="55.375" y="99.335" width="15.2239" height="61.2762" fill="#FFF7D1"/>
<rect id="Rectangle 81" x="86.9658" y="99.335" width="15.2239" height="61.2762" fill="#FFF7D1"/>
<rect id="Rectangle 83" x="118.556" y="99.335" width="15.2239" height="61.2762" fill="#FFF7D1"/>
<rect id="Rectangle 78" x="38.6299" y="99.335" width="16.7463" height="61.2762" fill="#FFDB59"/>
<rect id="Rectangle 80" x="70.5996" y="99.335" width="16.3657" height="61.2762" fill="#FFDB59"/>
<rect id="Rectangle 82" x="102.19" y="99.335" width="16.3657" height="61.2762" fill="#FFDB59"/>
<rect id="Rectangle 84" x="133.779" y="99.335" width="16.7463" height="61.2762" fill="#FFDB59"/>
<rect id="Rectangle 87" x="135.302" y="51.3806" width="2.28358" height="47.9553" fill="#174662"/>
<rect id="Rectangle 89" x="31.3984" width="93.627" height="21.6941" fill="#FFF7D1"/>
<rect id="Rectangle 90" x="23.7871" width="7.61195" height="21.6941" fill="#174662"/>
<g id="Group 1">
<path id="Vector 12" d="M42.3481 76.6494H38.7324L42.3481 99.4853H45.9638L42.3481 76.6494Z" fill="#FF5F72"/>
<path id="Vector 16" d="M47.4867 76.6494H42.3486L45.9643 99.4853H49.58L47.4867 76.6494Z" fill="#FFF7D1"/>
<path id="Vector 17" d="M58.1425 76.6494H54.7171L53.7656 99.4853H58.5231L58.1425 76.6494Z" fill="#FFF7D1"/>
<path id="Vector 18" d="M67.6592 76.6494H62.7114L61.9502 99.4853H66.1368L67.6592 76.6494Z" fill="#FFF7D1"/>
<path id="Vector 13" d="M54.7167 76.6494H47.4854L49.5786 99.4853H53.9555L54.7167 76.6494Z" fill="#FF5F72"/>
<path id="Vector 14" d="M62.7107 76.6494H58.1436L58.5242 99.4853H61.9495L62.7107 76.6494Z" fill="#FF5F72"/>
<path id="Vector 15" d="M71.2748 76.6494H67.6591L66.1367 99.4853H69.5621L71.2748 76.6494Z" fill="#FF5F72"/>
<path id="Rectangle 91" d="M38.7324 74.3667L71.2735 74.3667V76.6503H38.7324V74.3667Z" fill="#174662"/>
<path id="Vector" d="M41.2069 64.09C37.473 67.7581 37.0647 70.0247 38.733 74.3662H71.2741C73.9706 74.2354 74.5147 73.8079 73.3674 72.2729C73.2484 70.5773 72.4482 70.0461 70.1323 69.6087C67.986 66.0191 66.1293 66.0641 62.1398 68.2766C60.8824 66.2944 59.7667 65.7284 56.8114 65.993C55.487 61.7517 54.6852 59.4566 48.8189 61.6161C45.276 59.0117 43.6496 59.8055 41.2069 64.09Z" fill="url(#paint0_linear_2092_281)" stroke="#FFF7D1" stroke-width="1.2892"/>
</g>
<g id="Group 2">
<path id="Vector 12_2" d="M87.3266 76.658H83.7109L87.3266 99.4938H90.9423L87.3266 76.658Z" fill="#FF5F72"/>
<path id="Vector 16_2" d="M92.4642 76.658H87.3262L90.9418 99.4938H94.5575L92.4642 76.658Z" fill="#FFF7D1"/>
<path id="Vector 17_2" d="M103.121 76.658H99.6956L98.7441 99.4938H103.502L103.121 76.658Z" fill="#FFF7D1"/>
<path id="Vector 18_2" d="M112.638 76.658H107.69L106.929 99.4938H111.115L112.638 76.658Z" fill="#FFF7D1"/>
<path id="Vector 13_2" d="M99.6972 76.658H92.4658L94.5591 99.4938H98.936L99.6972 76.658Z" fill="#FF5F72"/>
<path id="Vector 14_2" d="M107.689 76.658H103.122L103.503 99.4938H106.928L107.689 76.658Z" fill="#FF5F72"/>
<path id="Vector 15_2" d="M116.253 76.658H112.638L111.115 99.4938H114.541L116.253 76.658Z" fill="#FF5F72"/>
<path id="Rectangle 91_2" d="M83.7109 74.3753L116.252 74.3752V76.6588H83.7109V74.3753Z" fill="#174662"/>
<path id="Vector_2" d="M86.1854 64.0986C82.4515 67.7667 82.0432 70.0333 83.7115 74.3747H116.253C118.949 74.2439 119.493 73.8164 118.346 72.2814C118.227 70.5859 117.427 70.0546 115.111 69.6172C112.964 66.0277 111.108 66.0727 107.118 68.2851C105.861 66.303 104.745 65.7369 101.79 66.0015C100.466 61.7602 99.6637 59.4652 93.7974 61.6247C90.2545 59.0203 88.6281 59.8141 86.1854 64.0986Z" fill="url(#paint1_linear_2092_281)" stroke="#FFF7D1" stroke-width="1.2892"/>
</g>
</g>
<defs>
<linearGradient id="paint0_linear_2092_281" x1="55.8655" y1="60.1243" x2="55.8655" y2="74.3662" gradientUnits="userSpaceOnUse">
<stop stop-color="#F9F5E1"/>
<stop offset="1" stop-color="#FFE7AB"/>
</linearGradient>
<linearGradient id="paint1_linear_2092_281" x1="100.844" y1="60.1328" x2="100.844" y2="74.3747" gradientUnits="userSpaceOnUse">
<stop stop-color="#F9F5E1"/>
<stop offset="1" stop-color="#FFE7AB"/>
</linearGradient>
</defs>
</svg>
