<svg width="1440" height="902" viewBox="0 0 1440 902" fill="none" xmlns="http://www.w3.org/2000/svg">
<path d="M0 0C475.2 0 950.4 0 1440 0C1440 259.653 1440 519.306 1440 786.828C1399.3 786.828 1358.61 786.828 1316.68 786.828C1255.99 790.98 1196.9 798.335 1136.96 810.92C1130.75 812.219 1124.55 813.491 1118.34 814.761C1091.7 820.281 1065.32 826.963 1038.92 834.324C1028.97 837.068 1018.97 839.509 1008.97 841.951C988.147 847.1 967.397 852.684 946.651 858.39C929.762 863 912.84 867.193 895.833 870.929C887.149 872.878 879.148 875.367 870.83 879.396C867.998 880.283 865.151 881.09 862.293 881.806C847.292 885.721 832.275 889.668 817.515 895.035C794.647 903.347 778.888 906.224 756.996 892.252C744.449 884.319 731.737 878.074 718.57 872.315C713.874 870.198 709.209 867.949 704.584 865.565C695.75 861.056 686.806 857.094 677.816 853.2C675.156 852.047 675.156 852.047 672.443 850.87C622.644 829.376 572.651 810.531 521.739 794.542C520.424 794.127 519.109 793.712 517.754 793.284C467.212 777.373 415.758 764.747 364.269 755.972C362.073 755.595 362.073 755.595 359.833 755.211C343.343 752.434 326.904 750.374 310.305 749.296C302.442 748.748 294.713 747.772 286.902 746.364C258.7 741.506 230.227 742.102 201.849 742.145C197.394 742.151 192.939 742.148 188.484 742.145C145.475 742.152 103.244 744.045 60.7115 753.4C56.349 754.286 51.9863 755.17 47.6235 756.052C36.2132 758.443 24.9824 761.506 13.6882 764.75C7.58893 766.257 7.58893 766.257 0 766.257C0 513.392 0 260.527 0 0Z" fill="url(#paint0_linear_1931_219)"/>
<defs>
<linearGradient id="paint0_linear_1931_219" x1="720" y1="0" x2="720" y2="902" gradientUnits="userSpaceOnUse">
<stop stop-color="#FFF4BD"/>
<stop offset="1" stop-color="#8DD8FE"/>
</linearGradient>
</defs>
</svg>
