<svg width="131" height="288" viewBox="0 0 131 288" fill="none" xmlns="http://www.w3.org/2000/svg">
<path d="M120.22 97.4788L-48.2979 96.7341L-48.8705 282.352L119.647 283.096L120.22 97.4788Z" fill="#FF5F72"/>
<path d="M100.869 145.663L86.1562 145.608L85.6631 279.172L100.376 279.227L100.869 145.663Z" fill="#FFF7D1"/>
<path d="M72.4912 145.663L57.7783 145.608L57.2852 279.172L71.9981 279.227L72.4912 145.663Z" fill="#FFF7D1"/>
<path d="M44.1143 145.663L29.4014 145.608L28.9082 279.172L43.6211 279.227L44.1143 145.663Z" fill="#FFF7D1"/>
<path d="M15.7364 145.663L1.02344 145.608L0.530269 279.172L15.2432 279.227L15.7364 145.663Z" fill="#FFF7D1"/>
<path d="M117.231 45.113L117.273 45.2214C118.863 49.3556 121.008 58.9048 122.77 67.3579C123.663 71.6367 124.473 75.7149 125.084 78.8114C125.179 79.2961 125.27 79.7562 125.355 80.189C125.543 81.141 125.704 81.9611 125.836 82.6215C125.931 83.1017 126.01 83.4905 126.07 83.78C126.1 83.9249 126.124 84.0396 126.143 84.1255C126.156 84.1838 126.164 84.2175 126.168 84.2332C126.17 84.2434 126.171 84.2459 126.17 84.2426C126.348 84.908 126.355 85.6728 126.036 86.4208C125.727 87.1438 125.212 87.6204 124.756 87.9191C123.922 88.4646 122.933 88.6468 122.277 88.7292C121.15 88.871 119.707 88.8253 119.224 88.8101C119.144 88.8075 119.09 88.8058 119.069 88.806C114.309 88.8672 109.676 89.0471 105.03 89.2275C104.358 89.2536 103.686 89.2797 103.013 89.3055C97.6995 89.5089 92.3543 89.69 86.8515 89.6643L86.8511 89.6643L35.8507 89.4195L-15.1495 89.1747C-15.1496 89.1747 -15.1497 89.1747 -15.1498 89.1747C-20.7342 89.1486 -24.502 88.7208 -28.203 88.278C-28.3455 88.261 -28.4878 88.2439 -28.6301 88.2269C-32.1507 87.8048 -35.6577 87.3844 -40.8091 87.2696C-40.78 87.2702 -40.7997 87.2724 -40.8823 87.2818C-40.9973 87.2947 -41.2343 87.3214 -41.6316 87.3768C-42.2074 87.4571 -42.9511 87.5715 -43.7653 87.7021C-45.3906 87.9629 -47.2494 88.2804 -48.507 88.4982C-50.7105 88.8797 -53.0239 87.0751 -52.5618 84.4877C-52.2352 82.6591 -51.5597 79.9817 -50.8147 77.0898C-50.7015 76.6502 -50.5862 76.204 -50.4696 75.7531C-49.8079 73.1921 -49.1056 70.4743 -48.5001 67.8866C-46.6513 59.985 -43.7375 48.1292 -43.1851 45.8849C-43.0057 45.1561 -42.6048 44.4889 -41.9946 43.9855M117.231 45.113L-41.9946 43.9855M117.231 45.113L117.179 45.0092M117.231 45.113L117.179 45.0092M-41.9946 43.9855C-40.6131 42.8454 -34.7018 38.0664 -27.514 33.7258C-23.9208 31.5559 -19.9526 29.4612 -16.0309 27.9893C-12.1465 26.5313 -8.09792 25.6033 -4.42005 25.9897L-4.4186 25.9898C-3.95782 26.0385 -2.88341 26.0274 -2.04857 26.0068C-1.90873 25.8647 -1.7629 25.7091 -1.62842 25.5524C-1.5018 25.4048 -1.40536 25.2794 -1.33987 25.1823C-1.31414 25.1441 -1.2986 25.1183 -1.29053 25.1043C1.29294 17.9347 8.88979 14.5654 16.1265 13.5609L16.1267 13.5609C17.7241 13.3393 19.2734 13.2831 20.7551 13.2854C21.2404 9.39729 25.0547 6.93389 28.8651 6.95278C29.03 6.95335 29.1931 6.95858 29.3544 6.96819M-41.9946 43.9855L29.3544 6.96819M117.179 45.0092C116.743 44.1369 115.902 43.2484 115.075 42.4769M117.179 45.0092L115.075 42.4769M49.9846 14.2394C49.9922 11.5986 47.4257 9.44674 44.2584 9.43015C44.2344 9.43007 44.2104 9.43013 44.1865 9.43032M49.9846 14.2394L44.1865 9.43032M49.9846 14.2394C49.9819 15.0229 50.5106 15.8474 51.2941 15.8416C53.0561 15.8286 54.8231 15.8677 56.6258 16.1352L49.9846 14.2394ZM44.1865 9.43032C44.0839 9.43112 43.982 9.43435 43.881 9.43989C43.2923 9.4722 42.731 9.58328 42.2054 9.75393C41.9851 9.82547 41.7781 9.6491 41.7806 9.41747L44.1865 9.43032ZM29.3544 6.96819C29.7991 5.79333 30.5638 4.82524 31.5211 4.10202C33 2.98479 34.8487 2.50558 36.5759 2.51292C38.3035 2.52026 40.1483 3.01528 41.6197 4.14379C42.5747 4.87626 43.3356 5.85329 43.7739 7.03625C43.9363 7.02779 44.1004 7.0237 44.266 7.02423L44.271 7.02424C48.0761 7.04418 51.8869 9.53661 52.3447 13.4354C53.8278 13.4471 55.3793 13.5179 56.9788 13.7553C64.2272 14.8307 71.8159 18.2871 74.3475 25.4994L29.3544 6.96819ZM115.075 42.4769C114.174 41.6352 113.016 40.6862 111.678 39.6871M115.075 42.4769L111.678 39.6871M111.678 39.6871C108.997 37.6862 105.483 35.4049 101.607 33.2861M111.678 39.6871L101.607 33.2861M101.607 33.2861C97.7344 31.1688 93.4484 29.1853 89.2267 27.8097M101.607 33.2861L89.2267 27.8097M89.2267 27.8097C85.0373 26.4447 80.7384 25.6205 76.9047 25.9875M89.2267 27.8097L76.9047 25.9875M76.9047 25.9875C76.3402 26.0412 75.6396 26.2414 75.1239 26.3992C74.9616 26.4489 74.7953 26.5016 74.6283 26.5559M76.9047 25.9875L74.6283 26.5559M74.6283 26.5559C74.5506 26.1824 74.458 25.8137 74.3487 25.5028L74.6283 26.5559ZM52.3905 14.2463C52.3905 14.2456 52.3905 14.245 52.3905 14.2443C52.3905 14.2455 52.3905 14.2466 52.3905 14.2478L52.3905 14.2463Z" fill="#FF5F72" stroke="#FFDB59" stroke-width="4.81186"/>
<path d="M101.288 100.819L-27.6211 100.343L-27.8477 161.724L101.061 162.2L101.288 100.819Z" fill="#174662"/>
<path d="M101.284 154.76L-27.6211 154.284L-27.6878 172.338L101.217 172.814L101.284 154.76Z" fill="#2A6F97"/>
<path d="M130.909 78.6784L-57.9219 77.9812L-58 99.1364L130.831 99.8336L130.909 78.6784Z" fill="#72CFE4"/>
<path d="M74.776 88.8198C74.7679 91.0622 72.9451 92.874 70.7027 92.8658C68.4603 92.8577 66.6485 91.0349 66.6567 88.7925C66.6648 86.5501 68.4876 84.7384 70.73 84.7465C72.9724 84.7546 74.7841 86.5774 74.776 88.8198Z" fill="#FFF7D1"/>
<path d="M51.9196 88.8198C51.9114 91.0622 50.0886 92.874 47.8462 92.8658C45.6038 92.8577 43.7921 91.0349 43.8002 88.7925C43.8083 86.5501 45.6311 84.7384 47.8736 84.7465C50.116 84.7546 51.9277 86.5774 51.9196 88.8198Z" fill="#FFF7D1"/>
<path d="M29.0631 88.8198C29.055 91.0622 27.2322 92.874 24.9898 92.8658C22.7474 92.8577 20.9356 91.0349 20.9438 88.7925C20.9519 86.5501 22.7747 84.7384 25.0171 84.7465C27.2595 84.7546 29.0712 86.5774 29.0631 88.8198Z" fill="#FFF7D1"/>
<path d="M97.6325 88.8198C97.6244 91.0622 95.8015 92.874 93.5591 92.8658C91.3167 92.8577 89.505 91.0349 89.5131 88.7925C89.5212 86.5501 91.344 84.7384 93.5864 84.7465C95.8289 84.7546 97.6406 86.5774 97.6325 88.8198Z" fill="#FFF7D1"/>
<path d="M120.489 88.8198C120.481 91.0622 118.658 92.874 116.416 92.8658C114.173 92.8577 112.361 91.0349 112.37 88.7925C112.378 86.5501 114.2 84.7384 116.443 84.7465C118.685 84.7546 120.497 86.5774 120.489 88.8198Z" fill="#FFF7D1"/>
<path d="M6.20765 88.8198C6.19953 91.0622 4.37671 92.874 2.1343 92.8658C-0.10811 92.8577 -1.91982 91.0349 -1.91171 88.7925C-1.90359 86.5501 -0.0807657 84.7384 2.16164 84.7465C4.40405 84.7546 6.21576 86.5774 6.20765 88.8198Z" fill="#FFF7D1"/>
<path d="M125.82 286.457L-53.0169 285.673C-54.4368 285.669 -55.5833 284.273 -55.58 282.563L-55.5576 275.57C-55.5543 273.86 -54.395 272.48 -52.9751 272.484L125.862 273.268C127.282 273.272 128.428 274.668 128.425 276.378L128.402 283.366C128.399 285.076 127.24 286.456 125.82 286.452L125.82 286.457Z" fill="#72CFE4"/>
<path d="M53.0593 172.396C53.0548 173.195 53.003 173.97 52.8841 174.736L20.2507 174.617C20.1402 173.853 20.0892 173.073 20.0937 172.278C20.1276 163.177 27.5233 155.824 36.6358 155.854C45.7364 155.888 53.0892 163.296 53.0593 172.396Z" stroke="#FFF7D1" stroke-width="4.81186"/>
<path d="M102.938 185.992L-29.5992 185.361C-30.6515 185.357 -31.5016 184.369 -31.4996 183.158L-31.4851 178.208C-31.4831 176.997 -30.6244 176.02 -29.5721 176.024L102.965 176.655C104.018 176.659 104.868 177.647 104.866 178.858L104.851 183.805C104.849 185.015 103.991 185.992 102.938 185.989L102.938 185.992Z" fill="#FFA66A"/>
<path d="M102.938 181.18L-29.5992 180.549C-30.6515 180.545 -31.5016 179.557 -31.4996 178.346L-31.4851 173.396C-31.4831 172.185 -30.6244 171.208 -29.5721 171.212L102.965 171.843C104.018 171.846 104.868 172.835 104.866 174.046L104.851 178.993C104.849 180.203 103.991 181.18 102.938 181.177L102.938 181.18Z" fill="#FFDB59"/>
<path d="M77.1296 99.1401C77.1296 102.83 75.6645 106.368 73.0567 108.977C70.4489 111.586 66.912 113.052 63.224 113.052C59.536 113.052 55.999 111.586 53.3912 108.977C50.7834 106.368 49.3184 102.83 49.3184 99.1401L77.1296 99.1401Z" fill="#FFDB59"/>
<path d="M23.6286 99.1401C23.6286 102.83 22.1635 106.368 19.5557 108.977C16.9479 111.586 13.411 113.052 9.72299 113.052C6.035 113.052 2.49805 111.586 -0.109758 108.977C-2.71757 106.368 -4.18262 102.83 -4.18262 99.1401L23.6286 99.1401Z" fill="#FFDB59"/>
<path d="M130.866 99.1401C130.866 102.83 129.401 106.368 126.793 108.977C124.185 111.586 120.648 113.052 116.96 113.052C113.272 113.052 109.735 111.586 107.128 108.977C104.52 106.368 103.055 102.83 103.055 99.1401L130.866 99.1401Z" fill="#FFDB59"/>
<path d="M103.998 99.1401C103.998 102.83 102.533 106.368 99.9249 108.977C97.3171 111.586 93.7801 113.052 90.0921 113.052C86.4041 113.052 82.8672 111.586 80.2594 108.977C77.6516 106.368 76.1865 102.83 76.1865 99.1401L103.998 99.1401Z" fill="#FFF7D1"/>
<path d="M50.4948 99.1401C50.4948 102.83 49.0298 106.368 46.422 108.977C43.8141 111.586 40.2772 113.052 36.5892 113.052C32.9012 113.052 29.3643 111.586 26.7565 108.977C24.1486 106.368 22.6836 102.83 22.6836 99.1401L50.4948 99.1401Z" fill="#FFF7D1"/>
<path d="M35.627 21.3448C35.8172 20.7733 36.6282 20.7807 36.808 21.3556L38.3869 26.4029C38.4673 26.6599 38.7042 26.8357 38.9735 26.8382L44.2393 26.886C44.8394 26.8915 45.083 27.6609 44.5954 28.0107L40.3 31.0924C40.0825 31.2484 39.9895 31.5264 40.0695 31.7819L41.6519 36.8405C41.8314 37.4146 41.1711 37.8828 40.6888 37.5233L36.4655 34.3756C36.2488 34.2141 35.9525 34.2114 35.7329 34.369L31.4531 37.4394C30.9644 37.7901 30.3126 37.3099 30.5026 36.7392L32.1766 31.7101C32.2612 31.4561 32.1733 31.1766 31.9587 31.0166L27.72 27.8574C27.2388 27.4987 27.4964 26.7339 28.0965 26.7393L33.3623 26.7872C33.6315 26.7896 33.8716 26.6181 33.9567 26.3626L35.627 21.3448Z" fill="#FFF7D1"/>
<path d="M17.6416 25.9213C17.7767 25.5154 18.3526 25.5207 18.4803 25.9289L19.6015 29.5131C19.6586 29.6956 19.8268 29.8205 20.018 29.8222L23.7574 29.8562C24.1835 29.86 24.3565 30.4064 24.0102 30.6549L20.96 32.8432C20.8055 32.954 20.7396 33.1514 20.7963 33.3328L21.92 36.925C22.0475 37.3327 21.5786 37.6652 21.2361 37.4099L18.2371 35.1747C18.0832 35.06 17.8728 35.0581 17.7168 35.1699L14.6777 37.3503C14.3306 37.5993 13.8678 37.2584 14.0027 36.8531L15.1915 33.2819C15.2515 33.1015 15.1891 32.903 15.0367 32.7894L12.0267 30.546C11.685 30.2913 11.8679 29.7481 12.2941 29.752L16.0334 29.786C16.2246 29.7877 16.3951 29.6659 16.4555 29.4845L17.6416 25.9213Z" fill="#FFF7D1"/>
<path d="M54.3545 25.9213C54.4896 25.5154 55.0655 25.5207 55.1932 25.9289L56.3144 29.5131C56.3715 29.6956 56.5397 29.8205 56.7309 29.8222L60.4703 29.8562C60.8964 29.86 61.0694 30.4064 60.7231 30.6549L57.6729 32.8432C57.5184 32.954 57.4525 33.1514 57.5092 33.3328L58.6329 36.925C58.7604 37.3327 58.2915 37.6652 57.949 37.4099L54.9499 35.1747C54.7961 35.06 54.5857 35.0581 54.4297 35.1699L51.3906 37.3503C51.0435 37.5993 50.5807 37.2584 50.7156 36.8531L51.9044 33.2819C51.9644 33.1015 51.902 32.903 51.7496 32.7894L48.7396 30.546C48.3979 30.2913 48.5808 29.7481 49.007 29.752L52.7463 29.786C52.9375 29.7877 53.108 29.6659 53.1684 29.4845L54.3545 25.9213Z" fill="#FFF7D1"/>
<mask id="path-28-outside-1_1938_283" maskUnits="userSpaceOnUse" x="-29.8477" y="47.7126" width="132" height="21" fill="black">
<rect fill="white" x="-29.8477" y="47.7126" width="132" height="21"/>
<path d="M-22.8767 54.416H-27.7525V50.0635H-12.3877V54.416H-17.2635V66.7126H-22.8767V54.416ZM-7.36209 50.0635H-1.74893V66.7126H-7.36209V50.0635ZM13.1309 67.0932C11.3709 67.0932 9.78521 66.7285 8.374 65.9991C6.96278 65.2539 5.85283 64.2232 5.04416 62.9071C4.25134 61.5752 3.85493 60.0688 3.85493 58.3881C3.85493 56.7073 4.25134 55.2088 5.04416 53.8928C5.85283 52.5608 6.96278 51.5302 8.374 50.8008C9.78521 50.0555 11.3709 49.6829 13.1309 49.6829C14.7483 49.6829 16.1912 49.9683 17.4597 50.5391C18.7282 51.11 19.7747 51.9345 20.5993 53.0127L17.0554 56.1761C16.0247 54.8759 14.8117 54.2258 13.4163 54.2258C12.243 54.2258 11.2995 54.6063 10.586 55.3674C9.87242 56.1127 9.51566 57.1195 9.51566 58.3881C9.51566 59.6566 9.87242 60.6714 10.586 61.4325C11.2995 62.1777 12.243 62.5503 13.4163 62.5503C14.8117 62.5503 16.0247 61.9002 17.0554 60.6L20.5993 63.7634C19.7747 64.8416 18.7282 65.6661 17.4597 66.237C16.1912 66.8078 14.7483 67.0932 13.1309 67.0932ZM32.5662 61.1946L31.3057 62.5979V66.7126H25.7876V50.0635H31.3057V56.1047L36.7761 50.0635H42.8887L36.2291 57.3891L43.2217 66.7126H36.7285L32.5662 61.1946ZM61.3848 62.479V66.7126H47.5422V50.0635H61.0756V54.2971H53.0602V56.2474H60.1004V60.2908H53.0602V62.479H61.3848ZM70.7286 54.416H65.8527V50.0635H81.2176V54.416H76.3417V66.7126H70.7286V54.416ZM92.4509 67.0932C91.0714 67.0932 89.7236 66.9426 88.4076 66.6413C87.1073 66.3242 86.037 65.904 85.1966 65.3807L87.0043 61.2898C87.7971 61.7496 88.685 62.1222 89.6681 62.4076C90.6512 62.6772 91.5947 62.812 92.4985 62.812C93.2755 62.812 93.8304 62.7406 94.1634 62.5979C94.4964 62.4394 94.6629 62.2094 94.6629 61.9082C94.6629 61.5593 94.4409 61.2977 93.9969 61.1233C93.5688 60.9489 92.8553 60.7586 91.8563 60.5524C90.5719 60.2829 89.5016 59.9975 88.6454 59.6962C87.7892 59.3791 87.0439 58.8717 86.4096 58.174C85.7754 57.4605 85.4583 56.5011 85.4583 55.2961C85.4583 54.2495 85.7516 53.2982 86.3383 52.4419C86.925 51.5857 87.7971 50.9118 88.9546 50.4202C90.128 49.9287 91.5471 49.6829 93.212 49.6829C94.3537 49.6829 95.4716 49.8098 96.5657 50.0635C97.6756 50.3013 98.6508 50.6581 99.4912 51.1338L97.8025 55.2009C96.1692 54.3764 94.6232 53.9641 93.1645 53.9641C91.7215 53.9641 91.0001 54.313 91.0001 55.0106C91.0001 55.3436 91.2141 55.5973 91.6423 55.7717C92.0704 55.9303 92.776 56.1047 93.7591 56.295C95.0276 56.5329 96.0979 56.8103 96.97 57.1275C97.8421 57.4287 98.5953 57.9282 99.2295 58.6259C99.8796 59.3236 100.205 60.275 100.205 61.48C100.205 62.5266 99.9114 63.4779 99.3247 64.3342C98.738 65.1746 97.8579 65.8485 96.6846 66.3559C95.5271 66.8474 94.1158 67.0932 92.4509 67.0932Z"/>
</mask>
<path d="M-22.8767 54.416H-27.7525V50.0635H-12.3877V54.416H-17.2635V66.7126H-22.8767V54.416ZM-7.36209 50.0635H-1.74893V66.7126H-7.36209V50.0635ZM13.1309 67.0932C11.3709 67.0932 9.78521 66.7285 8.374 65.9991C6.96278 65.2539 5.85283 64.2232 5.04416 62.9071C4.25134 61.5752 3.85493 60.0688 3.85493 58.3881C3.85493 56.7073 4.25134 55.2088 5.04416 53.8928C5.85283 52.5608 6.96278 51.5302 8.374 50.8008C9.78521 50.0555 11.3709 49.6829 13.1309 49.6829C14.7483 49.6829 16.1912 49.9683 17.4597 50.5391C18.7282 51.11 19.7747 51.9345 20.5993 53.0127L17.0554 56.1761C16.0247 54.8759 14.8117 54.2258 13.4163 54.2258C12.243 54.2258 11.2995 54.6063 10.586 55.3674C9.87242 56.1127 9.51566 57.1195 9.51566 58.3881C9.51566 59.6566 9.87242 60.6714 10.586 61.4325C11.2995 62.1777 12.243 62.5503 13.4163 62.5503C14.8117 62.5503 16.0247 61.9002 17.0554 60.6L20.5993 63.7634C19.7747 64.8416 18.7282 65.6661 17.4597 66.237C16.1912 66.8078 14.7483 67.0932 13.1309 67.0932ZM32.5662 61.1946L31.3057 62.5979V66.7126H25.7876V50.0635H31.3057V56.1047L36.7761 50.0635H42.8887L36.2291 57.3891L43.2217 66.7126H36.7285L32.5662 61.1946ZM61.3848 62.479V66.7126H47.5422V50.0635H61.0756V54.2971H53.0602V56.2474H60.1004V60.2908H53.0602V62.479H61.3848ZM70.7286 54.416H65.8527V50.0635H81.2176V54.416H76.3417V66.7126H70.7286V54.416ZM92.4509 67.0932C91.0714 67.0932 89.7236 66.9426 88.4076 66.6413C87.1073 66.3242 86.037 65.904 85.1966 65.3807L87.0043 61.2898C87.7971 61.7496 88.685 62.1222 89.6681 62.4076C90.6512 62.6772 91.5947 62.812 92.4985 62.812C93.2755 62.812 93.8304 62.7406 94.1634 62.5979C94.4964 62.4394 94.6629 62.2094 94.6629 61.9082C94.6629 61.5593 94.4409 61.2977 93.9969 61.1233C93.5688 60.9489 92.8553 60.7586 91.8563 60.5524C90.5719 60.2829 89.5016 59.9975 88.6454 59.6962C87.7892 59.3791 87.0439 58.8717 86.4096 58.174C85.7754 57.4605 85.4583 56.5011 85.4583 55.2961C85.4583 54.2495 85.7516 53.2982 86.3383 52.4419C86.925 51.5857 87.7971 50.9118 88.9546 50.4202C90.128 49.9287 91.5471 49.6829 93.212 49.6829C94.3537 49.6829 95.4716 49.8098 96.5657 50.0635C97.6756 50.3013 98.6508 50.6581 99.4912 51.1338L97.8025 55.2009C96.1692 54.3764 94.6232 53.9641 93.1645 53.9641C91.7215 53.9641 91.0001 54.313 91.0001 55.0106C91.0001 55.3436 91.2141 55.5973 91.6423 55.7717C92.0704 55.9303 92.776 56.1047 93.7591 56.295C95.0276 56.5329 96.0979 56.8103 96.97 57.1275C97.8421 57.4287 98.5953 57.9282 99.2295 58.6259C99.8796 59.3236 100.205 60.275 100.205 61.48C100.205 62.5266 99.9114 63.4779 99.3247 64.3342C98.738 65.1746 97.8579 65.8485 96.6846 66.3559C95.5271 66.8474 94.1158 67.0932 92.4509 67.0932Z" fill="#FFF7D1"/>
<path d="M-22.8767 54.416H-21.5418C-21.5418 53.6788 -22.1394 53.0811 -22.8767 53.0811V54.416ZM-27.7525 54.416H-29.0874C-29.0874 55.1533 -28.4898 55.7509 -27.7525 55.7509V54.416ZM-27.7525 50.0635V48.7285C-28.4898 48.7285 -29.0874 49.3262 -29.0874 50.0635H-27.7525ZM-12.3877 50.0635H-11.0528C-11.0528 49.3262 -11.6504 48.7285 -12.3877 48.7285V50.0635ZM-12.3877 54.416V55.7509C-11.6504 55.7509 -11.0528 55.1533 -11.0528 54.416H-12.3877ZM-17.2635 54.416V53.0811C-18.0008 53.0811 -18.5984 53.6788 -18.5984 54.416H-17.2635ZM-17.2635 66.7126V68.0476C-16.5263 68.0476 -15.9286 67.4499 -15.9286 66.7126H-17.2635ZM-22.8767 66.7126H-24.2116C-24.2116 67.4499 -23.6139 68.0476 -22.8767 68.0476V66.7126ZM-22.8767 53.0811H-27.7525V55.7509H-22.8767V53.0811ZM-26.4176 54.416V50.0635H-29.0874V54.416H-26.4176ZM-27.7525 51.3984H-12.3877V48.7285H-27.7525V51.3984ZM-13.7226 50.0635V54.416H-11.0528V50.0635H-13.7226ZM-12.3877 53.0811H-17.2635V55.7509H-12.3877V53.0811ZM-18.5984 54.416V66.7126H-15.9286V54.416H-18.5984ZM-17.2635 65.3777H-22.8767V68.0476H-17.2635V65.3777ZM-21.5418 66.7126V54.416H-24.2116V66.7126H-21.5418ZM-7.36209 50.0635V48.7285C-8.09934 48.7285 -8.69701 49.3262 -8.69701 50.0635H-7.36209ZM-1.74893 50.0635H-0.414017C-0.414017 49.3262 -1.01168 48.7285 -1.74893 48.7285V50.0635ZM-1.74893 66.7126V68.0476C-1.01168 68.0476 -0.414017 67.4499 -0.414017 66.7126H-1.74893ZM-7.36209 66.7126H-8.69701C-8.69701 67.4499 -8.09934 68.0476 -7.36209 68.0476V66.7126ZM-7.36209 51.3984H-1.74893V48.7285H-7.36209V51.3984ZM-3.08385 50.0635V66.7126H-0.414017V50.0635H-3.08385ZM-1.74893 65.3777H-7.36209V68.0476H-1.74893V65.3777ZM-6.02717 66.7126V50.0635H-8.69701V66.7126H-6.02717ZM8.374 65.9991L7.7506 67.1796L7.76107 67.185L8.374 65.9991ZM5.04416 62.9071L3.89707 63.5899C3.90028 63.5953 3.90352 63.6006 3.9068 63.606L5.04416 62.9071ZM5.04416 53.8928L3.90308 53.2L3.90069 53.2039L5.04416 53.8928ZM8.374 50.8008L8.98695 51.9867L8.99737 51.9812L8.374 50.8008ZM17.4597 50.5391L16.9119 51.7565V51.7565L17.4597 50.5391ZM20.5993 53.0127L21.4882 54.0086C22.0089 53.5438 22.0837 52.7563 21.6597 52.2018L20.5993 53.0127ZM17.0554 56.1761L16.0092 57.0053C16.2376 57.2934 16.5746 57.4745 16.9408 57.5061C17.3071 57.5376 17.6701 57.4167 17.9443 57.172L17.0554 56.1761ZM10.586 55.3674L11.5502 56.2907L11.5598 56.2804L10.586 55.3674ZM10.586 61.4325L9.61204 62.3455L9.62174 62.3557L10.586 61.4325ZM17.0554 60.6L17.9443 59.6041C17.6701 59.3594 17.3071 59.2385 16.9408 59.27C16.5746 59.3016 16.2376 59.4827 16.0092 59.7708L17.0554 60.6ZM20.5993 63.7634L21.6597 64.5743C22.0837 64.0198 22.0089 63.2323 21.4882 62.7675L20.5993 63.7634ZM17.4597 66.237L16.9119 65.0196L17.4597 66.237ZM13.1309 65.7583C11.5607 65.7583 10.1889 65.4345 8.98693 64.8132L7.76107 67.185C9.3815 68.0225 11.181 68.4281 13.1309 68.4281V65.7583ZM8.99737 64.8187C7.79016 64.1812 6.86079 63.3137 6.18152 62.2083L3.9068 63.606C4.84488 65.1327 6.1354 66.3266 7.75063 67.1795L8.99737 64.8187ZM6.19124 62.2243C5.53166 61.1162 5.18985 59.8494 5.18985 58.3881H2.52001C2.52001 60.2882 2.97102 62.0341 3.89707 63.5899L6.19124 62.2243ZM5.18985 58.3881C5.18985 56.9265 5.53168 55.6705 6.18762 54.5816L3.90069 53.2039C2.97099 54.7472 2.52001 56.4881 2.52001 58.3881H5.18985ZM6.18523 54.5856C6.86394 53.4677 7.78926 52.6057 8.98693 51.9867L7.76107 49.6149C6.1363 50.4547 4.84172 51.654 3.90309 53.2L6.18523 54.5856ZM8.99737 51.9812C10.1973 51.3475 11.5653 51.0178 13.1309 51.0178V48.348C11.1764 48.348 9.37314 48.7635 7.75063 49.6203L8.99737 51.9812ZM13.1309 51.0178C14.5899 51.0178 15.8414 51.2748 16.9119 51.7565L18.0075 49.3218C16.541 48.6619 14.9066 48.348 13.1309 48.348V51.0178ZM16.9119 51.7565C17.9837 52.2388 18.8523 52.9258 19.5389 53.8236L21.6597 52.2018C20.6972 50.9432 19.4727 49.9812 18.0075 49.3218L16.9119 51.7565ZM19.7103 52.0169L16.1664 55.1802L17.9443 57.172L21.4882 54.0086L19.7103 52.0169ZM18.1015 55.3468C16.871 53.7946 15.2982 52.8908 13.4163 52.8908V55.5607C14.3252 55.5607 15.1784 55.9571 16.0092 57.0053L18.1015 55.3468ZM13.4163 52.8908C11.9247 52.8908 10.6107 53.3892 9.61209 54.4544L11.5598 56.2804C11.9883 55.8234 12.5612 55.5607 13.4163 55.5607V52.8908ZM9.62174 54.4442C8.61835 55.4922 8.18074 56.8588 8.18074 58.3881H10.8506C10.8506 57.3803 11.1265 56.7331 11.5502 56.2906L9.62174 54.4442ZM8.18074 58.3881C8.18074 59.9184 8.61865 61.2858 9.61209 62.3455L11.5598 60.5195C11.1262 60.0569 10.8506 59.3947 10.8506 58.3881H8.18074ZM9.62174 62.3557C10.6226 63.401 11.9336 63.8853 13.4163 63.8853V61.2154C12.5523 61.2154 11.9764 60.9544 11.5502 60.5093L9.62174 62.3557ZM13.4163 63.8853C15.2982 63.8853 16.871 62.9815 18.1015 61.4293L16.0092 59.7708C15.1784 60.819 14.3252 61.2154 13.4163 61.2154V63.8853ZM16.1664 61.5959L19.7103 64.7592L21.4882 62.7675L17.9443 59.6041L16.1664 61.5959ZM19.5389 62.9525C18.8523 63.8503 17.9837 64.5373 16.9119 65.0196L18.0075 67.4543C19.4727 66.7949 20.6972 65.8329 21.6597 64.5743L19.5389 62.9525ZM16.9119 65.0196C15.8414 65.5013 14.5899 65.7583 13.1309 65.7583V68.4281C14.9066 68.4281 16.541 68.1142 18.0075 67.4543L16.9119 65.0196ZM32.5662 61.1946L33.632 60.3907C33.3918 60.0723 33.0218 59.878 32.6234 59.8609C32.2249 59.8439 31.8397 60.0059 31.5732 60.3025L32.5662 61.1946ZM31.3057 62.5979L30.3126 61.7058C30.0925 61.9508 29.9707 62.2686 29.9707 62.5979H31.3057ZM31.3057 66.7126V68.0476C32.0429 68.0476 32.6406 67.4499 32.6406 66.7126H31.3057ZM25.7876 66.7126H24.4527C24.4527 67.4499 25.0504 68.0476 25.7876 68.0476V66.7126ZM25.7876 50.0635V48.7285C25.0504 48.7285 24.4527 49.3262 24.4527 50.0635H25.7876ZM31.3057 50.0635H32.6406C32.6406 49.3262 32.0429 48.7285 31.3057 48.7285V50.0635ZM31.3057 56.1047H29.9707C29.9707 56.6567 30.3105 57.1518 30.8255 57.3503C31.3406 57.5488 31.9247 57.4099 32.2952 57.0008L31.3057 56.1047ZM36.7761 50.0635V48.7285C36.3991 48.7285 36.0396 48.888 35.7866 49.1674L36.7761 50.0635ZM42.8887 50.0635L43.8765 50.9614C44.2319 50.5704 44.3233 50.0066 44.1095 49.5234C43.8958 49.0402 43.4171 48.7285 42.8887 48.7285V50.0635ZM36.2291 57.3891L35.2413 56.4911C34.8106 56.9649 34.7769 57.6778 35.1611 58.19L36.2291 57.3891ZM43.2217 66.7126V68.0476C43.7273 68.0476 44.1896 67.7619 44.4157 67.3096C44.6418 66.8574 44.593 66.3162 44.2897 65.9117L43.2217 66.7126ZM36.7285 66.7126L35.6628 67.5165C35.9151 67.8509 36.3097 68.0476 36.7285 68.0476V66.7126ZM31.5732 60.3025L30.3126 61.7058L32.2987 63.49L33.5593 62.0867L31.5732 60.3025ZM29.9707 62.5979V66.7126H32.6406V62.5979H29.9707ZM31.3057 65.3777H25.7876V68.0476H31.3057V65.3777ZM27.1226 66.7126V50.0635H24.4527V66.7126H27.1226ZM25.7876 51.3984H31.3057V48.7285H25.7876V51.3984ZM29.9707 50.0635V56.1047H32.6406V50.0635H29.9707ZM32.2952 57.0008L37.7656 50.9595L35.7866 49.1674L30.3161 55.2087L32.2952 57.0008ZM36.7761 51.3984H42.8887V48.7285H36.7761V51.3984ZM41.901 49.1655L35.2413 56.4911L37.2168 58.2871L43.8765 50.9614L41.901 49.1655ZM35.1611 58.19L42.1538 67.5136L44.2897 65.9117L37.297 56.5881L35.1611 58.19ZM43.2217 65.3777H36.7285V68.0476H43.2217V65.3777ZM37.7943 65.9088L33.632 60.3907L31.5005 61.9985L35.6628 67.5165L37.7943 65.9088ZM61.3848 62.479H62.7197C62.7197 61.7417 62.122 61.1441 61.3848 61.1441V62.479ZM61.3848 66.7126V68.0476C62.122 68.0476 62.7197 67.4499 62.7197 66.7126H61.3848ZM47.5422 66.7126H46.2072C46.2072 67.4499 46.8049 68.0476 47.5422 68.0476V66.7126ZM47.5422 50.0635V48.7285C46.8049 48.7285 46.2072 49.3262 46.2072 50.0635H47.5422ZM61.0756 50.0635H62.4105C62.4105 49.3262 61.8128 48.7285 61.0756 48.7285V50.0635ZM61.0756 54.2971V55.632C61.8128 55.632 62.4105 55.0344 62.4105 54.2971H61.0756ZM53.0602 54.2971V52.9622C52.3229 52.9622 51.7253 53.5599 51.7253 54.2971H53.0602ZM53.0602 56.2474H51.7253C51.7253 56.9847 52.3229 57.5824 53.0602 57.5824V56.2474ZM60.1004 56.2474H61.4353C61.4353 55.5102 60.8377 54.9125 60.1004 54.9125V56.2474ZM60.1004 60.2908V61.6257C60.8377 61.6257 61.4353 61.0281 61.4353 60.2908H60.1004ZM53.0602 60.2908V58.9559C52.3229 58.9559 51.7253 59.5536 51.7253 60.2908H53.0602ZM53.0602 62.479H51.7253C51.7253 63.2162 52.3229 63.8139 53.0602 63.8139V62.479ZM60.0499 62.479V66.7126H62.7197V62.479H60.0499ZM61.3848 65.3777H47.5422V68.0476H61.3848V65.3777ZM48.8771 66.7126V50.0635H46.2072V66.7126H48.8771ZM47.5422 51.3984H61.0756V48.7285H47.5422V51.3984ZM59.7407 50.0635V54.2971H62.4105V50.0635H59.7407ZM61.0756 52.9622H53.0602V55.632H61.0756V52.9622ZM51.7253 54.2971V56.2474H54.3951V54.2971H51.7253ZM53.0602 57.5824H60.1004V54.9125H53.0602V57.5824ZM58.7655 56.2474V60.2908H61.4353V56.2474H58.7655ZM60.1004 58.9559H53.0602V61.6257H60.1004V58.9559ZM51.7253 60.2908V62.479H54.3951V60.2908H51.7253ZM53.0602 63.8139H61.3848V61.1441H53.0602V63.8139ZM70.7286 54.416H72.0635C72.0635 53.6788 71.4658 53.0811 70.7286 53.0811V54.416ZM65.8527 54.416H64.5178C64.5178 55.1533 65.1155 55.7509 65.8527 55.7509V54.416ZM65.8527 50.0635V48.7285C65.1155 48.7285 64.5178 49.3262 64.5178 50.0635H65.8527ZM81.2176 50.0635H82.5525C82.5525 49.3262 81.9548 48.7285 81.2176 48.7285V50.0635ZM81.2176 54.416V55.7509C81.9548 55.7509 82.5525 55.1533 82.5525 54.416H81.2176ZM76.3417 54.416V53.0811C75.6045 53.0811 75.0068 53.6788 75.0068 54.416H76.3417ZM76.3417 66.7126V68.0476C77.079 68.0476 77.6766 67.4499 77.6766 66.7126H76.3417ZM70.7286 66.7126H69.3936C69.3936 67.4499 69.9913 68.0476 70.7286 68.0476V66.7126ZM70.7286 53.0811H65.8527V55.7509H70.7286V53.0811ZM67.1876 54.416V50.0635H64.5178V54.416H67.1876ZM65.8527 51.3984H81.2176V48.7285H65.8527V51.3984ZM79.8826 50.0635V54.416H82.5525V50.0635H79.8826ZM81.2176 53.0811H76.3417V55.7509H81.2176V53.0811ZM75.0068 54.416V66.7126H77.6766V54.416H75.0068ZM76.3417 65.3777H70.7286V68.0476H76.3417V65.3777ZM72.0635 66.7126V54.416H69.3936V66.7126H72.0635ZM88.4075 66.6413L88.0912 67.9382C88.0974 67.9397 88.1035 67.9411 88.1097 67.9426L88.4075 66.6413ZM85.1966 65.3807L83.9756 64.8412C83.7069 65.4493 83.9267 66.1625 84.4911 66.5139L85.1966 65.3807ZM87.0043 61.2898L87.674 60.135C87.3458 59.9446 86.952 59.903 86.5912 60.0204C86.2304 60.1378 85.9366 60.4032 85.7832 60.7502L87.0043 61.2898ZM89.6681 62.4076L89.2959 63.6896C89.3023 63.6915 89.3087 63.6933 89.3151 63.695L89.6681 62.4076ZM94.1634 62.5979L94.6893 63.8249C94.7054 63.818 94.7215 63.8107 94.7373 63.8032L94.1634 62.5979ZM93.9969 61.1233L93.4933 62.3595C93.4984 62.3616 93.5036 62.3637 93.5088 62.3658L93.9969 61.1233ZM91.8563 60.5524L91.5821 61.8589L91.5865 61.8598L91.8563 60.5524ZM88.6454 59.6962L88.1818 60.948C88.1886 60.9505 88.1954 60.953 88.2023 60.9554L88.6454 59.6962ZM86.4096 58.174L85.4119 59.0609C85.4152 59.0646 85.4185 59.0683 85.4219 59.072L86.4096 58.174ZM86.3383 52.4419L87.4395 53.1964L86.3383 52.4419ZM88.9546 50.4202L88.4388 49.189L88.4328 49.1915L88.9546 50.4202ZM96.5657 50.0635L96.2641 51.3639C96.2714 51.3656 96.2787 51.3672 96.2859 51.3687L96.5657 50.0635ZM99.4912 51.1338L100.724 51.6457C100.983 51.0226 100.736 50.3044 100.149 49.972L99.4912 51.1338ZM97.8025 55.2009L97.2008 56.3926C97.5322 56.5599 97.9182 56.5816 98.2663 56.4527C98.6143 56.3237 98.893 56.0556 99.0353 55.7128L97.8025 55.2009ZM91.6423 55.7717L91.1386 57.008C91.1518 57.0134 91.1652 57.0186 91.1786 57.0236L91.6423 55.7717ZM93.7591 56.295L93.5054 57.6056L93.5131 57.6071L93.7591 56.295ZM96.97 57.1275L96.5138 58.382C96.5205 58.3845 96.5273 58.3869 96.5341 58.3892L96.97 57.1275ZM99.2295 58.6259L98.2418 59.5239C98.2455 59.5279 98.2492 59.5319 98.2529 59.5359L99.2295 58.6259ZM99.3247 64.3342L100.419 65.0984L100.426 65.0887L99.3247 64.3342ZM96.6846 66.3559L97.2064 67.5846L97.2144 67.5811L96.6846 66.3559ZM92.4509 65.7583C91.1695 65.7583 89.9217 65.6185 88.7054 65.34L88.1097 67.9426C89.5256 68.2667 90.9734 68.4281 92.4509 68.4281V65.7583ZM88.7239 65.3444C87.5162 65.0498 86.5884 64.6748 85.9022 64.2475L84.4911 66.5139C85.4856 67.1332 86.6985 67.5985 88.0912 67.9382L88.7239 65.3444ZM86.4177 65.9202L88.2253 61.8293L85.7832 60.7502L83.9756 64.8412L86.4177 65.9202ZM86.3345 62.4445C87.2312 62.9646 88.2208 63.3775 89.2959 63.6896L90.0403 61.1257C89.1493 60.867 88.363 60.5346 87.674 60.135L86.3345 62.4445ZM89.3151 63.695C90.3988 63.9922 91.4613 64.1469 92.4985 64.1469V61.4771C91.728 61.4771 90.9036 61.3622 90.0211 61.1202L89.3151 63.695ZM92.4985 64.1469C93.2963 64.1469 94.0883 64.0825 94.6893 63.8249L93.6376 61.3709C93.6383 61.3706 93.6152 61.3803 93.5592 61.3938C93.5043 61.4071 93.4282 61.4215 93.3272 61.4344C93.1231 61.4607 92.8501 61.4771 92.4985 61.4771V64.1469ZM94.7373 63.8032C95.047 63.6557 95.3715 63.4316 95.6192 63.0895C95.8778 62.7324 95.9978 62.3217 95.9978 61.9082H93.328C93.328 61.7959 93.3647 61.6508 93.4568 61.5236C93.5381 61.4114 93.6128 61.3816 93.5895 61.3927L94.7373 63.8032ZM95.9978 61.9082C95.9978 61.4232 95.8337 60.9631 95.5143 60.5867C95.2159 60.235 94.8364 60.0188 94.485 59.8808L93.5088 62.3658C93.6014 62.4021 93.5549 62.404 93.4785 62.314C93.4374 62.2655 93.3961 62.1998 93.3667 62.1191C93.3375 62.0387 93.328 61.965 93.328 61.9082H95.9978ZM94.5006 59.887C93.9504 59.6629 93.1331 59.4529 92.1261 59.2451L91.5865 61.8598C92.5774 62.0643 93.1872 62.2349 93.4933 62.3595L94.5006 59.887ZM92.1305 59.246C90.8806 58.9837 89.8712 58.7124 89.0885 58.437L88.2023 60.9554C89.1321 61.2826 90.2633 61.5821 91.5821 61.8589L92.1305 59.246ZM89.109 58.4444C88.46 58.204 87.8927 57.8208 87.3974 57.276L85.4219 59.072C86.1951 59.9225 87.1183 60.5541 88.1818 60.948L89.109 58.4444ZM87.4074 57.2871C87.0428 56.877 86.7932 56.2629 86.7932 55.2961H84.1234C84.1234 56.7394 84.508 58.0439 85.4119 59.0609L87.4074 57.2871ZM86.7932 55.2961C86.7932 54.5165 87.0064 53.8286 87.4395 53.1964L85.2371 51.6874C84.4968 52.7677 84.1234 53.9826 84.1234 55.2961H86.7932ZM87.4395 53.1964C87.8544 52.591 88.5033 52.0622 89.4764 51.6489L88.4328 49.1915C87.0908 49.7614 85.9956 50.5803 85.2371 51.6874L87.4395 53.1964ZM89.4704 51.6515C90.4384 51.2459 91.6722 51.0178 93.212 51.0178V48.348C91.422 48.348 89.8175 48.6114 88.4388 49.189L89.4704 51.6515ZM93.212 51.0178C94.2539 51.0178 95.2705 51.1335 96.2641 51.3639L96.8672 48.763C95.6726 48.486 94.4535 48.348 93.212 48.348V51.0178ZM96.2859 51.3687C97.286 51.583 98.1297 51.8971 98.8336 52.2955L100.149 49.972C99.1718 49.4191 98.0652 49.0196 96.8454 48.7582L96.2859 51.3687ZM98.2583 50.6219L96.5696 54.689L99.0353 55.7128L100.724 51.6457L98.2583 50.6219ZM98.4041 54.0093C96.6306 53.1139 94.8786 52.6292 93.1645 52.6292V55.299C94.3679 55.299 95.7079 55.6389 97.2008 56.3926L98.4041 54.0093ZM93.1645 52.6292C92.3781 52.6292 91.5941 52.7174 90.9601 53.0239C90.6249 53.186 90.2878 53.4303 90.0363 53.7951C89.7775 54.1705 89.6652 54.5933 89.6652 55.0106H92.335C92.335 55.0792 92.3128 55.1967 92.2344 55.3105C92.1633 55.4136 92.0966 55.4399 92.1223 55.4276C92.1521 55.4131 92.2438 55.3774 92.4299 55.3474C92.6123 55.318 92.854 55.299 93.1645 55.299V52.6292ZM89.6652 55.0106C89.6652 55.4911 89.8294 55.943 90.1404 56.3115C90.4305 56.6554 90.7987 56.8695 91.1386 57.008L92.1459 54.5355C92.0577 54.4996 92.1048 54.4996 92.1809 54.5898C92.2219 54.6385 92.264 54.7051 92.2943 54.788C92.3245 54.8707 92.335 54.9482 92.335 55.0106H89.6652ZM91.1786 57.0236C91.7167 57.2229 92.5145 57.4138 93.5054 57.6056L94.0127 54.9844C93.0374 54.7956 92.4241 54.6378 92.1059 54.5199L91.1786 57.0236ZM93.5131 57.6071C94.7355 57.8363 95.7307 58.0973 96.5138 58.382L97.4262 55.8729C96.4651 55.5234 95.3197 55.2294 94.0051 54.983L93.5131 57.6071ZM96.5341 58.3892C97.1899 58.6158 97.7546 58.988 98.2418 59.5239L100.217 57.7279C99.4359 56.8684 98.4943 56.2417 97.4059 55.8657L96.5341 58.3892ZM98.2529 59.5359C98.6165 59.9261 98.8698 60.52 98.8698 61.48H101.54C101.54 60.0299 101.143 58.721 100.206 57.7158L98.2529 59.5359ZM98.8698 61.48C98.8698 62.2596 98.6566 62.9475 98.2234 63.5797L100.426 65.0887C101.166 64.0084 101.54 62.7935 101.54 61.48H98.8698ZM98.2301 63.5701C97.8165 64.1625 97.1567 64.6973 96.1547 65.1306L97.2144 67.5811C98.5592 66.9996 99.6595 66.1866 100.419 65.0983L98.2301 63.5701ZM96.1628 65.1272C95.2144 65.5299 93.9916 65.7583 92.4509 65.7583V68.4281C94.24 68.4281 95.8397 68.165 97.2064 67.5846L96.1628 65.1272Z" fill="#2A6F97" mask="url(#path-28-outside-1_1938_283)"/>
</svg>
