<svg width="820" height="222" viewBox="0 0 820 222" fill="none" xmlns="http://www.w3.org/2000/svg">
<path d="M737.729 142.632H697.14C692.209 142.632 689.553 140.893 689.174 137.416C689.174 135.772 689.996 133.939 691.64 131.916C694.042 129.197 695.749 126.7 696.761 124.424C697.772 122.148 698.278 119.587 698.278 116.742V84.4032C698.278 83.2652 698.183 82.3168 697.993 81.5582C697.804 80.7362 697.393 79.946 696.761 79.1873C696.128 78.3654 695.117 77.3222 693.726 76.0577L691.071 73.4023C690.502 72.7069 690.217 72.043 690.217 71.4108C690.217 70.5257 690.502 69.7986 691.071 69.2296L693.726 66.5742C695.117 65.3098 696.128 64.2982 696.761 63.5395C697.393 62.7176 697.804 61.9273 697.993 61.1686C698.183 60.3467 698.278 59.3668 698.278 58.2287V38.9772C698.278 36.0689 697.93 33.4452 697.235 31.1059C696.539 28.7034 694.453 26.9964 690.976 25.9848C687.498 24.9732 685.76 23.0133 685.76 20.105C685.76 17.7658 687.498 15.4265 690.976 13.0872C694.516 10.6848 698.721 8.50354 703.589 6.54362C708.457 4.58369 713.167 3.00311 717.719 1.80187C722.334 0.600621 725.717 0 727.867 0C730.079 0 732.071 0.758679 733.841 2.27604C735.611 3.73018 736.528 6.32233 736.591 10.0525V58.0391C736.591 59.1771 736.655 60.157 736.781 60.9789C736.971 61.8008 737.382 62.6227 738.014 63.4447C738.709 64.2033 739.753 65.2149 741.143 66.4794L743.894 69.2296C744.463 69.7986 744.747 70.5257 744.747 71.4108C744.747 72.043 744.463 72.7069 743.894 73.4023L741.143 76.1526C739.753 77.417 738.709 78.4602 738.014 79.2821C737.382 80.0408 736.971 80.8311 736.781 81.653C736.655 82.4749 736.591 83.4548 736.591 84.5929V116.742C736.591 119.587 737.097 122.148 738.109 124.424C739.184 126.636 740.922 129.134 743.325 131.916C744.968 133.939 745.79 135.772 745.79 137.416C745.79 138.997 745.063 140.261 743.609 141.209C742.218 142.158 740.258 142.632 737.729 142.632Z" fill="url(#paint0_linear_1931_655)"/>
<path d="M811.093 142.632H770.503C765.572 142.632 762.916 140.893 762.537 137.416C762.537 135.772 763.359 133.939 765.003 131.916C767.405 129.197 769.112 126.7 770.124 124.424C771.136 122.148 771.641 119.587 771.641 116.742V84.4032C771.641 83.2652 771.546 82.3168 771.357 81.5582C771.167 80.7362 770.756 79.946 770.124 79.1873C769.492 78.3654 768.48 77.3222 767.089 76.0577L764.434 73.4023C763.865 72.7069 763.58 72.043 763.58 71.4108C763.58 70.5257 763.865 69.7986 764.434 69.2296L767.089 66.5742C768.48 65.3098 769.492 64.2982 770.124 63.5395C770.756 62.7176 771.167 61.9273 771.357 61.1686C771.546 60.3467 771.641 59.3668 771.641 58.2287V38.9772C771.641 36.0689 771.294 33.4452 770.598 31.1059C769.903 28.7034 767.816 26.9964 764.339 25.9848C760.862 24.9732 759.123 23.0133 759.123 20.105C759.123 17.7658 760.862 15.4265 764.339 13.0872C767.879 10.6848 772.084 8.50354 776.952 6.54362C781.82 4.58369 786.53 3.00311 791.082 1.80187C795.698 0.600621 799.08 0 801.23 0C803.443 0 805.434 0.758679 807.204 2.27604C808.975 3.73018 809.891 6.32233 809.955 10.0525V58.0391C809.955 59.1771 810.018 60.157 810.144 60.9789C810.334 61.8008 810.745 62.6227 811.377 63.4447C812.073 64.2033 813.116 65.2149 814.507 66.4794L817.257 69.2296C817.826 69.7986 818.11 70.5257 818.11 71.4108C818.11 72.043 817.826 72.7069 817.257 73.4023L814.507 76.1526C813.116 77.417 812.073 78.4602 811.377 79.2821C810.745 80.0408 810.334 80.8311 810.144 81.653C810.018 82.4749 809.955 83.4548 809.955 84.5929V116.742C809.955 119.587 810.46 122.148 811.472 124.424C812.547 126.636 814.285 129.134 816.688 131.916C818.332 133.939 819.154 135.772 819.154 137.416C819.154 138.997 818.427 140.261 816.972 141.209C815.582 142.158 813.622 142.632 811.093 142.632Z" fill="url(#paint1_linear_1931_655)"/>
<circle cx="718.303" cy="100.342" r="4.30008" fill="#FFF7D1"/>
<circle cx="718.303" cy="126.899" r="4.30008" fill="#FFF7D1"/>
<circle cx="718.303" cy="21.4126" r="4.30008" fill="#FFF7D1"/>
<circle cx="718.303" cy="47.7217" r="4.30008" fill="#FFF7D1"/>
<circle cx="718.303" cy="74.0305" r="4.30008" fill="#FFF7D1"/>
<circle cx="792.461" cy="100.343" r="4.30008" fill="#FFF7D1"/>
<circle cx="792.461" cy="126.899" r="4.30008" fill="#FFF7D1"/>
<circle cx="792.461" cy="21.4129" r="4.30008" fill="#FFF7D1"/>
<circle cx="792.461" cy="47.722" r="4.30008" fill="#FFF7D1"/>
<circle cx="792.461" cy="74.0308" r="4.30008" fill="#FFF7D1"/>
<path d="M430.474 126.762H399.994C397.629 126.762 395.674 126.207 394.13 125.097C392.634 123.986 391.885 122.611 391.885 120.97C391.885 120.149 392.078 119.353 392.465 118.581C393.623 116.361 394.202 114.237 394.202 112.21C394.202 110.617 393.816 108.879 393.044 106.997L381.098 76.6619C380.615 75.6001 380.036 75.0692 379.36 75.0692C378.636 75.0692 377.912 75.5518 377.188 76.5171L372.917 81.585C371.807 82.8882 371.01 84.1673 370.528 85.4222C370.093 86.6771 369.876 88.3664 369.876 90.4901L369.804 106.997C369.804 109.217 370.19 111.172 370.962 112.861C371.734 114.551 373.062 116.457 374.944 118.581C376.151 120.125 376.754 121.525 376.754 122.78C376.754 123.986 376.199 124.952 375.089 125.676C374.027 126.4 372.555 126.762 370.673 126.762H339.686C335.873 126.762 333.846 125.41 333.604 122.707C333.604 121.453 334.208 120.077 335.414 118.581C337.249 116.457 338.552 114.551 339.324 112.861C340.144 111.172 340.555 109.217 340.555 106.997V82.9606C340.555 81.7057 340.482 80.7645 340.338 80.1371C340.193 79.5096 339.879 78.9063 339.396 78.3271C338.914 77.6996 338.166 76.9274 337.152 76.0103L334.98 73.9108C334.546 73.4281 334.328 72.8972 334.328 72.318C334.328 71.7388 334.546 71.2079 334.98 70.7252L337.224 68.5533C338.19 67.588 338.914 66.8157 339.396 66.2365C339.879 65.6573 340.193 65.054 340.338 64.4266C340.482 63.7509 340.555 62.7855 340.555 61.5306V37.7115C340.555 35.443 340.169 33.4641 339.396 31.7748C338.624 30.0855 337.297 28.179 335.414 26.0553C334.208 24.5108 333.604 23.1352 333.604 21.9286C333.604 20.7219 334.135 19.7566 335.197 19.0326C336.307 18.2604 337.804 17.8743 339.686 17.8743H370.673C374.437 17.8743 376.464 19.2257 376.754 21.9286C376.754 23.1352 376.151 24.5108 374.944 26.0553C373.062 28.179 371.734 30.0855 370.962 31.7748C370.19 33.4641 369.804 35.443 369.804 37.7115V56.3903C369.804 58.2727 370.262 59.2139 371.179 59.2139C371.952 59.2139 372.845 58.6347 373.858 57.4763L391.451 37.7115C393.623 35.2499 395.071 33.3434 395.795 31.992C396.567 30.5923 396.953 29.265 396.953 28.0101C396.953 27.5274 396.881 26.9482 396.736 26.2725C396.591 25.5485 396.519 24.8245 396.519 24.1005C396.519 22.1699 397.17 20.6495 398.474 19.5394C399.825 18.4293 401.925 17.8743 404.772 17.8743H426.854C427.964 17.8743 428.953 18.188 429.822 18.8154C430.739 19.3946 431.198 20.191 431.198 21.2046C431.198 23.0387 429.943 24.6556 427.433 26.0553C423.62 28.179 420.483 30.0855 418.021 31.7748C415.56 33.4641 413.364 35.443 411.433 37.7115L403.904 46.3269C402.311 48.2093 401.514 50.3571 401.514 52.7704C401.514 54.3632 401.852 55.9801 402.528 57.6211C405.52 64.861 408.247 71.3286 410.709 77.0239C414.136 84.843 418.311 94.834 423.234 106.997L423.379 107.359C424.151 109.434 425.044 111.317 426.058 113.006C427.119 114.647 428.929 116.505 431.487 118.581C432.887 119.739 433.852 120.753 434.383 121.621C434.914 122.442 435.18 123.238 435.18 124.011C435.18 125.748 433.611 126.665 430.474 126.762Z" fill="url(#paint2_linear_1931_655)"/>
<circle cx="354.198" cy="116.308" r="3.99942" fill="#FFF7D1"/>
<circle cx="354.198" cy="27.1366" r="3.99942" fill="#B1D477"/>
<path d="M350.876 51.446L354.199 35.8303L357.522 51.446L364.525 53.7758L357.522 55.9291L354.199 71.7213L350.876 55.9291L343.873 53.7758L350.876 51.446Z" fill="#B1D477"/>
<path d="M350.876 87.3359L354.199 71.7202L357.522 87.3359L364.525 89.6657L357.522 91.819L354.199 107.611L350.876 91.819L343.873 89.6657L350.876 87.3359Z" fill="#FFF7D1"/>
<path d="M615.692 126.594H583.736C579.854 126.594 577.763 125.225 577.464 122.488C577.464 121.193 578.087 119.75 579.331 118.157C581.222 115.967 582.566 114.001 583.363 112.259C584.209 110.467 584.632 108.451 584.632 106.211V80.6761C584.632 79.7802 584.557 79.0336 584.408 78.4363C584.309 77.8389 584.01 77.2665 583.512 76.719C583.014 76.1217 582.243 75.3253 581.198 74.3298L578.883 72.0899C578.435 71.5921 578.211 71.0446 578.211 70.4473C578.211 69.85 578.435 69.3025 578.883 68.8047L581.198 66.4901C582.243 65.5942 583.014 64.8475 583.512 64.2502C584.01 63.6529 584.333 63.0059 584.483 62.309C584.582 61.8112 584.632 61.1642 584.632 60.3678V38.3421C584.632 36.3013 584.582 34.808 584.483 33.8623C584.383 32.8668 584.06 32.2446 583.512 31.9957C582.965 31.7468 582.044 31.6224 580.75 31.6224H572.537C570.994 31.6224 569.525 32.2695 568.132 33.5637C566.738 34.808 565.344 36.2764 563.95 37.9688C562.606 39.6114 561.188 41.1046 559.695 42.4486C558.102 43.693 556.658 44.3152 555.364 44.3152C554.319 44.3152 553.323 43.8921 552.378 43.0459C551.432 42.1499 550.959 40.9802 550.959 39.5367C550.959 39.0887 551.034 38.591 551.183 38.0434L552.676 32.2944C554.02 27.0182 555.14 23.0859 556.036 20.4976C556.982 17.9093 558.152 16.2418 559.545 15.4951C560.939 14.6987 563.079 14.3005 565.966 14.3005H633.462C636.249 14.3005 638.315 14.6739 639.659 15.4205C641.053 16.1173 642.197 17.6853 643.093 20.1243C643.989 22.5633 645.06 26.2467 646.304 31.1744L648.17 38.0434C648.32 38.591 648.394 39.1385 648.394 39.686C648.394 41.0797 647.922 42.1997 646.976 43.0459C646.08 43.8921 645.109 44.3152 644.064 44.3152C642.82 44.3152 641.376 43.693 639.734 42.4486C638.19 41.0549 636.722 39.5367 635.328 37.8941C633.935 36.2018 632.541 34.7583 631.147 33.5637C629.803 32.3193 628.385 31.6722 626.891 31.6224H617.335C616.289 31.6224 615.592 31.8464 615.244 32.2944C614.945 32.6926 614.796 33.6632 614.796 35.2062V59.9198C614.796 61.3633 614.97 62.4334 615.319 63.1303C615.667 63.7774 616.439 64.6484 617.633 65.7435C618.38 66.4901 619.35 67.5105 620.545 68.8047C620.993 69.3025 621.217 69.85 621.217 70.4473C621.217 71.0446 620.993 71.5921 620.545 72.0899L618.231 74.3298C617.185 75.2755 616.414 76.047 615.916 76.6443C615.418 77.2416 615.095 77.8887 614.945 78.5856C614.846 79.0833 614.796 79.7304 614.796 80.5268V106.211C614.796 108.451 615.194 110.467 615.991 112.259C616.837 114.001 618.206 115.967 620.097 118.157C621.341 119.75 621.964 121.193 621.964 122.488C621.964 123.732 621.391 124.727 620.246 125.474C619.151 126.221 617.633 126.594 615.692 126.594Z" fill="url(#paint3_linear_1931_655)"/>
<circle cx="599.682" cy="112.702" r="3.79066" fill="#FFF7D1"/>
<circle cx="599.682" cy="28.1928" r="3.79066" fill="#FFA66A"/>
<path d="M596.519 51.2306L599.669 36.4314L602.818 51.2306L609.455 53.4386L602.818 55.4793L599.669 70.4458L596.519 55.4793L589.883 53.4386L596.519 51.2306Z" fill="#FFA66A"/>
<path d="M596.519 85.2455L599.669 70.4463L602.818 85.2455L609.455 87.4535L602.818 89.4942L599.669 104.461L596.519 89.4942L589.883 87.4535L596.519 85.2455Z" fill="#FFF7D1"/>
<path d="M287.874 126.721C278.945 126.674 271.636 125.077 265.95 121.928C260.31 118.732 255.822 114.149 252.485 108.181C249.195 102.165 246.587 94.8804 244.66 86.3267C244.049 83.6479 243.72 81.8384 243.673 80.8985C243.579 80.2875 243.485 79.8175 243.391 79.4885C243.297 79.1596 243.085 78.8306 242.756 78.5016C242.474 78.1726 241.981 77.6791 241.276 77.0212C240.571 76.3632 239.49 75.3057 238.033 73.8488C237.61 73.3788 237.398 72.8618 237.398 72.2979C237.398 71.7339 237.61 71.2169 238.033 70.7469C239.443 69.337 240.5 68.303 241.205 67.6451C241.957 66.9871 242.474 66.4936 242.756 66.1646C243.085 65.7887 243.297 65.4362 243.391 65.1072C243.485 64.7782 243.579 64.3082 243.673 63.6972C243.72 62.7573 244.049 60.9479 244.66 58.269C246.587 49.7154 249.195 42.4542 252.485 36.4854C255.822 30.4697 260.31 25.8874 265.95 22.7386C271.636 19.5427 278.945 17.9213 287.874 17.8743C291.681 17.8743 295.441 18.2033 299.154 18.8612L302.538 19.4252C304.135 19.7542 305.428 19.9187 306.415 19.9187C307.59 19.9187 308.718 19.8952 309.799 19.8482C310.88 19.8012 312.031 19.7777 313.253 19.7777C314.992 19.7777 316.449 20.4122 317.624 21.6811C318.799 22.903 319.668 25.2529 320.232 28.7308C320.843 32.2086 321.149 37.3549 321.149 44.1696C321.149 48.7284 320.397 52.4412 318.893 55.3081C317.436 58.175 315.415 59.6084 312.83 59.6084C311.702 59.6084 310.574 59.1149 309.446 58.128C308.365 57.141 307.519 55.5901 306.908 53.4752C305.874 49.3864 304.793 45.9085 303.665 43.0417C302.538 40.1748 300.963 37.9894 298.942 36.4854C296.921 34.9345 293.96 34.159 290.06 34.159C285.313 34.159 281.247 36.2505 277.864 40.4333C274.48 44.6161 272.717 50.7258 272.576 58.7625C272.576 61.6763 273.046 63.9322 273.986 65.5302C274.926 67.0811 275.866 68.303 276.806 69.196C277.323 69.76 277.746 70.2769 278.075 70.7469C278.451 71.2169 278.639 71.7104 278.639 72.2274C278.639 72.7913 278.451 73.3318 278.075 73.8488C277.746 74.3188 277.323 74.8357 276.806 75.3997C275.819 76.3867 274.856 77.6556 273.916 79.2066C273.023 80.7575 272.576 82.9664 272.576 85.8333C272.764 93.8699 274.527 99.9796 277.864 104.162C281.247 108.345 285.313 110.437 290.06 110.437C293.96 110.437 296.921 109.685 298.942 108.181C300.963 106.677 302.538 104.491 303.665 101.625C304.793 98.7577 305.874 95.2798 306.908 91.191C307.519 89.0291 308.365 87.4547 309.446 86.4677C310.574 85.4808 311.702 84.9873 312.83 84.9873C315.415 84.9873 317.436 86.4207 318.893 89.2876C320.397 92.1545 321.149 95.8673 321.149 100.426C321.149 107.194 320.843 112.34 320.232 115.865C319.668 119.343 318.799 121.716 317.624 122.985C316.449 124.207 314.992 124.818 313.253 124.818C312.031 124.818 310.88 124.795 309.799 124.748C308.718 124.701 307.59 124.677 306.415 124.677C305.428 124.677 304.135 124.842 302.538 125.171L299.154 125.734C295.441 126.392 291.681 126.721 287.874 126.721Z" fill="url(#paint4_linear_1931_655)"/>
<circle cx="272.433" cy="115.137" r="3.89436" fill="#FFF7D1"/>
<circle cx="272.433" cy="28.3038" r="3.89436" fill="#FFDB59"/>
<path d="M256.762 51.9721L259.998 36.7666L263.234 51.9721L270.053 54.2407L263.234 56.3374L259.998 71.7148L256.762 56.3374L249.943 54.2407L256.762 51.9721Z" fill="#FFDB59"/>
<path d="M256.762 86.9257L259.998 71.7202L263.234 86.9257L270.053 89.1943L263.234 91.291L259.998 106.668L256.762 91.291L249.943 89.1943L256.762 86.9257Z" fill="#FFF7D1"/>
<path d="M234.121 126.499H202.247C199.764 126.499 197.973 126.117 196.875 125.353C195.776 124.589 195.227 123.61 195.227 122.416C195.227 121.175 195.609 119.862 196.373 118.477C197.185 117.044 197.806 115.779 198.236 114.681C198.665 113.535 198.88 112.365 198.88 111.171C198.88 109.881 198.618 108.473 198.092 106.945L197.877 106.228C197.639 105.226 197.304 104.533 196.875 104.151C196.493 103.769 195.657 103.578 194.368 103.578C190.691 103.483 182.573 103.435 170.014 103.435C168.772 103.435 167.937 103.674 167.507 104.151C167.077 104.629 166.719 105.297 166.432 106.157C165.621 108.162 165.215 109.81 165.215 111.099C165.215 112.293 165.43 113.463 165.859 114.609C166.289 115.755 166.91 116.997 167.722 118.334C168.534 119.671 168.939 120.984 168.939 122.273C168.939 123.515 168.39 124.541 167.292 125.353C166.194 126.117 164.427 126.499 161.991 126.499H142.652C140.885 126.499 139.619 126.141 138.855 125.425C138.044 124.661 137.638 123.73 137.638 122.631C137.638 121.247 138.426 119.838 140.001 118.405C142.437 116.352 144.299 114.466 145.588 112.747C146.926 111.027 147.904 109.094 148.525 106.945L155.187 84.5249C155.903 82.567 156.261 81.1106 156.261 80.1555C156.261 79.678 156.142 79.2482 155.903 78.8662C155.664 78.4365 155.33 77.935 154.9 77.362C153.324 75.2132 152.536 73.8522 152.536 73.2792C152.536 72.8017 152.632 72.3958 152.823 72.0615C153.062 71.5362 154.232 70.5573 156.333 69.1247C157.813 68.0264 158.888 67.1669 159.556 66.5461C160.272 65.8776 160.798 65.1374 161.132 64.3256C161.514 63.4661 161.944 62.2006 162.421 60.5293L169.083 38.396C169.56 36.8202 169.799 35.3876 169.799 34.0983C169.799 31.7107 169.011 29.2992 167.435 26.8638C166.719 25.5745 166.361 24.4046 166.361 23.354C166.361 20.2979 168.199 18.7698 171.876 18.7698H203.464C205.948 18.7698 207.738 19.1518 208.837 19.9158C209.935 20.6799 210.484 21.6827 210.484 22.9242C210.484 24.1658 210.078 25.479 209.266 26.8638C207.738 29.3469 206.974 31.7346 206.974 34.0267C206.974 35.3637 207.213 36.8202 207.691 38.396L213.636 58.3088C214.543 61.4605 215.164 63.4661 215.498 64.3256C215.88 65.1374 216.405 65.8776 217.074 66.5461C217.79 67.1669 218.888 68.0264 220.369 69.1247L222.947 71.0587C223.473 71.4407 223.807 71.7989 223.95 72.1331C224.093 72.4674 224.165 72.921 224.165 73.4941C224.165 73.7328 224.046 74.0194 223.807 74.3536C223.568 74.6401 223.306 74.9744 223.019 75.3564C222.112 76.5025 221.443 77.4098 221.013 78.0783C220.631 78.7468 220.44 79.4631 220.44 80.2272C220.44 81.1822 220.799 82.6148 221.515 84.5249L228.248 106.945C228.869 109.094 229.824 111.004 231.113 112.675C232.45 114.346 234.336 116.256 236.772 118.405C238.348 119.933 239.135 121.414 239.135 122.846C239.135 123.897 238.706 124.78 237.846 125.496C236.987 126.165 235.745 126.499 234.121 126.499ZM183.767 89.9687L190.858 89.897C191.813 89.897 192.29 89.3718 192.29 88.3212C192.29 87.9392 192.243 87.5333 192.147 87.1035L183.48 58.3088C183.05 57.0195 182.573 56.3748 182.047 56.3748C181.57 56.3748 181.116 57.0195 180.687 58.3088L172.091 87.1035C171.852 87.8676 171.733 88.4645 171.733 88.8942C171.733 89.6105 172.354 89.9687 173.595 89.9687H183.767Z" fill="url(#paint5_linear_1931_655)"/>
<circle cx="214.313" cy="116.809" r="4.10008" transform="rotate(-14.8397 214.313 116.809)" fill="#FFF7D1"/>
<circle cx="190.916" cy="28.4579" r="4.10008" transform="rotate(-14.8397 190.916 28.4579)" fill="#FF5F72"/>
<path d="M193.999 53.4169L193.192 37.0719L200.584 51.672L208.134 52.1421L201.761 56.114L202.614 72.6339L195.176 57.8588L187.672 57.5637L193.999 53.4169Z" fill="#FF5F72"/>
<path d="M203.422 88.9794L202.615 72.6344L210.007 87.2345L217.557 87.7046L211.184 91.6765L212.037 108.196L204.599 93.4213L197.095 93.1262L203.422 88.9794Z" fill="#FFF7D1"/>
<path d="M496.778 142.815C485.061 142.753 475.472 140.657 468.011 136.525C460.55 132.332 454.63 126.32 450.252 118.488C445.873 110.595 442.451 101.037 439.984 89.8144C439.245 86.4229 438.813 84.1105 438.689 82.8772C438.628 82.0755 438.505 81.428 438.32 80.9347C438.196 80.3797 437.395 79.4239 435.915 78.0673C434.928 77.1423 433.386 75.6007 431.29 73.4425C430.796 72.8258 430.55 72.1475 430.55 71.4076C430.55 70.6676 430.796 69.9893 431.29 69.3726C433.386 67.2144 434.928 65.6727 435.915 64.7478C437.333 63.3912 438.104 62.4354 438.227 61.8804C438.412 61.3254 438.566 60.6471 438.689 59.8454C438.813 58.6122 439.245 56.3306 439.984 53.0007C442.451 41.7777 445.873 32.2506 450.252 24.4192C454.63 16.5261 460.55 10.5138 468.011 6.38228C475.472 2.18909 485.061 0.0616646 496.778 0C502.142 0 508.555 0.678309 516.017 2.03493C518.113 2.46658 519.778 2.68241 521.012 2.68241C522.615 2.68241 524.126 2.65158 525.544 2.58991C527.024 2.52825 528.535 2.49741 530.076 2.49741C532.358 2.49741 534.27 3.32989 535.811 4.99483C537.353 6.59811 538.494 9.68133 539.234 14.2445C540.035 18.8077 540.436 25.56 540.436 34.5013C540.436 40.4828 539.449 45.3543 537.476 49.1158C535.565 52.8773 532.913 54.7581 529.521 54.7581C527.98 54.7581 526.5 54.1106 525.082 52.8157C523.663 51.5207 522.553 49.4858 521.752 46.7109C520.395 41.3461 518.977 36.7829 517.497 33.0214C516.017 29.2598 513.92 26.3924 511.207 24.4192C508.555 22.3842 504.671 21.3668 499.552 21.3668C495.606 21.3668 491.875 22.6001 488.36 25.0666C484.907 27.4716 482.071 31.0481 479.851 35.7963C477.692 40.4828 476.613 46.2792 476.613 53.1857C476.613 57.1322 477.23 60.1846 478.463 62.3429C479.758 64.4395 481.022 66.1044 482.256 67.3377C482.934 68.0777 483.489 68.7868 483.92 69.4651C484.414 70.0818 484.66 70.7292 484.66 71.4076C484.537 72.7642 483.766 74.09 482.348 75.3849C480.991 76.6799 479.696 78.4065 478.463 80.5647C477.23 82.6613 476.613 85.6829 476.613 89.6294C476.613 96.5359 477.692 102.363 479.851 107.111C482.071 111.798 484.907 115.374 488.36 117.841C491.875 120.246 495.606 121.448 499.552 121.448C504.486 121.448 507.877 119.043 509.727 114.234C511.084 110.78 511.762 106.063 511.762 100.082V94.1618C511.762 91.2635 510.837 88.3961 508.987 85.5596C507.137 82.723 504.979 79.9173 502.512 77.1424C500.909 75.1074 500.107 73.3191 500.107 71.7775C500.107 70.2359 500.786 69.0026 502.142 68.0777C503.561 67.1527 505.503 66.6902 507.97 66.6902H538.864C543.673 66.6902 546.263 68.386 546.633 71.7775C546.633 72.5792 546.387 73.4733 545.893 74.4599C545.462 75.4466 544.938 76.4949 544.321 77.6048C543.149 79.8248 542.409 81.8597 542.101 83.7096C541.854 85.5596 541.731 87.6562 541.731 89.9994V126.813C541.731 131.191 541.423 134.398 540.806 136.433C540.189 138.406 539.203 139.67 537.846 140.225C536.49 140.719 534.701 140.965 532.481 140.965C529.213 140.965 526.901 140.842 525.544 140.595C524.249 140.287 522.738 140.133 521.012 140.133C519.778 140.133 518.113 140.349 516.017 140.78C508.555 142.137 502.142 142.815 496.778 142.815Z" fill="url(#paint6_linear_1931_655)"/>
<circle cx="473.787" cy="123.054" r="4.69564" fill="#FFF7D1"/>
<circle cx="473.787" cy="18.3636" r="4.69564" fill="#EFA1E6"/>
<path d="M454.882 46.9039L458.784 28.5698L462.685 46.9039L470.907 49.6393L462.685 52.1674L458.784 70.7087L454.882 52.1674L446.66 49.6393L454.882 46.9039Z" fill="#EFA1E6"/>
<path d="M454.882 89.0377L458.784 70.7036L462.685 89.0377L470.907 91.7731L462.685 94.3012L458.784 112.843L454.882 94.3012L446.66 91.7731L454.882 89.0377Z" fill="#FFF7D1"/>
<path d="M124.554 142.633H84.3208C79.37 142.633 76.7379 140.878 76.4246 137.369C76.4246 135.739 77.2079 133.953 78.7747 132.01C81.1561 129.253 82.8481 126.777 83.8508 124.584C84.9162 122.391 85.4489 119.853 85.4489 116.97V94.5971C85.4489 90.837 85.0415 88.1109 84.2268 86.4188C83.4748 84.7267 81.7201 83.6927 78.9627 83.3167C76.2679 82.878 71.9751 82.6587 66.0842 82.6587C60.3187 82.6587 56.0886 82.878 53.3938 83.3167C50.699 83.6927 48.9757 84.6954 48.2236 86.3248C47.4716 87.9542 47.0956 90.6803 47.0956 94.5031V116.97C47.0956 119.853 47.5969 122.391 48.5996 124.584C49.665 126.777 51.3884 129.253 53.7698 132.01C55.3365 134.016 56.1199 135.833 56.1199 137.463C56.1199 139.029 55.3992 140.283 53.9578 141.223C52.5791 142.163 50.6677 142.633 48.2236 142.633H7.99027C3.03944 142.633 0.407347 140.878 0.0940031 137.369C0.0940031 135.739 0.877363 133.953 2.44408 132.01C4.8255 129.253 6.51755 126.777 7.52025 124.584C8.58562 122.328 9.11831 119.79 9.11831 116.97V84.8207C9.11831 83.7554 9.0243 82.8467 8.8363 82.0947C8.71096 81.3426 8.33495 80.5906 7.70826 79.8386C6.89357 78.8359 4.95083 76.8931 1.88006 74.0104C1.31604 73.3837 1.03404 72.6943 1.03404 71.9423C1.03404 71.1903 1.31604 70.5009 1.88006 69.8742C4.95083 66.9288 6.89357 64.9861 7.70826 64.0461C8.33495 63.294 8.71096 62.542 8.8363 61.79C9.0243 60.9753 9.11831 60.0666 9.11831 59.0639V27.0088C9.11831 24.1261 8.58562 21.588 7.52025 19.3946C6.51755 17.1385 4.8255 14.6317 2.44408 11.8743C0.814694 9.86891 0 8.08285 0 6.51613C0 4.94941 0.720691 3.69603 2.16207 2.756C3.60345 1.7533 5.54619 1.25195 7.99027 1.25195H48.2236C53.1118 1.25195 55.7439 3.00668 56.1199 6.51613C56.1199 8.08285 55.3365 9.86891 53.7698 11.8743C51.3884 14.6317 49.665 17.1071 48.5996 19.3006C47.5969 21.494 47.0956 24.0634 47.0956 27.0088V49.3816C47.0956 53.2044 47.4089 55.9618 48.0356 57.6538C48.725 59.2832 50.229 60.2859 52.5478 60.6619C54.8665 61.0379 58.47 61.226 63.3581 61.226H69.1863C74.0745 61.226 77.6779 61.0379 79.9967 60.6619C82.3154 60.2859 83.7882 59.2832 84.4148 57.6538C85.1042 56.0244 85.4489 53.3297 85.4489 49.5696V27.0088C85.4489 24.0634 84.9162 21.494 83.8508 19.3006C82.8481 17.1071 81.1561 14.6317 78.7747 11.8743C77.1453 9.86891 76.3306 8.08285 76.3306 6.51613C76.3306 4.94941 77.0513 3.69603 78.4926 2.756C79.934 1.7533 81.8768 1.25195 84.3208 1.25195H124.554C129.442 1.25195 132.074 3.00668 132.45 6.51613C132.45 8.08285 131.667 9.86891 130.1 11.8743C127.719 14.6317 125.996 17.1385 124.93 19.3946C123.928 21.588 123.426 24.1261 123.426 27.0088V58.6879C123.426 60.5053 123.645 61.8526 124.084 62.73C124.523 63.5447 125.494 64.6414 126.998 66.0201C127.938 66.9601 129.16 68.2449 130.664 69.8742C131.166 70.4383 131.448 71.1276 131.51 71.9423C131.51 72.6943 131.228 73.3837 130.664 74.0104L127.75 76.8305C126.497 78.0839 125.526 79.0865 124.836 79.8386C124.21 80.5906 123.802 81.3426 123.614 82.0947C123.489 82.784 123.426 83.6614 123.426 84.7267V116.97C123.426 119.79 123.928 122.328 124.93 124.584C125.996 126.777 127.719 129.253 130.1 132.01C131.667 134.016 132.45 135.833 132.45 137.463C132.45 139.029 131.73 140.283 130.288 141.223C128.91 142.163 126.998 142.633 124.554 142.633Z" fill="url(#paint7_linear_1931_655)"/>
<circle cx="104.482" cy="129.83" r="5.19298" fill="#FFF7D1"/>
<circle cx="104.482" cy="14.046" r="5.19298" fill="#72CFE4"/>
<path d="M100.177 45.6114L104.492 25.3357L108.807 45.6114L117.9 48.6365L108.807 51.4324L104.492 71.9374L100.177 51.4324L91.085 48.6365L100.177 45.6114Z" fill="#72CFE4"/>
<path d="M100.177 92.2118L104.492 71.936L108.807 92.2118L117.9 95.2369L108.807 98.0327L104.492 118.538L100.177 98.0327L91.085 95.2369L100.177 92.2118Z" fill="#FFF7D1"/>
<circle cx="27.9479" cy="129.83" r="5.19298" fill="#FFF7D1"/>
<circle cx="27.9479" cy="14.046" r="5.19298" fill="#72CFE4"/>
<path d="M23.6539 45.6114L27.9689 25.3357L32.2839 45.6114L41.3762 48.6365L32.2839 51.4324L27.9689 71.9374L23.6539 51.4324L14.5615 48.6365L23.6539 45.6114Z" fill="#72CFE4"/>
<path d="M23.6539 92.2118L27.9689 71.936L32.2839 92.2118L41.3762 95.2369L32.2839 98.0327L27.9689 118.538L23.6539 98.0327L14.5615 95.2369L23.6539 92.2118Z" fill="#FFF7D1"/>
<path d="M103.376 210.853C100.728 210.839 98.5603 210.365 96.8735 209.431C95.2007 208.483 93.8695 207.124 92.8797 205.354C91.9039 203.57 91.1303 201.409 90.5587 198.872C90.3775 198.077 90.2799 197.541 90.266 197.262C90.2381 197.081 90.2102 196.941 90.1824 196.844C90.1545 196.746 90.0918 196.648 89.9942 196.551C89.9105 196.453 89.7642 196.307 89.5551 196.112C89.346 195.917 89.0254 195.603 88.5932 195.171C88.4678 195.031 88.405 194.878 88.405 194.711C88.405 194.544 88.4678 194.39 88.5932 194.251C89.0114 193.833 89.3251 193.526 89.5342 193.331C89.7572 193.136 89.9105 192.989 89.9942 192.892C90.0918 192.78 90.1545 192.676 90.1824 192.578C90.2102 192.48 90.2381 192.341 90.266 192.16C90.2799 191.881 90.3775 191.344 90.5587 190.55C91.1303 188.013 91.9039 185.859 92.8797 184.089C93.8695 182.304 95.2007 180.945 96.8735 180.011C98.5603 179.063 100.728 178.582 103.376 178.568C104.506 178.568 105.621 178.666 106.722 178.861L107.726 179.028C108.2 179.126 108.583 179.175 108.876 179.175C109.224 179.175 109.559 179.168 109.879 179.154C110.2 179.14 110.542 179.133 110.904 179.133C111.42 179.133 111.852 179.321 112.2 179.698C112.549 180.06 112.807 180.757 112.974 181.789C113.155 182.82 113.246 184.347 113.246 186.368C113.246 187.72 113.023 188.821 112.577 189.672C112.145 190.522 111.545 190.947 110.779 190.947C110.444 190.947 110.109 190.801 109.775 190.508C109.454 190.215 109.203 189.755 109.022 189.128C108.715 187.915 108.395 186.884 108.06 186.033C107.726 185.183 107.259 184.535 106.659 184.089C106.06 183.629 105.182 183.399 104.025 183.399C102.617 183.399 101.411 184.019 100.407 185.26C99.4036 186.5 98.8809 188.312 98.8391 190.696C98.8391 191.56 98.9785 192.23 99.2573 192.703C99.5361 193.163 99.8149 193.526 100.094 193.791C100.247 193.958 100.372 194.111 100.47 194.251C100.582 194.39 100.637 194.537 100.637 194.69C100.637 194.857 100.582 195.018 100.47 195.171C100.372 195.31 100.247 195.464 100.094 195.631C99.8009 195.924 99.5151 196.3 99.2363 196.76C98.9715 197.22 98.8391 197.875 98.8391 198.726C98.8948 201.109 99.4176 202.921 100.407 204.162C101.411 205.403 102.617 206.023 104.025 206.023C105.182 206.023 106.06 205.8 106.659 205.354C107.259 204.908 107.726 204.26 108.06 203.409C108.395 202.559 108.715 201.527 109.022 200.315C109.203 199.673 109.454 199.206 109.775 198.914C110.109 198.621 110.444 198.475 110.779 198.475C111.545 198.475 112.145 198.9 112.577 199.75C113.023 200.6 113.246 201.702 113.246 203.054C113.246 205.061 113.155 206.588 112.974 207.633C112.807 208.665 112.549 209.369 112.2 209.745C111.852 210.107 111.42 210.289 110.904 210.289C110.542 210.289 110.2 210.282 109.879 210.268C109.559 210.254 109.224 210.247 108.876 210.247C108.583 210.247 108.2 210.296 107.726 210.393L106.722 210.561C105.621 210.756 104.506 210.853 103.376 210.853ZM131.475 210.435H122.526C121.982 210.435 121.55 210.331 121.229 210.121C120.909 209.912 120.748 209.634 120.748 209.285C120.748 208.923 120.93 208.518 121.292 208.072C121.822 207.459 122.198 206.908 122.421 206.42C122.658 205.919 122.777 205.354 122.777 204.727V197.638C122.777 197.387 122.756 197.171 122.714 196.99C122.686 196.809 122.595 196.635 122.442 196.467C122.303 196.286 122.08 196.056 121.773 195.777L121.167 195.171C121.041 195.018 120.978 194.871 120.978 194.732C120.978 194.537 121.041 194.376 121.167 194.251L121.773 193.644C122.08 193.366 122.303 193.143 122.442 192.975C122.595 192.794 122.686 192.613 122.714 192.432C122.756 192.25 122.777 192.034 122.777 191.783V184.716C122.777 184.075 122.658 183.51 122.421 183.022C122.198 182.52 121.822 181.963 121.292 181.349C120.93 180.903 120.748 180.506 120.748 180.158C120.748 179.809 120.909 179.53 121.229 179.321C121.55 179.098 121.982 178.987 122.526 178.987H131.475C132.563 178.987 133.148 179.377 133.232 180.158C133.232 180.506 133.057 180.903 132.709 181.349C132.179 181.963 131.796 182.52 131.559 183.022C131.336 183.51 131.224 184.075 131.224 184.716V191.825C131.224 192.062 131.245 192.271 131.287 192.453C131.329 192.62 131.419 192.794 131.559 192.975C131.698 193.143 131.921 193.373 132.228 193.665L132.834 194.251C132.96 194.376 133.023 194.537 133.023 194.732C133.023 194.871 132.96 195.018 132.834 195.171C132.514 195.519 132.249 195.791 132.04 195.986C131.705 196.321 131.482 196.593 131.371 196.802C131.273 196.997 131.224 197.297 131.224 197.701V204.727C131.224 205.354 131.336 205.919 131.559 206.42C131.796 206.908 132.179 207.459 132.709 208.072C133.057 208.518 133.232 208.923 133.232 209.285C133.232 209.634 133.071 209.912 132.751 210.121C132.444 210.331 132.019 210.435 131.475 210.435ZM167.478 210.435H159.135C158.452 210.435 157.887 210.275 157.441 209.954C157.009 209.634 156.793 209.236 156.793 208.762C156.793 208.525 156.849 208.295 156.96 208.072C157.309 207.417 157.483 206.79 157.483 206.19C157.483 205.744 157.364 205.256 157.127 204.727L154.681 199.144C154.472 198.67 154.284 198.363 154.116 198.224C153.949 198.07 153.726 197.994 153.447 197.994H151.754C151.517 197.994 151.37 198.049 151.314 198.161C151.259 198.272 151.231 198.489 151.231 198.809V204.727C151.231 205.368 151.342 205.932 151.565 206.42C151.788 206.908 152.172 207.459 152.715 208.072C153.064 208.518 153.238 208.923 153.238 209.285C153.238 209.634 153.078 209.912 152.757 210.121C152.451 210.331 152.025 210.435 151.482 210.435H142.532C141.431 210.435 140.846 210.045 140.776 209.264C140.776 208.902 140.95 208.504 141.299 208.072C141.842 207.459 142.226 206.908 142.449 206.42C142.672 205.932 142.783 205.368 142.783 204.727V197.805C142.783 197.443 142.762 197.171 142.721 196.99C142.679 196.809 142.588 196.635 142.449 196.467C142.309 196.286 142.093 196.056 141.8 195.777L141.173 195.171C141.048 195.031 140.985 194.878 140.985 194.711C140.985 194.544 141.027 194.404 141.11 194.293C141.208 194.181 141.34 194.07 141.508 193.958C141.675 193.833 141.856 193.651 142.051 193.414C142.247 193.177 142.414 192.836 142.553 192.39C142.707 191.944 142.783 191.33 142.783 190.55V184.716C142.783 184.061 142.672 183.489 142.449 183.001C142.226 182.513 141.842 181.963 141.299 181.349C140.95 180.903 140.776 180.506 140.776 180.158C140.776 179.809 140.929 179.53 141.236 179.321C141.543 179.098 141.975 178.987 142.532 178.987H157.713C159.567 178.987 161.107 179.391 162.334 180.199C163.575 180.994 164.502 182.026 165.115 183.294C165.742 184.549 166.056 185.901 166.056 187.351C166.056 190.849 164.662 193.296 161.874 194.69C161.484 194.899 161.289 195.164 161.289 195.484C161.289 195.819 161.407 196.202 161.644 196.635L165.805 204.727C166.098 205.326 166.411 205.828 166.746 206.232C167.094 206.636 167.645 207.138 168.398 207.738C168.983 208.24 169.276 208.741 169.276 209.243C169.276 209.578 169.13 209.864 168.837 210.101C168.544 210.324 168.091 210.435 167.478 210.435ZM153.301 193.163C154.681 193.163 155.74 192.933 156.479 192.473C157.232 192.013 157.748 191.414 158.027 190.675C158.305 189.936 158.445 189.142 158.445 188.291C158.445 187.455 158.298 186.702 158.006 186.033C157.727 185.35 157.218 184.813 156.479 184.423C155.74 184.019 154.681 183.817 153.301 183.817C152.66 183.817 152.193 183.907 151.9 184.089C151.607 184.256 151.419 184.563 151.335 185.009C151.266 185.441 151.231 186.061 151.231 186.87V190.717C151.231 191.386 151.266 191.895 151.335 192.243C151.419 192.592 151.607 192.836 151.9 192.975C152.193 193.101 152.66 193.163 153.301 193.163ZM186.983 210.853C184.334 210.839 182.166 210.365 180.48 209.431C178.807 208.483 177.476 207.124 176.486 205.354C175.51 203.57 174.736 201.409 174.165 198.872C173.984 198.077 173.886 197.541 173.872 197.262C173.844 197.081 173.816 196.941 173.788 196.844C173.761 196.746 173.698 196.648 173.6 196.551C173.517 196.453 173.37 196.307 173.161 196.112C172.952 195.917 172.631 195.603 172.199 195.171C172.074 195.031 172.011 194.878 172.011 194.711C172.011 194.544 172.074 194.39 172.199 194.251C172.617 193.833 172.931 193.526 173.14 193.331C173.363 193.136 173.517 192.989 173.6 192.892C173.698 192.78 173.761 192.676 173.788 192.578C173.816 192.48 173.844 192.341 173.872 192.16C173.886 191.881 173.984 191.344 174.165 190.55C174.736 188.013 175.51 185.859 176.486 184.089C177.476 182.304 178.807 180.945 180.48 180.011C182.166 179.063 184.334 178.582 186.983 178.568C188.112 178.568 189.227 178.666 190.328 178.861L191.332 179.028C191.806 179.126 192.189 179.175 192.482 179.175C192.83 179.175 193.165 179.168 193.486 179.154C193.806 179.14 194.148 179.133 194.51 179.133C195.026 179.133 195.458 179.321 195.807 179.698C196.155 180.06 196.413 180.757 196.58 181.789C196.761 182.82 196.852 184.347 196.852 186.368C196.852 187.72 196.629 188.821 196.183 189.672C195.751 190.522 195.151 190.947 194.385 190.947C194.05 190.947 193.716 190.801 193.381 190.508C193.06 190.215 192.809 189.755 192.628 189.128C192.322 187.915 192.001 186.884 191.666 186.033C191.332 185.183 190.865 184.535 190.265 184.089C189.666 183.629 188.788 183.399 187.631 183.399C186.223 183.399 185.017 184.019 184.013 185.26C183.01 186.5 182.487 188.312 182.445 190.696C182.445 191.56 182.585 192.23 182.863 192.703C183.142 193.163 183.421 193.526 183.7 193.791C183.853 193.958 183.979 194.111 184.076 194.251C184.188 194.39 184.243 194.537 184.243 194.69C184.243 194.857 184.188 195.018 184.076 195.171C183.979 195.31 183.853 195.464 183.7 195.631C183.407 195.924 183.121 196.3 182.842 196.76C182.578 197.22 182.445 197.875 182.445 198.726C182.501 201.109 183.024 202.921 184.013 204.162C185.017 205.403 186.223 206.023 187.631 206.023C188.788 206.023 189.666 205.8 190.265 205.354C190.865 204.908 191.332 204.26 191.666 203.409C192.001 202.559 192.322 201.527 192.628 200.315C192.809 199.673 193.06 199.206 193.381 198.914C193.716 198.621 194.05 198.475 194.385 198.475C195.151 198.475 195.751 198.9 196.183 199.75C196.629 200.6 196.852 201.702 196.852 203.054C196.852 205.061 196.761 206.588 196.58 207.633C196.413 208.665 196.155 209.369 195.807 209.745C195.458 210.107 195.026 210.289 194.51 210.289C194.148 210.289 193.806 210.282 193.486 210.268C193.165 210.254 192.83 210.247 192.482 210.247C192.189 210.247 191.806 210.296 191.332 210.393L190.328 210.561C189.227 210.756 188.112 210.853 186.983 210.853ZM219.242 210.853H218.343C217.27 210.853 216.155 210.756 214.998 210.561C213.841 210.365 212.725 210.052 211.652 209.62C210.579 209.187 209.61 208.616 208.746 207.905C207.881 207.194 207.191 206.323 206.675 205.291C206.16 204.26 205.902 203.04 205.902 201.632V197.764C205.902 197.415 205.881 197.15 205.839 196.969C205.797 196.788 205.707 196.614 205.567 196.446C205.428 196.279 205.219 196.056 204.94 195.777L204.313 195.171C204.187 195.031 204.124 194.878 204.124 194.711C204.124 194.544 204.187 194.39 204.313 194.251L204.961 193.624C205.24 193.359 205.442 193.143 205.567 192.975C205.707 192.808 205.797 192.634 205.839 192.453C205.881 192.271 205.902 192 205.902 191.637V184.716C205.902 184.061 205.79 183.489 205.567 183.001C205.344 182.513 204.968 181.963 204.438 181.349C204.076 180.903 203.894 180.506 203.894 180.158C203.894 179.809 204.048 179.53 204.354 179.321C204.675 179.098 205.107 178.987 205.651 178.987H214.6C215.716 178.987 216.308 179.377 216.378 180.158C216.378 180.506 216.196 180.903 215.834 181.349C215.304 181.963 214.921 182.513 214.684 183.001C214.461 183.489 214.349 184.061 214.349 184.716V191.595C214.349 191.958 214.37 192.236 214.412 192.432C214.454 192.613 214.545 192.787 214.684 192.954C214.823 193.122 215.032 193.345 215.311 193.624L215.959 194.251C216.085 194.39 216.148 194.544 216.148 194.711C216.148 194.878 216.085 195.031 215.959 195.171L215.332 195.798C215.039 196.063 214.823 196.286 214.684 196.467C214.545 196.635 214.454 196.816 214.412 197.011C214.37 197.192 214.349 197.471 214.349 197.847V201.653C214.349 202.517 214.558 203.277 214.977 203.932C215.395 204.573 215.939 205.075 216.608 205.438C217.291 205.786 218.016 205.96 218.782 205.96C219.563 205.96 220.288 205.786 220.957 205.438C221.64 205.075 222.184 204.573 222.588 203.932C223.006 203.277 223.215 202.517 223.215 201.653V197.764C223.215 197.415 223.194 197.15 223.152 196.969C223.111 196.788 223.02 196.614 222.881 196.446C222.741 196.279 222.532 196.056 222.253 195.777L221.626 195.171C221.501 195.031 221.438 194.878 221.438 194.711C221.438 194.544 221.501 194.39 221.626 194.251L222.253 193.644C222.532 193.366 222.741 193.143 222.881 192.975C223.02 192.808 223.111 192.634 223.152 192.453C223.194 192.271 223.215 192.006 223.215 191.658V184.716C223.215 184.061 223.104 183.489 222.881 183.001C222.658 182.513 222.281 181.963 221.751 181.349C221.389 180.903 221.208 180.506 221.208 180.158C221.208 179.809 221.361 179.53 221.668 179.321C221.988 179.098 222.421 178.987 222.964 178.987H231.914C233.029 178.987 233.621 179.377 233.691 180.158C233.691 180.506 233.51 180.903 233.147 181.349C232.618 181.963 232.234 182.513 231.997 183.001C231.774 183.489 231.663 184.061 231.663 184.716V191.553C231.663 191.93 231.677 192.216 231.705 192.411C231.746 192.606 231.83 192.787 231.956 192.954C232.095 193.108 232.304 193.317 232.583 193.582L233.273 194.251C233.398 194.39 233.461 194.544 233.461 194.711C233.461 194.878 233.398 195.031 233.273 195.171L232.646 195.798C232.353 196.063 232.137 196.286 231.997 196.467C231.858 196.635 231.767 196.816 231.726 197.011C231.684 197.192 231.663 197.471 231.663 197.847V201.632C231.663 203.04 231.405 204.26 230.889 205.291C230.373 206.323 229.683 207.194 228.819 207.905C227.969 208.616 227 209.187 225.913 209.62C224.839 210.052 223.724 210.365 222.567 210.561C221.424 210.756 220.316 210.853 219.242 210.853ZM253.321 210.435C251.704 210.435 250.477 210.379 249.641 210.268C248.805 210.142 248.094 209.996 247.508 209.829C246.658 209.62 245.926 209.515 245.313 209.515C244.867 209.515 244.504 209.557 244.225 209.64C243.947 209.71 243.57 209.745 243.096 209.745C242.511 209.745 242.044 209.362 241.695 208.595C241.361 207.828 241.124 206.859 240.984 205.689C240.845 204.713 240.775 203.793 240.775 202.928C240.789 201.59 240.984 200.614 241.361 200.001C241.737 199.374 242.204 199.06 242.762 199.06C243.054 199.06 243.333 199.13 243.598 199.269C243.863 199.395 244.072 199.583 244.225 199.834C244.448 200.21 244.665 200.663 244.874 201.193C245.501 202.657 246.477 203.751 247.801 204.476C249.139 205.201 250.575 205.563 252.108 205.563C252.945 205.563 253.719 205.465 254.429 205.27C255.14 205.075 255.712 204.775 256.144 204.371C256.576 203.967 256.792 203.458 256.792 202.845C256.792 202.19 256.583 201.59 256.165 201.047C255.761 200.503 255.224 200.001 254.555 199.541C253.9 199.067 253.391 198.732 253.029 198.537C252.68 198.342 252.332 198.245 251.983 198.245C251.509 198.245 250.854 198.377 250.017 198.642C249.906 198.67 249.801 198.698 249.704 198.726C249.606 198.739 249.53 198.746 249.474 198.746C249.139 198.746 248.895 198.593 248.742 198.286L248.47 197.513C248.345 197.081 248.226 196.76 248.115 196.551C248.003 196.328 247.829 196.133 247.592 195.965C247.411 195.84 246.895 195.533 246.045 195.045C244.442 194.153 243.166 193.163 242.218 192.076C241.27 190.975 240.782 189.637 240.754 188.061C240.782 184.59 242.148 182.144 244.853 180.722C247.027 179.565 249.941 178.987 253.593 178.987C255.224 178.987 256.458 179.049 257.294 179.175C258.144 179.3 258.848 179.44 259.406 179.593C260.27 179.802 261.002 179.907 261.602 179.907C262.048 179.907 262.41 179.872 262.689 179.802C262.968 179.718 263.344 179.677 263.818 179.677C264.376 179.677 264.822 180.039 265.156 180.764C265.505 181.489 265.756 182.36 265.909 183.378C266.062 184.395 266.139 185.392 266.139 186.368C266.125 187.79 265.93 188.814 265.554 189.442C265.191 190.055 264.724 190.362 264.153 190.362C263.623 190.362 263.198 190.173 262.877 189.797C262.57 189.421 262.299 188.898 262.062 188.229C261.671 187.197 261.072 186.354 260.263 185.699C259.469 185.043 258.57 184.57 257.566 184.277C256.562 183.97 255.573 183.817 254.597 183.817C253.956 183.817 253.286 183.907 252.589 184.089C251.892 184.27 251.3 184.583 250.812 185.03C250.338 185.462 250.101 186.061 250.101 186.828C250.101 187.762 250.561 188.633 251.481 189.442C252.136 190.027 252.694 190.438 253.154 190.675C253.614 190.898 254.074 191.01 254.534 191.01C254.938 191.01 255.308 190.947 255.642 190.822C255.977 190.682 256.43 190.599 257.001 190.571C257.141 190.571 257.273 190.619 257.399 190.717C257.524 190.801 257.608 190.912 257.65 191.052C257.831 191.707 257.984 192.195 258.11 192.515C258.249 192.822 258.423 193.059 258.632 193.226C258.855 193.38 259.19 193.568 259.636 193.791C259.985 193.972 260.445 194.223 261.016 194.544C262.577 195.408 263.811 196.37 264.717 197.429C265.637 198.489 266.111 199.806 266.139 201.381C266.111 204.81 264.724 207.243 261.978 208.679C259.775 209.85 256.89 210.435 253.321 210.435ZM301.301 210.853C299.154 210.853 297.342 210.547 295.864 209.933C294.401 209.32 293.188 208.477 292.226 207.403C291.278 206.33 290.505 205.075 289.905 203.639C289.306 202.204 288.818 200.656 288.441 198.997C288.246 198.077 288.142 197.478 288.128 197.199C288.128 197.018 288.107 196.878 288.065 196.781C288.037 196.683 287.967 196.579 287.856 196.467C287.758 196.356 287.591 196.202 287.354 196.007C287.131 195.798 286.831 195.519 286.455 195.171C286.33 195.059 286.267 194.927 286.267 194.774C286.267 194.676 286.281 194.571 286.309 194.46C286.337 194.348 286.706 193.965 287.417 193.31C287.793 192.975 287.995 192.745 288.023 192.62C288.065 192.494 288.093 192.341 288.107 192.16C288.135 191.881 288.232 191.344 288.4 190.55C288.776 188.877 289.257 187.316 289.842 185.866C290.442 184.416 291.215 183.148 292.163 182.06C293.125 180.973 294.345 180.123 295.823 179.509C297.3 178.882 299.126 178.568 301.301 178.568C303.476 178.568 305.302 178.882 306.779 179.509C308.257 180.123 309.47 180.973 310.418 182.06C311.38 183.148 312.153 184.416 312.739 185.866C313.338 187.316 313.826 188.877 314.202 190.55C314.37 191.344 314.467 191.881 314.495 192.16C314.509 192.341 314.53 192.494 314.558 192.62C314.6 192.745 314.809 192.975 315.185 193.31L316.147 194.251C316.272 194.376 316.335 194.551 316.335 194.774C316.335 194.927 316.272 195.059 316.147 195.171C315.771 195.519 315.464 195.798 315.227 196.007C315.004 196.202 314.837 196.356 314.725 196.467C314.628 196.579 314.558 196.683 314.516 196.781C314.488 196.878 314.474 197.018 314.474 197.199C314.46 197.478 314.356 198.077 314.161 198.997C313.784 200.656 313.296 202.204 312.697 203.639C312.097 205.075 311.317 206.33 310.355 207.403C309.407 208.477 308.194 209.32 306.717 209.933C305.253 210.547 303.448 210.853 301.301 210.853ZM301.301 206.002C302.639 206.002 303.734 205.361 304.584 204.078C305.434 202.782 305.873 201.012 305.901 198.767C305.901 197.889 305.762 197.213 305.483 196.739C305.204 196.251 304.918 195.868 304.626 195.589C304.472 195.436 304.347 195.289 304.249 195.15C304.152 195.011 304.103 194.864 304.103 194.711C304.103 194.544 304.152 194.39 304.249 194.251C304.361 194.111 304.5 193.958 304.668 193.791C304.835 193.61 305.016 193.387 305.211 193.122C305.406 192.857 305.574 192.522 305.713 192.118C305.852 191.714 305.922 191.212 305.922 190.612C305.922 188.41 305.469 186.661 304.563 185.364C303.671 184.054 302.583 183.399 301.301 183.399C300.019 183.399 298.924 184.054 298.018 185.364C297.126 186.661 296.68 188.41 296.68 190.612C296.68 191.212 296.75 191.714 296.889 192.118C297.028 192.522 297.196 192.857 297.391 193.122C297.586 193.387 297.767 193.61 297.935 193.791C298.102 193.958 298.234 194.111 298.332 194.251C298.443 194.39 298.499 194.544 298.499 194.711C298.499 194.864 298.45 195.011 298.353 195.15C298.255 195.289 298.13 195.436 297.976 195.589C297.684 195.868 297.398 196.251 297.119 196.739C296.84 197.213 296.701 197.889 296.701 198.767C296.729 201.012 297.168 202.782 298.018 204.078C298.869 205.361 299.963 206.002 301.301 206.002ZM332.996 210.435H324.047C323.503 210.435 323.071 210.331 322.75 210.121C322.43 209.912 322.269 209.634 322.269 209.285C322.269 208.923 322.451 208.518 322.813 208.072C323.343 207.459 323.719 206.908 323.942 206.42C324.179 205.919 324.298 205.354 324.298 204.727V197.638C324.298 197.387 324.277 197.171 324.235 196.99C324.207 196.809 324.116 196.635 323.963 196.467C323.824 196.286 323.601 196.056 323.294 195.777L322.688 195.171C322.562 195.018 322.499 194.871 322.499 194.732C322.499 194.537 322.562 194.376 322.688 194.251L323.294 193.644C323.601 193.366 323.824 193.143 323.963 192.975C324.116 192.794 324.207 192.613 324.235 192.432C324.277 192.25 324.298 192.034 324.298 191.783V184.716C324.298 184.075 324.179 183.51 323.942 183.022C323.719 182.52 323.343 181.963 322.813 181.349C322.451 180.903 322.269 180.506 322.269 180.158C322.269 179.809 322.43 179.53 322.75 179.321C323.071 179.098 323.503 178.987 324.047 178.987H342.406C343.34 178.987 343.918 179.14 344.141 179.447C344.378 179.753 344.58 180.45 344.748 181.538C344.901 182.472 345.215 183.838 345.689 185.636C345.73 185.789 345.751 185.943 345.751 186.096C345.751 186.486 345.619 186.8 345.354 187.037C345.103 187.274 344.831 187.392 344.538 187.392C344.009 187.392 343.57 187.19 343.221 186.786C342.873 186.382 342.559 185.936 342.28 185.448C342.043 185.016 341.785 184.646 341.507 184.34C341.242 184.019 340.928 183.852 340.566 183.838H333.686C333.296 183.838 333.038 183.9 332.913 184.026C332.801 184.151 332.745 184.416 332.745 184.82V191.491C332.745 192.034 332.829 192.383 332.996 192.536C333.163 192.676 333.512 192.745 334.042 192.745H335.443C336.07 192.745 336.739 192.676 337.45 192.536C338.161 192.383 338.837 192.041 339.478 191.512C339.924 191.163 340.322 190.989 340.67 190.989C341.019 190.989 341.297 191.149 341.507 191.47C341.73 191.776 341.841 192.202 341.841 192.745V196.676C341.841 197.764 341.451 198.356 340.67 198.454C340.322 198.454 339.924 198.272 339.478 197.91C338.837 197.38 338.161 197.046 337.45 196.906C336.739 196.753 336.07 196.676 335.443 196.676H334.042C333.512 196.676 333.163 196.753 332.996 196.906C332.829 197.046 332.745 197.387 332.745 197.931V204.727C332.745 205.354 332.857 205.919 333.08 206.42C333.317 206.908 333.7 207.459 334.23 208.072C334.578 208.518 334.753 208.923 334.753 209.285C334.753 209.634 334.592 209.912 334.272 210.121C333.965 210.331 333.54 210.435 332.996 210.435ZM377.526 210.435H368.576C368.033 210.435 367.601 210.331 367.28 210.121C366.959 209.912 366.799 209.634 366.799 209.285C366.799 208.923 366.98 208.518 367.343 208.072C367.872 207.459 368.249 206.908 368.472 206.42C368.709 205.919 368.827 205.354 368.827 204.727V197.638C368.827 197.387 368.806 197.171 368.765 196.99C368.737 196.809 368.646 196.635 368.493 196.467C368.353 196.286 368.13 196.056 367.824 195.777L367.217 195.171C367.092 195.018 367.029 194.871 367.029 194.732C367.029 194.537 367.092 194.376 367.217 194.251L367.824 193.644C368.13 193.366 368.353 193.143 368.493 192.975C368.646 192.794 368.737 192.613 368.765 192.432C368.806 192.25 368.827 192.034 368.827 191.783V184.716C368.827 184.075 368.709 183.51 368.472 183.022C368.249 182.52 367.872 181.963 367.343 181.349C366.98 180.903 366.799 180.506 366.799 180.158C366.799 179.809 366.959 179.53 367.28 179.321C367.601 179.098 368.033 178.987 368.576 178.987H377.526C378.613 178.987 379.199 179.377 379.282 180.158C379.282 180.506 379.108 180.903 378.76 181.349C378.23 181.963 377.846 182.52 377.61 183.022C377.386 183.51 377.275 184.075 377.275 184.716V191.825C377.275 192.062 377.296 192.271 377.338 192.453C377.38 192.62 377.47 192.794 377.61 192.975C377.749 193.143 377.972 193.373 378.279 193.665L378.885 194.251C379.01 194.376 379.073 194.537 379.073 194.732C379.073 194.871 379.01 195.018 378.885 195.171C378.564 195.519 378.3 195.791 378.09 195.986C377.756 196.321 377.533 196.593 377.421 196.802C377.324 196.997 377.275 197.297 377.275 197.701V204.727C377.275 205.354 377.386 205.919 377.61 206.42C377.846 206.908 378.23 207.459 378.76 208.072C379.108 208.518 379.282 208.923 379.282 209.285C379.282 209.634 379.122 209.912 378.801 210.121C378.495 210.331 378.07 210.435 377.526 210.435ZM414.909 210.435H406.064C405.088 210.435 404.468 210.317 404.203 210.08C403.952 209.829 403.826 209.529 403.826 209.18C403.826 208.734 403.91 208.323 404.077 207.947C404.231 207.654 404.307 207.34 404.307 207.006C404.307 206.643 404.175 206.246 403.91 205.814L395.441 192.975C395.037 192.418 394.675 192.139 394.354 192.139C393.964 192.139 393.769 192.467 393.769 193.122V204.727C393.769 205.368 393.88 205.932 394.103 206.42C394.34 206.908 394.724 207.459 395.253 208.072C395.602 208.504 395.776 208.902 395.776 209.264C395.776 209.613 395.623 209.898 395.316 210.121C395.009 210.331 394.577 210.435 394.02 210.435H388.583C387.496 210.435 386.91 210.052 386.827 209.285C386.827 208.923 387.001 208.518 387.349 208.072C387.879 207.459 388.255 206.908 388.478 206.42C388.715 205.932 388.834 205.368 388.834 204.727V197.785C388.834 197.436 388.813 197.171 388.771 196.99C388.729 196.795 388.639 196.614 388.499 196.446C388.318 196.223 387.893 195.798 387.224 195.171C387.098 195.031 387.036 194.878 387.036 194.711C387.036 194.544 387.098 194.39 387.224 194.251L387.872 193.624C388.151 193.345 388.36 193.122 388.499 192.954C388.639 192.787 388.729 192.613 388.771 192.432C388.813 192.236 388.834 191.958 388.834 191.595V184.716C388.834 184.061 388.715 183.489 388.478 183.001C388.255 182.513 387.879 181.963 387.349 181.349C386.987 180.903 386.806 180.506 386.806 180.158C386.806 179.739 386.994 179.44 387.37 179.258C387.761 179.077 388.13 178.987 388.478 178.987H397.323C398.299 178.987 398.912 179.112 399.163 179.363C399.428 179.6 399.561 179.893 399.561 180.241C399.561 180.687 399.477 181.085 399.31 181.433C399.156 181.782 399.08 182.137 399.08 182.499C399.08 182.834 399.205 183.203 399.456 183.608L407.946 196.446C408.364 197.004 408.726 197.283 409.033 197.283C409.423 197.283 409.618 196.955 409.618 196.3V184.716C409.618 184.061 409.5 183.489 409.263 183.001C409.04 182.513 408.663 181.963 408.134 181.349C407.771 180.903 407.59 180.506 407.59 180.158C407.59 179.809 407.743 179.53 408.05 179.321C408.371 179.098 408.81 178.987 409.367 178.987H414.804C415.891 178.987 416.477 179.37 416.56 180.137C416.56 180.485 416.386 180.889 416.038 181.349C415.508 181.963 415.125 182.513 414.888 183.001C414.665 183.489 414.553 184.061 414.553 184.716V191.658C414.553 192.062 414.574 192.369 414.616 192.578C414.658 192.773 414.776 192.975 414.971 193.184C415.18 193.394 415.501 193.686 415.933 194.063L416.142 194.251C416.268 194.362 416.33 194.495 416.33 194.648C416.33 194.746 416.316 194.843 416.289 194.941C416.261 195.038 416.003 195.317 415.515 195.777C415.236 196.056 415.027 196.279 414.888 196.446C414.748 196.614 414.658 196.795 414.616 196.99C414.574 197.185 414.553 197.464 414.553 197.826V204.727C414.553 205.368 414.665 205.932 414.888 206.42C415.125 206.908 415.508 207.459 416.038 208.072C416.386 208.518 416.56 208.923 416.56 209.285C416.56 209.703 416.372 210.003 415.996 210.184C415.633 210.351 415.271 210.435 414.909 210.435ZM442.464 210.435H433.221C432.51 210.435 431.995 210.317 431.674 210.08C431.353 209.843 431.193 209.543 431.193 209.18C431.193 208.818 431.312 208.449 431.549 208.072C431.995 207.347 432.218 206.643 432.218 205.96C432.218 205.584 432.148 205.173 432.009 204.727L430.085 198.286C429.959 197.785 429.841 197.408 429.729 197.157C429.632 196.906 429.479 196.683 429.269 196.488C429.06 196.293 428.74 196.042 428.308 195.735L427.555 195.171C427.401 195.045 427.304 194.941 427.262 194.857C427.234 194.774 427.213 194.669 427.199 194.544V194.46C427.199 194.39 427.234 194.314 427.304 194.23C427.374 194.132 427.443 194.042 427.513 193.958C427.792 193.61 427.987 193.338 428.098 193.143C428.224 192.933 428.287 192.717 428.287 192.494C428.287 192.188 428.175 191.728 427.952 191.114L426.008 184.716C425.826 184.075 425.547 183.51 425.171 183.022C424.795 182.52 424.244 181.963 423.519 181.349C423.059 180.903 422.829 180.471 422.829 180.053C422.843 179.746 422.976 179.495 423.226 179.3C423.463 179.091 423.819 178.987 424.293 178.987H433.598C434.95 178.987 435.626 179.405 435.626 180.241C435.626 180.576 435.515 180.945 435.291 181.349C435.068 181.754 434.894 182.123 434.769 182.458C434.657 182.778 434.601 183.113 434.601 183.461C434.601 183.852 434.671 184.27 434.811 184.716L439.076 198.893C439.216 199.269 439.355 199.457 439.494 199.457C439.648 199.457 439.78 199.269 439.892 198.893L444.136 184.716C444.276 184.256 444.345 183.838 444.345 183.461C444.345 182.764 444.122 182.06 443.676 181.349C443.439 180.945 443.321 180.576 443.321 180.241C443.321 179.865 443.481 179.565 443.802 179.342C444.122 179.105 444.638 178.987 445.349 178.987H450.995C451.511 178.987 451.88 179.098 452.103 179.321C452.34 179.53 452.458 179.795 452.458 180.116C452.458 180.506 452.228 180.917 451.768 181.349C451.058 181.963 450.507 182.52 450.117 183.022C449.74 183.51 449.461 184.075 449.28 184.716L447.356 191.177C447.133 191.776 447.022 192.223 447.022 192.515C447.022 192.697 447.064 192.864 447.147 193.017C447.231 193.157 447.363 193.345 447.545 193.582L448.026 194.251C448.081 194.321 448.109 194.411 448.109 194.523C448.109 194.662 448.074 194.788 448.005 194.899C447.949 195.011 447.559 195.338 446.834 195.882C446.457 196.175 446.179 196.412 445.997 196.593C445.816 196.774 445.67 196.997 445.558 197.262C445.461 197.513 445.335 197.896 445.182 198.412L443.279 204.727C443.14 205.173 443.07 205.584 443.07 205.96C443.07 206.309 443.126 206.65 443.237 206.985C443.363 207.306 443.53 207.668 443.739 208.072C443.962 208.463 444.074 208.839 444.074 209.201C444.074 209.564 443.934 209.864 443.655 210.101C443.391 210.324 442.993 210.435 442.464 210.435ZM479.365 210.435H460.484C459.396 210.435 458.811 210.052 458.727 209.285C458.727 208.923 458.909 208.518 459.271 208.072C459.801 207.473 460.177 206.922 460.4 206.42C460.623 205.919 460.735 205.354 460.735 204.727V197.596C460.735 197.345 460.714 197.136 460.672 196.969C460.63 196.788 460.539 196.614 460.4 196.446C460.261 196.265 460.038 196.035 459.731 195.756L459.146 195.171C459.02 195.018 458.957 194.871 458.957 194.732C458.957 194.537 459.02 194.376 459.146 194.251L459.731 193.665C460.038 193.387 460.261 193.163 460.4 192.996C460.539 192.815 460.63 192.641 460.672 192.473C460.714 192.292 460.735 192.076 460.735 191.825V184.716C460.735 184.075 460.623 183.503 460.4 183.001C460.177 182.499 459.801 181.949 459.271 181.349C458.909 180.903 458.727 180.506 458.727 180.158C458.727 179.809 458.881 179.53 459.187 179.321C459.508 179.098 459.94 178.987 460.484 178.987H478.864C479.811 178.987 480.404 179.147 480.641 179.468C480.878 179.788 481.087 180.52 481.268 181.663C481.421 182.597 481.714 183.921 482.146 185.636C482.188 185.789 482.209 185.929 482.209 186.054C482.209 186.458 482.077 186.786 481.812 187.037C481.547 187.274 481.268 187.392 480.975 187.392C480.446 187.392 480.007 187.197 479.658 186.807C479.324 186.403 479.024 185.957 478.759 185.469C478.508 185.037 478.243 184.66 477.964 184.34C477.686 184.019 477.365 183.852 477.003 183.838H470.123C469.733 183.838 469.475 183.9 469.35 184.026C469.238 184.151 469.182 184.416 469.182 184.82V191.491C469.182 192.02 469.266 192.362 469.433 192.515C469.6 192.669 469.963 192.745 470.52 192.745H471.901C472.528 192.745 473.197 192.676 473.908 192.536C474.619 192.383 475.295 192.041 475.936 191.512C476.382 191.163 476.78 190.989 477.128 190.989C477.476 190.989 477.755 191.149 477.964 191.47C478.187 191.776 478.299 192.202 478.299 192.745V196.676C478.299 197.764 477.909 198.356 477.128 198.454C476.78 198.454 476.382 198.272 475.936 197.91C475.295 197.38 474.619 197.046 473.908 196.906C473.197 196.753 472.528 196.676 471.901 196.676H470.52C469.963 196.676 469.6 196.753 469.433 196.906C469.266 197.046 469.182 197.387 469.182 197.931V204.518C469.182 204.964 469.238 205.256 469.35 205.396C469.461 205.521 469.712 205.584 470.102 205.584H477.504C477.867 205.57 478.187 205.403 478.466 205.082C478.745 204.762 479.01 204.385 479.261 203.953C479.526 203.465 479.825 203.026 480.16 202.636C480.508 202.231 480.948 202.029 481.477 202.029C481.77 202.029 482.049 202.155 482.314 202.406C482.579 202.643 482.711 202.963 482.711 203.368C482.711 203.493 482.69 203.632 482.648 203.786C482.216 205.5 481.923 206.825 481.77 207.759C481.589 208.902 481.38 209.634 481.143 209.954C480.906 210.275 480.313 210.435 479.365 210.435ZM517.459 210.435H508.614C507.638 210.435 507.018 210.317 506.753 210.08C506.502 209.829 506.377 209.529 506.377 209.18C506.377 208.734 506.46 208.323 506.628 207.947C506.781 207.654 506.858 207.34 506.858 207.006C506.858 206.643 506.725 206.246 506.46 205.814L497.992 192.975C497.588 192.418 497.225 192.139 496.905 192.139C496.514 192.139 496.319 192.467 496.319 193.122V204.727C496.319 205.368 496.431 205.932 496.654 206.42C496.891 206.908 497.274 207.459 497.804 208.072C498.152 208.504 498.326 208.902 498.326 209.264C498.326 209.613 498.173 209.898 497.866 210.121C497.56 210.331 497.128 210.435 496.57 210.435H491.133C490.046 210.435 489.461 210.052 489.377 209.285C489.377 208.923 489.551 208.518 489.9 208.072C490.429 207.459 490.806 206.908 491.029 206.42C491.266 205.932 491.384 205.368 491.384 204.727V197.785C491.384 197.436 491.363 197.171 491.322 196.99C491.28 196.795 491.189 196.614 491.05 196.446C490.869 196.223 490.443 195.798 489.774 195.171C489.649 195.031 489.586 194.878 489.586 194.711C489.586 194.544 489.649 194.39 489.774 194.251L490.423 193.624C490.701 193.345 490.91 193.122 491.05 192.954C491.189 192.787 491.28 192.613 491.322 192.432C491.363 192.236 491.384 191.958 491.384 191.595V184.716C491.384 184.061 491.266 183.489 491.029 183.001C490.806 182.513 490.429 181.963 489.9 181.349C489.537 180.903 489.356 180.506 489.356 180.158C489.356 179.739 489.544 179.44 489.921 179.258C490.311 179.077 490.68 178.987 491.029 178.987H499.874C500.85 178.987 501.463 179.112 501.714 179.363C501.979 179.6 502.111 179.893 502.111 180.241C502.111 180.687 502.028 181.085 501.86 181.433C501.707 181.782 501.63 182.137 501.63 182.499C501.63 182.834 501.756 183.203 502.007 183.608L510.496 196.446C510.914 197.004 511.277 197.283 511.583 197.283C511.974 197.283 512.169 196.955 512.169 196.3V184.716C512.169 184.061 512.05 183.489 511.813 183.001C511.59 182.513 511.214 181.963 510.684 181.349C510.322 180.903 510.141 180.506 510.141 180.158C510.141 179.809 510.294 179.53 510.601 179.321C510.921 179.098 511.36 178.987 511.918 178.987H517.354C518.442 178.987 519.027 179.37 519.111 180.137C519.111 180.485 518.937 180.889 518.588 181.349C518.058 181.963 517.675 182.513 517.438 183.001C517.215 183.489 517.104 184.061 517.104 184.716V191.658C517.104 192.062 517.124 192.369 517.166 192.578C517.208 192.773 517.327 192.975 517.522 193.184C517.731 193.394 518.051 193.686 518.484 194.063L518.693 194.251C518.818 194.362 518.881 194.495 518.881 194.648C518.881 194.746 518.867 194.843 518.839 194.941C518.811 195.038 518.553 195.317 518.065 195.777C517.787 196.056 517.577 196.279 517.438 196.446C517.299 196.614 517.208 196.795 517.166 196.99C517.124 197.185 517.104 197.464 517.104 197.826V204.727C517.104 205.368 517.215 205.932 517.438 206.42C517.675 206.908 518.058 207.459 518.588 208.072C518.937 208.518 519.111 208.923 519.111 209.285C519.111 209.703 518.923 210.003 518.546 210.184C518.184 210.351 517.821 210.435 517.459 210.435ZM543.195 210.435H534.245C533.158 210.435 532.573 210.052 532.489 209.285C532.489 208.923 532.663 208.518 533.012 208.072C533.541 207.459 533.918 206.908 534.141 206.42C534.378 205.919 534.496 205.354 534.496 204.727V197.575C534.496 197.325 534.475 197.115 534.434 196.948C534.406 196.781 534.322 196.621 534.183 196.467C534.043 196.3 533.827 196.077 533.535 195.798L532.886 195.171C532.761 195.031 532.698 194.878 532.698 194.711C532.698 194.544 532.761 194.39 532.886 194.251L533.535 193.603C533.827 193.352 534.043 193.143 534.183 192.975C534.322 192.808 534.413 192.627 534.455 192.432C534.482 192.292 534.496 192.111 534.496 191.888V185.72C534.496 185.148 534.482 184.73 534.455 184.465C534.427 184.186 534.336 184.012 534.183 183.942C534.029 183.873 533.771 183.838 533.409 183.838H531.109C530.677 183.838 530.266 184.019 529.875 184.381C529.485 184.73 529.095 185.141 528.704 185.615C528.328 186.075 527.931 186.493 527.512 186.87C527.066 187.218 526.662 187.392 526.3 187.392C526.007 187.392 525.728 187.274 525.463 187.037C525.198 186.786 525.066 186.458 525.066 186.054C525.066 185.929 525.087 185.789 525.129 185.636L525.547 184.026C525.923 182.548 526.237 181.447 526.488 180.722C526.753 179.997 527.08 179.53 527.471 179.321C527.861 179.098 528.46 178.987 529.269 178.987H548.171C548.952 178.987 549.531 179.091 549.907 179.3C550.297 179.495 550.618 179.935 550.869 180.618C551.12 181.301 551.419 182.332 551.768 183.712L552.291 185.636C552.332 185.789 552.353 185.943 552.353 186.096C552.353 186.486 552.221 186.8 551.956 187.037C551.705 187.274 551.433 187.392 551.141 187.392C550.792 187.392 550.388 187.218 549.928 186.87C549.496 186.479 549.084 186.054 548.694 185.594C548.304 185.12 547.914 184.716 547.523 184.381C547.147 184.033 546.75 183.852 546.331 183.838H543.655C543.362 183.838 543.167 183.9 543.069 184.026C542.986 184.137 542.944 184.409 542.944 184.841V191.763C542.944 192.167 542.993 192.467 543.09 192.662C543.188 192.843 543.404 193.087 543.739 193.394C543.948 193.603 544.219 193.888 544.554 194.251C544.679 194.39 544.742 194.544 544.742 194.711C544.742 194.878 544.679 195.031 544.554 195.171L543.906 195.798C543.613 196.063 543.397 196.279 543.258 196.446C543.118 196.614 543.028 196.795 542.986 196.99C542.958 197.129 542.944 197.311 542.944 197.534V204.727C542.944 205.354 543.055 205.919 543.279 206.42C543.515 206.908 543.899 207.459 544.429 208.072C544.777 208.518 544.951 208.923 544.951 209.285C544.951 209.634 544.791 209.912 544.47 210.121C544.164 210.331 543.739 210.435 543.195 210.435ZM568.952 210.435H560.002C559.459 210.435 559.026 210.331 558.706 210.121C558.385 209.912 558.225 209.634 558.225 209.285C558.225 208.923 558.406 208.518 558.769 208.072C559.298 207.459 559.675 206.908 559.898 206.42C560.135 205.919 560.253 205.354 560.253 204.727V197.638C560.253 197.387 560.232 197.171 560.19 196.99C560.163 196.809 560.072 196.635 559.919 196.467C559.779 196.286 559.556 196.056 559.249 195.777L558.643 195.171C558.518 195.018 558.455 194.871 558.455 194.732C558.455 194.537 558.518 194.376 558.643 194.251L559.249 193.644C559.556 193.366 559.779 193.143 559.919 192.975C560.072 192.794 560.163 192.613 560.19 192.432C560.232 192.25 560.253 192.034 560.253 191.783V184.716C560.253 184.075 560.135 183.51 559.898 183.022C559.675 182.52 559.298 181.963 558.769 181.349C558.406 180.903 558.225 180.506 558.225 180.158C558.225 179.809 558.385 179.53 558.706 179.321C559.026 179.098 559.459 178.987 560.002 178.987H568.952C570.039 178.987 570.624 179.377 570.708 180.158C570.708 180.506 570.534 180.903 570.185 181.349C569.656 181.963 569.272 182.52 569.035 183.022C568.812 183.51 568.701 184.075 568.701 184.716V191.825C568.701 192.062 568.722 192.271 568.763 192.453C568.805 192.62 568.896 192.794 569.035 192.975C569.175 193.143 569.398 193.373 569.704 193.665L570.311 194.251C570.436 194.376 570.499 194.537 570.499 194.732C570.499 194.871 570.436 195.018 570.311 195.171C569.99 195.519 569.725 195.791 569.516 195.986C569.182 196.321 568.959 196.593 568.847 196.802C568.75 196.997 568.701 197.297 568.701 197.701V204.727C568.701 205.354 568.812 205.919 569.035 206.42C569.272 206.908 569.656 207.459 570.185 208.072C570.534 208.518 570.708 208.923 570.708 209.285C570.708 209.634 570.548 209.912 570.227 210.121C569.92 210.331 569.495 210.435 568.952 210.435ZM591.321 210.853C589.174 210.853 587.362 210.547 585.885 209.933C584.421 209.32 583.208 208.477 582.246 207.403C581.298 206.33 580.525 205.075 579.925 203.639C579.326 202.204 578.838 200.656 578.461 198.997C578.266 198.077 578.162 197.478 578.148 197.199C578.148 197.018 578.127 196.878 578.085 196.781C578.057 196.683 577.988 196.579 577.876 196.467C577.778 196.356 577.611 196.202 577.374 196.007C577.151 195.798 576.851 195.519 576.475 195.171C576.35 195.059 576.287 194.927 576.287 194.774C576.287 194.676 576.301 194.571 576.329 194.46C576.357 194.348 576.726 193.965 577.437 193.31C577.813 192.975 578.015 192.745 578.043 192.62C578.085 192.494 578.113 192.341 578.127 192.16C578.155 191.881 578.252 191.344 578.42 190.55C578.796 188.877 579.277 187.316 579.862 185.866C580.462 184.416 581.236 183.148 582.183 182.06C583.145 180.973 584.365 180.123 585.843 179.509C587.32 178.882 589.146 178.568 591.321 178.568C593.496 178.568 595.322 178.882 596.799 179.509C598.277 180.123 599.49 180.973 600.438 182.06C601.4 183.148 602.173 184.416 602.759 185.866C603.358 187.316 603.846 188.877 604.222 190.55C604.39 191.344 604.487 191.881 604.515 192.16C604.529 192.341 604.55 192.494 604.578 192.62C604.62 192.745 604.829 192.975 605.205 193.31L606.167 194.251C606.293 194.376 606.355 194.551 606.355 194.774C606.355 194.927 606.293 195.059 606.167 195.171C605.791 195.519 605.484 195.798 605.247 196.007C605.024 196.202 604.857 196.356 604.745 196.467C604.648 196.579 604.578 196.683 604.536 196.781C604.508 196.878 604.494 197.018 604.494 197.199C604.48 197.478 604.376 198.077 604.181 198.997C603.804 200.656 603.316 202.204 602.717 203.639C602.118 205.075 601.337 206.33 600.375 207.403C599.427 208.477 598.214 209.32 596.737 209.933C595.273 210.547 593.468 210.853 591.321 210.853ZM591.321 206.002C592.659 206.002 593.754 205.361 594.604 204.078C595.454 202.782 595.893 201.012 595.921 198.767C595.921 197.889 595.782 197.213 595.503 196.739C595.224 196.251 594.938 195.868 594.646 195.589C594.492 195.436 594.367 195.289 594.269 195.15C594.172 195.011 594.123 194.864 594.123 194.711C594.123 194.544 594.172 194.39 594.269 194.251C594.381 194.111 594.52 193.958 594.688 193.791C594.855 193.61 595.036 193.387 595.231 193.122C595.426 192.857 595.594 192.522 595.733 192.118C595.872 191.714 595.942 191.212 595.942 190.612C595.942 188.41 595.489 186.661 594.583 185.364C593.691 184.054 592.604 183.399 591.321 183.399C590.039 183.399 588.944 184.054 588.038 185.364C587.146 186.661 586.7 188.41 586.7 190.612C586.7 191.212 586.77 191.714 586.909 192.118C587.048 192.522 587.216 192.857 587.411 193.122C587.606 193.387 587.787 193.61 587.955 193.791C588.122 193.958 588.254 194.111 588.352 194.251C588.463 194.39 588.519 194.544 588.519 194.711C588.519 194.864 588.47 195.011 588.373 195.15C588.275 195.289 588.15 195.436 587.996 195.589C587.704 195.868 587.418 196.251 587.139 196.739C586.86 197.213 586.721 197.889 586.721 198.767C586.749 201.012 587.188 202.782 588.038 204.078C588.889 205.361 589.983 206.002 591.321 206.002ZM640.392 210.435H631.547C630.572 210.435 629.951 210.317 629.686 210.08C629.436 209.829 629.31 209.529 629.31 209.18C629.31 208.734 629.394 208.323 629.561 207.947C629.714 207.654 629.791 207.34 629.791 207.006C629.791 206.643 629.659 206.246 629.394 205.814L620.925 192.975C620.521 192.418 620.159 192.139 619.838 192.139C619.448 192.139 619.252 192.467 619.252 193.122V204.727C619.252 205.368 619.364 205.932 619.587 206.42C619.824 206.908 620.207 207.459 620.737 208.072C621.086 208.504 621.26 208.902 621.26 209.264C621.26 209.613 621.106 209.898 620.8 210.121C620.493 210.331 620.061 210.435 619.503 210.435H614.067C612.979 210.435 612.394 210.052 612.31 209.285C612.31 208.923 612.485 208.518 612.833 208.072C613.363 207.459 613.739 206.908 613.962 206.42C614.199 205.932 614.318 205.368 614.318 204.727V197.785C614.318 197.436 614.297 197.171 614.255 196.99C614.213 196.795 614.123 196.614 613.983 196.446C613.802 196.223 613.377 195.798 612.708 195.171C612.582 195.031 612.519 194.878 612.519 194.711C612.519 194.544 612.582 194.39 612.708 194.251L613.356 193.624C613.635 193.345 613.844 193.122 613.983 192.954C614.123 192.787 614.213 192.613 614.255 192.432C614.297 192.236 614.318 191.958 614.318 191.595V184.716C614.318 184.061 614.199 183.489 613.962 183.001C613.739 182.513 613.363 181.963 612.833 181.349C612.471 180.903 612.289 180.506 612.289 180.158C612.289 179.739 612.478 179.44 612.854 179.258C613.244 179.077 613.614 178.987 613.962 178.987H622.807C623.783 178.987 624.396 179.112 624.647 179.363C624.912 179.6 625.044 179.893 625.044 180.241C625.044 180.687 624.961 181.085 624.794 181.433C624.64 181.782 624.564 182.137 624.564 182.499C624.564 182.834 624.689 183.203 624.94 183.608L633.429 196.446C633.848 197.004 634.21 197.283 634.517 197.283C634.907 197.283 635.102 196.955 635.102 196.3V184.716C635.102 184.061 634.984 183.489 634.747 183.001C634.524 182.513 634.147 181.963 633.618 181.349C633.255 180.903 633.074 180.506 633.074 180.158C633.074 179.809 633.227 179.53 633.534 179.321C633.855 179.098 634.294 178.987 634.851 178.987H640.288C641.375 178.987 641.961 179.37 642.044 180.137C642.044 180.485 641.87 180.889 641.521 181.349C640.992 181.963 640.608 182.513 640.371 183.001C640.148 183.489 640.037 184.061 640.037 184.716V191.658C640.037 192.062 640.058 192.369 640.1 192.578C640.141 192.773 640.26 192.975 640.455 193.184C640.664 193.394 640.985 193.686 641.417 194.063L641.626 194.251C641.751 194.362 641.814 194.495 641.814 194.648C641.814 194.746 641.8 194.843 641.772 194.941C641.745 195.038 641.487 195.317 640.999 195.777C640.72 196.056 640.511 196.279 640.371 196.446C640.232 196.614 640.141 196.795 640.1 196.99C640.058 197.185 640.037 197.464 640.037 197.826V204.727C640.037 205.368 640.148 205.932 640.371 206.42C640.608 206.908 640.992 207.459 641.521 208.072C641.87 208.518 642.044 208.923 642.044 209.285C642.044 209.703 641.856 210.003 641.48 210.184C641.117 210.351 640.755 210.435 640.392 210.435Z" fill="#174662"/>
<defs>
<linearGradient id="paint0_linear_1931_655" x1="715.775" y1="0" x2="715.775" y2="142.632" gradientUnits="userSpaceOnUse">
<stop offset="0.5" stop-color="#174662"/>
<stop offset="0.5" stop-color="#2A6F97"/>
</linearGradient>
<linearGradient id="paint1_linear_1931_655" x1="789.138" y1="0" x2="789.138" y2="142.632" gradientUnits="userSpaceOnUse">
<stop offset="0.5" stop-color="#174662"/>
<stop offset="0.5" stop-color="#2A6F97"/>
</linearGradient>
<linearGradient id="paint2_linear_1931_655" x1="384.392" y1="17.8743" x2="384.392" y2="126.762" gradientUnits="userSpaceOnUse">
<stop offset="0.5" stop-color="#174662"/>
<stop offset="0.5" stop-color="#2A6F97"/>
</linearGradient>
<linearGradient id="paint3_linear_1931_655" x1="599.677" y1="14.3005" x2="599.677" y2="126.594" gradientUnits="userSpaceOnUse">
<stop offset="0.5" stop-color="#174662"/>
<stop offset="0.5" stop-color="#2A6F97"/>
</linearGradient>
<linearGradient id="paint4_linear_1931_655" x1="279.274" y1="17.8743" x2="279.274" y2="126.721" gradientUnits="userSpaceOnUse">
<stop offset="0.5" stop-color="#174662"/>
<stop offset="0.5" stop-color="#2A6F97"/>
</linearGradient>
<linearGradient id="paint5_linear_1931_655" x1="188.387" y1="18.7698" x2="188.387" y2="126.499" gradientUnits="userSpaceOnUse">
<stop offset="0.5" stop-color="#174662"/>
<stop offset="0.5" stop-color="#2A6F97"/>
</linearGradient>
<linearGradient id="paint6_linear_1931_655" x1="488.592" y1="0" x2="488.592" y2="142.815" gradientUnits="userSpaceOnUse">
<stop offset="0.5" stop-color="#174662"/>
<stop offset="0.5" stop-color="#2A6F97"/>
</linearGradient>
<linearGradient id="paint7_linear_1931_655" x1="66.2252" y1="1.25195" x2="66.2252" y2="142.633" gradientUnits="userSpaceOnUse">
<stop offset="0.5" stop-color="#174662"/>
<stop offset="0.5" stop-color="#2A6F97"/>
</linearGradient>
</defs>
</svg>
