<svg width="300" height="225" viewBox="0 0 300 225" fill="none" xmlns="http://www.w3.org/2000/svg">
<g filter="url(#filter0_d_783_720)">
<g filter="url(#filter1_d_783_720)">
<path d="M165.774 142.039L187.189 193.621L8.00003 174.116L155.277 144.173L165.774 142.039Z" fill="white"/>
<path d="M161 124.733L155.278 144.173L8.00027 174.116L161 124.733Z" fill="white"/>
<path d="M152.72 76.7709L161 124.732L8.00017 174.116L152.72 76.7709Z" fill="white"/>
<path d="M8.00017 174.116L152.72 76.7709L161 124.732L8.00017 174.116Z" stroke="#231F20" stroke-miterlimit="10"/>
<path d="M155.277 144.173L165.774 142.039L187.189 193.621L8.00003 174.116L155.277 144.173Z" stroke="#231F20" stroke-miterlimit="10"/>
<path d="M161 124.732L155.277 144.173" stroke="#231F20" stroke-miterlimit="10"/>
</g>
<path d="M184.867 134.02C227.223 140.02 285.802 124.521 291.069 75.3424C292.251 64.3051 284.178 54.9822 274.662 50.037C268.382 46.7739 254.689 43.4748 247.716 46.144C238.494 49.674 233.02 65.6891 241.937 71.7957C257.697 82.5877 266.663 69.2969 262.802 53.0623C257.559 31.02 239.704 10.5167 219.693 2.24389" stroke="#2EAEE5" stroke-width="4" stroke-linecap="round" stroke-dasharray="20 20"/>
</g>
<defs>
<filter id="filter0_d_783_720" x="0.754333" y="0.243347" width="296.43" height="201.966" filterUnits="userSpaceOnUse" color-interpolation-filters="sRGB">
<feFlood flood-opacity="0" result="BackgroundImageFix"/>
<feColorMatrix in="SourceAlpha" type="matrix" values="0 0 0 0 0 0 0 0 0 0 0 0 0 0 0 0 0 0 127 0" result="hardAlpha"/>
<feOffset dy="4"/>
<feGaussianBlur stdDeviation="2"/>
<feComposite in2="hardAlpha" operator="out"/>
<feColorMatrix type="matrix" values="0 0 0 0 0 0 0 0 0 0 0 0 0 0 0 0 0 0 0.25 0"/>
<feBlend mode="normal" in2="BackgroundImageFix" result="effect1_dropShadow_783_720"/>
<feBlend mode="normal" in="SourceGraphic" in2="effect1_dropShadow_783_720" result="shape"/>
</filter>
<filter id="filter1_d_783_720" x="0.754333" y="75.9252" width="191.22" height="126.284" filterUnits="userSpaceOnUse" color-interpolation-filters="sRGB">
<feFlood flood-opacity="0" result="BackgroundImageFix"/>
<feColorMatrix in="SourceAlpha" type="matrix" values="0 0 0 0 0 0 0 0 0 0 0 0 0 0 0 0 0 0 127 0" result="hardAlpha"/>
<feOffset dy="4"/>
<feGaussianBlur stdDeviation="2"/>
<feComposite in2="hardAlpha" operator="out"/>
<feColorMatrix type="matrix" values="0 0 0 0 0 0 0 0 0 0 0 0 0 0 0 0 0 0 0.25 0"/>
<feBlend mode="normal" in2="BackgroundImageFix" result="effect1_dropShadow_783_720"/>
<feBlend mode="normal" in="SourceGraphic" in2="effect1_dropShadow_783_720" result="shape"/>
</filter>
</defs>
</svg>
