<svg width="779" height="691" viewBox="0 0 779 691" fill="none" xmlns="http://www.w3.org/2000/svg">
<mask id="path-1-inside-1_2092_271" fill="white">
<path fill-rule="evenodd" clip-rule="evenodd" d="M766.594 59.1148C770.556 59.1148 774.433 58.7779 778.195 58.1333V635.047C771.91 633.114 765.191 632.068 758.208 632.068C723.278 632.068 694.934 658.249 694.695 690.63H60.4345C60.2025 659.216 33.5183 633.636 0.03125 632.137V59.1144C0.102612 59.1146 0.174001 59.1148 0.245419 59.1148C35.2863 59.1148 63.6997 32.7663 63.7598 0.242432H703.079C703.14 32.7663 731.553 59.1148 766.594 59.1148Z"/>
</mask>
<path d="M778.195 58.1333H780.89V54.937L777.74 55.4769L778.195 58.1333ZM778.195 635.047L777.402 637.623L780.89 638.696V635.047H778.195ZM694.695 690.63V693.326H697.37L697.39 690.65L694.695 690.63ZM60.4345 690.63L57.7395 690.65L57.7592 693.326H60.4345V690.63ZM0.03125 632.137H-2.66386V634.714L-0.0892785 634.829L0.03125 632.137ZM0.03125 59.1144L0.0394619 56.4193L-2.66386 56.4111V59.1144H0.03125ZM63.7598 0.242432V-2.45267H61.0697L61.0647 0.237447L63.7598 0.242432ZM703.079 0.242432L705.775 0.237445L705.77 -2.45267H703.079V0.242432ZM777.74 55.4769C774.128 56.0958 770.403 56.4196 766.594 56.4196V61.8099C770.709 61.8099 774.739 61.46 778.65 60.7896L777.74 55.4769ZM780.89 635.047V58.1333H775.5V635.047H780.89ZM758.208 634.763C764.92 634.763 771.373 635.768 777.402 637.623L778.987 632.471C772.447 630.459 765.461 629.372 758.208 629.372V634.763ZM697.39 690.65C697.617 659.931 724.57 634.763 758.208 634.763V629.372C721.986 629.372 692.251 656.567 692 690.611L697.39 690.65ZM60.4345 693.326H694.695V687.935H60.4345V693.326ZM-0.0892785 634.829C32.1483 636.273 57.5194 660.846 57.7395 690.65L63.1295 690.611C62.8857 657.586 34.8883 631 0.151778 629.445L-0.0892785 634.829ZM-2.66386 59.1144V632.137H2.72636V59.1144H-2.66386ZM0.245419 56.4196C0.176784 56.4196 0.108133 56.4195 0.0394619 56.4193L0.0230381 61.8095C0.0970912 61.8097 0.171218 61.8099 0.245419 61.8099V56.4196ZM61.0647 0.237447C61.0077 31.0909 33.9907 56.4196 0.245419 56.4196V61.8099C36.582 61.8099 66.3917 34.4417 66.4549 0.247416L61.0647 0.237447ZM703.079 -2.45267H63.7598V2.93754H703.079V-2.45267ZM766.594 56.4196C732.849 56.4196 705.832 31.0909 705.775 0.237445L700.384 0.247419C700.448 34.4417 730.257 61.8099 766.594 61.8099V56.4196Z" fill="white" mask="url(#path-1-inside-1_2092_271)"/>
</svg>
