<svg width="146" height="248" viewBox="0 0 146 248" fill="none" xmlns="http://www.w3.org/2000/svg">
<path d="M69.8457 44.801C70.2432 43.6784 71.8622 43.777 72.1206 44.9395L75.0749 58.2316C75.2459 59.0011 74.6323 59.7201 73.8455 59.6722L66.3458 59.2155C65.559 59.1676 65.0372 58.3795 65.3003 57.6364L69.8457 44.801Z" fill="#FF5F72"/>
<path d="M96.0221 27.2413C95.1563 41.4602 81.5905 52.2035 70.5775 51.5329C59.5644 50.8622 47.4025 38.5522 48.2683 24.3333C49.1342 10.1145 60.5261 -0.76125 73.713 0.0417548C86.8998 0.84476 96.888 13.0224 96.0221 27.2413Z" fill="#FF5F72"/>
<g style="mix-blend-mode:hard-light" opacity="0.9">
<path d="M79.6524 9.24575C79.3202 10.3687 78.1405 11.0098 77.0175 10.6775C75.8945 10.3453 75.2535 9.16564 75.5857 8.04265C75.9179 6.91967 77.0976 6.27864 78.2206 6.61086C79.3436 6.94309 79.9846 8.12277 79.6524 9.24575Z" fill="#FFF7D1"/>
<path d="M90.0684 21.9436C90.0501 22.0029 90.0313 22.0621 90.012 22.1211L89.9946 22.1154C89.5592 23.014 88.5157 23.4746 87.5406 23.1548C86.5656 22.835 85.9975 21.8459 86.1788 20.864L86.1726 20.8619C86.1785 20.8441 86.1843 20.8262 86.1899 20.8084C86.205 20.7381 86.2239 20.6679 86.2468 20.5981C86.2548 20.5735 86.2633 20.5493 86.2721 20.5253C86.4408 19.8857 86.5017 19.2216 86.4515 18.5604C86.3924 17.7823 86.1806 17.0235 85.8283 16.3273C85.476 15.6311 84.99 15.0111 84.398 14.5027C83.8544 14.0358 83.2312 13.6714 82.5588 13.4267C82.4973 13.4127 82.4359 13.3957 82.3747 13.3757C81.3114 13.0269 80.7321 11.8822 81.0808 10.8189C81.4295 9.75556 82.5742 9.17628 83.6376 9.52499C84.8832 9.93352 86.0361 10.5834 87.0306 11.4375C88.0251 12.2916 88.8416 13.3332 89.4335 14.5029C90.0254 15.6725 90.3812 16.9473 90.4804 18.2545C90.5669 19.3942 90.457 20.5391 90.1566 21.6394C90.1412 21.7135 90.1215 21.7874 90.0974 21.861C90.0883 21.8888 90.0786 21.9164 90.0684 21.9436Z" fill="#FFF7D1"/>
</g>
<path fill-rule="evenodd" clip-rule="evenodd" d="M75.4934 246.363L71.6795 201.367L71.6795 56.6051L72.1876 56.6051L72.1876 201.345L75.9997 246.32L75.4934 246.363Z" fill="#2A6F97"/>
<path fill-rule="evenodd" clip-rule="evenodd" d="M62.7158 245.627L71.9 198.766L103.633 76.5864L104.124 76.7141L72.3957 198.879L63.2144 245.725L62.7158 245.627Z" fill="#2A6F97"/>
<path fill-rule="evenodd" clip-rule="evenodd" d="M83.4762 244.741L37.7342 76.1966L38.2246 76.0635L83.9666 244.607L83.4762 244.741Z" fill="#2A6F97"/>
<path fill-rule="evenodd" clip-rule="evenodd" d="M71.4448 199.32L64.5048 117.058L65.0674 117.011L72.0074 199.273L71.4448 199.32Z" fill="#2A6F97"/>
<path fill-rule="evenodd" clip-rule="evenodd" d="M71.5454 200.679L39.0053 116.306L39.5321 116.103L72.0722 200.476L88.8178 242.31L88.2937 242.52L71.5467 200.682L71.5454 200.679Z" fill="#2A6F97"/>
<path fill-rule="evenodd" clip-rule="evenodd" d="M54.6225 244.74L106.581 111.437L107.107 111.642L55.1486 244.945L54.6225 244.74Z" fill="#2A6F97"/>
<path fill-rule="evenodd" clip-rule="evenodd" d="M75.705 133.201L76.2678 133.246L71.735 200.207L68.4313 247.837L67.8669 247.821L71.1294 200.207L75.705 133.201Z" fill="#2A6F97"/>
<path fill-rule="evenodd" clip-rule="evenodd" d="M61.3597 199.952L61.3659 199.884C61.6054 198.713 62.4593 197.278 64.2583 196.923C66.022 196.574 68.5378 197.301 72.0313 200.016L72.5434 200.414L71.9896 200.751C70.4235 201.706 68.0105 202.852 65.8875 203.134C64.8268 203.275 63.7745 203.209 62.9347 202.728C62.0682 202.232 61.5097 201.343 61.3597 200.024L61.3597 199.952ZM70.9528 200.321C67.817 198.002 65.7331 197.544 64.4319 197.801C63.1267 198.059 62.2723 198.789 62.2577 199.995C62.247 200.876 62.8233 201.633 63.3794 201.952C63.9747 202.293 64.797 202.376 65.7696 202.247C67.4831 202.019 69.4646 201.158 70.9528 200.321Z" fill="#2A6F97"/>
<path fill-rule="evenodd" clip-rule="evenodd" d="M82.2277 199.925L82.2215 199.884C81.982 198.713 81.1281 197.278 79.3291 196.923C77.5654 196.574 75.0497 197.301 71.5561 200.016L71.044 200.414L71.5978 200.751C73.1639 201.706 75.5769 202.852 77.6999 203.134C78.7607 203.275 79.8129 203.209 80.6527 202.728C81.5192 202.232 82.1431 201.244 82.2277 200.024C82.2322 199.96 82.2277 199.925 82.2277 199.925ZM72.6346 200.321C75.7705 198.002 77.8543 197.544 79.1555 197.801C80.4607 198.059 81.3151 198.789 81.3297 199.995C81.3404 200.876 80.7641 201.633 80.208 201.952C79.6127 202.293 78.7904 202.376 77.8178 202.247C76.1043 202.019 74.1228 201.158 72.6346 200.321Z" fill="#2A6F97"/>
<path fill-rule="evenodd" clip-rule="evenodd" d="M84.7706 210.9L72.1631 200.122L71.7577 200.71L83.8542 211.578L84.7706 210.9Z" fill="#2A6F97"/>
<path fill-rule="evenodd" clip-rule="evenodd" d="M71.7577 200.71L59.6613 211.578L58.79 210.876L71.2688 200.264L71.7577 200.71Z" fill="#2A6F97"/>
<path d="M107.38 66.8269C107.824 65.7218 109.437 65.8876 109.647 67.0598L112.246 81.5801C112.385 82.3561 111.742 83.049 110.958 82.9684L102.861 82.1363C102.077 82.0558 101.588 81.2466 101.882 80.5151L107.38 66.8269Z" fill="#EFA1E6"/>
<path d="M135.752 49.629C134.21 64.6318 119.388 75.3991 107.767 74.2051C96.1471 73.011 83.8239 59.454 85.3656 44.4513C86.9073 29.4485 99.4364 18.4454 113.35 19.8752C127.264 21.305 137.294 34.6262 135.752 49.629Z" fill="#EFA1E6"/>
<g style="mix-blend-mode:hard-light" opacity="0.9">
<path d="M119.227 29.8723C118.827 31.0456 117.55 31.6717 116.377 31.2709C115.204 30.87 114.578 29.5939 114.979 28.4207C115.379 27.2474 116.656 26.6212 117.829 27.0221C119.002 27.4229 119.628 28.699 119.227 29.8723Z" fill="#FFF7D1"/>
<path d="M122.117 34.4225C122.053 34.4051 121.989 34.3845 121.925 34.3607C120.816 33.945 120.254 32.7086 120.669 31.5992C121.085 30.4897 122.321 29.9273 123.431 30.343C123.439 30.3462 123.447 30.3493 123.456 30.3525C124.746 30.8396 125.928 31.5744 126.936 32.5155C127.95 33.4628 128.768 34.6006 129.343 35.8639C129.917 37.1272 130.238 38.4914 130.285 39.8784C130.326 41.0883 130.16 42.2949 129.793 43.4459C129.774 43.5231 129.75 43.6 129.721 43.6762C129.71 43.7048 129.699 43.7331 129.687 43.7609C129.665 43.8235 129.643 43.8858 129.619 43.948L129.601 43.9412C129.101 44.8724 127.977 45.3136 126.96 44.9324C125.942 44.5512 125.385 43.4801 125.62 42.4495L125.613 42.4471C125.62 42.4287 125.627 42.4103 125.634 42.3918C125.653 42.3178 125.676 42.2441 125.703 42.1709C125.713 42.145 125.723 42.1195 125.734 42.0942C125.94 41.4254 126.034 40.726 126.01 40.0247C125.981 39.1991 125.791 38.3871 125.449 37.6351C125.107 36.8832 124.62 36.2059 124.016 35.6421C123.461 35.124 122.818 34.711 122.117 34.4225Z" fill="#FFF7D1"/>
</g>
<path d="M31.203 64.8797C31.4294 63.7105 33.0451 63.5675 33.4733 64.6787L38.7773 78.4432C39.0607 79.1788 38.5607 79.981 37.7755 80.0505L29.6676 80.7681C28.8824 80.8376 28.2493 80.1357 28.3991 79.3618L31.203 64.8797Z" fill="#72CFE4"/>
<path d="M55.8015 42.6162C57.1311 57.6392 44.6177 71.0208 32.9817 72.0507C21.3458 73.0805 6.67653 62.1049 5.34685 47.0819C4.01718 32.0588 14.2339 18.8806 28.1666 17.6474C42.0992 16.4142 54.4718 27.5932 55.8015 42.6162Z" fill="#72CFE4"/>
<g style="mix-blend-mode:hard-light" opacity="0.9">
<path d="M35.832 26.3492C35.6608 27.5772 34.5265 28.4339 33.2985 28.2627C32.0705 28.0914 31.2138 26.9572 31.3851 25.7292C31.5563 24.5012 32.6906 23.6445 33.9186 23.8157C35.1466 23.987 36.0032 25.1212 35.832 26.3492Z" fill="#FFF7D1"/>
<path d="M39.5322 30.2692C39.4657 30.2642 39.3989 30.2561 39.3318 30.2447C38.1637 30.0468 37.3771 28.9394 37.575 27.7713C37.7729 26.6032 38.8803 25.8166 40.0484 26.0145C40.0535 26.0154 40.0586 26.0163 40.0636 26.0172C41.4265 26.2501 42.7305 26.7482 43.9017 27.4833C45.0772 28.2211 46.0959 29.1833 46.8996 30.3148C47.7033 31.4463 48.2762 32.7251 48.5857 34.078C48.8557 35.2584 48.9206 36.4751 48.7788 37.6751C48.7743 37.7542 48.7653 37.8339 48.7518 37.9139C48.7467 37.9437 48.7411 37.9733 48.7349 38.0026C48.725 38.0684 48.7145 38.1342 48.7033 38.2L48.6841 38.1967C48.3695 39.2059 47.3495 39.8522 46.2784 39.6707C45.2073 39.4892 44.457 38.5431 44.4923 37.4866L44.4856 37.4855C44.4889 37.4663 44.492 37.4472 44.4951 37.428C44.4997 37.3515 44.5085 37.2745 44.5216 37.1973C44.5263 37.1699 44.5314 37.1427 44.537 37.1157C44.6128 36.42 44.572 35.7157 44.4156 35.0319C44.2314 34.2266 43.8904 33.4655 43.412 32.7919C42.9336 32.1184 42.3272 31.5457 41.6275 31.1065C40.9848 30.7031 40.2749 30.4196 39.5322 30.2692Z" fill="#FFF7D1"/>
</g>
<path d="M71.4633 84.7388C71.7849 83.5937 73.4048 83.5844 73.7395 84.7257L77.8854 98.8627C78.107 99.6182 77.5433 100.375 76.756 100.38L68.6268 100.427C67.8396 100.431 67.2672 99.6805 67.4801 98.9225L71.4633 84.7388Z" fill="#FBCD5C"/>
<path d="M97.7799 64.6046C97.8664 79.6671 84.3095 91.9559 72.6431 92.023C60.9766 92.09 47.2794 79.9578 47.1929 64.8953C47.1063 49.8328 58.3605 37.5572 72.3297 37.477C86.2989 37.3967 97.6933 49.5422 97.7799 64.6046Z" fill="#FBCD5C"/>
<g style="mix-blend-mode:hard-light" opacity="0.9">
<path d="M79.2437 46.7692C78.9721 47.9774 77.7726 48.7366 76.5645 48.4651C75.3563 48.1936 74.597 46.9941 74.8685 45.7859C75.1401 44.5777 76.3396 43.8184 77.5478 44.09C78.7559 44.3615 79.5152 45.561 79.2437 46.7692Z" fill="#FFF7D1"/>
<path d="M82.6039 50.9758C82.5381 50.9654 82.4722 50.9518 82.4063 50.9349C81.2599 50.6418 80.5682 49.4748 80.8614 48.3284C81.1545 47.182 82.3215 46.4904 83.4679 46.7835C83.472 46.7845 83.4761 46.7856 83.4802 46.7867C84.8185 47.1306 86.0763 47.734 87.1822 48.5627C88.2915 49.3938 89.2262 50.4354 89.933 51.6278C90.6398 52.8202 91.1047 54.1401 91.3014 55.5122C91.4729 56.7091 91.4374 57.9251 91.1976 59.1075C91.1866 59.1863 91.1711 59.2653 91.1509 59.3442C91.1433 59.3738 91.1351 59.4032 91.1264 59.4322C91.1112 59.4965 91.0955 59.5607 91.0791 59.6247L91.0604 59.6199C90.6642 60.5986 89.5956 61.1579 88.5444 60.8891C87.4931 60.6203 86.8243 59.6167 86.9465 58.5679L86.9399 58.5662C86.9447 58.5472 86.9495 58.5282 86.9542 58.5092C86.9651 58.4338 86.9801 58.3581 86.9995 58.2826C87.0063 58.2559 87.0136 58.2295 87.0213 58.2033C87.1542 57.5168 87.1716 56.8122 87.0722 56.1184C86.9551 55.3016 86.6784 54.516 86.2577 53.8062C85.837 53.0964 85.2806 52.4765 84.6203 51.9817C84.0139 51.5273 83.3306 51.1867 82.6039 50.9758Z" fill="#FFF7D1"/>
</g>
<path d="M33.5155 103.814C33.4996 102.491 35.2259 101.973 35.9412 103.086L44.8009 116.877C45.2744 117.614 44.9101 118.599 44.0712 118.851L35.4079 121.45C34.569 121.702 33.7225 121.08 33.712 120.204L33.5155 103.814Z" fill="#B1D477"/>
<path d="M55.2935 74.0667C60.1101 90.1187 49.4925 107.489 37.0596 111.22C24.6268 114.95 6.19998 106.295 1.38339 90.2431C-3.4332 74.1912 4.73037 57.5573 19.6172 53.0904C34.5041 48.6234 50.4769 58.0148 55.2935 74.0667Z" fill="#B1D477"/>
<g style="mix-blend-mode:hard-light" opacity="0.9">
<path d="M29.9109 60.8418C30 62.2166 28.9576 63.4034 27.5828 63.4925C26.2079 63.5815 25.0211 62.5392 24.9321 61.1643C24.843 59.7894 25.8853 58.6027 27.2602 58.5136C28.6351 58.4245 29.8218 59.4669 29.9109 60.8418Z" fill="#FFF7D1"/>
<path d="M34.8158 64.2782C34.7427 64.2876 34.6686 64.2937 34.5936 64.2963C33.2779 64.3429 32.1735 63.3141 32.1269 61.9984C32.0803 60.6827 33.1091 59.5783 34.4248 59.5317C34.437 59.5313 34.4492 59.531 34.4614 59.5307C35.9903 59.4813 37.5143 59.7311 38.9477 60.2662C40.3925 60.8056 41.717 61.6242 42.8454 62.6754C43.9739 63.7267 44.8843 64.9899 45.5245 66.3929C46.0826 67.6158 46.4259 68.924 46.5411 70.2603C46.5542 70.3487 46.5626 70.4387 46.5658 70.5302C46.5671 70.565 46.5675 70.5997 46.5673 70.6342C46.5712 70.7069 46.5745 70.7798 46.5771 70.8526L46.5556 70.8534C46.4394 72.0221 45.4743 72.9541 44.268 72.9969C43.0616 73.0396 42.0329 72.1783 41.8343 71.0207L41.8265 71.021C41.8257 70.9985 41.8248 70.9761 41.8238 70.9537C41.8119 70.8702 41.8043 70.7852 41.8012 70.699C41.8002 70.6689 41.7997 70.639 41.7997 70.6092C41.7263 69.8343 41.5239 69.0762 41.2 68.3664C40.8189 67.5312 40.277 66.7793 39.6053 66.1536C38.9336 65.5279 38.1453 65.0406 37.2852 64.7196C36.4949 64.4245 35.6582 64.2752 34.8158 64.2782Z" fill="#FFF7D1"/>
</g>
<path d="M109.251 100.175C109.995 99.0802 111.707 99.6427 111.657 100.965L111.037 117.345C111.004 118.22 110.142 118.82 109.31 118.547L100.716 115.724C99.8842 115.451 99.5456 114.457 100.038 113.732L109.251 100.175Z" fill="#72CFE4"/>
<path d="M144.129 88.2286C138.899 104.151 120.255 112.327 107.923 108.277C95.5904 104.226 85.425 86.5874 90.6545 70.6653C95.8841 54.7431 112.094 45.7673 126.861 50.6173C141.627 55.4673 149.358 72.3065 144.129 88.2286Z" fill="#72CFE4"/>
<g style="mix-blend-mode:hard-light" opacity="0.9">
<path d="M130.872 62.8639C130.159 64.0426 128.625 64.42 127.447 63.7067C126.268 62.9935 125.891 61.4597 126.604 60.2809C127.317 59.1022 128.851 58.7248 130.03 59.4381C131.208 60.1514 131.586 61.6851 130.872 62.8639Z" fill="#FFF7D1"/>
<path d="M132.932 68.4889C132.866 68.4546 132.801 68.417 132.738 68.376C131.632 67.6618 131.314 66.1862 132.028 65.0803C132.743 63.9743 134.218 63.6568 135.324 64.3711C135.328 64.3738 135.333 64.3766 135.337 64.3793C136.627 65.2149 137.741 66.2956 138.614 67.5603C139.491 68.8291 140.109 70.2581 140.434 71.7658C140.758 73.2735 140.783 74.8304 140.505 76.3475C140.264 77.6702 139.797 78.9401 139.127 80.1024C139.087 80.1822 139.043 80.2606 138.993 80.3372C138.974 80.3663 138.955 80.3949 138.935 80.4229C138.897 80.4849 138.858 80.5465 138.818 80.6078L138.8 80.5962C138.036 81.4888 136.712 81.7014 135.697 81.0464C134.683 80.3915 134.332 79.0963 134.831 78.0331L134.825 78.0289C134.837 78.0103 134.849 77.9916 134.861 77.9728C134.899 77.8974 134.941 77.8232 134.988 77.7507C135.005 77.7253 135.021 77.7003 135.039 77.6757C135.422 76.9981 135.689 76.2605 135.829 75.493C135.994 74.59 135.98 73.6633 135.787 72.7658C135.594 71.8684 135.226 71.0178 134.704 70.2626C134.224 69.5689 133.624 68.9681 132.932 68.4889Z" fill="#FFF7D1"/>
</g>
<path d="M69.9001 133.738C70.2866 132.473 72.0888 132.503 72.4322 133.781L77.1904 151.483C77.4178 152.329 76.7717 153.157 75.8959 153.142L65.7825 152.971C64.9067 152.956 64.289 152.107 64.5449 151.269L69.9001 133.738Z" fill="#EFA1E6"/>
<path d="M102.107 110.527C101.799 128.713 85.0964 143.177 71.0106 142.938C56.9248 142.7 40.7216 127.678 41.0297 109.492C41.3379 91.3061 55.2604 76.795 72.1265 77.0808C88.9926 77.3666 102.415 92.341 102.107 110.527Z" fill="#EFA1E6"/>
<g style="mix-blend-mode:hard-light" opacity="0.9">
<path d="M76.9374 90.4617C78.3885 90.8226 79.8574 89.9389 80.2183 88.4878C80.5792 87.0367 79.6954 85.5678 78.2444 85.2069C76.7933 84.846 75.3244 85.7298 74.9635 87.1809C74.6026 88.6319 75.4864 90.1008 76.9374 90.4617Z" fill="#FFF7D1"/>
<path d="M83.9224 93.6034C84.0015 93.6256 84.0807 93.6438 84.16 93.6582C85.0315 93.9327 85.8469 94.3626 86.5665 94.9278C87.3501 95.5432 88.0048 96.3068 88.4932 97.1752C88.9816 98.0435 89.2942 98.9996 89.4131 99.9888C89.5141 100.829 89.4738 101.679 89.2948 102.503C89.2846 102.535 89.275 102.567 89.266 102.599C89.2405 102.69 89.2202 102.782 89.2049 102.873C89.1989 102.895 89.1927 102.918 89.1863 102.94L89.1942 102.942C89.0179 104.205 89.7979 105.435 91.0596 105.788C92.3213 106.142 93.6266 105.496 94.1317 104.325L94.1543 104.331C94.176 104.254 94.1969 104.177 94.217 104.099C94.2282 104.065 94.2387 104.03 94.2486 103.995C94.275 103.9 94.2958 103.806 94.3112 103.712C94.6333 102.29 94.7096 100.823 94.5353 99.3729C94.3355 97.7111 93.8103 96.1049 92.9898 94.646C92.1692 93.1872 91.0693 91.9042 89.753 90.8704C88.4381 89.8378 86.933 89.074 85.3233 88.6224L85.3176 88.6208C83.9417 88.2355 82.514 89.0386 82.1287 90.4145C81.7434 91.7904 82.5464 93.2181 83.9224 93.6034Z" fill="#FFF7D1"/>
</g>
</svg>
