<svg width="339" height="281" viewBox="0 0 339 281" fill="none" xmlns="http://www.w3.org/2000/svg">
<path d="M0.5 230H4.5V280C4.5 280.552 4.05228 281 3.5 281H1.5C0.947715 281 0.5 280.552 0.5 280V230Z" fill="#969493"/>
<path d="M331.5 90C331.5 89.4477 331.948 89 332.5 89H335.5C336.052 89 336.5 89.4477 336.5 90V255C336.5 255.552 336.052 256 335.5 256H332.5C331.948 256 331.5 255.552 331.5 255V90Z" fill="#969493"/>
<path d="M24.5 91C24.5 90.4477 24.9477 90 25.5 90H27.5C28.0523 90 28.5 90.4477 28.5 91V261C28.5 261.552 28.0523 262 27.5 262H25.5C24.9477 262 24.5 261.552 24.5 261V91Z" fill="#969493"/>
<path d="M313.5 230H317.5V278C317.5 278.552 317.052 279 316.5 279H314.5C313.948 279 313.5 278.552 313.5 278V230Z" fill="#969493"/>
<rect x="22.5" y="95" width="316" height="16" fill="#D6BC85"/>
<circle cx="26.75" cy="103.25" r="2.25" fill="#969493"/>
<circle cx="334.25" cy="103.25" r="2.25" fill="#969493"/>
<rect x="22.5" y="125" width="316" height="16" fill="#D6BC85"/>
<circle cx="26.75" cy="133.25" r="2.25" fill="#969493"/>
<circle cx="334.25" cy="133.25" r="2.25" fill="#969493"/>
<rect x="22.5" y="157" width="316" height="16" fill="#D6BC85"/>
<circle cx="26.75" cy="165.25" r="2.25" fill="#969493"/>
<circle cx="334.25" cy="165.25" r="2.25" fill="#969493"/>
<path d="M0 230L24.5 191.5H337.5L317.5 230H0Z" fill="#D6BC85"/>
<path d="M249.945 81.4397C259.023 80.179 259.396 79.8008 266.609 77.7837C270.713 76.0188 280.774 78.977 280.656 77.2815C280.626 76.8539 279.691 76.7314 278.865 76.6233C278.083 76.5209 277.4 76.4313 277.677 76.1078C278.202 75.4942 276.821 75.7295 277.5 75.5C277.873 75.3739 277.274 75.0862 277.5 75C277.831 74.8739 276.747 74.5915 277 74.5C278.739 73.871 277.006 73.9966 277 73.5C276.995 73.061 278.01 72.1035 277.5 72C277.032 71.9051 277.803 71.3996 277.5 71C277.429 70.9062 277.053 70.6544 276.986 70.5745C276.694 70.2289 280.818 69.0478 281.5 69C282.448 68.9335 284 68.5 284.757 68.3801C284.928 68.2791 286.105 68.174 286.282 68.0457C286.65 67.7787 287.97 67.6226 288.279 67.4718C288.667 67.2827 290.037 67.1021 290.463 66.7219C290.598 66.6017 290.738 66.4797 290.88 66.3568C291.712 65.6319 292.58 64.8769 292.54 64.2955C292.511 63.8786 290.213 63.6576 289.837 63.3784C289.599 63.2021 287.331 62.0027 287.079 61.7162C286.804 61.4035 284.487 59.0547 284.188 58.7244L284.187 58.7235C283.768 58.2612 283.381 57.8353 283.188 57.5961C282.375 56.5912 280.652 53.4161 280.158 52.2169C279.723 51.1614 279.687 50.798 279.615 50.0747C279.588 49.8076 279.557 49.4913 279.498 49.073C279.398 48.3503 279.398 46.9309 279.398 46.9309C279.398 46.9309 279.111 43.7178 278.981 42.7755C278.933 42.4307 278.89 42.1179 278.851 41.8319C278.504 39.3001 278.446 38.8761 277.986 36.9881C277.659 35.6464 277.472 34.8528 277.345 34.3118L277.345 34.3107C277.237 33.8532 277.172 33.5765 277.1 33.3013C276.991 32.8801 276.868 32.4627 276.555 31.4064L276.554 31.4024C276.448 31.0427 276.319 30.6091 276.162 30.0763C275.795 28.8277 275.348 27.7383 275.032 26.9661C274.712 26.1845 274.525 25.728 274.687 25.7606C275.725 25.9695 276.742 25.9888 277.782 26.0087C277.95 26.0119 278.119 26.0151 278.288 26.0191C280.364 26.0684 281.667 25.9094 283.464 24.8314C286.465 23.0307 284.163 18.4784 282.903 15.195C281.959 12.7361 278.888 8.23385 278.888 8.23385C278.888 8.23385 271.324 -2.45166 266.545 3.72162C264.889 5.73832 262.39 9.8449 262.491 11.2955C258.434 8.98912 254.32 4.86645 246.127 4.48667C245.814 4.45436 245.484 4.42787 245.144 4.41223C244.404 4.37825 244.856 3.6586 245.245 3.03946C245.526 2.59247 245.774 2.19787 245.517 2.1515C244.771 2.017 243.527 2.64734 242.532 3.27762C242.261 3.44941 242.391 2.6162 242.778 2.1515C243.301 1.52511 243.684 1.23584 244.036 0.970245C244.172 0.867985 244.303 0.769235 244.435 0.656102C244.789 0.353582 243.652 -8.46856e-05 242.532 1.5211e-08C241.649 6.69411e-05 241.099 0.142704 240.17 0.656102C238.711 1.46199 238.055 2.35924 237.361 3.86552C228.622 3.81188 215.723 8.45289 211.422 10.9678C211.505 9.51604 208.957 5.44038 207.278 3.44413C202.425 -2.67014 194.99 8.10728 194.99 8.10728C194.99 8.10728 191.973 12.6469 191.058 15.1171C189.837 18.4158 190.59 22.9592 193.612 24.7229C195.421 25.7788 196.726 25.9219 198.801 25.8471C198.97 25.841 199.139 25.8357 199.307 25.8305C200.347 25.7979 201.363 25.7661 202.399 25.5445C202.56 25.5099 202.379 25.9687 202.068 26.7541C201.761 27.5301 201.328 28.6249 200.975 29.8779C200.824 30.4146 200.701 30.851 200.598 31.2127C200.298 32.2729 200.18 32.6917 200.076 33.1142C200.008 33.3902 199.946 33.6677 199.844 34.1266C199.723 34.6691 199.545 35.4651 199.234 36.8117C198.797 38.7052 198.744 39.1298 198.427 41.6657C198.391 41.9521 198.352 42.2654 198.309 42.6108C198.19 43.5546 197.941 46.771 197.941 46.771C197.941 46.771 197.958 48.1903 197.866 48.9142C197.813 49.3332 197.785 49.6498 197.762 49.9172C197.698 50.6413 197.667 51.0051 197.244 52.0659C196.765 53.2711 196.056 54.455 195.255 55.4697C195.064 55.7113 194.683 56.1419 194.269 56.6094C193.973 56.9435 193.661 57.2965 193.389 57.6129C193.141 57.9024 192.874 58.1051 192.639 58.2843C192.266 58.5681 191.971 58.7928 191.947 59.2099C191.914 59.7918 193.14 60.7646 193.14 60.7646C193.14 60.7646 193.433 60.9576 193.638 61.1428C193.794 61.2834 193.999 61.4025 194.135 61.521C194.633 61.8992 194.882 62.0252 195.255 62.2774C195.566 62.4244 195.878 62.6452 196.249 62.9077C196.428 63.0338 196.606 63.1367 196.778 63.2357C197.232 63.4974 200.639 65.7315 200.866 66.2944C201.076 66.8125 200.991 66.9248 200.866 67.303C200.764 67.6145 200.244 67.9333 200.244 67.9333C200.244 67.9333 199.545 68.1978 199.078 68.2984C198.569 68.4081 198.13 68.5029 198.13 68.9419C198.13 69.4385 198.794 70.4645 201.985 71.7154C202.247 71.7817 202.488 71.8386 202.712 71.8912C203.762 72.1388 204.418 72.2934 204.95 72.9005C205.231 73.2206 205.549 74.3185 204.768 74.4305C203.944 74.5488 205.01 74.6828 204.985 75.1107C204.888 76.8074 203.551 76.6574 207.815 77.7837C219.751 80.9366 229.578 81.4397 229.578 81.4397C229.578 81.4397 240.866 82.7004 249.945 81.4397Z" fill="#52C5D7"/>
<path d="M214.111 35.383C213.528 36.8051 211.254 38.2726 209.779 37.9566C208.305 37.6406 208.269 36.2456 208.851 34.8235C209.434 33.4014 211.537 31.7227 213.012 32.0387C214.486 32.3547 214.89 33.4807 214.111 35.383Z" fill="#174662"/>
<path d="M234.889 35.383C235.472 36.8051 237.746 38.2726 239.221 37.9566C240.695 37.6406 240.731 36.2456 240.149 34.8235C239.566 33.4014 237.463 31.7227 235.988 32.0387C234.514 32.3547 234.11 33.4807 234.889 35.383Z" fill="#174662"/>
<path d="M212.384 27.6466C213.884 26.6466 216.035 24.2982 214.883 23.1464C214.237 22.5 211.301 23.4958 209.383 24.6464C206.883 26.1464 205.883 27.6464 206.883 28.6464C207.883 29.6464 210.884 28.6466 212.384 27.6466Z" fill="#2A6F97"/>
<path d="M237.5 23C235.56 22.5148 232.001 22.5001 231.501 24.0001C231.031 25.4102 234.401 27.1001 236.001 27.5001C238.001 28.0001 242.501 28.0811 242.5 26.5C242.499 24.9999 239.499 23.4999 237.5 23Z" fill="#2A6F97"/>
<path d="M204.281 21.4032L208.911 16.0802C209.399 15.5193 209.556 14.7096 209.072 14.1452C207.34 12.1249 203.195 10.8811 200.721 14.1924C198.391 17.3114 200.179 21.1213 202.731 21.9534C203.3 22.1392 203.888 21.8554 204.281 21.4032Z" fill="#2A6F97"/>
<path d="M269.376 20.5789L264.532 15.4497C264.022 14.9093 263.832 14.1067 264.292 13.523C265.94 11.4335 270.031 10.0212 272.638 13.2285C275.094 16.2496 273.463 20.1295 270.947 21.0652C270.386 21.2742 269.787 21.0146 269.376 20.5789Z" fill="#2A6F97"/>
<path d="M205.932 54.5C208.292 44.3275 214.165 39.9835 221.056 40C227.948 40.0166 236.154 45.4518 240 56C243.846 66.5482 239.711 72.5 224.933 72.5C211.003 72.5 203.573 64.6725 205.932 54.5Z" fill="#BCE0E6"/>
<path fill-rule="evenodd" clip-rule="evenodd" d="M224.394 49.1533C224.394 51.4621 222.327 53.8222 219.288 54.1154V55H219.29V56.679C219.966 58.0678 222.081 60.8184 225.577 61.5175C229.387 62.2794 232.882 61.5081 234.084 61.0573C234.55 60.8828 235.068 61.1186 235.243 61.584C235.417 62.0494 235.182 62.5681 234.716 62.7427C233.252 63.2918 229.414 64.1205 225.224 63.2825C221.637 62.5652 219.293 60.1047 218.156 58.3217C217.886 58.5403 217.584 58.7695 217.259 58.9921C216.505 59.5098 215.569 60.0356 214.618 60.2731C212.828 60.7208 210.607 60.4591 209.724 60.2825C209.236 60.185 208.92 59.7109 209.018 59.2235C209.115 58.7361 209.589 58.42 210.077 58.5175C210.86 58.6742 212.773 58.8792 214.182 58.5269C214.832 58.3644 215.562 57.9735 216.241 57.5079C216.746 57.1616 217.187 56.7983 217.5 56.5139V55H217.5V54.0471C214.691 53.5581 212.649 51.3329 212.649 49.1533C212.649 46.6861 215.265 46 218.649 46C222.034 46 224.394 46.6861 224.394 49.1533Z" fill="#174662"/>
<path d="M203 76.5C205.4 75.7 207.334 75.5 208 75.5L273 74C277 76.1667 285.6 81 288 83C291 85.5 296 96.5 299.5 100.5C303 104.5 304.5 104.5 306 104.5C307.5 104.5 309 104 309.5 105C310 106 309.5 106 308.5 107.5C307.5 109 305 110 305 111.5C305 113 308 112.5 308 114C308 115.2 305.333 116.833 304 117.5C306.5 133.833 311.6 168.7 312 177.5C312.5 188.5 311 195 309 197C307.4 198.6 305 200 304 200.5C303.667 202.833 302.4 208.4 300 212C297 216.5 284.5 228 283 230C281.5 232 280.5 235 280.5 236C280.5 237 280 239 279 239.5C278.2 239.9 278 237.667 278 236.5C277.167 237.167 275.4 238.7 275 239.5C274.5 240.5 274.5 242 273.5 242C272.5 242 272.5 242 272 240C271.6 238.4 272.167 236 272.5 235C271.333 235.333 268.7 236.2 267.5 237C266.3 237.8 258.667 243.333 255 246C254.5 249.5 250.5 255.5 241 255C231.5 254.5 226.5 247 224 240C222 234.4 222.167 224 222.5 219.5H214.5C212.5 219.5 206 218.833 203 218.5C201.5 220.667 196 226.7 186 233.5C176 240.3 166.5 242.667 163 243C162 246 154.5 251 150 251C145.5 251 138.5 249.5 136.5 231.5C134.5 213.5 142.5 207.5 147 206C150.6 204.8 154.5 206.833 156 208C156.167 206.5 156.9 202.4 158.5 198C160.1 193.6 170.5 184.5 175.5 180.5C175.167 175.167 174.7 162.2 175.5 153C176.3 143.8 180.833 125.167 183 117C181 117.5 176.7 118.6 175.5 119C174 119.5 169 121.5 168 122.5C167 123.5 165.5 125.5 165 127C164.5 128.5 164.5 130 164 130C163.5 130 163 129.5 162.5 128.5C162.1 127.7 162 126.5 162 126C161.5 126.167 160.3 126.7 159.5 127.5C158.5 128.5 157.5 129.5 157.5 130C157.5 130.5 156.5 130 156 129C155.6 128.2 155.833 127.333 156 127C151.333 129.333 138.7 134 125.5 134C109 134 105 129.5 104.5 122.5C104 115.5 107 111 110 106.5C113 102 121.5 98.5 124 98.5C126.5 98.5 163 91.5 166 91C169 90.5 191 83 194 81.5C197 80 200 77.5 203 76.5Z" fill="#52C5D7"/>
<path d="M222.453 220.197L222.5 220C223.333 216.333 226.3 208.5 231.5 206.5C236.7 204.5 242.667 209 245 211.5C246 206.333 248.5 195 250.5 191C252.082 187.836 255.019 184.464 257.085 182.368C257.358 179.963 257.5 177.503 257.5 175C257.5 147.386 240.263 125 219 125C197.737 125 180.5 147.386 180.5 175C180.5 194.665 189.242 211.679 201.954 219.844C202.409 219.304 202.757 218.851 203 218.5C206 218.833 212.5 219.5 214.5 219.5H222.5C222.484 219.719 222.468 219.951 222.453 220.197Z" fill="#BCE0E6"/>
<path fill-rule="evenodd" clip-rule="evenodd" d="M287.144 178.521C287.408 178.6 287.558 178.879 287.479 179.144C286.985 180.788 286 184.969 286 188.5C286 192.037 286.988 196.889 287.485 198.879C287.552 199.147 287.389 199.418 287.121 199.485C286.853 199.552 286.582 199.389 286.515 199.121C286.012 197.11 285 192.163 285 188.5C285 184.831 286.015 180.545 286.521 178.856C286.6 178.592 286.879 178.442 287.144 178.521Z" fill="#2A6F97"/>
<path fill-rule="evenodd" clip-rule="evenodd" d="M295.961 181.502C296.236 181.48 296.477 181.685 296.498 181.961L297.998 200.961C298.02 201.236 297.815 201.477 297.539 201.498C297.264 201.52 297.023 201.315 297.002 201.039L295.502 182.039C295.48 181.764 295.685 181.523 295.961 181.502Z" fill="#2A6F97"/>
<path fill-rule="evenodd" clip-rule="evenodd" d="M303.293 178.045C303.545 177.93 303.841 178.042 303.955 178.293C304.376 179.219 305.031 180.755 305.631 182.362C306.228 183.961 306.785 185.667 306.993 186.918C307.394 189.324 308.162 194.597 308.495 196.929C308.534 197.203 308.344 197.456 308.071 197.495C307.797 197.534 307.544 197.344 307.505 197.071C307.172 194.736 306.406 189.475 306.007 187.082C305.815 185.933 305.289 184.305 304.694 182.712C304.103 181.128 303.457 179.614 303.045 178.707C302.931 178.455 303.042 178.159 303.293 178.045Z" fill="#2A6F97"/>
<path fill-rule="evenodd" clip-rule="evenodd" d="M273.5 124C273.776 124 274 124.224 274 124.5C274 130.914 274.075 141.06 274.3 150.651C274.525 160.255 274.9 169.265 275.495 173.429C276.245 178.677 277.486 185.594 280.624 191.193C283.743 196.759 288.719 201 297 201C301.151 201 304.124 199.843 306.254 198.026C308.39 196.203 309.724 193.677 310.519 190.864C312.114 185.221 311.504 178.561 311.004 174.562C310.97 174.288 311.164 174.038 311.438 174.004C311.712 173.97 311.962 174.164 311.996 174.438C312.496 178.439 313.136 185.279 311.481 191.136C310.651 194.073 309.235 196.797 306.903 198.787C304.564 200.782 301.349 202 297 202C288.281 202 283.007 197.491 279.751 191.682C276.514 185.906 275.255 178.823 274.505 173.571C273.9 169.335 273.525 160.261 273.3 150.674C273.075 141.074 273 130.92 273 124.5C273 124.224 273.224 124 273.5 124Z" fill="#2A6F97"/>
<path fill-rule="evenodd" clip-rule="evenodd" d="M262.375 177.169C262.558 177.376 262.538 177.692 262.331 177.875C259.507 180.367 253.202 186.714 250.447 192.224C249.074 194.969 247.96 198.756 247.125 202.399C246.292 206.035 245.745 209.493 245.496 211.56C245.464 211.834 245.215 212.029 244.94 211.996C244.666 211.964 244.471 211.715 244.504 211.44C244.756 209.341 245.309 205.848 246.15 202.176C246.99 198.511 248.126 194.631 249.553 191.776C252.398 186.086 258.827 179.633 261.669 177.125C261.876 176.942 262.192 176.962 262.375 177.169Z" fill="#2A6F97"/>
<path fill-rule="evenodd" clip-rule="evenodd" d="M239.808 207.038C240.063 206.932 240.355 207.053 240.462 207.308C241.303 209.327 243 214.4 243 218.5C243 222.523 242.665 225.88 242.495 227.071C242.456 227.344 242.203 227.534 241.929 227.495C241.656 227.456 241.466 227.203 241.505 226.929C241.668 225.786 242 222.477 242 218.5C242 214.599 240.364 209.672 239.539 207.692C239.432 207.437 239.553 207.145 239.808 207.038Z" fill="#2A6F97"/>
<path fill-rule="evenodd" clip-rule="evenodd" d="M229.055 207.003C229.33 207.034 229.528 207.281 229.497 207.555C229.333 209.032 229.102 212.893 229.497 216.445C229.888 219.963 231.294 223.131 231.934 224.252C232.071 224.492 231.988 224.797 231.748 224.934C231.508 225.071 231.203 224.988 231.066 224.748C230.373 223.536 228.912 220.237 228.503 216.555C228.098 212.907 228.334 208.968 228.503 207.445C228.534 207.17 228.781 206.973 229.055 207.003Z" fill="#2A6F97"/>
<path fill-rule="evenodd" clip-rule="evenodd" d="M235.369 206.495C233.67 206.261 231.66 206.487 229.257 207.929C227.374 209.059 225.928 211.046 224.884 213.124C223.845 215.196 223.234 217.301 222.992 218.592C222.941 218.864 222.679 219.042 222.408 218.991C222.137 218.941 221.958 218.679 222.009 218.408C222.267 217.033 222.906 214.838 223.991 212.676C225.073 210.521 226.626 208.341 228.743 207.071C231.341 205.513 233.581 205.239 235.506 205.505C237.053 205.718 238.395 206.284 239.491 206.747C239.735 206.85 239.967 206.948 240.186 207.036C240.909 207.325 242.249 208.26 243.807 209.889C245.379 211.532 247.203 213.915 248.881 217.144C252.24 223.608 255.005 233.451 253.999 247.536C253.979 247.811 253.74 248.018 253.464 247.999C253.189 247.979 252.982 247.74 253.001 247.464C253.995 233.549 251.261 223.892 247.994 217.606C246.36 214.46 244.59 212.155 243.084 210.58C241.563 208.99 240.341 208.175 239.814 207.964C239.567 207.865 239.316 207.76 239.059 207.651C237.967 207.192 236.772 206.689 235.369 206.495Z" fill="#2A6F97"/>
<path fill-rule="evenodd" clip-rule="evenodd" d="M176 178.5C176.276 178.5 176.5 178.724 176.5 179C176.5 182.307 177.199 190.28 179.947 195.776C182.73 201.342 186.412 206.717 187.9 208.7C188.066 208.921 188.021 209.234 187.8 209.4C187.579 209.566 187.266 209.521 187.1 209.3C185.588 207.283 181.87 201.858 179.053 196.224C176.201 190.52 175.5 182.36 175.5 179C175.5 178.724 175.724 178.5 176 178.5Z" fill="#2A6F97"/>
<path fill-rule="evenodd" clip-rule="evenodd" d="M149 206C149 205.724 149.224 205.5 149.5 205.5C152.667 205.5 154.926 206.831 156.633 208.866C158.319 210.877 159.468 213.575 160.47 216.329C162.103 220.82 162.169 225.998 161.998 228.042C161.975 228.317 161.734 228.521 161.458 228.498C161.183 228.475 160.979 228.234 161.002 227.958C161.165 226.002 161.097 220.98 159.53 216.671C158.532 213.925 157.431 211.373 155.867 209.509C154.324 207.669 152.333 206.5 149.5 206.5C149.224 206.5 149 206.276 149 206Z" fill="#2A6F97"/>
<path fill-rule="evenodd" clip-rule="evenodd" d="M187.791 103.593C188.015 103.754 188.067 104.066 187.907 104.291C187.092 105.432 185.448 108.312 184.99 110.598C184.58 112.649 184.283 115.153 184.098 116.72C184.059 117.045 184.025 117.33 183.996 117.562C183.962 117.836 183.712 118.03 183.438 117.996C183.164 117.962 182.97 117.712 183.004 117.438C183.032 117.215 183.065 116.937 183.103 116.618C183.288 115.056 183.591 112.497 184.01 110.402C184.507 107.916 186.242 104.901 187.093 103.709C187.254 103.485 187.566 103.433 187.791 103.593Z" fill="#2A6F97"/>
<path fill-rule="evenodd" clip-rule="evenodd" d="M209.598 73L211.253 76.3111L214.5 75.2288V77.684L216.523 76.8749L218.724 77.9753C218.971 78.0988 219.071 78.3992 218.947 78.6462C218.824 78.8932 218.523 78.9933 218.276 78.8698L216.477 77.9702L213.5 79.1611V76.6163L210.747 77.534L209.402 74.8451L207.441 77.2964L205.571 74.1798C205.429 73.943 205.506 73.6359 205.743 73.4938C205.98 73.3517 206.287 73.4285 206.429 73.6653L207.559 75.5487L209.598 73Z" fill="#2A6F97"/>
<path fill-rule="evenodd" clip-rule="evenodd" d="M269.934 73.9226H276.5C276.776 73.9226 277 74.1465 277 74.4226C277 74.6987 276.776 74.9226 276.5 74.9226H271.066L271.577 79.0102L268 78.4991V80.0855L264.146 78.9842L262.354 80.7762C262.158 80.9714 261.842 80.9714 261.646 80.7762C261.451 80.5809 261.451 80.2643 261.646 80.0691L263.854 77.861L267 78.7597V77.3461L270.423 77.8351L269.934 73.9226Z" fill="#2A6F97"/>
</svg>
