<svg width="162" height="205" viewBox="0 0 162 205" fill="none" xmlns="http://www.w3.org/2000/svg">
<path d="M160.642 184L142.642 1L118.142 124L130.142 185.5L160.642 184Z" fill="#D7CFA2" stroke="#D7CFA2" stroke-width="2" stroke-linecap="square"/>
<path d="M1.14242 201C-1.37775 201 30.1424 67.3333 48.6424 1H73.6424L71.6424 18.5H109.642L112.142 1H146.142L123.142 204H92.6424V182H34.6424L30.1424 201C23.1424 201.333 7.6416 201 1.14242 201Z" fill="#EFEBD3" stroke="#EFEBD3" stroke-width="2" stroke-linecap="square"/>
<ellipse cx="79.9856" cy="93.0293" rx="36.5" ry="35.5" transform="rotate(2.45247 79.9856 93.0293)" fill="#FFDE93"/>
<ellipse cx="71.7314" cy="83.1898" rx="2.5" ry="3" transform="rotate(4.57235 71.7314 83.1898)" fill="#5D594D"/>
<ellipse cx="87.7314" cy="85.1898" rx="2.5" ry="3" transform="rotate(4.57235 87.7314 85.1898)" fill="#5D594D"/>
<path d="M73 98.5C73 98.5 73 105.589 77.5 106C82 106.411 83.5 100 83.5 100" stroke="#5D594D" stroke-width="3" stroke-linecap="round"/>
</svg>
