<svg width="1399" height="1460" viewBox="0 0 1399 1460" fill="none" xmlns="http://www.w3.org/2000/svg">
<path d="M448.56 0.00508322C454.819 10.1583 457.367 17.3948 456.979 29.0259C456.949 30.3966 456.918 31.7673 456.887 33.1796C455.549 70.323 439.665 96.7043 414.41 124.411C413.031 126.085 411.652 127.758 410.23 129.483C395.37 145.564 374.465 165.357 356.648 178.866C345.345 187.726 334.928 197.622 324.366 207.332C311.672 219.075 300.068 231.869 287.651 243.889C260.734 271.103 238.546 301.669 219.684 334.887C184.046 398.93 165.65 475.762 186.794 546.711C204.874 598.01 238.46 637.567 282.434 668.687C295.163 677.875 308.985 684.64 322.513 692.431C343.854 704.706 366.516 714.069 389.035 723.882C418.599 736.403 449.477 744.903 479.509 756.078C504.625 765.166 530.87 771.07 556.347 779.076C607.919 795.198 660.634 807.738 712.732 822.073C775.114 839.249 837.083 857.197 898.486 877.609C958.583 897.662 1018.35 919.036 1076.12 944.344C1122.29 964.538 1167.84 985.899 1212.06 1010.12C1267.95 1040.49 1360.59 1079.91 1399 1134C1398.49 1242.49 1399.9 1351.02 1399 1459.5C1368.17 1424.47 1340.25 1386.69 1306.86 1353.6C1289.64 1336.4 1272.27 1319.44 1254.37 1302.93C1229.12 1280.3 1200.91 1258.85 1173.18 1239.25C1149.6 1222.72 1125.89 1206.36 1101.21 1191.5C1045.9 1157.12 988.2 1127.37 929.746 1098.74C883.773 1076.3 836.645 1056.99 789.798 1036.57C712.437 1002.9 631.707 972.748 551.878 945.651C451.365 910.931 354.527 868.54 257.688 824.838C196.254 796.595 142.32 757.828 91.8806 713.368C71.2802 693.154 53.3117 670.786 38.2467 646.128C11.0695 601.506 -0.203433 552.297 0.00277502 500.415C0.158918 473.22 3.0012 446.842 9.7595 420.499C22.6217 371.352 44.9313 324.819 76.3183 283.379C114.94 232.228 160.473 186.898 207.508 143.548C242.233 111.521 280.269 83.8336 308.758 45.5622C317.789 32.7123 324.294 18.6518 327.137 3.50948C338.456 1.72985 349.568 1.38247 361.036 1.20287C362.998 1.16646 364.96 1.13005 366.981 1.09253C373.226 0.978558 379.47 0.875152 385.715 0.77167C389.897 0.695893 394.079 0.619469 398.262 0.542378C415.03 0.24131 431.788 -0.0416398 448.56 0.00508322Z" fill="#FCF2D7"/>
</svg>
