<svg width="45" height="44" viewBox="0 0 45 44" fill="none" xmlns="http://www.w3.org/2000/svg">
<circle cx="22.5" cy="22" r="21" stroke="white" stroke-width="2"/>
<path d="M31.1786 13.9963C29.6824 13.2988 28.0624 12.7926 26.3749 12.5001C26.3601 12.4996 26.3454 12.5024 26.3318 12.5082C26.3182 12.514 26.306 12.5228 26.2961 12.5338C26.0936 12.9051 25.8574 13.3888 25.6999 13.7601C23.91 13.4901 22.0898 13.4901 20.2999 13.7601C20.1424 13.3776 19.9061 12.9051 19.6924 12.5338C19.6811 12.5113 19.6474 12.5001 19.6136 12.5001C17.9261 12.7926 16.3174 13.2988 14.8099 13.9963C14.7986 13.9963 14.7874 14.0076 14.7761 14.0188C11.7161 18.5976 10.8724 23.0526 11.2886 27.4626C11.2886 27.4851 11.2999 27.5076 11.3224 27.5188C13.3474 29.0038 15.2936 29.9038 17.2174 30.5001C17.2511 30.5113 17.2849 30.5001 17.2961 30.4776C17.7461 29.8588 18.1511 29.2063 18.4999 28.5201C18.5224 28.4751 18.4999 28.4301 18.4549 28.4188C17.8136 28.1713 17.2061 27.8788 16.6099 27.5413C16.5649 27.5188 16.5649 27.4513 16.5986 27.4176C16.7224 27.3276 16.8461 27.2263 16.9699 27.1363C16.9924 27.1138 17.0261 27.1138 17.0486 27.1251C20.9186 28.8913 25.0924 28.8913 28.9174 27.1251C28.9399 27.1138 28.9736 27.1138 28.9961 27.1363C29.1199 27.2376 29.2436 27.3276 29.3674 27.4288C29.4124 27.4626 29.4124 27.5301 29.3561 27.5526C28.7711 27.9013 28.1524 28.1826 27.5111 28.4301C27.4661 28.4413 27.4549 28.4976 27.4661 28.5313C27.8261 29.2176 28.2311 29.8701 28.6699 30.4888C28.7036 30.5001 28.7374 30.5113 28.7711 30.5001C30.7061 29.9038 32.6524 29.0038 34.6774 27.5188C34.6999 27.5076 34.7111 27.4851 34.7111 27.4626C35.2061 22.3663 33.8899 17.9451 31.2236 14.0188C31.2124 14.0076 31.2011 13.9963 31.1786 13.9963ZM19.0849 24.7738C17.9261 24.7738 16.9586 23.7051 16.9586 22.3888C16.9586 21.0726 17.9036 20.0038 19.0849 20.0038C20.2774 20.0038 21.2224 21.0838 21.2111 22.3888C21.2111 23.7051 20.2661 24.7738 19.0849 24.7738ZM26.9261 24.7738C25.7674 24.7738 24.7999 23.7051 24.7999 22.3888C24.7999 21.0726 25.7449 20.0038 26.9261 20.0038C28.1186 20.0038 29.0636 21.0838 29.0524 22.3888C29.0524 23.7051 28.1186 24.7738 26.9261 24.7738Z" fill="white"/>
</svg>
