<svg width="32" height="32" viewBox="0 0 32 32" fill="none" xmlns="http://www.w3.org/2000/svg">
<path d="M16 2.66667C23.352 2.66667 29.3333 8.648 29.3333 16C29.3333 23.352 23.352 29.3333 16 29.3333C8.648 29.3333 2.66667 23.352 2.66667 16C2.66667 8.648 8.648 2.66667 16 2.66667ZM16 0C7.164 0 0 7.164 0 16C0 24.836 7.164 32 16 32C24.836 32 32 24.836 32 16C32 7.164 24.836 0 16 0ZM13.3333 13.3333H10.6667V16H13.3333V24H17.3333V16H19.76L20 13.3333H17.3333V12.2227C17.3333 11.5853 17.4613 11.3333 18.0773 11.3333H20V8H16.7947C14.3973 8 13.3333 9.056 13.3333 11.0773V13.3333Z" fill="black"/>
</svg>
