<svg width="32" height="32" viewBox="0 0 32 32" fill="none" xmlns="http://www.w3.org/2000/svg">
<path d="M16 2.66667C23.352 2.66667 29.3333 8.648 29.3333 16C29.3333 23.352 23.352 29.3333 16 29.3333C8.648 29.3333 2.66667 23.352 2.66667 16C2.66667 8.648 8.648 2.66667 16 2.66667ZM16 0C7.164 0 0 7.164 0 16C0 24.836 7.164 32 16 32C24.836 32 32 24.836 32 16C32 7.164 24.836 0 16 0ZM16 8C11.5827 8 8 11.5813 8 16C8 19.5347 10.292 22.5333 13.472 23.5907C13.872 23.6653 14 23.4173 14 23.2053V21.716C11.7747 22.2 11.3107 20.7733 11.3107 20.7733C10.948 19.8493 10.4227 19.6027 10.4227 19.6027C9.69733 19.1053 10.4773 19.116 10.4773 19.116C11.2813 19.172 11.704 19.9413 11.704 19.9413C12.4173 21.164 13.5747 20.8107 14.032 20.6067C14.104 20.0893 14.3107 19.7373 14.54 19.5373C12.7627 19.3347 10.896 18.648 10.896 15.584C10.896 14.7107 11.208 13.9973 11.72 13.4373C11.6373 13.2333 11.3627 12.4187 11.7973 11.3173C11.7973 11.3173 12.4693 11.1027 13.9973 12.1373C14.636 11.96 15.32 11.872 16 11.868C16.68 11.8707 17.364 11.96 18.004 12.1373C19.532 11.1027 20.2013 11.3173 20.2013 11.3173C20.6373 12.4187 20.3627 13.2333 20.2813 13.4347C20.7947 13.9947 21.104 14.708 21.104 15.5813C21.104 18.6547 19.232 19.3307 17.4507 19.528C17.7387 19.776 18 20.2627 18 21.0093V23.204C18 23.4173 18.128 23.6667 18.5333 23.588C21.7107 22.5307 24 19.5333 24 16C24 11.5813 20.4173 8 16 8V8Z" fill="white"/>
</svg>
