<svg width="45" height="44" viewBox="0 0 45 44" fill="none" xmlns="http://www.w3.org/2000/svg">
<circle cx="22.5" cy="22" r="21" stroke="white" stroke-width="2"/>
<path d="M18.3 12H26.7C29.9 12 32.5 14.6 32.5 17.8V26.2C32.5 27.7383 31.8889 29.2135 30.8012 30.3012C29.7135 31.3889 28.2383 32 26.7 32H18.3C15.1 32 12.5 29.4 12.5 26.2V17.8C12.5 16.2617 13.1111 14.7865 14.1988 13.6988C15.2865 12.6111 16.7617 12 18.3 12ZM18.1 14C17.1452 14 16.2295 14.3793 15.5544 15.0544C14.8793 15.7295 14.5 16.6452 14.5 17.6V26.4C14.5 28.39 16.11 30 18.1 30H26.9C27.8548 30 28.7705 29.6207 29.4456 28.9456C30.1207 28.2705 30.5 27.3548 30.5 26.4V17.6C30.5 15.61 28.89 14 26.9 14H18.1ZM27.75 15.5C28.0815 15.5 28.3995 15.6317 28.6339 15.8661C28.8683 16.1005 29 16.4185 29 16.75C29 17.0815 28.8683 17.3995 28.6339 17.6339C28.3995 17.8683 28.0815 18 27.75 18C27.4185 18 27.1005 17.8683 26.8661 17.6339C26.6317 17.3995 26.5 17.0815 26.5 16.75C26.5 16.4185 26.6317 16.1005 26.8661 15.8661C27.1005 15.6317 27.4185 15.5 27.75 15.5ZM22.5 17C23.8261 17 25.0979 17.5268 26.0355 18.4645C26.9732 19.4021 27.5 20.6739 27.5 22C27.5 23.3261 26.9732 24.5979 26.0355 25.5355C25.0979 26.4732 23.8261 27 22.5 27C21.1739 27 19.9021 26.4732 18.9645 25.5355C18.0268 24.5979 17.5 23.3261 17.5 22C17.5 20.6739 18.0268 19.4021 18.9645 18.4645C19.9021 17.5268 21.1739 17 22.5 17ZM22.5 19C21.7044 19 20.9413 19.3161 20.3787 19.8787C19.8161 20.4413 19.5 21.2044 19.5 22C19.5 22.7956 19.8161 23.5587 20.3787 24.1213C20.9413 24.6839 21.7044 25 22.5 25C23.2956 25 24.0587 24.6839 24.6213 24.1213C25.1839 23.5587 25.5 22.7956 25.5 22C25.5 21.2044 25.1839 20.4413 24.6213 19.8787C24.0587 19.3161 23.2956 19 22.5 19Z" stroke="white" fill="white"/>
</svg>
