<svg width="32" height="32" viewBox="0 0 32 32" fill="none" xmlns="http://www.w3.org/2000/svg">
<path d="M16 2.66667C23.352 2.66667 29.3333 8.648 29.3333 16C29.3333 23.352 23.352 29.3333 16 29.3333C8.648 29.3333 2.66667 23.352 2.66667 16C2.66667 8.648 8.648 2.66667 16 2.66667ZM16 0C7.164 0 0 7.164 0 16C0 24.836 7.164 32 16 32C24.836 32 32 24.836 32 16C32 7.164 24.836 0 16 0ZM22.1533 8H9.84667C8.82533 8 8 8.82667 8 9.84533V22.152C8 23.1733 8.82533 24 9.84667 24H22.1533C23.1747 24 24 23.1733 24 22.1533V9.84667C24 8.82667 23.1747 8 22.1533 8V8ZM16 12.924C17.6987 12.924 19.0787 14.3 19.0787 16C19.0787 17.7 17.6987 19.076 16 19.076C14.3013 19.076 12.924 17.6987 12.924 16C12.924 14.3013 14.3013 12.924 16 12.924V12.924ZM22 21.3853C22 21.7253 21.724 22 21.3853 22H10.6147C10.276 22 10 21.724 10 21.3853V14.6667H11.2653C11.2053 14.8773 11.1613 15.0933 11.1293 15.3147C11.0987 15.5387 11.0787 15.7667 11.0787 16C11.0787 18.72 13.2813 20.924 16 20.924C18.7187 20.924 20.9213 18.72 20.9213 16C20.9213 15.768 20.9013 15.5387 20.8693 15.3147C20.8387 15.0933 20.792 14.8773 20.7333 14.6667H22V21.3853ZM22 12.064C22 12.404 21.724 12.68 21.3853 12.68H19.9347C19.5933 12.68 19.32 12.4027 19.32 12.064V10.6147C19.32 10.2747 19.5933 10 19.9347 10H21.3853C21.724 10 22 10.276 22 10.6147V12.064Z" fill="black"/>
</svg>
