<svg width="32" height="32" viewBox="0 0 32 32" fill="none" xmlns="http://www.w3.org/2000/svg">
<path d="M16 0C7.164 0 0 7.164 0 16C0 24.836 7.164 32 16 32C24.836 32 32 24.836 32 16C32 7.164 24.836 0 16 0ZM17.3333 21.4093V17.3333H21.3253C21.2467 18.8573 21.0427 20.32 20.7173 21.7053C19.62 21.5453 18.4853 21.4547 17.3333 21.4093V21.4093ZM19.9427 24.292C19.2773 26.0653 18.3973 27.6213 17.3333 28.9V24.0733C18.2213 24.1107 19.092 24.1813 19.9427 24.292ZM17.3333 14.6667V10.6467C18.4907 10.6013 19.628 10.5093 20.7307 10.348C21.048 11.7173 21.2493 13.1627 21.3253 14.6667H17.3333ZM17.3333 7.98133V3.1C18.408 4.392 19.2947 5.96667 19.9613 7.76133C19.1053 7.87333 18.228 7.944 17.3333 7.98133ZM20.9373 3.62533C22.5867 4.28667 24.076 5.26267 25.324 6.48667C24.468 6.79867 23.576 7.076 22.632 7.296C22.1733 5.97333 21.5987 4.74933 20.9373 3.62533V3.62533ZM11.2827 21.7053C10.9573 20.32 10.752 18.8573 10.6747 17.3333H14.6667V21.4093C13.5133 21.4547 12.3813 21.5453 11.2827 21.7053ZM14.6667 24.0733V28.9C13.6027 27.6213 12.7227 26.0653 12.0573 24.292C12.908 24.1813 13.7787 24.1107 14.6667 24.0733ZM10.6747 14.6667C10.7507 13.1627 10.9507 11.7173 11.2693 10.348C12.372 10.5093 13.5093 10.6013 14.6667 10.6467V14.6667H10.6747ZM12.04 7.76133C12.7067 5.96667 13.5933 4.392 14.6667 3.1V7.98133C13.772 7.944 12.8947 7.87333 12.04 7.76133ZM9.36667 7.29467C8.42267 7.07467 7.53067 6.79733 6.676 6.48533C7.92533 5.26133 9.41333 4.28533 11.0627 3.624C10.4013 4.74933 9.82667 5.97333 9.36667 7.29467V7.29467ZM8.63467 9.852C8.28267 11.3867 8.056 12.9987 7.97867 14.6667H2.73467C2.95467 12.456 3.72 10.404 4.89067 8.64267C6.064 9.124 7.312 9.536 8.63467 9.852ZM8.64667 22.2013C7.32933 22.516 6.08667 22.924 4.91733 23.4013C3.73067 21.6307 2.956 19.5627 2.73467 17.3333H7.98C8.05733 19.02 8.288 20.6507 8.64667 22.2013ZM9.384 24.7573C9.84 26.0587 10.408 27.2653 11.06 28.3733C9.42933 27.72 7.95867 26.7587 6.71867 25.5533C7.56667 25.248 8.45067 24.9733 9.384 24.7573V24.7573ZM22.616 24.7573C23.5493 24.9747 24.432 25.2467 25.2813 25.5533C24.04 26.7573 22.5693 27.72 20.9387 28.3747C21.5907 27.2653 22.1587 26.0587 22.616 24.7573ZM23.3533 22.2013C23.7133 20.6507 23.9427 19.02 24.0213 17.3333H29.2667C29.044 19.5627 28.2693 21.6307 27.0827 23.4013C25.9133 22.924 24.6693 22.516 23.3533 22.2013V22.2013ZM24.0213 14.6667C23.944 12.9987 23.716 11.3867 23.3653 9.852C24.688 9.536 25.9373 9.124 27.1107 8.64267C28.28 10.404 29.0453 12.456 29.2653 14.6667H24.0213Z" fill="white"/>
</svg>
