<svg width="1440" height="969" viewBox="0 0 1440 969" fill="none" xmlns="http://www.w3.org/2000/svg">
<path d="M1440 0V314.5C1394.83 352.265 1337.36 377.032 1284.01 401.423C1174.38 451.721 1058.48 481.732 943.213 515.913C838.08 547.075 732.199 574.773 628.145 609.541C452.855 668.03 280.218 745.15 131.653 856.143C85.3001 890.367 42.4177 930.023 -0.000488281 969C-1.69919 860.216 3.81429 751.215 -0.500488 642.5C70.5408 581.371 168.961 541.529 254.161 504.633C379.592 450.239 511.316 409.872 642.123 370.761C815.182 319.044 995.132 275.205 1159.14 198.027C1238.23 160.919 1313.86 121.471 1381 64.3932C1402.89 45.9689 1423.74 23.507 1440 0Z" fill="url(#paint0_linear_1931_239)"/>
<defs>
<linearGradient id="paint0_linear_1931_239" x1="719.75" y1="0" x2="719.75" y2="969" gradientUnits="userSpaceOnUse">
<stop stop-color="#FFECB7"/>
<stop offset="0.5" stop-color="#FBF2D7"/>
<stop offset="1" stop-color="#FFECB7"/>
</linearGradient>
</defs>
</svg>
