<svg width="254" height="107" viewBox="0 0 254 107" fill="none" xmlns="http://www.w3.org/2000/svg">
<g clip-path="url(#clip0_2093_425)">
<path d="M12.7987 93.7129C13.2006 93.8871 13.5438 94.1734 13.7874 94.5376C14.0311 94.9017 14.1648 95.3283 14.1726 95.7665V106.583C14.1705 106.679 14.1307 106.77 14.062 106.838C13.9932 106.905 13.9008 106.943 13.8046 106.943H11.1386C11.093 106.945 11.0476 106.937 11.0053 106.92C10.9629 106.903 10.9247 106.877 10.8932 106.844C10.8288 106.773 10.7938 106.679 10.7951 106.583V96.7646H8.64428V106.583C8.64512 106.677 8.61001 106.767 8.54615 106.836C8.51748 106.873 8.47997 106.902 8.43709 106.921C8.39421 106.939 8.34734 106.947 8.30081 106.943H5.84741C5.75198 106.943 5.66045 106.905 5.59297 106.837C5.52549 106.77 5.48758 106.678 5.48758 106.583V96.7646H3.37766V106.583C3.38935 106.666 3.36752 106.751 3.31695 106.818C3.26638 106.886 3.19119 106.93 3.10779 106.943H0.368162C0.286107 106.955 0.202446 106.936 0.13412 106.888C0.0657927 106.841 0.017905 106.77 0.000152299 106.689V93.8929C-0.0115335 93.8094 0.010292 93.7246 0.0608599 93.6572C0.111428 93.5897 0.186627 93.545 0.270026 93.5329H11.9155C12.2196 93.5269 12.5212 93.5884 12.7987 93.7129Z" fill="#242425"/>
<path d="M26.1696 93.5328C26.6141 93.5301 27.0494 93.6592 27.4205 93.9038C27.7917 94.1485 28.0821 94.4977 28.255 94.9073C28.3789 95.1796 28.443 95.4753 28.4431 95.7746V106.591C28.4453 106.637 28.4381 106.684 28.4218 106.727C28.4055 106.771 28.3806 106.811 28.3485 106.844C28.3163 106.878 28.2777 106.905 28.235 106.923C28.1922 106.941 28.1461 106.951 28.0996 106.951H25.4172C25.321 106.951 25.2287 106.913 25.1599 106.846C25.0911 106.779 25.0514 106.687 25.0492 106.591V103.154C25.0531 103.061 25.0209 102.971 24.9593 102.901C24.928 102.865 24.8889 102.836 24.8449 102.818C24.801 102.8 24.7533 102.792 24.7058 102.794H20.9112C20.815 102.794 20.7226 102.832 20.6538 102.899C20.585 102.967 20.5453 103.058 20.5432 103.154V106.591C20.5501 106.632 20.5489 106.674 20.5394 106.714C20.53 106.754 20.5125 106.792 20.4882 106.826C20.4638 106.859 20.4329 106.888 20.3974 106.909C20.3619 106.931 20.3225 106.945 20.2815 106.951H17.5418C17.5004 106.959 17.4577 106.959 17.4163 106.95C17.375 106.941 17.3359 106.924 17.3015 106.899C17.267 106.875 17.238 106.843 17.216 106.807C17.1941 106.771 17.1797 106.731 17.1738 106.689V95.7746C17.1732 95.4769 17.2316 95.1822 17.3456 94.9073C17.4523 94.6279 17.6167 94.3742 17.8281 94.1628C18.0437 93.9566 18.2962 93.7929 18.5723 93.68C18.8452 93.5594 19.1407 93.498 19.4391 93.5L26.1696 93.5328ZM25.0165 99.9227V96.5436H20.5186V99.9145L25.0165 99.9227Z" fill="#242425"/>
<path d="M40.4974 93.6392C40.5339 93.6701 40.5625 93.7091 40.581 93.7532C40.5995 93.7973 40.6073 93.8451 40.6037 93.8928V104.725C40.6057 105.024 40.5444 105.32 40.4238 105.593C40.3095 105.868 40.146 106.12 39.9413 106.337C39.7344 106.55 39.4831 106.715 39.2053 106.82C38.9277 106.934 38.6303 106.992 38.3302 106.992H32.6056C32.3055 106.992 32.0082 106.934 31.7306 106.82C31.3192 106.647 30.9687 106.356 30.7239 105.983C30.4791 105.609 30.3513 105.172 30.3567 104.725V100.635C30.3449 100.55 30.3664 100.464 30.4168 100.396C30.4673 100.327 30.5425 100.28 30.6266 100.266H33.3662C33.4503 100.257 33.5349 100.279 33.6032 100.329C33.6714 100.379 33.7182 100.453 33.7342 100.536V103.375C33.7319 103.422 33.7395 103.469 33.7564 103.513C33.7733 103.556 33.7992 103.596 33.8323 103.629C33.905 103.691 33.9985 103.723 34.094 103.719H36.8745C36.9675 103.723 37.0584 103.691 37.1281 103.629C37.164 103.598 37.1923 103.559 37.2108 103.515C37.2292 103.471 37.2373 103.423 37.2344 103.375V93.8928C37.2335 93.7988 37.2686 93.7081 37.3325 93.6392C37.3634 93.6027 37.4024 93.574 37.4465 93.5555C37.4906 93.537 37.5384 93.5293 37.586 93.5328H40.252C40.2982 93.5317 40.344 93.5407 40.3864 93.559C40.4288 93.5774 40.4666 93.6047 40.4974 93.6392Z" fill="#242425"/>
<path d="M52.6253 93.5328C52.9237 93.5308 53.2192 93.5921 53.4922 93.7128C53.7597 93.8223 54.0025 93.9845 54.2062 94.1897C54.4099 94.3949 54.5703 94.6389 54.678 94.9073C54.8019 95.1796 54.866 95.4753 54.8661 95.7745V104.684C54.8652 104.986 54.8011 105.284 54.678 105.56C54.5691 105.834 54.408 106.084 54.2037 106.296C53.9937 106.509 53.7397 106.674 53.4595 106.779C53.1862 106.898 52.8905 106.956 52.5926 106.951H45.8376C45.542 106.951 45.2496 106.89 44.9789 106.771C44.5733 106.604 44.2263 106.321 43.9817 105.957C43.7372 105.592 43.6061 105.164 43.605 104.725V95.8155C43.6043 95.5152 43.6627 95.2177 43.7767 94.94C43.8786 94.6626 44.0406 94.4111 44.251 94.2037C44.4667 93.9975 44.7191 93.8338 44.9952 93.7209C45.268 93.5996 45.5636 93.5382 45.8621 93.5409L52.6253 93.5328ZM51.4722 96.8054H46.9743V103.711H51.5213L51.4722 96.8054Z" fill="#242425"/>
<path d="M69.5622 106.648C69.5867 106.68 69.6001 106.718 69.6001 106.758C69.6001 106.798 69.5867 106.837 69.5622 106.869C69.5392 106.901 69.5081 106.926 69.4722 106.942C69.4363 106.957 69.3968 106.963 69.3578 106.959H66.3155C66.2082 106.958 66.1034 106.927 66.013 106.869C65.9155 106.818 65.8336 106.742 65.7758 106.648L63.7885 103.007C63.7755 102.982 63.7553 102.962 63.7304 102.949C63.7056 102.936 63.6774 102.93 63.6495 102.933H61.3352C61.3244 102.931 61.3133 102.931 61.3024 102.933C61.2916 102.935 61.2813 102.939 61.2721 102.945C61.263 102.951 61.2551 102.959 61.2491 102.969C61.2431 102.978 61.239 102.988 61.237 102.999V106.566C61.2427 106.608 61.24 106.65 61.229 106.69C61.2179 106.731 61.1989 106.768 61.1729 106.801C61.1469 106.834 61.1146 106.861 61.0778 106.881C61.0411 106.902 61.0006 106.914 60.959 106.918H58.2357C58.1534 106.93 58.0698 106.909 58.0026 106.86C57.9354 106.811 57.8899 106.738 57.8759 106.656C57.8676 106.624 57.8676 106.59 57.8759 106.558V93.8927C57.8689 93.8518 57.8702 93.81 57.8796 93.7696C57.8891 93.7292 57.9065 93.6911 57.9309 93.6575C57.9553 93.624 57.9861 93.5957 58.0216 93.5742C58.0571 93.5528 58.0965 93.5387 58.1376 93.5327H66.9044C67.2027 93.5317 67.4979 93.593 67.7712 93.7127C68.3047 93.9445 68.729 94.372 68.957 94.9072C69.0776 95.1804 69.139 95.4759 69.1369 95.7745V100.814C69.1399 101.289 68.9877 101.752 68.7035 102.132C68.4371 102.52 68.0484 102.808 67.5995 102.95H67.5422C67.4523 102.95 67.4278 103.015 67.4768 103.064L69.5622 106.648ZM65.7513 96.6581H61.1307V99.9308H65.7513V96.6581Z" fill="#242425"/>
<path d="M87.6028 103.695C87.6497 103.691 87.6967 103.698 87.7405 103.715C87.7843 103.732 87.8239 103.759 87.8563 103.793C87.9207 103.865 87.9557 103.958 87.9544 104.055V106.591C87.9553 106.685 87.9202 106.776 87.8563 106.844C87.8254 106.881 87.7864 106.91 87.7423 106.928C87.6982 106.947 87.6504 106.954 87.6028 106.951H79.3267C79.2434 106.963 79.1588 106.942 79.0903 106.894C79.0217 106.845 78.9746 106.772 78.9586 106.689V93.8929C78.947 93.8094 78.9688 93.7246 79.0194 93.6572C79.0699 93.5897 79.1451 93.545 79.2285 93.5329H81.9681C82.0516 93.5212 82.1363 93.543 82.2037 93.5936C82.2712 93.6442 82.3158 93.7194 82.328 93.8029C82.3364 93.8323 82.3364 93.8635 82.328 93.8929V103.351C82.3262 103.398 82.3348 103.446 82.3532 103.489C82.3716 103.533 82.3992 103.572 82.4343 103.605C82.5061 103.669 82.5995 103.704 82.696 103.703L87.6028 103.695Z" fill="#242425"/>
<path d="M100 93.6391C100.035 93.6711 100.063 93.7104 100.082 93.7542C100.1 93.798 100.108 93.8452 100.107 93.8927V96.3063C100.11 96.354 100.103 96.4018 100.084 96.4459C100.066 96.49 100.037 96.5291 100 96.5599C99.9316 96.6238 99.8409 96.659 99.7469 96.6581H93.319C93.3087 96.6557 93.2981 96.6556 93.2877 96.6577C93.2774 96.6598 93.2676 96.6641 93.2591 96.6703C93.2506 96.6765 93.2435 96.6845 93.2383 96.6937C93.2331 96.7029 93.23 96.7131 93.2291 96.7236V98.8099C93.2291 98.859 93.2291 98.8835 93.319 98.8835H98.7983C98.8446 98.8813 98.8908 98.8897 98.9333 98.9081C98.9759 98.9266 99.0136 98.9545 99.0436 98.9899C99.1075 99.0588 99.1426 99.1496 99.1418 99.2435V101.166C99.1426 101.26 99.1075 101.351 99.0436 101.42C99.0136 101.455 98.9759 101.483 98.9333 101.502C98.8908 101.52 98.8446 101.528 98.7983 101.526H93.319C93.2985 101.524 93.2779 101.529 93.2612 101.541C93.2445 101.553 93.233 101.571 93.2291 101.592V103.662C93.2253 103.672 93.2238 103.683 93.2248 103.694C93.2257 103.704 93.2291 103.715 93.2345 103.724C93.24 103.734 93.2475 103.742 93.2564 103.748C93.2654 103.754 93.2756 103.758 93.2863 103.76H99.7715C99.8655 103.76 99.9558 103.797 100.023 103.862C100.09 103.928 100.129 104.018 100.131 104.112V106.566C100.132 106.613 100.124 106.66 100.107 106.703C100.09 106.747 100.064 106.787 100.031 106.82C99.9985 106.854 99.9593 106.88 99.9161 106.899C99.8729 106.917 99.8265 106.926 99.7796 106.926H90.2196C90.1364 106.938 90.0517 106.918 89.9832 106.869C89.9146 106.82 89.8675 106.747 89.8516 106.664V93.8927C89.8537 93.7965 89.8934 93.7049 89.9622 93.6376C90.031 93.5704 90.1234 93.5327 90.2196 93.5327H99.7715C99.8585 93.5378 99.9404 93.5758 100 93.6391Z" fill="#242425"/>
<path d="M112.161 93.5328C112.462 93.5301 112.761 93.5915 113.036 93.7128C113.576 93.9343 114.005 94.361 114.23 94.8992C114.352 95.172 114.413 95.4678 114.41 95.7664V106.583C114.412 106.629 114.405 106.676 114.389 106.719C114.373 106.763 114.348 106.803 114.316 106.836C114.284 106.87 114.245 106.897 114.202 106.915C114.159 106.933 114.113 106.943 114.067 106.943H111.36C111.264 106.943 111.173 106.905 111.105 106.837C111.038 106.77 111 106.678 111 106.583V103.146C111.001 103.052 110.966 102.962 110.902 102.893C110.871 102.856 110.832 102.827 110.788 102.809C110.744 102.791 110.696 102.783 110.648 102.786H106.911C106.815 102.786 106.722 102.824 106.654 102.891C106.585 102.959 106.545 103.05 106.543 103.146V106.583C106.555 106.666 106.533 106.751 106.482 106.818C106.432 106.886 106.357 106.93 106.273 106.943H103.534C103.493 106.95 103.451 106.948 103.41 106.939C103.37 106.929 103.332 106.912 103.298 106.888C103.265 106.863 103.237 106.832 103.215 106.797C103.194 106.761 103.18 106.722 103.174 106.681C103.165 106.649 103.165 106.615 103.174 106.583V95.7746C103.173 95.477 103.231 95.1822 103.345 94.9073C103.452 94.628 103.617 94.3743 103.828 94.1628C104.044 93.9567 104.296 93.7929 104.572 93.6801C104.845 93.5587 105.141 93.4973 105.439 93.5001L112.161 93.5328ZM111.016 99.9227V96.5437H106.51V99.9145L111.016 99.9227Z" fill="#242425"/>
<path d="M128.558 99.7345C128.592 99.7686 128.619 99.8095 128.636 99.8547C128.653 99.8999 128.66 99.9482 128.656 99.9964V104.725C128.658 105.024 128.597 105.32 128.476 105.593C128.361 105.866 128.201 106.118 128.002 106.337C127.79 106.549 127.537 106.713 127.258 106.82C126.983 106.933 126.688 106.992 126.391 106.992H119.603C119.309 106.993 119.017 106.936 118.744 106.823C118.472 106.711 118.225 106.546 118.016 106.337C117.808 106.129 117.643 105.882 117.531 105.609C117.418 105.337 117.361 105.045 117.362 104.75V95.8319C117.362 95.5343 117.421 95.2397 117.534 94.9646C117.635 94.6841 117.797 94.4297 118.008 94.2201C118.223 94.0161 118.472 93.8526 118.744 93.7374C119.022 93.6207 119.319 93.5595 119.619 93.5574H127.577C127.674 93.5574 127.768 93.5962 127.837 93.6652C127.906 93.7343 127.945 93.8279 127.945 93.9256V96.4537C127.945 96.5513 127.906 96.645 127.837 96.714C127.768 96.7831 127.674 96.8219 127.577 96.8219H121.157C121.06 96.8206 120.967 96.8556 120.895 96.92C120.828 96.9872 120.789 97.0784 120.789 97.1737V103.384C120.789 103.43 120.799 103.475 120.817 103.517C120.835 103.559 120.862 103.597 120.895 103.629C120.93 103.662 120.971 103.688 121.016 103.705C121.061 103.722 121.109 103.73 121.157 103.727H124.951C124.994 103.729 125.037 103.723 125.078 103.709C125.119 103.694 125.156 103.672 125.188 103.643C125.22 103.614 125.246 103.579 125.264 103.54C125.282 103.501 125.293 103.459 125.295 103.416V100.029C125.293 99.9826 125.3 99.9361 125.316 99.8926C125.333 99.849 125.357 99.8091 125.39 99.7754C125.422 99.7418 125.46 99.715 125.503 99.6967C125.546 99.6784 125.592 99.669 125.638 99.6691H128.321C128.405 99.6616 128.489 99.6849 128.558 99.7345Z" fill="#242425"/>
<path d="M142.698 93.6391C142.765 93.7062 142.803 93.7974 142.804 93.8927V104.725C142.803 105.024 142.739 105.32 142.616 105.593C142.504 105.867 142.343 106.12 142.142 106.337C141.93 106.549 141.677 106.713 141.397 106.82C141.12 106.934 140.822 106.992 140.522 106.992H133.735C133.437 106.992 133.143 106.933 132.868 106.82C132.327 106.594 131.895 106.165 131.666 105.625C131.552 105.348 131.493 105.05 131.494 104.75V93.8927C131.482 93.8092 131.504 93.7245 131.555 93.657C131.605 93.5896 131.68 93.5449 131.764 93.5327H134.503C134.587 93.521 134.671 93.5429 134.739 93.5935C134.806 93.6441 134.851 93.7193 134.863 93.8027C134.872 93.8321 134.872 93.8633 134.863 93.8927V103.351C134.861 103.398 134.87 103.445 134.888 103.489C134.907 103.533 134.934 103.572 134.969 103.604C135.041 103.669 135.135 103.704 135.231 103.703H139.026C139.071 103.703 139.116 103.695 139.158 103.678C139.2 103.661 139.239 103.636 139.271 103.604C139.306 103.573 139.333 103.533 139.35 103.489C139.367 103.445 139.374 103.398 139.369 103.351V93.8927C139.371 93.7965 139.411 93.7049 139.48 93.6377C139.549 93.5704 139.641 93.5327 139.737 93.5327H142.403C142.457 93.5236 142.513 93.5287 142.564 93.5473C142.616 93.5659 142.662 93.5975 142.698 93.6391Z" fill="#242425"/>
<path d="M155.979 93.6391C156.046 93.7062 156.085 93.7974 156.085 93.8927V96.3063C156.087 96.3538 156.078 96.401 156.06 96.4448C156.042 96.4886 156.014 96.5279 155.979 96.5599C155.907 96.6244 155.814 96.6594 155.717 96.6581H149.297C149.287 96.6557 149.276 96.6556 149.265 96.6576C149.254 96.6596 149.244 96.6638 149.234 96.6699C149.225 96.676 149.217 96.684 149.211 96.6932C149.205 96.7024 149.201 96.7127 149.199 96.7236V98.8426C149.199 98.8917 149.199 98.9163 149.297 98.9163H154.777C154.823 98.9152 154.869 98.9241 154.911 98.9425C154.953 98.9608 154.991 98.9882 155.022 99.0226C155.086 99.0915 155.121 99.1823 155.12 99.2763V101.199C155.121 101.293 155.086 101.384 155.022 101.453C154.991 101.487 154.953 101.514 154.911 101.533C154.869 101.551 154.823 101.56 154.777 101.559H149.297C149.276 101.556 149.254 101.561 149.236 101.573C149.218 101.585 149.205 101.603 149.199 101.624V103.727C149.197 103.738 149.197 103.749 149.199 103.76C149.201 103.771 149.205 103.781 149.211 103.79C149.217 103.799 149.225 103.807 149.234 103.813C149.244 103.819 149.254 103.823 149.265 103.825H155.717C155.812 103.825 155.903 103.862 155.972 103.927C156.04 103.993 156.081 104.082 156.085 104.177V106.632C156.085 106.726 156.048 106.816 155.983 106.883C155.917 106.951 155.827 106.989 155.733 106.992H146.198C146.157 106.999 146.114 106.997 146.073 106.988C146.033 106.979 145.994 106.961 145.96 106.937C145.925 106.913 145.896 106.882 145.874 106.846C145.852 106.811 145.837 106.771 145.83 106.73C145.822 106.698 145.822 106.664 145.83 106.632V93.8927C145.832 93.7965 145.872 93.7049 145.941 93.6376C146.009 93.5704 146.102 93.5327 146.198 93.5327H155.717C155.766 93.5309 155.814 93.5394 155.859 93.5577C155.905 93.5761 155.945 93.6038 155.979 93.6391Z" fill="#242425"/>
<path d="M176.546 93.5328C176.593 93.5306 176.639 93.5379 176.683 93.5541C176.726 93.5704 176.766 93.5954 176.8 93.6275C176.834 93.6596 176.86 93.6983 176.879 93.7411C176.897 93.7839 176.906 93.8299 176.906 93.8765V106.591C176.907 106.638 176.899 106.684 176.882 106.728C176.865 106.772 176.839 106.811 176.806 106.845C176.773 106.878 176.734 106.905 176.691 106.923C176.648 106.941 176.601 106.951 176.555 106.951H173.88C173.784 106.951 173.692 106.913 173.623 106.846C173.554 106.779 173.514 106.687 173.512 106.591V102.132C173.515 102.089 173.508 102.046 173.494 102.005C173.479 101.965 173.457 101.927 173.428 101.895C173.399 101.864 173.364 101.838 173.326 101.819C173.287 101.801 173.245 101.79 173.202 101.788H169.382C169.286 101.785 169.192 101.82 169.121 101.886C169.084 101.917 169.056 101.956 169.037 102C169.019 102.044 169.011 102.092 169.014 102.14V106.599C169.026 106.682 169.004 106.767 168.954 106.835C168.903 106.902 168.828 106.947 168.745 106.959C168.715 106.967 168.684 106.967 168.655 106.959H166.013C165.93 106.971 165.845 106.949 165.778 106.898C165.71 106.848 165.665 106.772 165.653 106.689C165.645 106.66 165.645 106.628 165.653 106.599V93.8928C165.642 93.8093 165.663 93.7246 165.714 93.6571C165.765 93.5897 165.84 93.545 165.923 93.5328H168.663C168.746 93.5212 168.831 93.543 168.898 93.5936C168.966 93.6442 169.01 93.7194 169.023 93.8028C169.031 93.8322 169.031 93.8634 169.023 93.8928V98.18C169.011 98.2635 169.033 98.3483 169.083 98.4157C169.134 98.4832 169.209 98.5279 169.292 98.54H173.177C173.224 98.5434 173.271 98.5363 173.315 98.5193C173.359 98.5023 173.398 98.4759 173.431 98.4418C173.495 98.37 173.53 98.2765 173.529 98.18V93.8847C173.531 93.7884 173.571 93.6969 173.639 93.6296C173.708 93.5623 173.8 93.5246 173.897 93.5247H176.555L176.546 93.5328Z" fill="#242425"/>
<path d="M188.961 93.5327C189.262 93.5301 189.56 93.5914 189.836 93.7127C190.375 93.9342 190.805 94.361 191.03 94.8991C191.151 95.172 191.212 95.4677 191.21 95.7663V106.583C191.212 106.629 191.205 106.675 191.188 106.719C191.172 106.763 191.147 106.802 191.115 106.836C191.083 106.87 191.044 106.897 191.001 106.915C190.959 106.933 190.913 106.943 190.866 106.943H188.184C188.088 106.943 187.997 106.905 187.929 106.837C187.862 106.77 187.824 106.678 187.824 106.583V103.146C187.825 103.052 187.79 102.961 187.726 102.893C187.695 102.856 187.656 102.827 187.612 102.809C187.568 102.79 187.52 102.783 187.472 102.786H183.669C183.574 102.786 183.483 102.824 183.415 102.892C183.348 102.959 183.31 103.051 183.31 103.146V106.583C183.321 106.666 183.299 106.751 183.249 106.818C183.198 106.886 183.123 106.93 183.04 106.943H180.3C180.259 106.95 180.216 106.948 180.176 106.939C180.135 106.93 180.096 106.912 180.062 106.888C180.028 106.864 179.999 106.833 179.976 106.797C179.954 106.762 179.939 106.722 179.932 106.681V95.7745C179.931 95.4769 179.99 95.1821 180.104 94.9073C180.211 94.6279 180.375 94.3742 180.586 94.1627C180.803 93.9579 181.055 93.7943 181.331 93.68C181.604 93.5603 181.899 93.499 182.197 93.5L188.961 93.5327ZM187.816 99.9226V96.5436H183.31V99.9145L187.816 99.9226Z" fill="#242425"/>
<path d="M197.645 96.8874C197.611 96.9199 197.585 96.9594 197.568 97.0033C197.551 97.0471 197.544 97.0942 197.547 97.1411V103.351C197.544 103.398 197.551 103.445 197.568 103.489C197.585 103.533 197.611 103.572 197.645 103.605C197.717 103.669 197.811 103.704 197.907 103.703H204.065C204.112 103.701 204.158 103.708 204.202 103.724C204.245 103.74 204.285 103.765 204.319 103.797C204.352 103.83 204.379 103.868 204.397 103.911C204.416 103.954 204.425 104 204.425 104.046V106.599C204.427 106.646 204.42 106.692 204.404 106.736C204.387 106.779 204.363 106.819 204.33 106.853C204.298 106.886 204.26 106.913 204.217 106.931C204.174 106.95 204.128 106.959 204.082 106.959H196.419C196.121 106.961 195.826 106.902 195.552 106.787C195.273 106.68 195.019 106.516 194.808 106.305C194.392 105.861 194.161 105.276 194.162 104.668V95.7829C194.16 95.4852 194.219 95.1903 194.333 94.9156C194.434 94.6352 194.596 94.3808 194.808 94.1711C195.023 93.965 195.276 93.8012 195.552 93.6884C195.825 93.567 196.12 93.5056 196.419 93.5084H204.065C204.159 93.5084 204.25 93.5452 204.317 93.6109C204.384 93.6767 204.423 93.7662 204.425 93.8602V96.4047C204.427 96.4988 204.393 96.5901 204.328 96.6589C204.264 96.7277 204.176 96.7686 204.082 96.7729H197.907C197.858 96.7736 197.81 96.784 197.765 96.8037C197.72 96.8234 197.679 96.8518 197.645 96.8874Z" fill="#242425"/>
<path d="M215.081 99.1864C215.065 99.2044 215.056 99.2277 215.056 99.2519C215.056 99.276 215.065 99.2993 215.081 99.3173L219.53 106.681C219.554 106.712 219.568 106.751 219.568 106.791C219.568 106.831 219.554 106.87 219.53 106.902C219.507 106.934 219.476 106.959 219.44 106.975C219.404 106.99 219.364 106.996 219.325 106.992H216.136C216.029 106.991 215.924 106.96 215.833 106.902C215.737 106.853 215.657 106.776 215.604 106.681L212.734 101.453C212.734 101.379 212.66 101.379 212.636 101.453L211.049 103.195C210.975 103.275 210.919 103.37 210.886 103.474C210.844 103.578 210.821 103.689 210.82 103.801V106.64C210.83 106.724 210.808 106.809 210.758 106.877C210.708 106.945 210.634 106.992 210.55 107.008H207.868C207.785 107.02 207.7 106.998 207.632 106.947C207.565 106.897 207.52 106.822 207.508 106.738C207.5 106.706 207.5 106.672 207.508 106.64V93.8929C207.496 93.8094 207.518 93.7246 207.569 93.6572C207.619 93.5897 207.695 93.545 207.778 93.5329H210.518C210.601 93.5212 210.686 93.543 210.753 93.5936C210.821 93.6442 210.865 93.7194 210.877 93.8029C210.886 93.8323 210.886 93.8635 210.877 93.8929V99.62L215.825 93.8274C215.882 93.741 215.954 93.6661 216.038 93.6065C216.14 93.5579 216.252 93.5328 216.365 93.5329H219.546C219.652 93.5329 219.71 93.5329 219.734 93.6065C219.759 93.6801 219.734 93.7292 219.669 93.8029L215.081 99.1864Z" fill="#242425"/>
<path d="M225.426 106.591C225.433 106.632 225.432 106.674 225.423 106.714C225.413 106.754 225.396 106.792 225.371 106.826C225.347 106.86 225.316 106.888 225.281 106.909C225.245 106.931 225.206 106.945 225.165 106.951H222.441C222.4 106.958 222.358 106.957 222.317 106.947C222.276 106.938 222.237 106.921 222.203 106.896C222.169 106.872 222.14 106.841 222.118 106.806C222.095 106.77 222.08 106.73 222.073 106.689V93.8929C222.062 93.8094 222.084 93.7246 222.134 93.6572C222.185 93.5897 222.26 93.545 222.343 93.5329H225.083C225.166 93.5212 225.251 93.543 225.318 93.5936C225.386 93.6442 225.431 93.7194 225.443 93.8029C225.451 93.8323 225.451 93.8635 225.443 93.8929L225.426 106.591Z" fill="#242425"/>
<path d="M238.307 93.7128C238.843 93.9394 239.27 94.3645 239.501 94.8991C239.619 95.1727 239.677 95.4684 239.672 95.7664V106.583C239.675 106.629 239.667 106.675 239.651 106.719C239.635 106.763 239.61 106.803 239.578 106.836C239.546 106.87 239.507 106.897 239.464 106.915C239.422 106.933 239.376 106.943 239.329 106.943H236.679C236.632 106.946 236.585 106.939 236.542 106.922C236.498 106.905 236.458 106.878 236.426 106.844C236.361 106.772 236.326 106.679 236.328 106.583V97.1327C236.331 97.085 236.323 97.0372 236.305 96.9931C236.287 96.949 236.258 96.9099 236.221 96.8791C236.152 96.8152 236.062 96.78 235.968 96.7809H232.173C232.077 96.7796 231.983 96.8146 231.912 96.8791C231.877 96.9111 231.849 96.9504 231.831 96.9942C231.812 97.038 231.804 97.0852 231.805 97.1327V106.591C231.817 106.674 231.795 106.759 231.745 106.826C231.694 106.894 231.619 106.939 231.535 106.951H228.796C228.714 106.963 228.63 106.942 228.563 106.893C228.495 106.844 228.45 106.771 228.436 106.689C228.428 106.657 228.428 106.623 228.436 106.591V93.8927C228.424 93.8092 228.446 93.7245 228.497 93.6571C228.547 93.5896 228.622 93.5449 228.706 93.5328H237.464C237.755 93.5309 238.042 93.5924 238.307 93.7128Z" fill="#242425"/>
<path d="M253.853 99.7346C253.888 99.7683 253.916 99.809 253.934 99.8541C253.952 99.8993 253.961 99.9478 253.959 99.9965V104.725C253.958 105.025 253.894 105.32 253.771 105.593C253.662 105.869 253.501 106.122 253.297 106.337C253.087 106.551 252.833 106.715 252.552 106.82C252.278 106.935 251.983 106.993 251.686 106.992H244.898C244.6 106.992 244.306 106.933 244.031 106.82C243.626 106.642 243.282 106.349 243.043 105.976C242.805 105.603 242.682 105.168 242.69 104.725V95.8156C242.693 95.5027 242.759 95.1936 242.886 94.9075C242.988 94.63 243.15 94.3786 243.36 94.1711C243.576 93.965 243.828 93.8012 244.105 93.6884C244.377 93.567 244.673 93.5056 244.971 93.5084H252.888C252.983 93.5084 253.075 93.5463 253.142 93.6138C253.21 93.6813 253.248 93.7729 253.248 93.8684V96.4047C253.248 96.5002 253.21 96.5917 253.142 96.6593C253.075 96.7268 252.983 96.7647 252.888 96.7647H246.46C246.366 96.7639 246.275 96.799 246.206 96.8629C246.17 96.8938 246.141 96.9328 246.123 96.9769C246.104 97.021 246.096 97.0688 246.1 97.1165V103.326C246.096 103.374 246.104 103.422 246.123 103.466C246.141 103.51 246.17 103.549 246.206 103.58C246.24 103.612 246.28 103.637 246.323 103.652C246.367 103.668 246.414 103.674 246.46 103.67H250.214C250.257 103.672 250.3 103.666 250.34 103.651C250.381 103.637 250.418 103.615 250.45 103.586C250.482 103.557 250.508 103.522 250.526 103.483C250.544 103.444 250.555 103.402 250.557 103.359V99.9719C250.555 99.9254 250.562 99.879 250.578 99.8354C250.595 99.7918 250.62 99.7519 250.652 99.7183C250.684 99.6846 250.722 99.6578 250.765 99.6395C250.808 99.6213 250.854 99.6119 250.901 99.6119H253.583C253.634 99.6115 253.685 99.6222 253.731 99.6434C253.778 99.6646 253.819 99.6958 253.853 99.7346Z" fill="#242425"/>
<path d="M80.8395 1.15357C84.2084 2.59001 86.8903 5.27601 88.3224 8.64798C89.0832 10.3695 89.4759 12.2311 89.4755 14.1133V84.5249C89.4798 85.1267 89.2456 85.7057 88.8241 86.1351C88.4025 86.5645 87.8281 86.8093 87.2265 86.8157H70.3308C70.0357 86.8277 69.7416 86.7737 69.47 86.6576C69.1984 86.5415 68.9561 86.3664 68.7606 86.1449C68.3526 85.6997 68.1353 85.1122 68.1555 84.5085V20.5523H54.6209V84.5494C54.6367 85.1524 54.42 85.7383 54.0157 86.1858C53.8162 86.4044 53.572 86.5775 53.2996 86.6933C53.0273 86.809 52.7332 86.8648 52.4374 86.8567H37.1854C36.8869 86.861 36.5904 86.8064 36.3129 86.6961C36.0354 86.5858 35.7824 86.4219 35.5682 86.2137C35.354 86.0055 35.183 85.7572 35.0648 85.4828C34.9466 85.2085 34.8835 84.9136 34.8792 84.6149V20.5523H21.3201V84.5494C21.3639 84.8623 21.3344 85.1811 21.2339 85.4806C21.1333 85.7801 20.9645 86.052 20.7408 86.275C20.5172 86.498 20.2447 86.6659 19.945 86.7654C19.6453 86.865 19.3265 86.8934 19.014 86.8485H2.30634C1.99376 86.8934 1.67502 86.865 1.37532 86.7654C1.07561 86.6659 0.803143 86.498 0.579453 86.275C0.355762 86.052 0.186977 85.7801 0.0864361 85.4806C-0.0141053 85.1811 -0.0436475 84.8623 0.00014404 84.5494V2.299C-0.0436475 1.98612 -0.0141053 1.66735 0.0864361 1.36786C0.186977 1.06837 0.355762 0.796383 0.579453 0.573385C0.803143 0.350387 1.07561 0.182493 1.37532 0.0829713C1.67502 -0.016551 1.99376 -0.0449739 2.30634 -5.14556e-05H75.3276C77.2256 -0.00860105 79.104 0.384539 80.8395 1.15357Z" fill="#E73427"/>
<path d="M162.897 65.7643C163.202 65.758 163.505 65.8151 163.786 65.932C164.068 66.0489 164.322 66.223 164.533 66.4434C164.958 66.8969 165.187 67.4994 165.171 68.1207V84.484C165.181 85.0921 164.952 85.6799 164.533 86.1204C164.323 86.343 164.07 86.5193 163.788 86.6377C163.506 86.756 163.203 86.8139 162.897 86.8076H105.242C103.607 86.8076 102.789 85.9894 102.789 84.4513V2.35632C102.789 0.785441 103.607 0 105.242 0H122.94C124.575 0 125.393 0.818168 125.393 2.35632V63.5307C125.384 63.8423 125.446 64.1518 125.575 64.4355C125.704 64.7192 125.896 64.9695 126.137 65.1671C126.613 65.5862 127.229 65.8111 127.863 65.7971L162.897 65.7643Z" fill="#1D539F"/>
<path d="M251.506 -5.70282e-05C251.829 -0.00899166 252.15 0.0472604 252.451 0.165341C252.752 0.283421 253.025 0.460908 253.256 0.687204C253.491 0.899089 253.678 1.15786 253.806 1.44679C253.934 1.73571 254 2.04834 254 2.36445V84.7376C254 85.0537 253.934 85.3663 253.806 85.6553C253.678 85.9442 253.491 86.203 253.256 86.4148C253.025 86.6411 252.752 86.8186 252.451 86.9367C252.15 87.0548 251.829 87.111 251.506 87.1021H233.58C233.258 87.1104 232.938 87.0538 232.639 86.9357C232.34 86.8177 232.067 86.6405 231.838 86.4148C231.601 86.2053 231.411 85.947 231.283 85.6575C231.154 85.368 231.09 85.0543 231.094 84.7376V55.9954C231.107 55.6925 231.057 55.3901 230.945 55.1081C230.834 54.8261 230.665 54.5708 230.448 54.359C230.224 54.1489 229.96 53.9857 229.672 53.879C229.384 53.7722 229.078 53.724 228.771 53.7372H203.632C202.994 53.7168 202.371 53.939 201.89 54.359C201.65 54.5571 201.458 54.8074 201.329 55.091C201.2 55.3746 201.137 55.6839 201.146 55.9954V84.7376C201.146 86.3085 200.328 87.1021 198.693 87.1021H180.897C179.262 87.1021 178.444 86.2839 178.444 84.7376V2.36445C178.444 0.785384 179.262 -5.70282e-05 180.897 -5.70282e-05H198.725C200.361 -5.70282e-05 201.179 0.818111 201.179 2.36445V30.2722C201.179 31.843 201.996 32.6285 203.632 32.6285H228.828C229.141 32.6392 229.452 32.5843 229.743 32.4674C230.033 32.3504 230.295 32.174 230.513 31.9494C230.928 31.5056 231.159 30.9207 231.159 30.3131V2.36445C231.155 2.04856 231.219 1.73549 231.346 1.44623C231.473 1.15697 231.66 0.898179 231.895 0.687204C232.344 0.244693 232.95 -0.00234371 233.58 -5.70282e-05H251.506Z" fill="#F8B92A"/>
</g>
<defs>
<clipPath id="clip0_2093_425">
<rect width="254" height="107" fill="white"/>
</clipPath>
</defs>
</svg>
