<svg width="240" height="254" viewBox="0 0 240 254" fill="none" xmlns="http://www.w3.org/2000/svg">
<path d="M47.7142 111.054C40.7892 103.622 40.6522 91.3638 41.356 85.8745C42.2005 86.719 49.544 87.4779 53.2036 88.0409C54.6815 88.252 59.1151 88.252 61.2264 88.0409C65.0267 87.6186 70.0234 87.6186 71.3606 88.0409C85.7172 92.4323 90.3621 108.731 89.9398 117.81C89.7287 119.921 90.3621 129.633 90.7843 132.8C93.3178 147.494 103.146 153.788 107.932 155.97C112.492 158.841 134.991 157.713 144.2 157.713C158.401 157.713 176.995 164.821 184.525 169.114C194.321 174.181 201.697 185.3 204.16 190.227C207.031 195.125 212.675 211.832 215.139 219.573C219.361 216.027 227.173 216.195 231.184 218.94C235.618 221.974 238.574 228.441 239.418 231.397C240.263 235.619 240.122 241.212 239.418 242.619L236.251 238.153C234.106 235.323 229.425 235.76 227.173 236.041C220.586 236.379 216.687 233.086 215.561 231.397C215.392 238.828 207.608 243.079 203.738 244.275C195.968 246.471 193.181 251.383 192.759 253.565C190.226 245.796 189.311 242.023 189.17 241.108C187.692 233.297 189.381 229.662 191.07 227.385C194.955 222.149 204.512 222.248 208.805 222.951C205.933 218.222 201.556 215.21 199.726 214.295C193.984 211.255 185.229 212.325 181.569 213.24C170.76 217.124 159.049 219.644 154.545 220.418C127.183 224.641 96.5551 218.659 84.6616 215.14C58.4818 205.428 51.9368 182.204 50.8812 172.281C49.8255 162.358 49.6144 138.852 50.8812 129C51.8946 118.866 49.6144 113.093 47.7142 111.054Z" fill="#72CFE4"/>
<path d="M50.1656 151.105C44.085 202.487 85.4336 240.187 174.516 215.56C81.1772 232.89 51.2804 180.292 50.1656 151.105Z" fill="#3E86AF"/>
<circle cx="43.2812" cy="43.2812" r="43.2812" fill="#A31D2C"/>
<ellipse cx="39.0586" cy="42.0136" rx="39.0586" ry="40.3254" fill="#FF5F72"/>
<circle cx="27.4471" cy="23.2244" r="8.44511" fill="#FFF4BF"/>
<circle cx="18.1571" cy="39.2697" r="4.22255" fill="#FFF4BF"/>
<circle cx="66.0829" cy="100.707" r="3.16692" fill="#2A6F97"/>
<path d="M87.9809 185.971C86.4005 188.079 87.4736 192.557 87.9809 195.981C88.824 201.671 87.6297 206.079 86.9271 207.571C83.5554 218.319 85.5222 226.098 86.9271 228.645C95.0931 241.552 112.215 253.406 115.376 250.245C118.537 247.084 115.991 239.796 114.322 236.547C111.794 231.279 114.849 228.206 116.693 227.328C118.01 226.801 119.591 226.011 120.644 224.43C124.069 218.372 121.698 207.571 110.108 197.035C107.79 194.928 101.766 190.976 99.0443 188.869C93.1438 183.811 89.2981 184.391 87.9809 185.971Z" fill="#2A6F97"/>
</svg>
