<svg width="106" height="166" viewBox="0 0 106 166" fill="none" xmlns="http://www.w3.org/2000/svg">
<path fill-rule="evenodd" clip-rule="evenodd" d="M82.6328 8.77313C82.7026 8.11161 82.7617 7.39044 82.7617 6.86999C82.7617 5.91417 81.9651 4.48043 81.5669 3.88304C81.5669 4.38086 81.5071 5.49599 81.2682 5.97391C81.0292 6.45182 80.3721 6.77043 80.0734 6.86999C80.0734 6.07347 79.8344 4.12199 78.8786 2.68826C77.9228 1.25452 76.0908 0.298695 75.2943 0C75.7921 0.597391 76.7878 2.15061 76.7878 3.58434C76.7878 5.01808 75.593 5.57565 74.9956 5.67521L75.7585 6.13298C69.6261 4.72859 64.1748 5.79476 61.554 6.87C61.1557 5.07782 59.4033 1.374 55.58 0.896087C50.8009 0.298697 45.1257 3.88304 43.0348 10.1556C41.4037 15.049 45.1313 18.6358 47.3487 19.9189C46.5353 19.6627 44.6584 21.5908 42.4375 31.363C40.0479 41.8771 35.8662 45.5012 34.074 45.9991C34.3727 46.3973 35.1493 47.3133 35.8662 47.7912C36.583 48.2692 37.7579 48.3886 38.2557 48.3886C35.667 49.0856 28.3988 53.5262 20.0353 65.713C11.0948 78.7406 10.2371 86.0884 9.80251 89.8114C9.72893 90.4418 9.66747 90.9682 9.58097 91.4008C9.10306 93.7903 6.39489 97.5738 5.10054 99.1668C5.39924 99.1668 6.17584 99.1071 6.89272 98.8681C7.60958 98.6292 8.38619 97.9721 8.68488 97.6734C8.38619 98.5694 7.72906 100.481 7.4901 100.959C7.25114 101.437 6.39489 102.353 5.99663 102.751L8.38619 102.154C7.68923 103.05 6.4148 105.977 6.89272 110.517C7.37063 115.057 8.88402 118.184 9.58097 119.179C6.09619 118.184 -0.455193 118.283 1.2175 126.647C2.8902 135.01 9.48141 131.127 12.5679 128.14C13.9618 131.426 18.96 139.67 27.8014 146.361C37.2481 153.51 54.7696 148.001 61.525 145.877C62.6728 145.516 63.5097 145.253 63.9435 145.166C66.2823 144.698 67.5223 145.329 68.6673 145.912C68.9846 146.073 69.2947 146.231 69.6187 146.361C70.8135 146.839 72.307 149.348 72.9044 150.542C73.1035 150.343 73.5018 149.706 73.5018 148.75C73.5018 147.794 73.1035 146.958 72.9044 146.659C73.6013 147.257 74.9952 148.691 74.9952 149.646C74.9952 150.602 74.7961 152.036 74.6965 152.633C75.0948 152.434 75.9511 151.916 76.19 151.439C76.429 150.961 76.6878 150.045 76.7874 149.646C78.0818 150.542 80.8497 153.231 81.5665 156.815C82.4626 161.295 83.3587 162.789 85.4496 164.282C87.5404 165.776 95.3065 165.477 97.6961 164.282C100.086 163.088 103.371 160.997 103.073 158.01C102.834 155.62 97.5964 151.439 95.0076 149.646C93.8128 145.465 90.5271 136.145 86.9428 132.322C83.3585 128.499 80.6702 128.339 79.7741 128.738C80.6702 127.842 82.5221 124.855 82.7611 120.076C83 115.296 83.2589 111.115 83.3585 109.621C86.445 109.322 92.857 107.769 93.8128 103.946C94.7686 100.123 94.2111 98.9677 93.8128 98.8681C97.6958 99.7642 105.462 100.421 105.462 95.8812C105.462 90.206 101.579 87.219 98.8906 85.7255C97.2863 84.8343 95.4693 84.6876 93.4394 84.5239C92.068 84.4132 90.5994 84.2947 89.0337 83.9334C85.1506 83.0373 78.2806 79.1543 78.2806 75.8686C78.2806 72.583 78.2806 67.8038 80.6702 63.9208C82.5819 60.8144 86.445 57.8473 88.1376 56.7521C88.2372 57.0508 88.6155 57.8274 89.3324 58.5443C90.0492 59.2611 90.8258 59.4404 91.1245 59.4404C91.025 59.0421 90.8856 58.0066 91.1245 57.0508C91.3635 56.095 91.8215 55.4578 92.0206 55.2586C92.8171 55.4578 94.5894 55.7365 95.3063 55.2586C96.0231 54.7807 96.6006 54.263 96.7998 54.0638C96.4015 53.8647 95.4855 53.347 95.0076 52.8691C94.5297 52.3912 94.2111 51.8734 94.1115 51.6743L94.709 31.363C95.3064 26.9821 94.1714 16.6075 84.8521 10.1556C84.116 9.64606 83.3751 9.18654 82.6328 8.77313Z" fill="#52C5D7"/>
<path d="M100.086 34.6486C98.6521 33.4538 95.5058 31.9604 94.1119 31.363C92.917 32.7569 90.3482 36.3213 89.6313 39.4277C88.7352 43.3108 89.0339 47.1938 91.4235 49.5834C93.813 51.9729 95.6052 52.2716 97.9948 50.4795C100.384 48.6873 101.878 44.5056 102.177 41.2199C102.475 37.9343 101.878 36.1421 100.086 34.6486Z" fill="#BCE0E6"/>
<path fill-rule="evenodd" clip-rule="evenodd" d="M101.193 41.0983C101.823 40.6944 102.773 39.7252 102.773 38.233C102.773 36.1421 100.683 35.8434 100.384 35.8434C100.085 35.8434 96.7995 35.8434 96.7995 38.233C96.7995 39.7921 98.6539 40.6625 100.094 41.0385C99.7803 42.119 99.1842 43.4508 98.3618 44.2139C97.9309 44.6136 97.4744 44.8248 96.9842 44.8125C96.4887 44.8001 95.8542 44.557 95.077 43.8312C94.8599 43.6285 94.5197 43.6401 94.3171 43.8571C94.1144 44.0742 94.126 44.4144 94.343 44.617C95.2385 45.4533 96.1124 45.8664 96.9573 45.8875C97.8074 45.9087 98.5233 45.5308 99.0931 45.0021C100.194 43.9812 100.881 42.2823 101.193 41.0983Z" fill="black"/>
<path d="M83.9068 31.6299C83.3848 32.6211 81.3468 33.6439 80.0254 33.4237C78.7041 33.2034 78.6715 32.2311 79.1935 31.24C79.7154 30.2489 81.6006 29.0789 82.922 29.2992C84.2433 29.5194 84.605 30.3042 83.9068 31.6299Z" fill="#174662"/>
<path d="M80.7005 23.0071C82.0073 22.4421 84.5057 22.0207 85.0302 23.0165C85.523 23.9528 83.3513 25.5291 82.2736 25.9949C80.9265 26.5771 77.7749 27.1539 77.5927 26.0432C77.4198 24.9894 79.3538 23.5892 80.7005 23.0071Z" fill="#2A6F97"/>
<path d="M53.1611 15.8934L57.7418 12.1186C58.3155 11.6459 58.603 10.869 58.1963 10.2468C56.9249 8.30214 53.601 6.74468 51.0323 9.20277C48.6013 11.5291 49.5274 15.0124 51.5481 16.1634C52.0688 16.46 52.6986 16.2744 53.1611 15.8934Z" fill="#2A6F97"/>
<path fill-rule="evenodd" clip-rule="evenodd" d="M76.4884 58.9027C76.1914 58.9027 75.9507 59.1434 75.9507 59.4404C75.9507 63.2136 77.8532 64.9425 79.0066 65.3269L79.8855 65.6199L79.7039 64.7114C79.6553 64.4688 79.5821 64.0733 79.5212 63.6815C79.464 63.3128 79.4233 62.9812 79.4166 62.7803C79.4615 62.9517 79.5186 63.1187 79.5918 63.2652C79.6837 63.4488 79.8323 63.638 79.9801 63.8057C80.1346 63.9811 80.3167 64.1647 80.5012 64.3403C80.8705 64.6914 81.2708 65.0301 81.529 65.2367L82.3458 64.5764C82.2653 64.4155 82.1472 64.1159 82.0777 63.7815C82.0064 63.4385 82.0002 63.1243 82.0763 62.896C82.294 62.2429 82.7235 61.5113 82.9096 61.2321C83.0744 60.985 83.0076 60.6512 82.7605 60.4865C82.5135 60.3218 82.1796 60.3885 82.0149 60.6356C81.8028 60.9538 81.3163 61.7754 81.0561 62.556C80.9785 62.7888 80.9478 63.0316 80.9464 63.2677C80.8893 63.2082 80.8358 63.1503 80.787 63.095C80.6541 62.9441 80.5813 62.8395 80.5536 62.7843C80.476 62.6291 80.41 62.355 80.3668 62.0282C80.3254 61.7154 80.3117 61.4106 80.3117 61.2325V59.9345L79.3939 60.8524C79.225 61.0212 78.9778 61.3013 78.7685 61.6111C78.6635 61.7664 78.561 61.9396 78.4832 62.1181C78.4077 62.2911 78.3403 62.5029 78.3403 62.726C78.3403 62.9718 78.3821 63.3289 78.433 63.6766C77.7533 62.9817 77.026 61.6732 77.026 59.4404C77.026 59.1434 76.7853 58.9027 76.4884 58.9027Z" fill="#2A6F97"/>
<path fill-rule="evenodd" clip-rule="evenodd" d="M61.5546 53.2275C61.2576 53.2275 61.0169 53.4682 61.0169 53.7651C61.0169 54.9138 60.4936 55.9678 59.7915 56.8408C59.0899 57.713 58.2458 58.3584 57.6993 58.6772L55.9815 59.6793H57.9702C58.5765 59.6793 60.0649 59.6202 61.0876 59.3645C61.7341 59.2029 62.3245 58.669 62.7624 58.1776C62.7781 58.1601 62.7936 58.1425 62.8091 58.1248V60.6178L67.17 56.8383C67.1672 56.9009 67.1648 56.9639 67.1628 57.0269C67.1454 57.5967 67.1643 58.2559 67.3171 58.7143C67.476 59.191 67.8715 59.6865 68.2322 60.075C68.6087 60.4805 69.017 60.8418 69.2835 61.055L70.157 61.7538V60.6351C70.157 60.4029 70.1712 60.0198 70.2134 59.642C70.2582 59.241 70.3265 58.9295 70.3989 58.7847C70.4266 58.7294 70.4994 58.6248 70.6323 58.474C70.7585 58.3307 70.9162 58.1709 71.0876 58.0079C71.1157 57.9811 71.1441 57.9544 71.1726 57.9278V58.8429C71.1726 59.0913 71.2692 59.3303 71.3615 59.512C71.4606 59.7071 71.591 59.905 71.7251 60.0874C71.9937 60.4528 72.3114 60.8019 72.5248 61.0153L73.0863 61.5768L74.2953 58.756C74.4122 58.4831 74.2858 58.167 74.0129 58.0501C73.7399 57.9331 73.4239 58.0595 73.3069 58.3325L72.7432 59.6478C72.6913 59.5829 72.6402 59.5167 72.5914 59.4504C72.4766 59.2943 72.383 59.1487 72.3203 59.0252C72.2636 58.9135 72.2512 58.8565 72.2486 58.8444C72.248 58.8417 72.2479 58.8412 72.2479 58.8429V55.6334L71.3743 56.3322C71.1161 56.5389 70.7158 56.8775 70.3465 57.2287C70.162 57.4042 69.9799 57.5879 69.8254 57.7632C69.6776 57.931 69.529 58.1201 69.4371 58.3038C69.2765 58.6251 69.1954 59.0877 69.1497 59.4795C69.1062 59.4348 69.0629 59.3894 69.0202 59.3433C68.669 58.9651 68.4173 58.6144 68.3372 58.3742C68.2511 58.1157 68.2202 57.6299 68.2376 57.0597C68.2543 56.5127 68.312 55.9653 68.3594 55.6333L68.563 54.2081L63.8844 58.2629V54.4288L62.8799 56.1866C62.6961 56.5084 62.3588 57.0143 61.9597 57.4622C61.5413 57.9316 61.1361 58.244 60.8268 58.3214C60.4966 58.4039 60.0988 58.4641 59.699 58.5072C60.0151 58.2155 60.3332 57.883 60.6294 57.5147C61.4208 56.5307 62.0922 55.245 62.0922 53.7651C62.0922 53.4682 61.8515 53.2275 61.5546 53.2275Z" fill="#2A6F97"/>
<path fill-rule="evenodd" clip-rule="evenodd" d="M38.0383 43.2293C37.8283 43.0193 37.4879 43.0193 37.2779 43.2293C36.4638 44.0434 35.7689 44.5928 35.2387 44.9471C34.6955 45.31 34.3527 45.4498 34.242 45.4775L33.2148 45.7343L34.0282 46.4121C34.6547 46.9342 35.7623 47.7175 37.0817 48.4028C38.3965 49.0857 39.9625 49.6927 41.4965 49.8205C44.0033 50.0294 47.2275 49.3787 49.1427 48.8679C48.9966 49.3248 48.7972 49.8271 48.5612 50.1812C48.3689 50.4696 48.0228 50.8015 47.6344 51.1128C47.2538 51.4177 46.8707 51.6728 46.641 51.8106L45.2287 52.658L46.869 52.8071C47.4258 52.8577 48.3048 52.9184 49.139 52.9361C49.5557 52.945 49.9684 52.9433 50.3275 52.9233C50.672 52.9041 51.0168 52.8659 51.2694 52.7817C51.6975 52.639 52.3217 52.2805 52.8851 51.9287C53.4663 51.5658 54.0431 51.1711 54.3988 50.917C54.6405 50.7444 54.6964 50.4086 54.5238 50.167C54.3512 49.9254 54.0155 49.8694 53.7738 50.042C53.4326 50.2857 52.8744 50.6676 52.3155 51.0166C51.7389 51.3767 51.2182 51.6653 50.9294 51.7616C50.8235 51.7969 50.6033 51.8309 50.2676 51.8496C49.9465 51.8676 49.564 51.8696 49.1618 51.8611C48.9252 51.856 48.6842 51.8474 48.4482 51.8364C48.8196 51.5269 49.2025 51.1577 49.4559 50.7777C49.9945 49.9697 50.3292 48.7086 50.4318 48.1954L50.6096 47.3063L49.7442 47.5767C48.1673 48.0695 44.3461 48.9789 41.5858 48.7489C40.2523 48.6378 38.8313 48.0998 37.5773 47.4485C36.7294 47.0081 35.9765 46.5257 35.4025 46.1131C35.5381 46.034 35.683 45.9435 35.836 45.8412C36.4309 45.4438 37.1797 44.8482 38.0383 43.9897C38.2482 43.7797 38.2482 43.4393 38.0383 43.2293Z" fill="#2A6F97"/>
<path fill-rule="evenodd" clip-rule="evenodd" d="M77.6837 72.0453C77.3868 72.0453 77.1461 72.286 77.1461 72.5829C77.1461 73.5373 77.1761 75.0425 77.2666 76.4628C77.3119 77.1727 77.3726 77.8679 77.4533 78.4655C77.5322 79.0493 77.6358 79.586 77.7819 79.9513C78.0704 80.6724 78.8027 81.466 79.5137 82.1249C80.0454 82.6175 80.6105 83.0752 81.0771 83.4268C81.0614 83.4352 81.045 83.4438 81.0276 83.4525C80.92 83.5063 80.691 83.5399 80.3697 83.5234C80.0706 83.508 79.7767 83.4544 79.6063 83.4118L79.14 84.3532L80.9301 85.7853H78.7753L79.6931 86.7031C79.8696 86.8796 80.1619 87.2127 80.4364 87.6128C80.7146 88.0183 80.9481 88.4547 81.0452 88.8429C81.2658 89.7256 81.3278 91.4942 81.3278 92.2968C81.3278 92.5938 81.5685 92.8345 81.8655 92.8345C82.1624 92.8345 82.4031 92.5938 82.4031 92.2968C82.4031 91.5064 82.3456 89.611 82.0884 88.5821C81.9464 88.0144 81.6324 87.4552 81.3231 87.0045C81.2896 86.9556 81.2559 86.9076 81.222 86.8606H83.9956L81.1067 84.5495C81.2464 84.5203 81.3831 84.477 81.5085 84.4143C81.7996 84.2687 82.0123 84.1019 82.1582 83.9275C82.2915 83.7684 82.4031 83.56 82.4031 83.336V83.056L82.1738 82.8955C81.6924 82.5585 80.9355 81.9763 80.2446 81.3361C79.5318 80.6757 78.9698 80.0256 78.7803 79.5519C78.6875 79.3199 78.5969 78.8982 78.519 78.3215C78.4429 77.7586 78.3841 77.0909 78.3398 76.3945C78.251 75.0021 78.2214 73.5203 78.2214 72.5829C78.2214 72.286 77.9807 72.0453 77.6837 72.0453ZM97.8891 88.3584C97.6935 88.5819 97.7162 88.9216 97.9397 89.1171C100.039 90.9539 102.724 90.7526 103.825 90.4222C104.109 90.3369 104.271 90.0372 104.185 89.7528C104.1 89.4684 103.8 89.307 103.516 89.3923C102.626 89.6593 100.372 89.8165 98.6477 88.3079C98.4243 88.1123 98.0846 88.135 97.8891 88.3584Z" fill="#2A6F97"/>
<path fill-rule="evenodd" clip-rule="evenodd" d="M97.2984 91.6364C97.0986 91.8562 97.1148 92.1962 97.3345 92.3959C100.123 94.9307 103.95 95.1317 105.533 94.9206C105.828 94.8814 106.034 94.6109 105.995 94.3166C105.956 94.0223 105.686 93.8155 105.391 93.8547C103.987 94.0419 100.527 93.8446 98.0579 91.6003C97.8382 91.4005 97.4981 91.4167 97.2984 91.6364Z" fill="#2A6F97"/>
<path fill-rule="evenodd" clip-rule="evenodd" d="M97.3167 95.7997C97.1068 96.0097 97.1068 96.3501 97.3167 96.56C98.4908 97.7341 100.02 98.3411 101.418 98.6328C102.817 98.9246 104.133 98.9109 104.937 98.8037C105.231 98.7644 105.438 98.494 105.399 98.1997C105.359 97.9053 105.089 97.6986 104.795 97.7378C104.105 97.8297 102.912 97.8459 101.637 97.5801C100.363 97.3142 99.0537 96.7762 98.0771 95.7997C97.8671 95.5897 97.5267 95.5897 97.3167 95.7997Z" fill="#2A6F97"/>
<path fill-rule="evenodd" clip-rule="evenodd" d="M47.9432 80.4364C47.6615 80.5303 47.5093 80.8347 47.6032 81.1164C47.9574 82.1791 49.224 83.7866 51.7423 85.4706C54.2824 87.1691 58.1498 88.9828 63.8111 90.4282C69.9044 91.984 75.0001 92.3678 79.1707 92.6819C79.8417 92.7324 80.4887 92.7812 81.1121 92.8327C85.6523 93.2079 88.812 93.7308 91.0439 95.9627C94.7154 99.6342 93.7836 102.47 93.0988 103.307C92.9108 103.537 92.9447 103.875 93.1745 104.063C93.4043 104.251 93.743 104.218 93.9311 103.988C95.0385 102.634 95.7794 99.1774 91.8043 95.2023C89.2571 92.6551 85.6961 92.1325 81.2007 91.761C80.5692 91.7088 79.9166 91.6596 79.2424 91.6088C75.0726 91.2943 70.0727 90.9171 64.0771 89.3863C58.5075 87.9643 54.7582 86.1937 52.34 84.5767C49.8999 82.9451 48.8665 81.5059 48.6233 80.7764C48.5294 80.4947 48.2249 80.3425 47.9432 80.4364Z" fill="#2A6F97"/>
<path fill-rule="evenodd" clip-rule="evenodd" d="M15.5153 73.008C15.2551 72.8649 14.9282 72.9598 14.7851 73.22C13.6855 75.2193 11.2812 80.1584 10.5472 83.828C10.0963 86.0826 9.94467 87.2174 9.83095 88.2029C9.81572 88.3349 9.80121 88.4638 9.78678 88.5921C9.69474 89.4098 9.60574 90.2006 9.3507 91.6033C9.13338 92.7986 8.36893 94.1882 7.46779 95.4759C6.57639 96.7497 5.59381 97.8647 5.00418 98.5035L4.57705 98.9662L5.10101 99.3155C5.28448 99.4379 5.51596 99.4855 5.70317 99.5069C5.90982 99.5305 6.147 99.5307 6.39601 99.5082C6.89258 99.4633 7.48226 99.3239 8.02926 99.0504C8.05501 99.0375 8.08056 99.0247 8.10592 99.0118L5.99974 102.99H7.80336C7.13817 104.394 6.15811 107.088 6.35582 110.844C6.60299 115.541 8.72609 118.379 9.47505 119.235C9.67059 119.458 10.0103 119.481 10.2337 119.285C10.4572 119.09 10.4798 118.75 10.2843 118.527C9.63936 117.79 7.66037 115.172 7.42963 110.788C7.19806 106.388 8.68247 103.564 9.15489 102.714L9.59864 101.915H7.78571L10.0562 97.6263L9.13363 97.0765C9.0976 97.1305 8.96727 97.2605 8.67127 97.457C8.39238 97.6421 8.01514 97.8552 7.54837 98.0886C7.21923 98.2532 6.85968 98.3562 6.53135 98.4083C7.07887 97.7755 7.7331 96.9722 8.34879 96.0924C9.26969 94.7765 10.1481 93.229 10.4087 91.7957C10.6704 90.3562 10.7629 89.5341 10.8554 88.7116C10.8698 88.5839 10.8842 88.4562 10.8992 88.3261C11.0095 87.3702 11.1565 86.2647 11.6017 84.0389C12.3015 80.5398 14.6365 75.7215 15.7273 73.7382C15.8704 73.478 15.7755 73.1511 15.5153 73.008Z" fill="#2A6F97"/>
<path fill-rule="evenodd" clip-rule="evenodd" d="M40.2797 97.5781C40.0621 97.7801 40.0495 98.1203 40.2515 98.3379C41.5538 99.7404 44.8848 103.093 47.7903 105.272C50.583 107.367 54.1225 108.517 55.8022 108.896L57.4817 112.535L58.5075 112.309V110.148L61.0477 113.817L61.4294 110C62.9664 110.385 65.2145 110.868 67.6125 111.228C70.3431 111.638 73.3097 111.896 75.6492 111.649C80.2504 111.165 87.6056 109.038 90.6927 108.042C90.9753 107.951 91.1305 107.648 91.0393 107.365C90.9482 107.083 90.6452 106.927 90.3626 107.019C87.2766 108.014 80.0157 110.108 75.5366 110.58C73.3358 110.812 70.4779 110.571 67.7722 110.165C65.0752 109.76 62.5708 109.196 61.0953 108.803L60.4847 108.64L60.2685 110.802L57.4322 106.705V109.862L56.5513 107.953L56.2831 107.899C54.8378 107.61 51.2178 106.499 48.4355 104.412C45.606 102.29 42.3259 98.9916 41.0395 97.6062C40.8375 97.3886 40.4973 97.376 40.2797 97.5781Z" fill="#2A6F97"/>
<path fill-rule="evenodd" clip-rule="evenodd" d="M66.8998 126.184C63.4214 126.335 60.146 126.71 58.1866 127.011C57.8931 127.057 57.6918 127.331 57.737 127.625C57.7821 127.918 58.0566 128.119 58.3501 128.074C60.2737 127.778 63.5099 127.407 66.9462 127.259C70.3921 127.11 73.9949 127.187 76.6732 127.77C79.3813 128.358 81.3524 129.115 82.7097 129.813C84.0835 130.52 84.7919 131.146 85.0195 131.45C85.1977 131.687 85.5347 131.735 85.7722 131.557C86.0098 131.379 86.0579 131.042 85.8797 130.805C85.51 130.312 84.6353 129.594 83.2014 128.857C81.7509 128.111 79.6896 127.325 76.9017 126.719C74.0841 126.106 70.3688 126.034 66.8998 126.184Z" fill="#2A6F97"/>
<path fill-rule="evenodd" clip-rule="evenodd" d="M63.1647 144.017C60.9186 143.871 58.698 143.931 57.3327 144.032C57.0366 144.054 56.8143 144.312 56.8362 144.608C56.8581 144.904 57.116 145.127 57.4121 145.105C58.7351 145.007 60.9053 144.948 63.0948 145.09C65.306 145.234 67.4514 145.579 68.7811 146.244C71.4448 147.576 72.2852 150.135 72.3702 150.9L73.4408 150.879L73.6332 148.186L73.8826 148.535C74.0737 148.803 74.1902 149.117 74.2199 149.444L74.5736 153.334L77.1542 150.385C77.8214 150.939 78.5783 151.7 79.3547 152.67C80.238 153.775 80.8522 155.576 81.0451 156.348C81.1171 156.636 81.409 156.811 81.6971 156.739C81.9852 156.667 82.1603 156.375 82.0883 156.087C81.8829 155.266 81.2228 153.284 80.1944 151.999C79.215 150.774 78.2473 149.845 77.4089 149.216L77.01 148.917L75.4172 150.737L75.2908 149.347C75.2438 148.829 75.0597 148.333 74.7576 147.91L72.7733 145.132L72.5426 148.362C71.9018 147.268 70.8652 146.084 69.262 145.282C67.7242 144.514 65.3892 144.162 63.1647 144.017Z" fill="#2A6F97"/>
</svg>
