<svg width="251" height="364" viewBox="0 0 251 364" fill="none" xmlns="http://www.w3.org/2000/svg">
<path d="M215.278 301.5V360.5" stroke="#595959" stroke-width="1.8" stroke-linecap="round"/>
<path d="M200.528 356.548L230.028 305.452" stroke="#595959" stroke-width="1.8" stroke-linecap="round"/>
<path d="M189.73 345.75L240.826 316.25" stroke="#595959" stroke-width="1.8" stroke-linecap="round"/>
<path d="M200.528 305.452L230.028 356.548" stroke="#595959" stroke-width="1.8" stroke-linecap="round"/>
<path d="M240.826 345.75L189.731 316.25" stroke="#595959" stroke-width="1.8" stroke-linecap="round"/>
<path d="M185.778 331H244.778" stroke="#595959" stroke-width="1.8" stroke-linecap="round"/>
<path d="M74.2783 219V359" stroke="#595959" stroke-width="1.8" stroke-linecap="round"/>
<path d="M39.2783 349.622L109.278 228.378" stroke="#595959" stroke-width="1.8" stroke-linecap="round"/>
<path d="M13.6562 324L134.9 254" stroke="#595959" stroke-width="1.8" stroke-linecap="round"/>
<path d="M13.6562 254L134.9 324" stroke="#595959" stroke-width="1.8" stroke-linecap="round"/>
<path d="M39.2783 228.378L109.278 349.622" stroke="#595959" stroke-width="1.8" stroke-linecap="round"/>
<path d="M4.27832 289H144.278" stroke="#595959" stroke-width="1.8" stroke-linecap="round"/>
<path d="M74.158 215.684C33.1975 215.684 0 248.882 0 289.842C0 330.802 33.1975 364 74.158 364C115.118 364 148.316 330.802 148.316 289.842C148.316 248.882 115.118 215.684 74.158 215.684ZM74.158 355.227C38.0573 355.227 8.77271 325.943 8.77271 289.842C8.77271 253.741 38.0573 224.457 74.158 224.457C110.259 224.457 139.543 253.741 139.543 289.842C139.543 325.943 110.259 355.227 74.158 355.227Z" fill="#595959"/>
<path d="M215.406 299.94C198.302 299.94 184.417 313.825 184.417 330.929C184.417 348.032 198.302 361.917 215.406 361.917C232.509 361.917 246.394 348.032 246.394 330.929C246.394 313.825 232.509 299.94 215.406 299.94ZM215.406 358.257C200.321 358.257 188.078 346.013 188.078 330.929C188.078 315.844 200.321 303.6 215.406 303.6C230.49 303.6 242.734 315.844 242.734 330.929C242.67 346.013 230.49 358.257 215.406 358.257Z" fill="#595959"/>
<path d="M95.5986 266.868H89.9184L78.9367 272.169L81.1457 273.369L89.7922 269.14L95.5986 269.014V266.868Z" fill="#595959"/>
<path d="M45.7401 304.799H51.3572L62.3389 299.497L60.193 298.298L51.4834 302.59L45.7401 302.653V304.799Z" fill="#595959"/>
<path d="M215.089 324.617C214.9 324.617 214.647 324.617 214.458 324.68L167.06 231.336C160.686 220.228 151.661 211.139 140.994 204.765V194.225H137.208V202.619C126.92 197.254 115.307 194.288 103.316 194.288L76.9345 194.225V175.48C84.5081 178.699 97.1938 180.403 97.1938 180.403V176.49C97.1938 176.49 77.3763 173.461 77.6919 170.621C77.755 170.305 77.6919 169.926 77.5656 169.611C77.6919 169.295 77.755 168.917 77.6919 168.601C77.3763 165.761 97.1938 162.732 97.1938 162.732V158.819C97.1938 158.819 72.0117 162.164 71.4437 168.412H71.2543V271.917C62.734 273.306 56.2334 280.69 56.2334 289.589C56.2334 299.498 64.2488 307.513 74.1576 307.513C84.0663 307.513 92.0817 299.498 92.0817 289.589C92.0817 280.627 85.5179 273.243 76.9345 271.917V201.736L102.622 201.799C127.046 201.862 149.641 214.989 161.696 236.258L209.535 328.151C209.093 328.972 208.841 329.981 208.841 330.991C208.841 334.463 211.681 337.24 215.089 337.24C218.561 337.24 221.337 334.399 221.337 330.991C221.337 327.457 218.561 324.617 215.089 324.617Z" fill="#595959"/>
<path d="M90.423 271.034H101.594C103.361 271.034 104.876 269.582 104.876 267.752V265.859C104.876 264.092 103.424 262.577 101.594 262.577H90.423C88.5928 262.577 87.1411 264.029 87.1411 265.859V267.752C87.1411 269.582 88.5928 271.034 90.423 271.034Z" fill="#FFDB59"/>
<path d="M47.5687 299.308H36.3977C34.6305 299.308 33.1157 300.76 33.1157 302.59V304.484C33.1157 306.251 34.5674 307.766 36.3977 307.766H47.5687C49.3358 307.766 50.8506 306.314 50.8506 304.484V302.59C50.8506 300.76 49.3989 299.308 47.5687 299.308Z" fill="#FFDB59"/>
<path d="M105.021 163.426H98.583C97.0683 163.426 95.8691 162.227 95.8691 160.712V160.522C95.8691 159.008 97.0683 157.809 98.583 157.809H105.021C106.535 157.809 107.734 159.008 107.734 160.522V160.712C107.734 162.227 106.535 163.426 105.021 163.426Z" fill="#FFDB59"/>
<path d="M105.021 181.476H98.583C97.0683 181.476 95.8691 180.277 95.8691 178.762V178.573C95.8691 177.058 97.0683 175.859 98.583 175.859H105.021C106.535 175.859 107.734 177.058 107.734 178.573V178.762C107.734 180.214 106.535 181.476 105.021 181.476Z" fill="#FFDB59"/>
<path d="M156.205 193.214C156.205 194.603 148.569 195.739 139.102 195.739C129.635 195.739 121.998 194.603 121.998 193.214C121.998 191.826 129.635 190.69 139.102 190.69C148.506 190.69 156.205 191.826 156.205 193.214Z" fill="#FFDB59"/>
<path d="M156.205 190.69H121.998V193.214H156.205V190.69Z" fill="#FFDB59"/>
<path d="M156.205 190.69C156.205 192.078 148.569 193.215 139.102 193.215C129.635 193.215 121.998 192.078 121.998 190.69C121.998 189.302 129.635 188.165 139.102 188.165C148.506 188.229 156.205 189.365 156.205 190.69Z" fill="#595959"/>
<path fill-rule="evenodd" clip-rule="evenodd" d="M113.394 14.6852C113.278 13.578 113.179 12.3711 113.179 11.5C113.179 9.9 114.512 7.5 115.179 6.5C115.179 7.33333 115.279 9.2 115.679 10C116.079 10.8 117.179 11.3333 117.679 11.5C117.679 10.1667 118.079 6.9 119.679 4.5C121.279 2.1 124.345 0.5 125.679 0C124.845 1 123.179 3.6 123.179 6C123.179 8.4 125.179 9.33333 126.179 9.5L124.902 10.2659C135.167 7.91559 144.291 9.70021 148.678 11.5C149.345 8.50001 152.278 2.30001 158.678 1.50001C166.678 0.500009 176.178 6.50002 179.678 17C182.409 25.1912 176.169 31.1953 172.457 33.3433C173.819 32.9144 176.961 36.1419 180.678 52.5C184.678 70.1 191.678 76.1667 194.678 77C194.178 77.6667 192.878 79.2 191.678 80C190.478 80.8 188.512 81 187.678 81C192.012 82.1667 204.178 89.6 218.178 110C233.144 131.808 234.58 144.107 235.307 150.34C235.431 151.395 235.533 152.276 235.678 153C236.478 157 241.012 163.333 243.178 166C242.678 166 241.378 165.9 240.178 165.5C238.978 165.1 237.678 164 237.178 163.5C237.678 165 238.778 168.2 239.178 169C239.578 169.8 241.012 171.333 241.678 172L237.678 171C238.845 172.5 240.978 177.4 240.178 185C239.378 192.6 236.845 197.833 235.678 199.5C241.512 197.833 252.478 198 249.678 212C246.878 226 235.845 219.5 230.678 214.5C228.345 220 219.978 233.8 205.178 245C189.365 256.967 160.035 247.745 148.727 244.19C146.805 243.586 145.404 243.145 144.678 243C140.763 242.217 138.688 243.273 136.771 244.249C136.24 244.519 135.721 244.783 135.178 245C133.178 245.8 130.678 250 129.678 252C129.345 251.667 128.678 250.6 128.678 249C128.678 247.4 129.345 246 129.678 245.5C128.512 246.5 126.178 248.9 126.178 250.5C126.178 252.1 126.512 254.5 126.678 255.5C126.012 255.167 124.578 254.3 124.178 253.5C123.778 252.7 123.345 251.167 123.178 250.5C121.012 252 116.378 256.5 115.178 262.5C113.678 270 112.178 272.5 108.678 275C105.178 277.5 92.1783 277 88.1783 275C84.1783 273 78.6783 269.5 79.1783 264.5C79.5783 260.5 88.3452 253.5 92.6787 250.5C94.6787 243.5 100.179 227.9 106.179 221.5C112.179 215.1 116.679 214.833 118.179 215.5C116.679 214 113.579 209 113.179 201C112.779 193 112.345 186 112.179 183.5C107.012 183 96.2787 180.4 94.6787 174C93.0787 167.6 94.012 165.667 94.6787 165.5C88.1787 167 75.1787 168.1 75.1787 160.5C75.1787 151 81.6787 146 86.1787 143.5C88.8642 142.008 91.9059 141.763 95.3037 141.488C97.5995 141.303 100.058 141.105 102.679 140.5C109.179 139 120.679 132.5 120.679 127C120.679 121.5 120.679 113.5 116.679 107C113.479 101.8 107.012 96.8333 104.179 95C104.012 95.5 103.379 96.8 102.179 98C100.979 99.2 99.6787 99.5 99.1787 99.5C99.3454 98.8333 99.5787 97.1 99.1787 95.5C98.7787 93.9 98.012 92.8333 97.6787 92.5C96.3454 92.8333 93.3787 93.3 92.1787 92.5C90.9787 91.7 90.012 90.8333 89.6787 90.5C90.3454 90.1667 91.8787 89.3 92.6787 88.5C93.4787 87.7 94.012 86.8333 94.1787 86.5L93.1785 52.5C92.1785 45.1667 94.0785 27.8 109.679 17C110.911 16.1468 112.152 15.3774 113.394 14.6852Z" fill="#52C5D7"/>
<path d="M84.1784 58C86.5784 56 91.8451 53.5 94.1784 52.5C96.1785 54.8333 100.479 60.8 101.679 66C103.179 72.5 102.679 79 98.6787 83C94.6787 87 91.6787 87.5 87.6787 84.5C83.6787 81.5 81.1784 74.5 80.6784 69C80.1784 63.5 81.1784 60.5 84.1784 58Z" fill="#BCE0E6"/>
<path fill-rule="evenodd" clip-rule="evenodd" d="M82.3262 68.7979C81.2728 68.1227 79.6787 66.4997 79.6787 64C79.6787 60.5 83.1787 60 83.6787 60C84.1787 60 89.6787 60 89.6787 64C89.6787 66.6092 86.5762 68.066 84.1657 68.6957C84.6908 70.5045 85.6889 72.7343 87.0657 74.0116C87.7868 74.6807 88.551 75.0343 89.3717 75.0137C90.2011 74.993 91.2632 74.5861 92.5642 73.371C92.9275 73.0318 93.497 73.0512 93.8363 73.4145C94.1756 73.7778 94.1561 74.3473 93.7928 74.6866C92.2939 76.0865 90.831 76.7778 89.4166 76.8132C87.9936 76.8487 86.7953 76.2161 85.8414 75.3312C83.9998 73.6226 82.85 70.7798 82.3262 68.7979Z" fill="black"/>
<path d="M111.262 52.9468C112.136 54.6059 115.548 56.3181 117.759 55.9494C119.971 55.5808 120.026 53.9532 119.152 52.2941C118.278 50.635 115.123 48.6765 112.911 49.0452C110.699 49.4139 110.094 50.7275 111.262 52.9468Z" fill="#174662"/>
<path d="M116.628 38.5126C114.441 37.5669 110.258 36.8614 109.38 38.5285C108.555 40.0957 112.191 42.7343 113.995 43.514C116.25 44.4887 121.525 45.4541 121.83 43.5949C122.12 41.8309 118.883 39.4871 116.628 38.5126Z" fill="#2A6F97"/>
<path d="M163.22 27.0104L154.431 19.7677C153.857 19.295 153.571 18.5293 153.896 17.8607C155.623 14.3058 161.683 10.9952 166.291 15.4049C170.584 19.5127 168.623 25.7755 164.855 27.3375C164.302 27.567 163.683 27.3914 163.22 27.0104Z" fill="#2A6F97"/>
<path fill-rule="evenodd" clip-rule="evenodd" d="M123.678 98.6C124.175 98.6 124.578 99.0029 124.578 99.5C124.578 105.816 121.394 108.71 119.463 109.354L117.992 109.844L118.296 108.323C118.377 107.917 118.5 107.255 118.602 106.599C118.697 105.982 118.766 105.427 118.777 105.091C118.702 105.378 118.606 105.657 118.483 105.902C118.33 106.21 118.081 106.527 117.833 106.807C117.575 107.101 117.27 107.408 116.961 107.702C116.343 108.29 115.673 108.857 115.241 109.203L113.873 108.097C114.008 107.828 114.206 107.327 114.322 106.767C114.442 106.193 114.452 105.667 114.325 105.285C113.96 104.191 113.241 102.967 112.93 102.499C112.654 102.086 112.766 101.527 113.179 101.251C113.593 100.975 114.152 101.087 114.427 101.501C114.782 102.033 115.597 103.409 116.032 104.715C116.162 105.105 116.214 105.511 116.216 105.907C116.312 105.807 116.401 105.71 116.483 105.618C116.705 105.365 116.827 105.19 116.873 105.097C117.003 104.838 117.114 104.379 117.186 103.832C117.255 103.308 117.278 102.798 117.278 102.5V100.327L118.815 101.864C119.098 102.146 119.511 102.615 119.862 103.134C120.037 103.394 120.209 103.684 120.339 103.982C120.466 104.272 120.578 104.626 120.578 105C120.578 105.411 120.508 106.009 120.423 106.591C121.561 105.428 122.778 103.238 122.778 99.5C122.778 99.0029 123.181 98.6 123.678 98.6Z" fill="#2A6F97"/>
<path fill-rule="evenodd" clip-rule="evenodd" d="M148.679 89.1C149.176 89.1 149.579 89.5029 149.579 90C149.579 91.9228 150.455 93.6872 151.63 95.1484C152.804 96.6086 154.217 97.6889 155.132 98.2226L158.008 99.9H154.679C153.664 99.9 151.172 99.8011 149.46 99.3731C148.378 99.1025 147.39 98.2088 146.657 97.3863C146.63 97.3569 146.604 97.3274 146.579 97.2978V101.471L139.279 95.1443C139.283 95.2491 139.287 95.3545 139.291 95.46C139.32 96.4138 139.288 97.5174 139.032 98.2846C138.766 99.0826 138.104 99.9121 137.501 100.562C136.87 101.241 136.187 101.846 135.741 102.203L134.279 103.373V101.5C134.279 101.111 134.255 100.47 134.184 99.8375C134.109 99.1663 133.995 98.6448 133.874 98.4025C133.827 98.3099 133.705 98.1349 133.483 97.8824C133.272 97.6426 133.008 97.375 132.721 97.1021C132.674 97.0573 132.626 97.0126 132.579 96.9681V98.5C132.579 98.9156 132.417 99.3158 132.262 99.62C132.096 99.9466 131.878 100.278 131.654 100.583C131.204 101.195 130.672 101.779 130.315 102.136L129.375 103.076L127.351 98.3545C127.156 97.8976 127.367 97.3685 127.824 97.1727C128.281 96.9769 128.81 97.1886 129.006 97.6454L129.949 99.8472C130.036 99.7386 130.122 99.6279 130.203 99.5168C130.396 99.2555 130.552 99.0117 130.657 98.805C130.752 98.618 130.773 98.5227 130.777 98.5024C130.778 98.4978 130.779 98.4971 130.779 98.5V93.1274L132.241 94.2972C132.673 94.643 133.343 95.21 133.961 95.7978C134.27 96.0916 134.575 96.3991 134.834 96.6926C135.081 96.9734 135.33 97.29 135.484 97.5975C135.752 98.1353 135.888 98.9096 135.965 99.5655C136.038 99.4907 136.11 99.4146 136.182 99.3376C136.769 98.7045 137.191 98.1174 137.325 97.7154C137.469 97.2826 137.521 96.4694 137.491 95.515C137.463 94.5993 137.367 93.683 137.288 93.1273L136.947 90.7415L144.779 97.529V91.111L146.46 94.0535C146.768 94.592 147.332 95.439 148 96.1887C148.701 96.9745 149.379 97.4974 149.897 97.6268C150.45 97.765 151.115 97.8658 151.785 97.938C151.256 97.4496 150.723 96.8931 150.227 96.2765C148.902 94.6294 147.779 92.4771 147.779 90C147.779 89.5029 148.181 89.1 148.679 89.1Z" fill="#2A6F97"/>
<path fill-rule="evenodd" clip-rule="evenodd" d="M188.042 72.3636C188.393 72.0121 188.963 72.0121 189.315 72.3636C190.678 73.7264 191.841 74.6461 192.728 75.2391C193.638 75.8466 194.211 76.0805 194.397 76.1268L196.116 76.5567L194.755 77.6914C193.706 78.5653 191.852 79.8765 189.643 81.0237C187.442 82.1668 184.821 83.1829 182.253 83.3969C178.057 83.7466 172.66 82.6574 169.454 81.8023C169.698 82.5671 170.032 83.408 170.427 84.0007C170.749 84.4835 171.328 85.0391 171.979 85.5601C172.616 86.0705 173.257 86.4976 173.641 86.7282L176.006 88.1467L173.26 88.3963C172.328 88.481 170.856 88.5826 169.46 88.6123C168.762 88.6271 168.072 88.6243 167.47 88.5908C166.894 88.5586 166.317 88.4947 165.894 88.3538C165.177 88.1149 164.132 87.5148 163.189 86.9259C162.216 86.3184 161.251 85.6577 160.655 85.2323C160.251 84.9434 160.157 84.3813 160.446 83.9769C160.735 83.5724 161.297 83.4787 161.702 83.7676C162.273 84.1756 163.207 84.8149 164.143 85.3991C165.108 86.0018 165.98 86.485 166.463 86.6462C166.64 86.7052 167.009 86.7622 167.571 86.7936C168.108 86.8236 168.749 86.827 169.422 86.8127C169.818 86.8042 170.221 86.7898 170.616 86.7714C169.995 86.2533 169.354 85.6353 168.93 84.9992C168.028 83.6467 167.468 81.5355 167.296 80.6765L166.998 79.1883L168.447 79.6409C171.087 80.4659 177.483 81.9881 182.104 81.6031C184.336 81.4171 186.714 80.5165 188.814 79.4263C190.233 78.6891 191.493 77.8816 192.454 77.1909C192.227 77.0584 191.985 76.907 191.728 76.7358C190.733 76.0706 189.479 75.0736 188.042 73.6364C187.691 73.2849 187.691 72.7151 188.042 72.3636Z" fill="#2A6F97"/>
<path fill-rule="evenodd" clip-rule="evenodd" d="M121.679 120.6C122.176 120.6 122.579 121.003 122.579 121.5C122.579 123.097 122.528 125.617 122.377 127.995C122.301 129.183 122.199 130.347 122.064 131.347C121.932 132.324 121.759 133.223 121.514 133.834C121.031 135.041 119.806 136.37 118.615 137.473C117.725 138.297 116.779 139.063 115.998 139.652C116.024 139.666 116.052 139.68 116.081 139.695C116.261 139.785 116.644 139.841 117.182 139.814C117.683 139.788 118.175 139.698 118.46 139.627L119.241 141.203L116.244 143.6H119.851L118.315 145.136C118.02 145.432 117.53 145.989 117.071 146.659C116.605 147.338 116.214 148.069 116.052 148.718C115.682 150.196 115.579 153.156 115.579 154.5C115.579 154.997 115.176 155.4 114.679 155.4C114.182 155.4 113.779 154.997 113.779 154.5C113.779 153.177 113.875 150.004 114.305 148.282C114.543 147.331 115.069 146.395 115.586 145.641C115.642 145.559 115.699 145.479 115.756 145.4H111.113L115.949 141.531C115.715 141.482 115.486 141.41 115.276 141.305C114.789 141.061 114.433 140.782 114.188 140.49C113.965 140.224 113.779 139.875 113.779 139.5V139.031L114.162 138.763C114.968 138.199 116.235 137.224 117.392 136.152C118.585 135.047 119.526 133.959 119.843 133.166C119.998 132.777 120.15 132.071 120.28 131.106C120.408 130.164 120.506 129.046 120.58 127.88C120.729 125.549 120.779 123.069 120.779 121.5C120.779 121.003 121.182 120.6 121.679 120.6ZM87.8559 147.907C88.1832 148.281 88.1453 148.85 87.7712 149.177C84.2573 152.252 79.7632 151.915 77.9199 151.362C77.4439 151.219 77.1737 150.717 77.3165 150.241C77.4593 149.765 77.9611 149.495 78.4372 149.638C79.9272 150.085 83.6998 150.348 86.5859 147.823C86.96 147.495 87.5286 147.533 87.8559 147.907Z" fill="#2A6F97"/>
<path fill-rule="evenodd" clip-rule="evenodd" d="M88.8444 153.395C89.1787 153.762 89.1516 154.332 88.7838 154.666C84.1164 158.909 77.7093 159.245 75.0595 158.892C74.5668 158.826 74.2206 158.374 74.2863 157.881C74.352 157.388 74.8047 157.042 75.2974 157.108C77.6475 157.421 83.4405 157.091 87.573 153.334C87.9408 153 88.51 153.027 88.8444 153.395Z" fill="#2A6F97"/>
<path fill-rule="evenodd" clip-rule="evenodd" d="M88.8148 160.364C89.1663 160.715 89.1663 161.285 88.8148 161.636C86.8495 163.602 84.2905 164.618 81.9497 165.106C79.6079 165.594 77.4054 165.572 76.0595 165.392C75.5668 165.326 75.2206 164.874 75.2863 164.381C75.352 163.888 75.8047 163.542 76.2974 163.608C77.4515 163.762 79.449 163.789 81.5822 163.344C83.7163 162.899 85.9073 161.998 87.542 160.364C87.8935 160.012 88.4633 160.012 88.8148 160.364Z" fill="#2A6F97"/>
<path fill-rule="evenodd" clip-rule="evenodd" d="M171.463 134.646C171.935 134.803 172.19 135.313 172.032 135.785C171.439 137.563 169.319 140.254 165.104 143.073C160.852 145.916 154.378 148.952 144.901 151.372C134.701 153.976 126.171 154.619 119.19 155.144C118.067 155.229 116.984 155.311 115.94 155.397C108.34 156.025 103.051 156.9 99.3149 160.636C93.169 166.782 94.7288 171.529 95.8751 172.93C96.1898 173.315 96.1331 173.882 95.7484 174.197C95.3637 174.511 94.7967 174.455 94.482 174.07C92.6282 171.804 91.388 166.018 98.0421 159.364C102.306 155.1 108.267 154.225 115.792 153.603C116.849 153.516 117.941 153.433 119.07 153.348C126.05 152.822 134.42 152.19 144.456 149.628C153.779 147.248 160.055 144.284 164.103 141.577C168.188 138.846 169.918 136.437 170.325 135.215C170.482 134.744 170.992 134.489 171.463 134.646Z" fill="#2A6F97"/>
<path fill-rule="evenodd" clip-rule="evenodd" d="M225.745 122.211C226.18 121.972 226.728 122.131 226.967 122.566C228.808 125.913 232.832 134.181 234.061 140.324C234.816 144.098 235.07 145.997 235.26 147.647C235.286 147.868 235.31 148.084 235.334 148.298C235.488 149.667 235.637 150.991 236.064 153.339C236.428 155.34 237.707 157.666 239.216 159.821C240.708 161.954 242.353 163.82 243.34 164.89L244.055 165.664L243.178 166.249C242.871 166.454 242.483 166.533 242.17 166.569C241.824 166.609 241.427 166.609 241.01 166.571C240.179 166.496 239.192 166.263 238.276 165.805C238.233 165.783 238.19 165.762 238.148 165.74L241.673 172.4H238.654C239.768 174.75 241.408 179.259 241.077 185.547C240.663 193.409 237.11 198.16 235.856 199.593C235.528 199.967 234.96 200.005 234.586 199.677C234.212 199.35 234.174 198.781 234.501 198.407C235.581 197.174 238.893 192.791 239.28 185.453C239.667 178.088 237.183 173.361 236.392 171.937L235.649 170.6H238.684L234.883 163.421L236.427 162.501C236.488 162.591 236.706 162.809 237.201 163.138C237.668 163.448 238.3 163.804 239.081 164.195C239.632 164.471 240.234 164.643 240.783 164.73C239.867 163.671 238.772 162.326 237.741 160.854C236.2 158.651 234.729 156.06 234.293 153.661C233.855 151.251 233.7 149.875 233.545 148.498C233.521 148.285 233.497 148.071 233.472 147.853C233.287 146.253 233.041 144.402 232.296 140.677C231.125 134.819 227.216 126.754 225.39 123.434C225.15 122.998 225.309 122.451 225.745 122.211Z" fill="#2A6F97"/>
<path fill-rule="evenodd" clip-rule="evenodd" d="M184.291 163.34C184.655 163.679 184.676 164.248 184.338 164.612C182.158 166.96 176.582 172.572 171.719 176.22C167.044 179.726 161.119 181.651 158.307 182.286L155.496 188.377L153.779 188V184.381L149.526 190.523L148.887 184.134C146.315 184.779 142.551 185.587 138.537 186.19C133.966 186.876 129 187.307 125.084 186.895C117.382 186.084 105.07 182.523 99.9023 180.857C99.4292 180.704 99.1694 180.197 99.322 179.724C99.4746 179.251 99.9818 178.991 100.455 179.143C105.621 180.81 117.775 184.316 125.273 185.105C128.957 185.493 133.741 185.09 138.27 184.41C142.785 183.732 146.977 182.789 149.447 182.13L150.469 181.858L150.831 185.477L155.579 178.619V183.902L157.053 180.707L157.502 180.617C159.921 180.134 165.981 178.273 170.639 174.78C175.375 171.228 180.866 165.707 183.019 163.388C183.357 163.023 183.927 163.002 184.291 163.34Z" fill="#2A6F97"/>
<path fill-rule="evenodd" clip-rule="evenodd" d="M139.73 211.226C145.552 211.477 151.035 212.106 154.315 212.61C154.806 212.686 155.143 213.146 155.068 213.637C154.992 214.128 154.533 214.465 154.042 214.39C150.821 213.894 145.404 213.273 139.652 213.024C133.884 212.775 127.853 212.905 123.37 213.879C118.836 214.865 115.537 216.132 113.265 217.3C110.965 218.483 109.779 219.532 109.398 220.04C109.1 220.438 108.536 220.518 108.138 220.22C107.741 219.922 107.66 219.358 107.958 218.96C108.577 218.135 110.042 216.934 112.442 215.7C114.87 214.451 118.32 213.135 122.987 212.121C127.704 211.095 133.923 210.975 139.73 211.226Z" fill="#2A6F97"/>
<path fill-rule="evenodd" clip-rule="evenodd" d="M145.983 241.077C149.742 240.832 153.46 240.933 155.745 241.102C156.241 241.139 156.613 241.571 156.576 242.066C156.539 242.562 156.108 242.934 155.612 242.898C153.398 242.734 149.765 242.635 146.099 242.873C142.398 243.114 138.807 243.692 136.581 244.805C132.122 247.034 130.715 251.319 130.573 252.599L128.781 252.564L128.459 248.056L128.041 248.64C127.721 249.088 127.526 249.613 127.477 250.162L126.885 256.674L122.565 251.737C121.448 252.664 120.181 253.938 118.881 255.562C117.403 257.41 116.375 260.427 116.052 261.718C115.931 262.2 115.442 262.494 114.96 262.373C114.478 262.253 114.185 261.764 114.305 261.282C114.649 259.907 115.754 256.59 117.476 254.438C119.115 252.388 120.735 250.833 122.139 249.78L122.806 249.279L125.472 252.326L125.684 249.999C125.763 249.132 126.071 248.302 126.577 247.594L129.898 242.944L130.284 248.35C131.357 246.518 133.092 244.537 135.776 243.195C138.35 241.908 142.259 241.319 145.983 241.077Z" fill="#2A6F97"/>
<path d="M78.9658 165.221C78.4658 165.054 76.6658 164.821 73.4658 165.221C69.4658 165.721 67.4658 169.721 63.9658 172.221C61.1658 174.221 58.4658 174.721 57.4658 174.721" stroke="#F14382" stroke-width="1.8" stroke-linecap="round"/>
<path d="M78.746 165.206C78.2192 165.221 76.4479 165.617 73.5777 167.087C69.99 168.925 69.3651 173.293 67.0447 176.914C63.4658 182.5 58.4054 183.158 57.4657 183.5" stroke="#FEB72C" stroke-width="1.8" stroke-linecap="round"/>
<path d="M78.0307 165.842C77.8502 165.473 76.9647 164.426 74.8667 163.187C72.2442 161.64 68.5464 163.615 64.9021 163.964C59.2812 164.501 57.1312 161.245 56.5559 160.762" stroke="#FEB72C" stroke-width="1.8" stroke-linecap="round"/>
<path d="M79.7194 165.169C79.2292 165.363 77.7003 166.341 75.5061 168.704C72.7633 171.659 73.6699 175.976 72.7281 180.173C71.2755 186.646 66.7453 188.995 65.9793 189.638" stroke="#F14382" stroke-width="1.8" stroke-linecap="round"/>
<path d="M99.2158 180.221C99.7158 180.054 101.516 179.821 104.716 180.221C108.716 180.721 110.716 184.721 114.216 187.221C117.016 189.221 119.716 189.721 120.716 189.721" stroke="#F14382" stroke-width="1.8" stroke-linecap="round"/>
<path d="M99.4356 180.206C99.9625 180.221 101.734 180.617 104.604 182.087C108.192 183.925 108.816 188.293 111.137 191.914C114.716 197.5 119.776 198.158 120.716 198.5" stroke="#FEB72C" stroke-width="1.8" stroke-linecap="round"/>
<path d="M100.151 180.842C100.331 180.473 101.217 179.426 103.315 178.187C105.937 176.64 109.635 178.615 113.28 178.964C118.9 179.501 121.05 176.245 121.626 175.762" stroke="#FEB72C" stroke-width="1.8" stroke-linecap="round"/>
<path d="M98.4623 180.169C98.9524 180.363 100.481 181.341 102.676 183.704C105.418 186.659 104.512 190.976 105.454 195.173C106.906 201.646 111.436 203.995 112.202 204.638" stroke="#F14382" stroke-width="1.8" stroke-linecap="round"/>
</svg>
