<svg width="537" height="913" viewBox="0 0 537 913" fill="none" xmlns="http://www.w3.org/2000/svg">
<path d="M242.35 414.799L-6.64062 416.537L-3.67676 841.072L245.314 839.334L242.35 414.799Z" fill="#72CFE4"/>
<path d="M42.5357 640.205C42.832 682.392 21.7746 716.713 -4.48921 716.897L-5.5625 564.177C20.7013 563.993 42.2473 598.05 42.5437 640.205H42.5357Z" fill="#2A6F97"/>
<path d="M168.4 639.325C168.697 681.496 147.639 715.833 121.367 716.017C95.0955 716.202 73.5494 682.169 73.2531 639.998C72.9567 597.827 94.0142 563.489 120.294 563.305C146.566 563.121 168.112 597.154 168.408 639.325H168.4Z" fill="#2A6F97"/>
<path d="M243.419 562.559L244.492 715.023C219.478 712.933 199.398 679.804 199.11 639.107C198.821 598.45 218.429 565.01 243.419 562.559Z" fill="#2A6F97"/>
<path d="M100.35 454.574L102.961 825.022" stroke="#FF5F72" stroke-width="4.43001" stroke-linecap="round" stroke-linejoin="round"/>
<path d="M344.797 452.852L347.408 823.3" stroke="#FF5F72" stroke-width="4.43001" stroke-linecap="round" stroke-linejoin="round"/>
<path d="M259.316 256.382C227.214 228.1 192.139 183.711 166.692 149.301C154.005 132.144 131.69 100.69 114.637 64.2702L112.427 64.2862C125.282 100.73 142.071 132.224 151.618 149.405C170.761 183.855 197.145 228.317 221.27 256.647C262.961 305.602 331.171 386.155 372.077 413.861L460.015 413.244C405.533 385.635 314.775 305.242 259.308 256.382H259.316Z" fill="#FF5F72"/>
<path d="M28.078 217.087C55.5272 172.914 80.3492 124.014 97.0974 64.3903L94.1979 64.4143C71.7307 124.078 38.5146 173.034 1.81421 217.271C-68.5749 302.118 -168.304 372.138 -243.482 418.194L-155.544 417.577C-99.244 371.65 -24.5697 301.805 28.078 217.087Z" fill="#FFF4BF"/>
<path d="M99.9961 64.3744L97.0966 64.3984C80.3483 124.023 55.5264 172.922 28.0771 217.095C-24.5705 301.814 -99.2368 371.658 -155.545 417.586L-67.6066 416.969C-30.1773 371.177 19.4427 301.509 54.3409 216.911C72.5389 172.802 88.9748 123.966 99.9961 64.3824V64.3744Z" fill="#FF5F72"/>
<path d="M221.28 256.647C197.155 228.308 170.763 183.855 151.628 149.405C142.08 132.224 125.292 100.73 112.436 64.2861L110.226 64.3021C118.884 100.778 130.146 132.304 136.553 149.509C149.393 184.007 167.094 228.525 183.242 256.919C211.148 305.97 256.819 386.684 284.156 414.486L372.094 413.869C331.189 386.171 262.97 305.61 221.288 256.655L221.28 256.647Z" fill="#FFF4BF"/>
<path d="M196.217 415.102L108.287 415.719L105.812 64.342L108.022 64.326C112.46 100.81 118.203 132.4 121.486 149.605C128.022 184.143 137.017 228.749 145.195 257.199C159.316 306.339 182.456 387.22 196.217 415.102Z" fill="#FFF4BF"/>
<path d="M105.811 64.341L108.286 415.718L20.3154 416.335C38.9059 370.687 63.4396 301.171 80.5883 216.701C89.5592 172.672 97.5768 123.901 102.887 64.357L105.803 64.333L105.811 64.341Z" fill="#FF5F72"/>
<path d="M183.249 256.92C167.093 228.526 149.4 184.008 136.561 149.51C130.153 132.305 118.891 100.779 110.233 64.3032L108.038 64.3272C112.475 100.811 118.218 132.402 121.502 149.606C128.038 184.144 137.033 228.75 145.211 257.2C159.332 306.34 182.472 387.222 196.233 415.103L284.163 414.487C256.826 386.693 211.155 305.971 183.249 256.92Z" fill="#FF5F72"/>
<path d="M100.013 64.3743C88.9915 123.958 72.5556 172.801 54.3576 216.903C19.4594 301.501 -30.1606 371.169 -67.5898 416.961L20.3325 416.344C38.923 370.697 63.4566 301.181 80.6054 216.71C89.5762 172.681 97.5939 123.91 102.904 64.3662H100.013V64.3743Z" fill="#FFF4BF"/>
<path d="M126.444 54.1681L85.0029 54.4574L85.1256 72.0222L126.567 71.7329L126.444 54.1681Z" fill="#FFDB59"/>
<path d="M-67.3184 455.753C-67.3184 455.809 -67.3184 455.873 -67.3184 455.929C-67.1502 480.214 -47.3262 499.758 -23.0408 499.59C1.24455 499.422 20.7882 479.598 20.62 455.312C20.62 455.256 20.612 455.192 20.612 455.136L-67.3103 455.753H-67.3184Z" fill="#FF5F72"/>
<path d="M20.6191 455.135C20.6191 455.191 20.6191 455.255 20.6191 455.311C20.7873 479.597 40.6113 499.14 64.8967 498.972C89.1821 498.804 108.726 478.98 108.557 454.695C108.557 454.639 108.549 454.575 108.549 454.518L20.6271 455.135H20.6191Z" fill="#FF5F72"/>
<path d="M108.558 454.511C108.558 454.567 108.55 454.631 108.55 454.687C108.718 478.973 128.542 498.516 152.827 498.348C177.113 498.18 196.656 478.356 196.488 454.071C196.488 454.015 196.48 453.95 196.48 453.894L108.558 454.511Z" fill="#FF5F72"/>
<path d="M196.496 453.893C196.496 453.949 196.496 454.014 196.496 454.07C196.664 478.355 216.488 497.899 240.774 497.73C265.059 497.562 284.603 477.738 284.434 453.453C284.434 453.397 284.426 453.333 284.426 453.277L196.504 453.893H196.496Z" fill="#FF5F72"/>
<path d="M284.434 453.278C284.434 453.334 284.426 453.398 284.434 453.454C284.602 477.739 304.426 497.283 328.712 497.115C352.997 496.946 372.541 477.122 372.373 452.837C372.373 452.781 372.365 452.717 372.365 452.661L284.442 453.278H284.434Z" fill="#FF5F72"/>
<path d="M372.373 452.652C372.373 452.708 372.365 452.772 372.373 452.828C372.541 477.114 392.365 496.657 416.65 496.489C440.936 496.321 460.479 476.497 460.311 452.212C460.311 452.156 460.303 452.091 460.303 452.035L372.381 452.652H372.373Z" fill="#FF5F72"/>
<path d="M132.693 26.9533C132.797 41.9394 120.734 54.1782 105.74 54.2823C90.7538 54.3864 78.5151 42.3238 78.4109 27.3297C78.2988 12.3436 90.3694 0.104795 105.356 0.000669078C120.342 -0.103457 132.58 11.9591 132.685 26.9533H132.693Z" fill="#FF5F72"/>
<path d="M460 413.292L-243.506 418.204L-243.235 456.978L460.27 452.066L460 413.292Z" fill="#FFDB59"/>
<path d="M20.7004 435.728C20.7324 440.573 16.8397 444.522 11.9939 444.554C7.14799 444.586 3.19923 440.694 3.16719 435.848C3.13515 431.002 7.02785 427.053 11.8737 427.021C16.7196 426.989 20.6683 430.882 20.7004 435.728Z" fill="#FFF4BF"/>
<path d="M68.3012 435.392C68.3332 440.237 64.4405 444.186 59.5946 444.218C54.7488 444.25 50.8 440.358 50.76 435.512C50.7279 430.666 54.6207 426.717 59.4665 426.685C64.3124 426.653 68.2611 430.546 68.2932 435.392H68.3012Z" fill="#FFF4BF"/>
<path d="M115.903 435.055C115.936 439.901 112.043 443.85 107.197 443.882C102.351 443.914 98.4024 440.021 98.3703 435.176C98.3383 430.33 102.231 426.381 107.077 426.349C111.923 426.317 115.871 430.21 115.903 435.055Z" fill="#FFF4BF"/>
<path d="M163.506 434.718C163.538 439.564 159.645 443.513 154.799 443.545C149.954 443.577 146.005 439.684 145.973 434.838C145.941 429.992 149.834 426.043 154.679 426.011C159.525 425.979 163.474 429.872 163.506 434.718Z" fill="#FFF4BF"/>
<path d="M211.108 434.382C211.14 439.228 207.247 443.176 202.401 443.208C197.555 443.24 193.606 439.348 193.574 434.502C193.542 429.656 197.435 425.707 202.281 425.675C207.127 425.643 211.076 429.536 211.108 434.382Z" fill="#FFF4BF"/>
<path d="M258.709 434.046C258.741 438.892 254.849 442.84 250.003 442.872C245.157 442.904 241.208 439.012 241.176 434.166C241.144 429.32 245.037 425.371 249.883 425.339C254.728 425.307 258.677 429.2 258.709 434.046Z" fill="#FFF4BF"/>
<path d="M306.31 433.718C306.342 438.563 302.449 442.512 297.603 442.552C292.757 442.584 288.809 438.692 288.777 433.846C288.745 429 292.637 425.051 297.483 425.019C302.329 424.987 306.278 428.88 306.31 433.726V433.718Z" fill="#FFF4BF"/>
<path d="M353.911 433.381C353.943 438.227 350.051 442.175 345.205 442.207C340.359 442.239 336.41 438.347 336.378 433.501C336.346 428.655 340.239 424.706 345.085 424.674C349.931 424.642 353.879 428.535 353.911 433.381Z" fill="#FFF4BF"/>
<path d="M401.514 433.045C401.546 437.89 397.653 441.839 392.808 441.879C387.962 441.911 384.013 438.019 383.973 433.173C383.941 428.327 387.834 424.378 392.679 424.338C397.525 424.306 401.474 428.199 401.506 433.045H401.514Z" fill="#FFF4BF"/>
<path d="M449.114 432.707C449.146 437.553 445.254 441.502 440.408 441.534C435.562 441.566 431.613 437.673 431.581 432.827C431.549 427.981 435.442 424.033 440.288 424.001C445.134 423.969 449.082 427.861 449.122 432.707H449.114Z" fill="#FFF4BF"/>
<path d="M173.495 617.812C164.356 614.937 153.423 620.784 150.747 629.979C150.283 631.581 149.914 633.431 148.505 634.32C147.84 634.737 147.047 634.873 146.326 635.169C144.34 635.986 143.09 637.949 142.113 639.855C139.902 644.148 138.348 648.77 137.515 653.527C134.664 653.199 131.7 654 129.402 655.722C126.566 657.853 124.9 661.145 122.866 664.044C120.279 667.737 116.963 670.916 113.166 673.359C121.224 678.205 132.173 677.693 139.734 672.11C142.497 670.067 144.788 667.464 146.895 664.741C151.348 658.982 155.033 652.638 157.828 645.926C161.553 636.987 163.915 627.079 170.587 620.063L173.487 617.804L173.495 617.812Z" fill="#FFDB59"/>
<path d="M181.777 705.238C180.736 694.761 175.609 684.268 169.065 681.353C170.868 673.728 173.839 666.927 178.269 658.774C178.965 657.492 180.511 656.026 181.977 655.594C184.108 654.961 186.623 656.699 188.745 657.356C194.472 659.126 200.503 659.879 206.487 659.559C207.119 659.527 207.768 659.478 208.369 659.679C209.138 659.927 209.731 660.52 210.347 661.04C213.431 663.611 218.061 664.356 221.609 662.482C224.989 660.696 226.799 656.531 225.958 652.822C224.709 647.312 218.429 646.078 214.312 643.179C206.551 637.7 198.109 630.98 191.188 624.476C187.624 621.128 185.093 617.46 179.991 616.498C173.479 615.273 167.215 619.686 162.906 624.708C156.763 631.869 155.121 642.306 150.787 651.837C146.887 660.432 141.584 671.557 131.957 671.533C125.981 671.517 113.102 671.541 107.126 671.341C95.5445 670.948 78.5719 670.115 68.2635 676.131C62.4324 679.535 58.3555 684.26 56.8897 690.964C55.3198 698.173 56.8657 707.344 58.5317 714.513C59.5089 718.718 63.3936 725.382 65.5402 727.705C59.1004 732.383 55.1757 733.216 53.6859 737.004C52.6606 739.623 50.0415 748.066 49.1043 750.148C44.5148 760.32 44.2745 763.188 39.1964 772.287C38.2432 774.001 38.7878 776.172 40.4539 777.205C45.6922 780.473 47.8308 781.41 50.5781 775.827C54.591 767.657 59.3968 748.602 61.6475 745.615C61.9839 745.166 62.3524 744.693 62.873 744.477C63.4977 744.213 64.2106 744.373 64.8754 744.509C73.7261 746.295 90.5304 739.984 96.5937 732.343C97.0583 731.926 100.935 733.648 101.624 733.792C107.511 735.026 114.319 735.522 120.318 735.098C133.478 734.185 149.874 730.46 161.977 725.558C172.069 721.473 178.773 720.272 183.058 719.92C189.282 719.407 192.085 719.239 196.475 722.17C199.286 724.045 204.292 731.157 200.952 734.065C197.5 737.068 193.207 740.424 189.65 743.236C188.809 743.901 188.529 745.062 188.961 746.039C190.788 750.148 193.431 754.129 196.947 751.598C202.097 747.881 204.909 746.696 208.289 743.1C212.238 738.894 216.667 733.376 213.343 726.76C203.459 707.104 201.881 707.44 195.85 706.447C191.292 705.694 192.069 706.079 181.785 705.23L181.777 705.238Z" fill="#FFDB59"/>
<path d="M29.1282 670.387C29.0241 670.435 28.92 670.475 28.8159 670.523C21.0625 673.991 18.7477 682.337 18.0589 690.162C17.0416 701.592 24.1382 716.378 23.0409 727.8C22.4161 734.256 19.1402 737.564 13.6055 741.777C19.6928 742.786 26.1566 741.232 31.1226 737.588C36.0887 733.935 39.5008 728.233 40.3658 722.129C41.2389 715.93 40.7423 708.328 40.3498 702.081C39.9653 695.833 40.1736 687.824 45.2758 684.195C48.2233 682.097 53.1172 681.961 56.6255 682.85C64.2107 684.78 68.9123 690.122 72.9572 684.9C76.1851 680.727 65.4842 674.504 61.9039 672.629C52.3723 667.655 39.2445 666.029 29.1282 670.395V670.387Z" fill="#FFDB59"/>
<path d="M171.613 617.243C175.145 613.527 180.728 611.268 186.695 611.019C187.664 610.979 188.225 612.029 187.48 612.477C186.15 613.27 184.885 614.127 183.795 615.128C182.049 616.738 180.76 618.781 180.712 621.056C180.696 621.704 180.64 622.545 179.879 622.674C179.606 622.722 179.31 622.65 179.03 622.585C176.739 622.025 173.671 621.56 171.573 620.519C169.57 619.518 170.411 618.509 171.613 617.243Z" fill="#FFDB59"/>
<path d="M414.817 616.105C405.678 613.229 394.745 619.076 392.07 628.272C391.605 629.873 391.237 631.724 389.827 632.613C389.17 633.029 388.369 633.165 387.648 633.462C385.662 634.279 384.412 636.241 383.435 638.147C381.225 642.441 379.671 647.062 378.838 651.82C375.986 651.492 373.023 652.293 370.724 654.015C367.888 656.145 366.222 659.437 364.188 662.337C361.601 666.029 358.285 669.209 354.488 671.652C362.546 676.498 373.495 675.985 381.056 670.402C383.82 668.36 386.111 665.757 388.217 663.034C392.67 657.275 396.355 650.931 399.15 644.219C402.875 635.28 405.238 625.372 411.91 618.364L414.809 616.105H414.817Z" fill="#FFDB59"/>
<path d="M423.099 703.539C422.058 693.062 416.932 682.57 410.388 679.654C412.19 672.029 415.161 665.229 419.591 657.075C420.288 655.793 421.834 654.327 423.299 653.895C425.43 653.262 427.945 655 430.067 655.657C435.794 657.427 441.826 658.18 447.809 657.86C448.442 657.828 449.09 657.78 449.691 657.98C450.46 658.228 451.053 658.821 451.67 659.342C454.753 661.913 459.383 662.658 462.931 660.783C466.311 658.997 468.121 654.832 467.28 651.124C466.031 645.613 459.751 644.379 455.634 641.48C447.873 636.001 439.431 629.281 432.51 622.777C428.946 619.421 426.415 615.761 421.313 614.8C414.801 613.574 408.537 617.988 404.228 623.01C398.085 630.17 396.435 640.607 392.11 650.138C388.209 658.733 382.906 669.858 373.279 669.834C367.304 669.818 354.424 669.842 348.449 669.642C336.867 669.25 319.894 668.417 309.586 674.432C303.755 677.836 299.678 682.562 298.212 689.266C296.642 696.474 298.188 705.646 299.854 712.814C300.831 717.019 304.716 723.683 306.862 726.006C300.423 730.684 296.498 731.517 295.008 735.305C293.983 737.925 291.364 746.367 290.427 748.449C285.837 758.614 285.597 761.489 280.519 770.588C279.565 772.302 280.11 774.465 281.776 775.506C287.014 778.774 289.153 779.711 291.9 774.128C295.913 765.958 300.719 746.903 302.97 743.916C303.306 743.467 303.675 742.995 304.195 742.778C304.82 742.514 305.533 742.674 306.198 742.81C315.048 744.597 331.853 738.285 337.916 730.644C338.381 730.227 342.257 731.949 342.946 732.094C348.833 733.327 355.641 733.824 361.641 733.399C374.801 732.486 391.196 728.761 403.299 723.86C413.391 719.775 420.095 718.573 424.381 718.221C430.604 717.708 433.407 717.54 437.797 720.471C440.608 722.346 445.614 729.458 442.274 732.366C438.822 735.369 434.529 738.726 430.973 741.537C430.132 742.202 429.851 743.363 430.284 744.34C432.11 748.449 434.753 752.43 438.269 749.899C443.42 746.183 446.231 744.997 449.611 741.401C453.56 737.196 457.989 731.677 454.665 725.061C444.781 705.405 443.203 705.742 437.172 704.748C432.615 703.996 433.391 704.38 423.107 703.531L423.099 703.539Z" fill="#FFDB59"/>
<path d="M270.451 668.68C270.346 668.728 270.242 668.768 270.138 668.816C262.385 672.284 260.07 680.63 259.381 688.456C258.364 699.886 265.46 714.671 264.363 726.101C263.738 732.557 260.462 735.865 254.928 740.078C261.015 741.079 267.479 739.533 272.445 735.889C277.411 732.237 280.823 726.534 281.688 720.43C282.561 714.231 282.065 706.63 281.672 700.382C281.288 694.135 281.496 686.125 286.598 682.496C289.546 680.398 294.44 680.262 297.948 681.151C305.533 683.081 310.235 688.424 314.28 683.201C317.507 679.028 306.807 672.797 303.226 670.93C293.695 665.956 280.567 664.33 270.451 668.696V668.68Z" fill="#FFDB59"/>
<path d="M412.944 615.544C416.476 611.828 422.059 609.569 428.026 609.321C428.995 609.281 429.556 610.33 428.811 610.778C427.481 611.571 426.216 612.428 425.126 613.43C423.38 615.04 422.091 617.09 422.043 619.357C422.027 620.006 421.971 620.847 421.21 620.975C420.937 621.023 420.641 620.951 420.361 620.887C418.07 620.326 415.002 619.861 412.904 618.82C410.901 617.819 411.742 616.81 412.944 615.544Z" fill="#FFDB59"/>
<path d="M535.846 867.604L-313 873.53L-312.729 912.304L536.116 906.378L535.846 867.604Z" fill="#FF5F72"/>
<g style="mix-blend-mode:multiply">
<path d="M536.028 891.359L-312.818 897.286L-312.714 912.295L536.132 906.369L536.028 891.359Z" fill="#FFF4BF"/>
</g>
<path d="M511.686 867.713L-288.722 873.352L-255.377 805.478L482.026 800.28L485.118 807.328L511.686 867.713Z" fill="#FFDB59"/>
<path d="M15.1586 803.579L-18.1777 871.453L49.4561 870.981L15.1586 803.579Z" fill="#FFDB59"/>
<path d="M82.7924 803.107L49.4561 870.981L117.09 870.5L82.7924 803.107Z" fill="#FFDB59"/>
<path d="M150.435 802.626L117.091 870.501L184.725 870.028L150.435 802.626Z" fill="#FFDB59"/>
<path d="M218.069 802.154L184.725 870.028L252.366 869.547L218.069 802.154Z" fill="#FFDB59"/>
<path d="M285.702 801.673L252.365 869.547L319.999 869.074L285.702 801.673Z" fill="#FFDB59"/>
<path d="M353.343 801.201L319.999 869.075L387.633 868.594L353.343 801.201Z" fill="#FFDB59"/>
<path d="M353.343 801.201L319.999 869.075L387.633 868.594L353.343 801.201Z" fill="#FFDB59"/>
<path d="M420.977 800.72L387.633 868.594L455.267 868.122L420.977 800.72Z" fill="#FFDB59"/>
<path d="M511.687 867.712L455.267 868.113L485.119 807.327L511.687 867.712Z" fill="#FFDB59"/>
</svg>
