<svg width="1015" height="737" viewBox="0 0 1015 737" fill="none" xmlns="http://www.w3.org/2000/svg">
<path d="M764.748 723C755.248 716 787.561 648 787.561 648H827.362C827.362 648 858.748 717 847.748 723C836.748 729 774.248 730 764.748 723Z" fill="url(#paint0_linear_2139_321)"/>
<path d="M161.748 723C152.248 716 184.561 648 184.561 648H224.362C224.362 648 255.748 717 244.748 723C233.748 729 171.248 730 161.748 723Z" fill="url(#paint1_linear_2139_321)"/>
<rect width="1014" height="657" rx="2" fill="url(#paint2_linear_2139_321)"/>
<circle cx="48" cy="45" r="10" fill="#E4BC8A"/>
<circle cx="979" cy="45" r="10" fill="#E4BC8A"/>
<circle cx="979" cy="623" r="10" fill="#E4BC8A"/>
<circle cx="48" cy="623" r="10" fill="#E4BC8A"/>
<path d="M399.591 317.2C400.937 317.2 402.004 317.593 402.791 318.38C403.577 319.153 403.971 320.32 403.971 321.88V328H401.471V322.2C401.471 321.267 401.264 320.567 400.851 320.1C400.437 319.62 399.844 319.38 399.071 319.38C398.231 319.38 397.557 319.66 397.051 320.22C396.544 320.767 396.291 321.553 396.291 322.58V328H393.791V322.2C393.791 321.267 393.584 320.567 393.171 320.1C392.757 319.62 392.164 319.38 391.391 319.38C390.537 319.38 389.857 319.653 389.351 320.2C388.857 320.747 388.611 321.54 388.611 322.58V328H386.111V317.32H388.491V318.68C388.891 318.2 389.391 317.833 389.991 317.58C390.591 317.327 391.257 317.2 391.991 317.2C392.791 317.2 393.497 317.353 394.111 317.66C394.737 317.953 395.231 318.393 395.591 318.98C396.031 318.42 396.597 317.987 397.291 317.68C397.984 317.36 398.751 317.2 399.591 317.2ZM412.063 328.14C410.983 328.14 410.01 327.907 409.143 327.44C408.276 326.973 407.596 326.327 407.103 325.5C406.623 324.66 406.383 323.713 406.383 322.66C406.383 321.607 406.623 320.667 407.103 319.84C407.596 319.013 408.276 318.367 409.143 317.9C410.01 317.433 410.983 317.2 412.063 317.2C413.156 317.2 414.136 317.433 415.003 317.9C415.87 318.367 416.543 319.013 417.023 319.84C417.516 320.667 417.763 321.607 417.763 322.66C417.763 323.713 417.516 324.66 417.023 325.5C416.543 326.327 415.87 326.973 415.003 327.44C414.136 327.907 413.156 328.14 412.063 328.14ZM412.063 326C412.983 326 413.743 325.693 414.343 325.08C414.943 324.467 415.243 323.66 415.243 322.66C415.243 321.66 414.943 320.853 414.343 320.24C413.743 319.627 412.983 319.32 412.063 319.32C411.143 319.32 410.383 319.627 409.783 320.24C409.196 320.853 408.903 321.66 408.903 322.66C408.903 323.66 409.196 324.467 409.783 325.08C410.383 325.693 411.143 326 412.063 326ZM422.534 318.88C423.254 317.76 424.52 317.2 426.334 317.2V319.58C426.12 319.54 425.927 319.52 425.754 319.52C424.78 319.52 424.02 319.807 423.474 320.38C422.927 320.94 422.654 321.753 422.654 322.82V328H420.154V317.32H422.534V318.88ZM438.397 322.72C438.397 322.893 438.383 323.14 438.357 323.46H429.977C430.123 324.247 430.503 324.873 431.117 325.34C431.743 325.793 432.517 326.02 433.437 326.02C434.61 326.02 435.577 325.633 436.337 324.86L437.677 326.4C437.197 326.973 436.59 327.407 435.857 327.7C435.123 327.993 434.297 328.14 433.377 328.14C432.203 328.14 431.17 327.907 430.277 327.44C429.383 326.973 428.69 326.327 428.197 325.5C427.717 324.66 427.477 323.713 427.477 322.66C427.477 321.62 427.71 320.687 428.177 319.86C428.657 319.02 429.317 318.367 430.157 317.9C430.997 317.433 431.943 317.2 432.997 317.2C434.037 317.2 434.963 317.433 435.777 317.9C436.603 318.353 437.243 319 437.697 319.84C438.163 320.667 438.397 321.627 438.397 322.72ZM432.997 319.2C432.197 319.2 431.517 319.44 430.957 319.92C430.41 320.387 430.077 321.013 429.957 321.8H436.017C435.91 321.027 435.583 320.4 435.037 319.92C434.49 319.44 433.81 319.2 432.997 319.2ZM446.326 317.32H448.826V328H446.326V317.32ZM447.586 315.56C447.132 315.56 446.752 315.42 446.446 315.14C446.139 314.847 445.986 314.487 445.986 314.06C445.986 313.633 446.139 313.28 446.446 313C446.752 312.707 447.132 312.56 447.586 312.56C448.039 312.56 448.419 312.7 448.726 312.98C449.032 313.247 449.186 313.587 449.186 314C449.186 314.44 449.032 314.813 448.726 315.12C448.432 315.413 448.052 315.56 447.586 315.56ZM458.167 317.2C459.513 317.2 460.593 317.593 461.407 318.38C462.22 319.167 462.627 320.333 462.627 321.88V328H460.127V322.2C460.127 321.267 459.907 320.567 459.467 320.1C459.027 319.62 458.4 319.38 457.587 319.38C456.667 319.38 455.94 319.66 455.407 320.22C454.873 320.767 454.607 321.56 454.607 322.6V328H452.107V317.32H454.487V318.7C454.9 318.207 455.42 317.833 456.047 317.58C456.673 317.327 457.38 317.2 458.167 317.2ZM470.138 315.04C469.085 315.04 468.558 315.613 468.558 316.76V317.4H471.498V319.4H468.638V328H466.138V319.4H464.378V317.4H466.138V316.72C466.138 315.573 466.472 314.673 467.138 314.02C467.805 313.353 468.745 313.02 469.958 313.02C470.918 313.02 471.672 313.213 472.218 313.6L471.518 315.48C471.092 315.187 470.632 315.04 470.138 315.04ZM477.825 328.14C476.745 328.14 475.771 327.907 474.905 327.44C474.038 326.973 473.358 326.327 472.865 325.5C472.385 324.66 472.145 323.713 472.145 322.66C472.145 321.607 472.385 320.667 472.865 319.84C473.358 319.013 474.038 318.367 474.905 317.9C475.771 317.433 476.745 317.2 477.825 317.2C478.918 317.2 479.898 317.433 480.765 317.9C481.631 318.367 482.305 319.013 482.785 319.84C483.278 320.667 483.525 321.607 483.525 322.66C483.525 323.713 483.278 324.66 482.785 325.5C482.305 326.327 481.631 326.973 480.765 327.44C479.898 327.907 478.918 328.14 477.825 328.14ZM477.825 326C478.745 326 479.505 325.693 480.105 325.08C480.705 324.467 481.005 323.66 481.005 322.66C481.005 321.66 480.705 320.853 480.105 320.24C479.505 319.627 478.745 319.32 477.825 319.32C476.905 319.32 476.145 319.627 475.545 320.24C474.958 320.853 474.665 321.66 474.665 322.66C474.665 323.66 474.958 324.467 475.545 325.08C476.145 325.693 476.905 326 477.825 326ZM496.343 328.14C495.236 328.14 494.243 327.907 493.363 327.44C492.483 326.973 491.796 326.327 491.303 325.5C490.809 324.66 490.563 323.713 490.563 322.66C490.563 321.607 490.809 320.667 491.303 319.84C491.796 319.013 492.476 318.367 493.343 317.9C494.223 317.433 495.223 317.2 496.343 317.2C497.396 317.2 498.316 317.413 499.103 317.84C499.903 318.267 500.503 318.88 500.903 319.68L498.983 320.8C498.676 320.307 498.289 319.94 497.823 319.7C497.369 319.447 496.869 319.32 496.323 319.32C495.389 319.32 494.616 319.627 494.003 320.24C493.389 320.84 493.083 321.647 493.083 322.66C493.083 323.673 493.383 324.487 493.983 325.1C494.596 325.7 495.376 326 496.323 326C496.869 326 497.369 325.88 497.823 325.64C498.289 325.387 498.676 325.013 498.983 324.52L500.903 325.64C500.489 326.44 499.883 327.06 499.083 327.5C498.296 327.927 497.383 328.14 496.343 328.14ZM507.708 328.14C506.628 328.14 505.654 327.907 504.788 327.44C503.921 326.973 503.241 326.327 502.748 325.5C502.268 324.66 502.028 323.713 502.028 322.66C502.028 321.607 502.268 320.667 502.748 319.84C503.241 319.013 503.921 318.367 504.788 317.9C505.654 317.433 506.628 317.2 507.708 317.2C508.801 317.2 509.781 317.433 510.648 317.9C511.514 318.367 512.188 319.013 512.668 319.84C513.161 320.667 513.408 321.607 513.408 322.66C513.408 323.713 513.161 324.66 512.668 325.5C512.188 326.327 511.514 326.973 510.648 327.44C509.781 327.907 508.801 328.14 507.708 328.14ZM507.708 326C508.628 326 509.388 325.693 509.988 325.08C510.588 324.467 510.888 323.66 510.888 322.66C510.888 321.66 510.588 320.853 509.988 320.24C509.388 319.627 508.628 319.32 507.708 319.32C506.788 319.32 506.028 319.627 505.428 320.24C504.841 320.853 504.548 321.66 504.548 322.66C504.548 323.66 504.841 324.467 505.428 325.08C506.028 325.693 506.788 326 507.708 326ZM529.278 317.2C530.625 317.2 531.692 317.593 532.478 318.38C533.265 319.153 533.658 320.32 533.658 321.88V328H531.158V322.2C531.158 321.267 530.952 320.567 530.538 320.1C530.125 319.62 529.532 319.38 528.758 319.38C527.918 319.38 527.245 319.66 526.738 320.22C526.232 320.767 525.978 321.553 525.978 322.58V328H523.478V322.2C523.478 321.267 523.272 320.567 522.858 320.1C522.445 319.62 521.852 319.38 521.078 319.38C520.225 319.38 519.545 319.653 519.038 320.2C518.545 320.747 518.298 321.54 518.298 322.58V328H515.798V317.32H518.178V318.68C518.578 318.2 519.078 317.833 519.678 317.58C520.278 317.327 520.945 317.2 521.678 317.2C522.478 317.2 523.185 317.353 523.798 317.66C524.425 317.953 524.918 318.393 525.278 318.98C525.718 318.42 526.285 317.987 526.978 317.68C527.672 317.36 528.438 317.2 529.278 317.2ZM536.853 317.32H539.353V328H536.853V317.32ZM538.113 315.56C537.66 315.56 537.28 315.42 536.973 315.14C536.666 314.847 536.513 314.487 536.513 314.06C536.513 313.633 536.666 313.28 536.973 313C537.28 312.707 537.66 312.56 538.113 312.56C538.566 312.56 538.946 312.7 539.253 312.98C539.56 313.247 539.713 313.587 539.713 314C539.713 314.44 539.56 314.813 539.253 315.12C538.96 315.413 538.58 315.56 538.113 315.56ZM548.694 317.2C550.041 317.2 551.121 317.593 551.934 318.38C552.747 319.167 553.154 320.333 553.154 321.88V328H550.654V322.2C550.654 321.267 550.434 320.567 549.994 320.1C549.554 319.62 548.927 319.38 548.114 319.38C547.194 319.38 546.467 319.66 545.934 320.22C545.401 320.767 545.134 321.56 545.134 322.6V328H542.634V317.32H545.014V318.7C545.427 318.207 545.947 317.833 546.574 317.58C547.201 317.327 547.907 317.2 548.694 317.2ZM567.023 317.32V326.38C567.023 330.14 565.103 332.02 561.263 332.02C560.237 332.02 559.263 331.887 558.343 331.62C557.423 331.367 556.663 330.993 556.063 330.5L557.183 328.62C557.65 329.007 558.237 329.313 558.943 329.54C559.663 329.78 560.39 329.9 561.123 329.9C562.297 329.9 563.157 329.633 563.703 329.1C564.25 328.567 564.523 327.753 564.523 326.66V326.1C564.097 326.567 563.577 326.92 562.963 327.16C562.35 327.4 561.677 327.52 560.943 327.52C559.93 327.52 559.01 327.307 558.183 326.88C557.37 326.44 556.723 325.827 556.243 325.04C555.777 324.253 555.543 323.353 555.543 322.34C555.543 321.327 555.777 320.433 556.243 319.66C556.723 318.873 557.37 318.267 558.183 317.84C559.01 317.413 559.93 317.2 560.943 317.2C561.717 317.2 562.417 317.327 563.043 317.58C563.683 317.833 564.217 318.22 564.643 318.74V317.32H567.023ZM561.323 325.4C562.27 325.4 563.043 325.12 563.643 324.56C564.257 323.987 564.563 323.247 564.563 322.34C564.563 321.447 564.257 320.72 563.643 320.16C563.043 319.6 562.27 319.32 561.323 319.32C560.363 319.32 559.577 319.6 558.963 320.16C558.363 320.72 558.063 321.447 558.063 322.34C558.063 323.247 558.363 323.987 558.963 324.56C559.577 325.12 560.363 325.4 561.323 325.4ZM579.137 328.14C578.271 328.14 577.424 328.027 576.597 327.8C575.771 327.573 575.111 327.287 574.617 326.94L575.577 325.04C576.057 325.36 576.631 325.62 577.297 325.82C577.977 326.007 578.644 326.1 579.297 326.1C580.791 326.1 581.537 325.707 581.537 324.92C581.537 324.547 581.344 324.287 580.957 324.14C580.584 323.993 579.977 323.853 579.137 323.72C578.257 323.587 577.537 323.433 576.977 323.26C576.431 323.087 575.951 322.787 575.537 322.36C575.137 321.92 574.937 321.313 574.937 320.54C574.937 319.527 575.357 318.72 576.197 318.12C577.051 317.507 578.197 317.2 579.637 317.2C580.371 317.2 581.104 317.287 581.837 317.46C582.571 317.62 583.171 317.84 583.637 318.12L582.677 320.02C581.771 319.487 580.751 319.22 579.617 319.22C578.884 319.22 578.324 319.333 577.937 319.56C577.564 319.773 577.377 320.06 577.377 320.42C577.377 320.82 577.577 321.107 577.977 321.28C578.391 321.44 579.024 321.593 579.877 321.74C580.731 321.873 581.431 322.027 581.977 322.2C582.524 322.373 582.991 322.667 583.377 323.08C583.777 323.493 583.977 324.08 583.977 324.84C583.977 325.84 583.544 326.64 582.677 327.24C581.811 327.84 580.631 328.14 579.137 328.14ZM590.93 328.14C589.85 328.14 588.877 327.907 588.01 327.44C587.144 326.973 586.464 326.327 585.97 325.5C585.49 324.66 585.25 323.713 585.25 322.66C585.25 321.607 585.49 320.667 585.97 319.84C586.464 319.013 587.144 318.367 588.01 317.9C588.877 317.433 589.85 317.2 590.93 317.2C592.024 317.2 593.004 317.433 593.87 317.9C594.737 318.367 595.41 319.013 595.89 319.84C596.384 320.667 596.63 321.607 596.63 322.66C596.63 323.713 596.384 324.66 595.89 325.5C595.41 326.327 594.737 326.973 593.87 327.44C593.004 327.907 592.024 328.14 590.93 328.14ZM590.93 326C591.85 326 592.61 325.693 593.21 325.08C593.81 324.467 594.11 323.66 594.11 322.66C594.11 321.66 593.81 320.853 593.21 320.24C592.61 319.627 591.85 319.32 590.93 319.32C590.01 319.32 589.25 319.627 588.65 320.24C588.064 320.853 587.77 321.66 587.77 322.66C587.77 323.66 588.064 324.467 588.65 325.08C589.25 325.693 590.01 326 590.93 326ZM603.821 328.14C602.741 328.14 601.768 327.907 600.901 327.44C600.034 326.973 599.354 326.327 598.861 325.5C598.381 324.66 598.141 323.713 598.141 322.66C598.141 321.607 598.381 320.667 598.861 319.84C599.354 319.013 600.034 318.367 600.901 317.9C601.768 317.433 602.741 317.2 603.821 317.2C604.914 317.2 605.894 317.433 606.761 317.9C607.628 318.367 608.301 319.013 608.781 319.84C609.274 320.667 609.521 321.607 609.521 322.66C609.521 323.713 609.274 324.66 608.781 325.5C608.301 326.327 607.628 326.973 606.761 327.44C605.894 327.907 604.914 328.14 603.821 328.14ZM603.821 326C604.741 326 605.501 325.693 606.101 325.08C606.701 324.467 607.001 323.66 607.001 322.66C607.001 321.66 606.701 320.853 606.101 320.24C605.501 319.627 604.741 319.32 603.821 319.32C602.901 319.32 602.141 319.627 601.541 320.24C600.954 320.853 600.661 321.66 600.661 322.66C600.661 323.66 600.954 324.467 601.541 325.08C602.141 325.693 602.901 326 603.821 326ZM617.971 317.2C619.318 317.2 620.398 317.593 621.211 318.38C622.025 319.167 622.431 320.333 622.431 321.88V328H619.931V322.2C619.931 321.267 619.711 320.567 619.271 320.1C618.831 319.62 618.205 319.38 617.391 319.38C616.471 319.38 615.745 319.66 615.211 320.22C614.678 320.767 614.411 321.56 614.411 322.6V328H611.911V317.32H614.291V318.7C614.705 318.207 615.225 317.833 615.851 317.58C616.478 317.327 617.185 317.2 617.971 317.2ZM625.283 314H628.243L627.743 323.36H625.763L625.283 314ZM626.763 328.14C626.296 328.14 625.91 327.993 625.603 327.7C625.296 327.393 625.143 327.02 625.143 326.58C625.143 326.14 625.296 325.773 625.603 325.48C625.91 325.187 626.296 325.04 626.763 325.04C627.216 325.04 627.59 325.187 627.883 325.48C628.19 325.773 628.343 326.14 628.343 326.58C628.343 327.02 628.19 327.393 627.883 327.7C627.59 327.993 627.216 328.14 626.763 328.14Z" fill="white"/>
<path d="M368.725 167C366.459 167 364.74 166.922 363.568 166.766C362.396 166.59 361.4 166.385 360.58 166.15C359.389 165.857 358.363 165.711 357.504 165.711C356.879 165.711 356.371 165.77 355.98 165.887C355.59 165.984 355.062 166.033 354.398 166.033C353.578 166.033 352.924 165.496 352.436 164.422C351.967 163.348 351.635 161.99 351.439 160.35C351.244 158.982 351.146 157.693 351.146 156.482C351.166 154.607 351.439 153.24 351.967 152.381C352.494 151.502 353.148 151.062 353.93 151.062C354.34 151.062 354.73 151.16 355.102 151.355C355.473 151.531 355.766 151.795 355.98 152.146C356.293 152.674 356.596 153.309 356.889 154.051C357.768 156.102 359.135 157.635 360.99 158.65C362.865 159.666 364.877 160.174 367.025 160.174C368.197 160.174 369.281 160.037 370.277 159.764C371.273 159.49 372.074 159.07 372.68 158.504C373.285 157.938 373.588 157.225 373.588 156.365C373.588 155.447 373.295 154.607 372.709 153.846C372.143 153.084 371.391 152.381 370.453 151.736C369.535 151.072 368.822 150.604 368.314 150.33C367.826 150.057 367.338 149.92 366.85 149.92C366.186 149.92 365.268 150.105 364.096 150.477C363.939 150.516 363.793 150.555 363.656 150.594C363.52 150.613 363.412 150.623 363.334 150.623C362.865 150.623 362.523 150.408 362.309 149.979L361.928 148.895C361.752 148.289 361.586 147.84 361.43 147.547C361.273 147.234 361.029 146.961 360.697 146.727C360.443 146.551 359.721 146.121 358.529 145.438C356.283 144.188 354.496 142.801 353.168 141.277C351.84 139.734 351.156 137.859 351.117 135.652C351.156 130.789 353.07 127.361 356.859 125.369C359.906 123.748 363.988 122.938 369.105 122.938C371.391 122.938 373.119 123.025 374.291 123.201C375.482 123.377 376.469 123.572 377.25 123.787C378.461 124.08 379.486 124.227 380.326 124.227C380.951 124.227 381.459 124.178 381.85 124.08C382.24 123.963 382.768 123.904 383.432 123.904C384.213 123.904 384.838 124.412 385.307 125.428C385.795 126.443 386.146 127.664 386.361 129.09C386.576 130.516 386.684 131.912 386.684 133.279C386.664 135.271 386.391 136.707 385.863 137.586C385.355 138.445 384.701 138.875 383.9 138.875C383.158 138.875 382.562 138.611 382.113 138.084C381.684 137.557 381.303 136.824 380.971 135.887C380.424 134.441 379.584 133.26 378.451 132.342C377.338 131.424 376.078 130.76 374.672 130.35C373.266 129.92 371.879 129.705 370.512 129.705C369.613 129.705 368.676 129.832 367.699 130.086C366.723 130.34 365.893 130.779 365.209 131.404C364.545 132.01 364.213 132.85 364.213 133.924C364.213 135.232 364.857 136.453 366.146 137.586C367.064 138.406 367.846 138.982 368.49 139.314C369.135 139.627 369.779 139.783 370.424 139.783C370.99 139.783 371.508 139.695 371.977 139.52C372.445 139.324 373.08 139.207 373.881 139.168C374.076 139.168 374.262 139.236 374.438 139.373C374.613 139.49 374.73 139.646 374.789 139.842C375.043 140.76 375.258 141.443 375.434 141.893C375.629 142.322 375.873 142.654 376.166 142.889C376.479 143.104 376.947 143.367 377.572 143.68C378.061 143.934 378.705 144.285 379.506 144.734C381.693 145.945 383.422 147.293 384.691 148.777C385.98 150.262 386.645 152.107 386.684 154.314C386.645 159.119 384.701 162.527 380.854 164.539C377.768 166.18 373.725 167 368.725 167ZM409.945 167.586C406.234 167.566 403.197 166.902 400.834 165.594C398.49 164.266 396.625 162.361 395.238 159.881C393.871 157.381 392.787 154.354 391.986 150.799C391.732 149.686 391.596 148.934 391.576 148.543C391.537 148.289 391.498 148.094 391.459 147.957C391.42 147.82 391.332 147.684 391.195 147.547C391.078 147.41 390.873 147.205 390.58 146.932C390.287 146.658 389.838 146.219 389.232 145.613C389.057 145.418 388.969 145.203 388.969 144.969C388.969 144.734 389.057 144.52 389.232 144.324C389.818 143.738 390.258 143.309 390.551 143.035C390.863 142.762 391.078 142.557 391.195 142.42C391.332 142.264 391.42 142.117 391.459 141.98C391.498 141.844 391.537 141.648 391.576 141.395C391.596 141.004 391.732 140.252 391.986 139.139C392.787 135.584 393.871 132.566 395.238 130.086C396.625 127.586 398.49 125.682 400.834 124.373C403.197 123.045 406.234 122.371 409.945 122.352C411.527 122.352 413.09 122.488 414.633 122.762L416.039 122.996C416.703 123.133 417.24 123.201 417.65 123.201C418.139 123.201 418.607 123.191 419.057 123.172C419.506 123.152 419.984 123.143 420.492 123.143C421.215 123.143 421.82 123.406 422.309 123.934C422.797 124.441 423.158 125.418 423.393 126.863C423.646 128.309 423.773 130.447 423.773 133.279C423.773 135.174 423.461 136.717 422.836 137.908C422.23 139.1 421.391 139.695 420.316 139.695C419.848 139.695 419.379 139.49 418.91 139.08C418.461 138.67 418.109 138.025 417.855 137.146C417.426 135.447 416.977 134.002 416.508 132.811C416.039 131.619 415.385 130.711 414.545 130.086C413.705 129.441 412.475 129.119 410.854 129.119C408.881 129.119 407.191 129.988 405.785 131.727C404.379 133.465 403.646 136.004 403.588 139.344C403.588 140.555 403.783 141.492 404.174 142.156C404.564 142.801 404.955 143.309 405.346 143.68C405.561 143.914 405.736 144.129 405.873 144.324C406.029 144.52 406.107 144.725 406.107 144.939C406.107 145.174 406.029 145.398 405.873 145.613C405.736 145.809 405.561 146.023 405.346 146.258C404.936 146.668 404.535 147.195 404.145 147.84C403.773 148.484 403.588 149.402 403.588 150.594C403.666 153.934 404.398 156.473 405.785 158.211C407.191 159.949 408.881 160.818 410.854 160.818C412.475 160.818 413.705 160.506 414.545 159.881C415.385 159.256 416.039 158.348 416.508 157.156C416.977 155.965 417.426 154.52 417.855 152.82C418.109 151.922 418.461 151.268 418.91 150.857C419.379 150.447 419.848 150.242 420.316 150.242C421.391 150.242 422.23 150.838 422.836 152.029C423.461 153.221 423.773 154.764 423.773 156.658C423.773 159.471 423.646 161.609 423.393 163.074C423.158 164.52 422.797 165.506 422.309 166.033C421.82 166.541 421.215 166.795 420.492 166.795C419.984 166.795 419.506 166.785 419.057 166.766C418.607 166.746 418.139 166.736 417.65 166.736C417.24 166.736 416.703 166.805 416.039 166.941L414.633 167.176C413.09 167.449 411.527 167.586 409.945 167.586ZM467.104 167H454.564C453.021 167 452.201 166.453 452.104 165.359C452.104 164.852 452.348 164.295 452.836 163.689C453.578 162.83 454.105 162.059 454.418 161.375C454.75 160.691 454.916 159.9 454.916 159.002V152.029C454.916 150.857 454.789 150.008 454.535 149.48C454.301 148.953 453.754 148.631 452.895 148.514C452.055 148.377 450.717 148.309 448.881 148.309C447.084 148.309 445.766 148.377 444.926 148.514C444.086 148.631 443.549 148.943 443.314 149.451C443.08 149.959 442.963 150.809 442.963 152V159.002C442.963 159.9 443.119 160.691 443.432 161.375C443.764 162.059 444.301 162.83 445.043 163.689C445.531 164.314 445.775 164.881 445.775 165.389C445.775 165.877 445.551 166.268 445.102 166.561C444.672 166.854 444.076 167 443.314 167H430.775C429.232 167 428.412 166.453 428.314 165.359C428.314 164.852 428.559 164.295 429.047 163.689C429.789 162.83 430.316 162.059 430.629 161.375C430.961 160.672 431.127 159.881 431.127 159.002V148.982C431.127 148.65 431.098 148.367 431.039 148.133C431 147.898 430.883 147.664 430.688 147.43C430.434 147.117 429.828 146.512 428.871 145.613C428.695 145.418 428.607 145.203 428.607 144.969C428.607 144.734 428.695 144.52 428.871 144.324C429.828 143.406 430.434 142.801 430.688 142.508C430.883 142.273 431 142.039 431.039 141.805C431.098 141.551 431.127 141.268 431.127 140.955V130.965C431.127 130.066 430.961 129.275 430.629 128.592C430.316 127.889 429.789 127.107 429.047 126.248C428.539 125.623 428.285 125.066 428.285 124.578C428.285 124.09 428.51 123.699 428.959 123.406C429.408 123.094 430.014 122.938 430.775 122.938H443.314C444.838 122.938 445.658 123.484 445.775 124.578C445.775 125.066 445.531 125.623 445.043 126.248C444.301 127.107 443.764 127.879 443.432 128.562C443.119 129.246 442.963 130.047 442.963 130.965V137.938C442.963 139.129 443.061 139.988 443.256 140.516C443.471 141.023 443.939 141.336 444.662 141.453C445.385 141.57 446.508 141.629 448.031 141.629H449.848C451.371 141.629 452.494 141.57 453.217 141.453C453.939 141.336 454.398 141.023 454.594 140.516C454.809 140.008 454.916 139.168 454.916 137.996V130.965C454.916 130.047 454.75 129.246 454.418 128.562C454.105 127.879 453.578 127.107 452.836 126.248C452.328 125.623 452.074 125.066 452.074 124.578C452.074 124.09 452.299 123.699 452.748 123.406C453.197 123.094 453.803 122.938 454.564 122.938H467.104C468.627 122.938 469.447 123.484 469.564 124.578C469.564 125.066 469.32 125.623 468.832 126.248C468.09 127.107 467.553 127.889 467.221 128.592C466.908 129.275 466.752 130.066 466.752 130.965V140.838C466.752 141.404 466.82 141.824 466.957 142.098C467.094 142.352 467.396 142.693 467.865 143.123C468.158 143.416 468.539 143.816 469.008 144.324C469.164 144.5 469.252 144.715 469.271 144.969C469.271 145.203 469.184 145.418 469.008 145.613L468.1 146.492C467.709 146.883 467.406 147.195 467.191 147.43C466.996 147.664 466.869 147.898 466.811 148.133C466.771 148.348 466.752 148.621 466.752 148.953V159.002C466.752 159.881 466.908 160.672 467.221 161.375C467.553 162.059 468.09 162.83 468.832 163.689C469.32 164.314 469.564 164.881 469.564 165.389C469.564 165.877 469.34 166.268 468.891 166.561C468.461 166.854 467.865 167 467.104 167ZM503.021 167H476.566C475.043 167 474.223 166.463 474.105 165.389C474.105 164.881 474.359 164.314 474.867 163.689C475.609 162.85 476.137 162.078 476.449 161.375C476.762 160.672 476.918 159.881 476.918 159.002V149.012C476.918 148.66 476.889 148.367 476.83 148.133C476.771 147.879 476.645 147.635 476.449 147.4C476.254 147.146 475.941 146.824 475.512 146.434L474.691 145.613C474.516 145.398 474.428 145.193 474.428 144.998C474.428 144.725 474.516 144.5 474.691 144.324L475.512 143.504C475.941 143.113 476.254 142.801 476.449 142.566C476.645 142.312 476.771 142.068 476.83 141.834C476.889 141.58 476.918 141.277 476.918 140.926V130.965C476.918 130.066 476.762 129.266 476.449 128.562C476.137 127.859 475.609 127.088 474.867 126.248C474.359 125.623 474.105 125.066 474.105 124.578C474.105 124.09 474.32 123.699 474.75 123.406C475.199 123.094 475.805 122.938 476.566 122.938H502.318C503.646 122.938 504.477 123.162 504.809 123.611C505.141 124.061 505.434 125.086 505.688 126.688C505.902 127.996 506.312 129.852 506.918 132.254C506.977 132.469 507.006 132.664 507.006 132.84C507.006 133.406 506.82 133.865 506.449 134.217C506.078 134.549 505.688 134.715 505.277 134.715C504.535 134.715 503.92 134.441 503.432 133.895C502.963 133.328 502.543 132.703 502.172 132.02C501.82 131.414 501.449 130.887 501.059 130.438C500.668 129.988 500.219 129.754 499.711 129.734H490.072C489.525 129.734 489.164 129.822 488.988 129.998C488.832 130.174 488.754 130.545 488.754 131.111V140.457C488.754 141.199 488.871 141.678 489.105 141.893C489.34 142.107 489.848 142.215 490.629 142.215H492.562C493.441 142.215 494.379 142.117 495.375 141.922C496.371 141.707 497.318 141.229 498.217 140.486C498.842 139.998 499.398 139.754 499.887 139.754C500.375 139.754 500.766 139.979 501.059 140.428C501.371 140.857 501.527 141.453 501.527 142.215V147.723C501.527 149.246 500.98 150.076 499.887 150.213C499.398 150.213 498.842 149.959 498.217 149.451C497.318 148.709 496.371 148.24 495.375 148.045C494.379 147.83 493.441 147.723 492.562 147.723H490.629C489.848 147.723 489.34 147.83 489.105 148.045C488.871 148.24 488.754 148.719 488.754 149.48V158.709C488.754 159.334 488.832 159.744 488.988 159.939C489.145 160.115 489.496 160.203 490.043 160.203H500.414C500.922 160.184 501.371 159.949 501.762 159.5C502.152 159.051 502.523 158.523 502.875 157.918C503.246 157.234 503.666 156.619 504.135 156.072C504.623 155.506 505.238 155.223 505.98 155.223C506.391 155.223 506.781 155.398 507.152 155.75C507.523 156.082 507.709 156.531 507.709 157.098C507.709 157.273 507.68 157.469 507.621 157.684C507.016 160.086 506.605 161.941 506.391 163.25C506.137 164.852 505.844 165.877 505.512 166.326C505.18 166.775 504.35 167 503.021 167ZM531.674 167H513.51C512.748 167 512.143 166.854 511.693 166.561C511.244 166.268 511.02 165.877 511.02 165.389C511.02 164.881 511.273 164.314 511.781 163.689C512.523 162.83 513.051 162.059 513.363 161.375C513.695 160.672 513.861 159.881 513.861 159.002V149.686C513.861 149.08 513.832 148.621 513.773 148.309C513.734 147.977 513.607 147.684 513.393 147.43C513.197 147.176 512.885 146.844 512.455 146.434L511.605 145.613C511.43 145.398 511.342 145.193 511.342 144.998C511.342 144.725 511.43 144.5 511.605 144.324L512.455 143.475C512.885 143.084 513.197 142.771 513.393 142.537C513.607 142.283 513.734 142.029 513.773 141.775C513.832 141.521 513.861 141.219 513.861 140.867V130.965C513.861 130.066 513.695 129.275 513.363 128.592C513.051 127.889 512.523 127.107 511.781 126.248C511.273 125.623 511.02 125.066 511.02 124.578C511.02 124.09 511.244 123.699 511.693 123.406C512.143 123.094 512.748 122.938 513.51 122.938H531.674C535.189 122.938 537.982 123.553 540.053 124.783C542.123 126.014 543.744 127.84 544.916 130.262C546.107 132.664 547.074 135.633 547.816 139.168L548.139 140.75C548.217 141.219 548.295 141.58 548.373 141.834C548.471 142.088 548.627 142.342 548.842 142.596L550.541 144.324C550.717 144.52 550.805 144.734 550.805 144.969C550.805 145.203 550.717 145.418 550.541 145.613C549.857 146.297 549.35 146.785 549.018 147.078C548.783 147.293 548.617 147.459 548.52 147.576C548.344 147.752 548.236 148.045 548.197 148.455C548.178 148.846 548.031 149.666 547.758 150.916C546.977 154.432 545.99 157.381 544.799 159.764C543.627 162.146 542.016 163.953 539.965 165.184C537.934 166.395 535.17 167 531.674 167ZM530.473 161.258C531.742 161.258 532.787 160.945 533.607 160.32C535.033 159.207 536.107 157.312 536.83 154.637C537.064 153.738 537.357 152.479 537.709 150.857C537.982 149.744 538.119 148.924 538.119 148.396C538.119 148.006 538.021 147.674 537.826 147.4C537.631 147.127 537.289 146.775 536.801 146.346L536.068 145.613C535.893 145.418 535.805 145.203 535.805 144.969C535.805 144.734 535.893 144.52 536.068 144.324L536.859 143.533C537.328 143.123 537.66 142.791 537.855 142.537C538.051 142.264 538.148 141.932 538.148 141.541C538.148 141.072 538.041 140.379 537.826 139.461C537.455 137.703 537.182 136.473 537.006 135.77C536.693 134.559 536.283 133.416 535.775 132.342C534.584 129.9 532.816 128.68 530.473 128.68C529.73 128.68 528.988 128.816 528.246 129.09C526.547 129.715 525.697 131.004 525.697 132.957C525.697 137.059 525.688 139.627 525.668 140.662C525.668 141.131 525.707 141.502 525.785 141.775C525.883 142.049 526.068 142.342 526.342 142.654C526.557 142.908 527.094 143.465 527.953 144.324C528.129 144.5 528.217 144.725 528.217 144.998C528.217 145.193 528.129 145.398 527.953 145.613C527.27 146.297 526.771 146.814 526.459 147.166C526.146 147.518 525.941 147.83 525.844 148.104C525.746 148.377 525.697 148.729 525.697 149.158V156.98C525.697 158.035 525.932 158.875 526.4 159.5C526.889 160.125 527.504 160.574 528.246 160.848C528.988 161.121 529.73 161.258 530.473 161.258ZM573.949 167.586H572.689C571.186 167.586 569.623 167.449 568.002 167.176C566.381 166.902 564.818 166.463 563.314 165.857C561.811 165.252 560.453 164.451 559.242 163.455C558.031 162.459 557.064 161.238 556.342 159.793C555.619 158.348 555.258 156.639 555.258 154.666V149.246C555.258 148.758 555.229 148.387 555.17 148.133C555.111 147.879 554.984 147.635 554.789 147.4C554.594 147.166 554.301 146.854 553.91 146.463L553.031 145.613C552.855 145.418 552.768 145.203 552.768 144.969C552.768 144.734 552.855 144.52 553.031 144.324L553.939 143.445C554.33 143.074 554.613 142.771 554.789 142.537C554.984 142.303 555.111 142.059 555.17 141.805C555.229 141.551 555.258 141.17 555.258 140.662V130.965C555.258 130.047 555.102 129.246 554.789 128.562C554.477 127.879 553.949 127.107 553.207 126.248C552.699 125.623 552.445 125.066 552.445 124.578C552.445 124.09 552.66 123.699 553.09 123.406C553.539 123.094 554.145 122.938 554.906 122.938H567.445C569.008 122.938 569.838 123.484 569.936 124.578C569.936 125.066 569.682 125.623 569.174 126.248C568.432 127.107 567.895 127.879 567.562 128.562C567.25 129.246 567.094 130.047 567.094 130.965V140.604C567.094 141.111 567.123 141.502 567.182 141.775C567.24 142.029 567.367 142.273 567.562 142.508C567.758 142.742 568.051 143.055 568.441 143.445L569.35 144.324C569.525 144.52 569.613 144.734 569.613 144.969C569.613 145.203 569.525 145.418 569.35 145.613L568.471 146.492C568.061 146.863 567.758 147.176 567.562 147.43C567.367 147.664 567.24 147.918 567.182 148.191C567.123 148.445 567.094 148.836 567.094 149.363V154.695C567.094 155.906 567.387 156.971 567.973 157.889C568.559 158.787 569.32 159.49 570.258 159.998C571.215 160.486 572.23 160.73 573.305 160.73C574.398 160.73 575.414 160.486 576.352 159.998C577.309 159.49 578.07 158.787 578.637 157.889C579.223 156.971 579.516 155.906 579.516 154.695V149.246C579.516 148.758 579.486 148.387 579.428 148.133C579.369 147.879 579.242 147.635 579.047 147.4C578.852 147.166 578.559 146.854 578.168 146.463L577.289 145.613C577.113 145.418 577.025 145.203 577.025 144.969C577.025 144.734 577.113 144.52 577.289 144.324L578.168 143.475C578.559 143.084 578.852 142.771 579.047 142.537C579.242 142.303 579.369 142.059 579.428 141.805C579.486 141.551 579.516 141.18 579.516 140.691V130.965C579.516 130.047 579.359 129.246 579.047 128.562C578.734 127.879 578.207 127.107 577.465 126.248C576.957 125.623 576.703 125.066 576.703 124.578C576.703 124.09 576.918 123.699 577.348 123.406C577.797 123.094 578.402 122.938 579.164 122.938H591.703C593.266 122.938 594.096 123.484 594.193 124.578C594.193 125.066 593.939 125.623 593.432 126.248C592.689 127.107 592.152 127.879 591.82 128.562C591.508 129.246 591.352 130.047 591.352 130.965V140.545C591.352 141.072 591.371 141.473 591.41 141.746C591.469 142.02 591.586 142.273 591.762 142.508C591.957 142.723 592.25 143.016 592.641 143.387L593.607 144.324C593.783 144.52 593.871 144.734 593.871 144.969C593.871 145.203 593.783 145.418 593.607 145.613L592.729 146.492C592.318 146.863 592.016 147.176 591.82 147.43C591.625 147.664 591.498 147.918 591.439 148.191C591.381 148.445 591.352 148.836 591.352 149.363V154.666C591.352 156.639 590.99 158.348 590.268 159.793C589.545 161.238 588.578 162.459 587.367 163.455C586.176 164.451 584.818 165.252 583.295 165.857C581.791 166.463 580.229 166.902 578.607 167.176C577.006 167.449 575.453 167.586 573.949 167.586ZM625.834 167H600.58C599.057 167 598.236 166.463 598.119 165.389C598.119 164.881 598.363 164.314 598.852 163.689C599.594 162.83 600.121 162.059 600.434 161.375C600.766 160.672 600.932 159.881 600.932 159.002V149.012C600.932 148.66 600.902 148.367 600.844 148.133C600.785 147.879 600.658 147.635 600.463 147.4C600.268 147.146 599.955 146.824 599.525 146.434L598.705 145.613C598.529 145.398 598.441 145.193 598.441 144.998C598.441 144.725 598.529 144.5 598.705 144.324C598.881 144.148 599.047 143.992 599.203 143.855C599.75 143.367 600.141 142.986 600.375 142.713C600.629 142.439 600.785 142.146 600.844 141.834C600.902 141.6 600.932 141.287 600.932 140.896V130.965C600.932 130.066 600.766 129.275 600.434 128.592C600.121 127.889 599.594 127.107 598.852 126.248C598.363 125.623 598.119 125.066 598.119 124.578C598.119 124.09 598.334 123.699 598.764 123.406C599.213 123.094 599.818 122.938 600.58 122.938H613.119C614.643 122.938 615.473 123.484 615.609 124.578C615.609 125.066 615.355 125.623 614.848 126.248C614.105 127.107 613.568 127.889 613.236 128.592C612.924 129.275 612.768 130.066 612.768 130.965V140.867C612.768 141.219 612.787 141.521 612.826 141.775C612.885 142.029 613.012 142.283 613.207 142.537C613.422 142.771 613.744 143.084 614.174 143.475L615.023 144.324C615.199 144.5 615.287 144.725 615.287 144.998C615.287 145.193 615.199 145.398 615.023 145.613L614.174 146.463C613.744 146.854 613.422 147.176 613.207 147.43C613.012 147.664 612.885 147.908 612.826 148.162C612.787 148.416 612.768 148.719 612.768 149.07V158.826C612.768 159.393 612.846 159.764 613.002 159.939C613.158 160.115 613.51 160.203 614.057 160.203H623.256C623.764 160.184 624.203 159.959 624.574 159.529C624.965 159.08 625.326 158.553 625.658 157.947C626.049 157.264 626.488 156.639 626.977 156.072C627.465 155.506 628.08 155.223 628.822 155.223C629.232 155.223 629.623 155.398 629.994 155.75C630.365 156.082 630.551 156.531 630.551 157.098C630.551 157.273 630.521 157.469 630.463 157.684C629.857 160.086 629.447 161.941 629.232 163.25C628.979 164.852 628.676 165.877 628.324 166.326C627.992 166.775 627.162 167 625.834 167ZM661.693 167H635.238C633.715 167 632.895 166.463 632.777 165.389C632.777 164.881 633.031 164.314 633.539 163.689C634.281 162.85 634.809 162.078 635.121 161.375C635.434 160.672 635.59 159.881 635.59 159.002V149.012C635.59 148.66 635.561 148.367 635.502 148.133C635.443 147.879 635.316 147.635 635.121 147.4C634.926 147.146 634.613 146.824 634.184 146.434L633.363 145.613C633.188 145.398 633.1 145.193 633.1 144.998C633.1 144.725 633.188 144.5 633.363 144.324L634.184 143.504C634.613 143.113 634.926 142.801 635.121 142.566C635.316 142.312 635.443 142.068 635.502 141.834C635.561 141.58 635.59 141.277 635.59 140.926V130.965C635.59 130.066 635.434 129.266 635.121 128.562C634.809 127.859 634.281 127.088 633.539 126.248C633.031 125.623 632.777 125.066 632.777 124.578C632.777 124.09 632.992 123.699 633.422 123.406C633.871 123.094 634.477 122.938 635.238 122.938H660.99C662.318 122.938 663.148 123.162 663.48 123.611C663.812 124.061 664.105 125.086 664.359 126.688C664.574 127.996 664.984 129.852 665.59 132.254C665.648 132.469 665.678 132.664 665.678 132.84C665.678 133.406 665.492 133.865 665.121 134.217C664.75 134.549 664.359 134.715 663.949 134.715C663.207 134.715 662.592 134.441 662.104 133.895C661.635 133.328 661.215 132.703 660.844 132.02C660.492 131.414 660.121 130.887 659.73 130.438C659.34 129.988 658.891 129.754 658.383 129.734H648.744C648.197 129.734 647.836 129.822 647.66 129.998C647.504 130.174 647.426 130.545 647.426 131.111V140.457C647.426 141.199 647.543 141.678 647.777 141.893C648.012 142.107 648.52 142.215 649.301 142.215H651.234C652.113 142.215 653.051 142.117 654.047 141.922C655.043 141.707 655.99 141.229 656.889 140.486C657.514 139.998 658.07 139.754 658.559 139.754C659.047 139.754 659.438 139.979 659.73 140.428C660.043 140.857 660.199 141.453 660.199 142.215V147.723C660.199 149.246 659.652 150.076 658.559 150.213C658.07 150.213 657.514 149.959 656.889 149.451C655.99 148.709 655.043 148.24 654.047 148.045C653.051 147.83 652.113 147.723 651.234 147.723H649.301C648.52 147.723 648.012 147.83 647.777 148.045C647.543 148.24 647.426 148.719 647.426 149.48V158.709C647.426 159.334 647.504 159.744 647.66 159.939C647.816 160.115 648.168 160.203 648.715 160.203H659.086C659.594 160.184 660.043 159.949 660.434 159.5C660.824 159.051 661.195 158.523 661.547 157.918C661.918 157.234 662.338 156.619 662.807 156.072C663.295 155.506 663.91 155.223 664.652 155.223C665.062 155.223 665.453 155.398 665.824 155.75C666.195 156.082 666.381 156.531 666.381 157.098C666.381 157.273 666.352 157.469 666.293 157.684C665.688 160.086 665.277 161.941 665.062 163.25C664.809 164.852 664.516 165.877 664.184 166.326C663.852 166.775 663.021 167 661.693 167Z" fill="white"/>
<path d="M719.302 119.263C719.834 117.579 722.166 117.579 722.698 119.263L727.37 134.043C727.608 134.796 728.294 135.306 729.068 135.306H744.212C745.938 135.306 746.659 137.559 745.265 138.6L732.994 147.764C732.373 148.228 732.113 149.047 732.349 149.795L737.032 164.609C737.563 166.291 735.676 167.683 734.28 166.64L722.053 157.509C721.426 157.04 720.574 157.04 719.947 157.509L707.72 166.64C706.324 167.683 704.437 166.291 704.968 164.609L709.651 149.795C709.887 149.047 709.627 148.228 709.006 147.764L696.735 138.6C695.341 137.559 696.062 135.306 697.788 135.306H712.932C713.706 135.306 714.392 134.796 714.63 134.043L719.302 119.263Z" fill="#FFDB59"/>
<path d="M294.302 119.263C294.834 117.579 297.166 117.579 297.698 119.263L302.37 134.043C302.608 134.796 303.294 135.306 304.068 135.306H319.212C320.938 135.306 321.659 137.559 320.265 138.6L307.994 147.764C307.373 148.228 307.113 149.047 307.349 149.795L312.032 164.609C312.563 166.291 310.676 167.683 309.28 166.64L297.053 157.509C296.426 157.04 295.574 157.04 294.947 157.509L282.72 166.64C281.324 167.683 279.437 166.291 279.968 164.609L284.651 149.795C284.887 149.047 284.627 148.228 284.006 147.764L271.735 138.6C270.341 137.559 271.062 135.306 272.788 135.306H287.932C288.706 135.306 289.392 134.796 289.63 134.043L294.302 119.263Z" fill="#FFDB59"/>
<path d="M781.22 735.5C772.456 735.5 761.288 714.517 763.22 714C766.956 713 779.164 723.963 778.958 723C777.461 716 777.22 701.502 780.218 703C784.218 705 785.956 710 787.717 710C789.479 710 791.525 701 794.218 701C796.91 701 792.456 735.5 781.22 735.5Z" fill="#D5EEAB" stroke="#D5EEAB" stroke-width="2" stroke-linecap="square"/>
<path d="M190.607 57.9643L155.753 61.0352L177.612 101.069L190.607 57.9643Z" fill="#FF5F72"/>
<path d="M280.125 36.2006L247.114 47.8001L278.199 81.1805L280.125 36.2006Z" fill="#72CFE4"/>
<path d="M97.9132 59.4252L63.1284 55.6504L76.7735 99.1745L97.9132 59.4252Z" fill="#FFDB59"/>
<path d="M236.116 49.9645L201.836 56.9747L228.101 94.2665L236.116 49.9645Z" fill="#FFDB59"/>
<path d="M52.2734 52.8611L18.3232 44.3985L25.9326 89.3722L52.2734 52.8611Z" fill="#FF5F72"/>
<path d="M322.24 17.1881L290.761 32.4623L325.437 62.0955L322.24 17.1881Z" fill="#FF5F72"/>
<path d="M144.11 60.4404L109.122 60.6414L127.622 102.334L144.11 60.4404Z" fill="#72CFE4"/>
<path fill-rule="evenodd" clip-rule="evenodd" d="M162.472 61.2078C99.3791 64.91 38.5856 56.0051 1.12992 38.0191L1.96674 36.4593C38.5733 54.0376 99.5773 62.9016 162.297 59.2213C224.998 55.5421 291.253 39.4391 337.848 7.13668L338.827 8.28363C291.397 41.1642 225.585 57.5044 162.472 61.2078Z" fill="#2A6F97"/>
<path d="M860.242 61.0504L825.388 57.9766L839.907 101.217L860.242 61.0504Z" fill="#72CFE4"/>
<path d="M952.187 55.2815L917.656 60.9274L942.422 99.231L952.187 55.2815Z" fill="#FFDB59"/>
<path d="M768.722 46.2728L735.134 36.4711L740.955 81.711L768.722 46.2728Z" fill="#FF5F72"/>
<path d="M906.451 61.1354L871.474 62.0407L890.81 103.352L906.451 61.1354Z" fill="#FF5F72"/>
<path d="M724.935 31.8256L692.989 17.5543L692.613 63.1656L724.935 31.8256Z" fill="#72CFE4"/>
<path d="M996.978 43.9308L963.312 53.4626L992.269 88.705L996.978 43.9308Z" fill="#72CFE4"/>
<path d="M814.027 55.3539L779.543 49.431L790.465 93.7169L814.027 55.3539Z" fill="#FFDB59"/>
<path fill-rule="evenodd" clip-rule="evenodd" d="M831.975 59.322C769.207 51.9297 710.909 32.5269 677.178 8.2658L678.274 6.87646C711.241 30.5875 769.754 49.9869 832.151 57.3354C894.528 64.6818 962.578 60.4177 1014.11 36.7647L1014.87 38.0651C962.418 62.1414 894.763 66.7165 831.975 59.322Z" fill="#2A6F97"/>
<path d="M525.303 44.7704H490.314L508.575 86.5684L525.303 44.7704Z" fill="#FFDB59"/>
<path d="M616.382 30.9454L582.481 39.6029L610.516 75.5827L616.382 30.9454Z" fill="#FF5F72"/>
<path d="M432.836 38.0895L398.517 31.2764L408.29 75.8301L432.836 38.0895Z" fill="#72CFE4"/>
<path d="M571.338 40.7959L536.575 44.7704L559.466 84.2235L571.338 40.7959Z" fill="#72CFE4"/>
<path d="M387.948 27.5447L354.872 16.1351L358.504 61.603L387.948 27.5447Z" fill="#FFDB59"/>
<path d="M660.005 15.703L627.307 28.1555L659.248 60.7177L660.005 15.703Z" fill="#FFDB59"/>
<path d="M478.764 43.155L443.893 40.2845L458.663 83.4397L478.764 43.155Z" fill="#FF5F72"/>
<path fill-rule="evenodd" clip-rule="evenodd" d="M496.991 45.5311C433.816 43.6816 374.039 29.4755 338.306 8.27152L339.277 6.79121C374.199 27.5144 434.19 41.6983 496.991 43.5369C559.772 45.3749 627.185 35.149 676.436 7.06069L677.31 8.28906C627.177 36.8801 560.185 47.3812 496.991 45.5311Z" fill="#2A6F97"/>
<defs>
<linearGradient id="paint0_linear_2139_321" x1="806.543" y1="648" x2="806.543" y2="727.882" gradientUnits="userSpaceOnUse">
<stop stop-color="#CB9D64"/>
<stop offset="1" stop-color="#E4A14E"/>
</linearGradient>
<linearGradient id="paint1_linear_2139_321" x1="203.543" y1="648" x2="203.543" y2="727.882" gradientUnits="userSpaceOnUse">
<stop stop-color="#CB9D64"/>
<stop offset="1" stop-color="#E4A14E"/>
</linearGradient>
<linearGradient id="paint2_linear_2139_321" x1="507" y1="0" x2="507" y2="657" gradientUnits="userSpaceOnUse">
<stop stop-color="#CB9D64"/>
<stop offset="1" stop-color="#E4A14E"/>
</linearGradient>
</defs>
</svg>
